<?xml version="1.0" encoding="utf-8"?>
<!-- Generator: Adobe Illustrator 16.0.0, SVG Export Plug-In . SVG Version: 6.00 Build 0)  -->
<!DOCTYPE svg PUBLIC "-//W3C//DTD SVG 1.1//EN" "http://www.w3.org/Graphics/SVG/1.1/DTD/svg11.dtd">
<svg version="1.1" id="Слой_1" xmlns="http://www.w3.org/2000/svg" xmlns:xlink="http://www.w3.org/1999/xlink" x="0px" y="0px"
	 width="1000px" height="1000px" viewBox="0 0 1000 1000" enable-background="new 0 0 1000 1000" xml:space="preserve">
<g>
	<path fill="none" d="M327.077,483.737c43.944,40.773,92.731,55.572,114.804,55.572c22.069,0,70.858-14.799,114.802-55.572
		c34.877-32.357,76.448-90.692,76.448-184.839c0-17.166-0.272-34.4-1.135-51.29c-214.025,47.486-257.62-58.259-257.62-58.259
		c-73.142-1.558-107.151,33.581-122.874,63.989c-0.647,15.047-0.869,30.33-0.872,45.56
		C250.63,393.044,292.201,451.379,327.077,483.737z"/>
	<path d="M441.879,571.889c66.793,0,223.832-80.383,223.832-272.993c0.004-150.769-20.348-272.989-223.832-272.989
		c-203.478,0-223.831,122.22-223.831,272.991C218.049,491.505,375.088,571.889,441.879,571.889z M251.502,253.338
		c15.723-30.408,49.732-65.547,122.874-63.989c0,0,43.595,105.745,257.62,58.259c0.862,16.89,1.135,34.125,1.135,51.29
		c0,94.146-41.571,152.481-76.448,184.839c-43.943,40.773-92.732,55.572-114.802,55.572c-22.072,0-70.86-14.799-114.804-55.572
		c-34.876-32.357-76.447-90.692-76.447-184.839C250.633,283.668,250.854,268.385,251.502,253.338z"/>
	<path d="M596,810.5c0-83.791,58.05-161.765,136.663-179.654c-47.357-27.558-113.198-62.351-150.018-82.022
		l-0.831-0.442c-5.487-2.932-12.187-2.345-17.082,1.497c-25.147,19.743-52.695,33.049-81.877,39.548
		c-8.198,3.409-53.736,6.089-81.951,0c-29.181-6.499-56.729-19.805-81.876-39.548c-4.894-3.842-11.594-4.432-17.082-1.497
		c-47.434,25.348-161.229,86.632-193.334,108.272c-54.317,36.592-78.069,169.028-82.278,195.206
		c-0.418,2.598-0.174,5.252,0.701,7.729C28.978,865.076,78.829,994,441.879,994c112.758,0,188.338-7.688,248.621-25
		C634.865,939.129,596,877.729,596,810.5z"/>
</g>
<path d="M794.544,638.566c-93.371,0-169.805,76.453-169.805,169.797c0,93.371,76.434,169.818,169.805,169.818
	c93.357,0,169.806-76.447,169.806-169.818C964.35,715.02,887.902,638.566,794.544,638.566 M879.439,825.381h-67.892v67.906h-34.007
	v-67.906h-67.905v-34.008h67.905v-67.904h34.007v67.904h67.892V825.381L879.439,825.381z"/>
</svg>
