<?xml version="1.0" encoding="UTF-8" standalone="no"?>
<!-- Generator: Adobe Illustrator 15.0.0, SVG Export Plug-In . SVG Version: 6.00 Build 0)  -->

<svg
   xmlns:dc="http://purl.org/dc/elements/1.1/"
   xmlns:cc="http://creativecommons.org/ns#"
   xmlns:rdf="http://www.w3.org/1999/02/22-rdf-syntax-ns#"
   xmlns:svg="http://www.w3.org/2000/svg"
   xmlns="http://www.w3.org/2000/svg"
   xmlns:sodipodi="http://sodipodi.sourceforge.net/DTD/sodipodi-0.dtd"
   xmlns:inkscape="http://www.inkscape.org/namespaces/inkscape"
   version="1.1"
   id="Слой_1"
   x="0px"
   y="0px"
   width="1000px"
   height="1000px"
   viewBox="0 0 1000 1000"
   enable-background="new 0 0 1000 1000"
   xml:space="preserve"
   inkscape:version="0.91 r13725"
   sodipodi:docname="add_house.svg"><metadata
     id="metadata9"><rdf:RDF><cc:Work
         rdf:about=""><dc:format>image/svg+xml</dc:format><dc:type
           rdf:resource="http://purl.org/dc/dcmitype/StillImage" /><dc:title /></cc:Work></rdf:RDF></metadata><defs
     id="defs7" /><sodipodi:namedview
     pagecolor="#ffffff"
     bordercolor="#666666"
     borderopacity="1"
     objecttolerance="10"
     gridtolerance="10"
     guidetolerance="10"
     inkscape:pageopacity="0"
     inkscape:pageshadow="2"
     inkscape:window-width="1280"
     inkscape:window-height="995"
     id="namedview5"
     showgrid="false"
     inkscape:zoom="0.236"
     inkscape:cx="525.42374"
     inkscape:cy="500"
     inkscape:window-x="1280"
     inkscape:window-y="0"
     inkscape:window-maximized="1"
     inkscape:current-layer="Слой_1" /><path
     d="m 236.24712,598.95984 0,264.72141 191.11468,0 0,-176.48118 191.10146,0 0,176.48042 191.10806,0 0,-264.72065 L 522.91336,400.41611 236.24712,598.95984 Z M 522.91336,223.2278 140.69392,497.20659 l 0,111.70935 382.21944,-273.98566 382.2186,273.98566 0,-111.7025 -382.2186,-273.98564 z"
     id="path3"
     inkscape:connector-curvature="0" /><path
     style="fill:#ffffff;stroke:none;stroke-width:1px;stroke-linecap:butt;stroke-linejoin:miter;stroke-opacity:1"
     d="m 800.95015,958.46149 c -30.2908,-8.1399 -52.764,-21.6257 -76.9646,-46.1852 -80.7588,-81.95678 -54.6007,-218.57166 51.4382,-268.64427 20.4872,-9.67428 28.6954,-11.0049 67.8857,-11.0049 41.7085,0 46.3779,0.88483 72.4788,13.73424 139.35755,68.60549 118.30635,273.13943 -32.1446,312.31663 -30.8036,8.0212 -52.2475,7.9651 -82.6935,-0.2165 z m 59.2193,-107.61403 0,-33.8983 33.8983,0 33.8983,0 0,-19.0678 0,-19.0678 -33.8983,0 -33.8983,0 0,-33.8983 0,-33.89831 -16.9491,0 -16.9492,0 0,33.72695 0,33.72693 -34.9576,1.23069 -34.9576,1.23069 0,16.94915 0,16.94915 34.9576,1.23069 34.9576,1.23069 0,33.72694 0,33.72694 16.9492,0 16.9491,0 0,-33.89831 z"
     id="path3372"
     inkscape:connector-curvature="0" /><path
     d="m 806.77963,854.10692 0,-39.11345 -34.74576,0 -34.74576,0 0,-17.1121 0,-17.11215 34.74576,0 34.74576,0 0,-39.11342 0,-39.11343 17.37293,0 17.37282,0 0,39.11343 0,39.11342 34.74576,0 34.74576,0 0,17.11215 0,17.1121 -34.74576,0 -34.74576,0 0,39.11345 0,39.11343 -17.37282,0 -17.37293,0 0,-39.11343 z"
     id="path3376"
     inkscape:connector-curvature="0" /></svg>