<?xml version="1.0" encoding="utf-8"?>
<!-- Generator: Adobe Illustrator 16.0.0, SVG Export Plug-In . SVG Version: 6.00 Build 0)  -->
<!DOCTYPE svg PUBLIC "-//W3C//DTD SVG 1.1//EN" "http://www.w3.org/Graphics/SVG/1.1/DTD/svg11.dtd">
<svg version="1.1" id="Слой_1" xmlns="http://www.w3.org/2000/svg" xmlns:xlink="http://www.w3.org/1999/xlink" x="0px" y="0px"
	 width="1000px" height="1000px" viewBox="0 0 1000 1000" enable-background="new 0 0 1000 1000" xml:space="preserve">
<g>
	<circle fill="#007abf" cx="497.143" cy="499" r="490"/>
	<path fill="#FFFFFF" d="M343.613,528.488c0,0-0.113-9.001-0.113-25.201s0.113-25.199,0.113-25.199h130.499V346.689
		c0,0,9.688-0.189,25.888-0.189c16.199,0,24.512,0.189,24.512,0.189v131.399H655.91c0,0,0.122,8.212,0.09,24.412
		c-0.033,16.501-0.09,25.988-0.09,25.988H524.512v130.498c0,0-8.313-0.049-24.512-0.049c-16.2,0-25.888,0.049-25.888,0.049V528.488
		H343.613z"/>
</g>
</svg>
