<?xml version="1.0" encoding="utf-8"?>
<!-- Generator: Adobe Illustrator 15.0.0, SVG Export Plug-In . SVG Version: 6.00 Build 0)  -->
<!DOCTYPE svg PUBLIC "-//W3C//DTD SVG 1.1//EN" "http://www.w3.org/Graphics/SVG/1.1/DTD/svg11.dtd">
<svg version="1.1" id="Слой_1" xmlns="http://www.w3.org/2000/svg" xmlns:xlink="http://www.w3.org/1999/xlink" x="0px" y="0px"
	 width="1000px" height="1000px" viewBox="0 0 1000 1000" enable-background="new 0 0 1000 1000" xml:space="preserve">
<g>
	<polygon points="455.058,258.084 242.516,432.364 242.516,481.844 452.415,307.594 687.977,481.844
		687.977,432.364 455.075,258.084 455.066,258.084 	"/>
	<path d="M641.227,672.551v23.552H626.68V478.872h13.976V452.75H619l-164.662-121.1L295.423,455.722h-19.219v26.122
		h15.794v214.259h-15.463v-195.24h-15.798v-10.994l-33.722,27.979v-88.703l67.51-55.228H61.028L37.316,515.99v180.113H25.725v68.164
		h684.26C678.018,742.258,653.516,710.101,641.227,672.551z M141.44,660.947H62.877v-42.971h78.563V660.947z M141.44,592.328H62.877
		v-43.01h78.563V592.328z M252.463,660.947h-78.464v-42.971h78.464V660.947z M252.463,592.328h-78.464v-43.01h78.464V592.328z
		 M457.444,384.918c17.198,0,31.049,13.996,31.049,31.06c0,17.187-13.852,31.156-31.049,31.156
		c-17.181,0-31.176-13.969-31.176-31.156C426.267,398.914,440.263,384.918,457.444,384.918z M583.829,696.103h-17.304V499.953
		h-223.08v196.15h-15.584V481.845h14.996v-10.085h231.228v7.113h9.744V696.103z"/>
	<path d="M655.32,480.59v17.29h-14.093v64.787c7.918-24.191,20.898-46.151,37.689-64.597L655.32,480.59z"/>
	<path d="M867.712,449.197l-12.574-75.395H629.314l73.327,54.896v47.597c29.969-22.947,67.354-36.631,107.777-36.631
		C830.438,439.664,849.712,443.023,867.712,449.197z"/>
	<path d="M455.066,258.077l0.009,0.007h5.111v-66.115c10.076,5.284,33.11,14.106,52.604-2.847
		c25.541-22.344,52.712,0,52.712,0v-59.121c0,0-5.933-3.646-14.194-6.375h-29.842c-3.082,1.454-6.021,3.482-8.676,6.375
		c-15.011,16.16-41.579,7.086-52.604,2.274v-2.407h-9.933v128.216h4.805L455.066,258.077z"/>
	<polygon points="455.058,258.084 455.066,258.084 455.075,258.084 455.066,258.077 	"/>
</g>
<path d="M819.376,458.65c-88.184,0-160.371,72.208-160.371,160.366c0,88.184,72.188,160.384,160.371,160.384
	c88.171,0,160.372-72.2,160.372-160.384C979.748,530.857,907.547,458.65,819.376,458.65 M899.556,635.087h-64.121v64.133h-32.116
	v-64.133h-64.135v-32.118h64.135v-64.133h32.116v64.133h64.121V635.087z"/>
</svg>
