<?xml version="1.0" encoding="utf-8"?>
<!-- Generator: Adobe Illustrator 16.0.0, SVG Export Plug-In . SVG Version: 6.00 Build 0)  -->
<!DOCTYPE svg PUBLIC "-//W3C//DTD SVG 1.1//EN" "http://www.w3.org/Graphics/SVG/1.1/DTD/svg11.dtd">
<svg version="1.1" id="Слой_1" xmlns="http://www.w3.org/2000/svg" xmlns:xlink="http://www.w3.org/1999/xlink" x="0px" y="0px"
	 width="1000px" height="1000px" viewBox="0 0 1000 1000" enable-background="new 0 0 1000 1000" xml:space="preserve">
<path  d="M981.347,270.492l-58.748,54.405l25.458,27.491c8.614,9.299,8.06,23.824-1.246,32.433l-75.589,70.001
	c-4.468,4.139-10.396,6.333-16.479,6.099c-6.083-0.233-11.826-2.87-15.965-7.345l-97.025-104.771L321.884,737.628L418.91,842.4
	c8.614,9.299,8.057,23.821-1.246,32.433l-75.588,70c-4.654,4.309-10.609,6.324-16.482,6.099c-5.87-0.226-11.652-2.691-15.964-7.345
	l-25.452-27.483l-58.75,54.403c-4.652,4.31-10.605,6.324-16.479,6.099c-5.872-0.227-11.654-2.688-15.961-7.345l-55.975-60.438
	l-12.481,11.554c-4.654,4.313-10.606,6.325-16.478,6.101c-5.873-0.226-11.655-2.689-15.962-7.346l-35.564-38.399
	c-8.615-9.3-8.059-23.821,1.246-32.435l12.488-11.561l-55.965-60.426c-4.133-4.471-6.327-10.393-6.093-16.481
	c0.235-6.084,2.875-11.824,7.337-15.959l58.756-54.407l-25.458-27.488c-4.132-4.47-6.329-10.395-6.095-16.477
	c0.235-6.083,2.877-11.825,7.342-15.957l75.593-70.004c9.305-8.613,23.827-8.052,32.438,1.246l97.02,104.77l419.87-388.823
	L577.98,171.96c-4.137-4.469-6.327-10.394-6.094-16.476c0.233-6.083,2.879-11.823,7.339-15.958l75.595-70
	c9.309-8.616,23.828-8.059,32.438,1.245l25.454,27.485l58.751-54.404c9.309-8.616,23.827-8.054,32.438,1.246l55.974,60.439
	l12.481-11.558c9.304-8.614,23.82-8.057,32.436,1.246l35.562,38.4c8.617,9.298,8.062,23.823-1.245,32.435l-12.484,11.562
	l55.971,60.441C991.208,247.357,990.653,261.881,981.347,270.492z"/>
<path  d="M816.193,632.942c-93.371,0-169.805,76.453-169.805,169.798c0,93.371,76.434,169.817,169.805,169.817
	C909.551,972.558,986,896.111,986,802.74C986,709.396,909.553,632.942,816.193,632.942 M901.09,819.758h-67.893v67.904h-34.006
	v-67.904h-67.906V785.75h67.906v-67.905h34.006v67.905h67.893V819.758L901.09,819.758z"/>
</svg>
