<?xml version="1.0" encoding="utf-8"?>
<!-- Generator: Adobe Illustrator 15.0.0, SVG Export Plug-In . SVG Version: 6.00 Build 0)  -->
<!DOCTYPE svg PUBLIC "-//W3C//DTD SVG 1.1//EN" "http://www.w3.org/Graphics/SVG/1.1/DTD/svg11.dtd">
<svg version="1.1" id="Слой_1" xmlns="http://www.w3.org/2000/svg" xmlns:xlink="http://www.w3.org/1999/xlink" x="0px" y="0px"
	 width="1000px" height="1000px" viewBox="0 0 1000 1000" enable-background="new 0 0 1000 1000" xml:space="preserve">
<g>
	<path d="M816.573,436.606c-93.371,0-169.804,76.454-169.804,169.798c0,93.371,76.433,169.818,169.804,169.818
		c93.358,0,169.806-76.447,169.806-169.818C986.379,513.061,909.932,436.606,816.573,436.606 M901.469,623.422h-67.892v67.905
		H799.57v-67.905h-67.905v-34.008h67.905v-67.905h34.007v67.905h67.892V623.422z"/>
	<path d="M365.544,358.867c0-40.228,14.104-77.103-16.951-98.077c-18.604-12.706-100.587-18.605-124.861-18.605
		c-28.774,0-66.104,23.378-86.483,40.601c-25.399,21.504-5.402,40.356-5.402,76.082c0,64.63,52.305,116.93,116.927,116.93
		C313.259,475.797,365.544,423.497,365.544,358.867 M165.885,361.636c0-4.906,0.788-9.562,1.384-14.223
		c21.492-3.892,36.086,3.278,36.086,3.278l35.859-17.479c0,0-18.261,26.404-1.774,17.479c36.462-12.334,77.181-7.17,98.065-3.158
		c0.747,4.541,1.396,9.197,1.396,14.103c0,48.03-38.237,87-85.491,87C204.122,448.636,165.885,409.666,165.885,361.636"/>
	<path d="M486.28,329.814c-3.025,9.68-5.032,19.885-5.667,30.305c-111.66,19.486-99.318,132.634-31.18,134.521
		c-6.549-58.96,21.631-94.556,32.438-106.005c10.056,61.133,62.867,108.024,126.734,108.024c22.631,0,43.87-5.914,62.304-16.262
		c11.071-12.202,23.638-22.982,37.542-31.948c11.667-14.544,20.34-31.647,24.883-50.386c4.21,7.556,9.587,18.413,14.247,31.251
		c19.587-6.938,40.602-10.897,62.572-10.897c0.092,0,0.185,0.014,0.263,0.014c-12.884-28.22-41.408-54.823-74.195-60.698
		c-0.504-6.29-1.007-12.585-2.384-18.632c-4.529-38.712-39.223-117.55-138.554-115.167
		C509.408,225.975,490.67,290.478,486.28,329.814 M548.26,331.443c0,0,10.938,3.768,10.938,39.62
		c18.978,6.661,51.924-55.598,51.924-55.598v49.037c21.001,5.655,87-1.861,87-1.861l2.411,2.119c0.105,1.021,0.357,2.02,0.357,3.145
		c0,50.916-41.488,92.293-92.285,92.293c-50.161,0-91.028-40.356-92.167-90.299C534.807,363.257,548.26,331.443,548.26,331.443"/>
	<path d="M164.501,613.874l2.522,77.042l178.314-2.647l0.49-70.914l72.792,74.938l15.103,20.367l2.265-2.635
		l2.37,2.384l6.415-12.568l88.02-100.681l5.655,44.852l-17.73,39.516l117.154-1.987c-10.064-23.014-15.72-48.4-15.72-75.123
		c0-33.781,9.032-65.389,24.618-92.787h-9.627h-99.448l-98.94,119.101L330.857,500.168H176.446L14.771,677.581l33.966,35.079
		L164.501,613.874z"/>
</g>
</svg>
