<?xml version="1.0" encoding="utf-8"?>
<!-- Generator: Adobe Illustrator 16.0.0, SVG Export Plug-In . SVG Version: 6.00 Build 0)  -->
<!DOCTYPE svg PUBLIC "-//W3C//DTD SVG 1.1//EN" "http://www.w3.org/Graphics/SVG/1.1/DTD/svg11.dtd">
<svg version="1.1" id="Layer_1" xmlns="http://www.w3.org/2000/svg" xmlns:xlink="http://www.w3.org/1999/xlink" x="0px" y="0px"
	 width="1000px" height="1000px" viewBox="0 0 1000 1000" enable-background="new 0 0 1000 1000" xml:space="preserve">
<g>
	<path d="M535,581c-161,0-345.546,0-505,0c0,27,0,27,0,53h26c0,54,0,106.68,0,187c160,0,292,0,451,0c0-80.32,0-133,0-187h28
		C535,608,535,608,535,581z"/>
	<path d="M773,501c28,0,28,0,28,0c0-26,0-26,0-52c-80,0-160,0-239,0c0,26,0,26,0,52c26,0,79,0,133,0c0,18.635,0,36.377,0,53.83
		c23.098-13.699,49.668-22.089,78-23.438C773,522.842,773,513.426,773,501z"/>
	<path d="M641,605.394c0-15.692,0-32.388,0-50.394c27,0,27,0,27,0v-26c-80,0-161,0-240,0v26c27,0,79,0,134,0c0,53,0,79,0,107h-27
		c0,26,0,53,0,79c20.07,0,53.948,0,81.109,0c-3.134-12.843-4.809-26.24-4.809-40.01C611.301,665.616,622.285,632.674,641,605.394z"
		/>
	<path d="M394.471,523.055c-0.131-35.49-43.026-68.196-82.499-43.344c-8.548,5.371-17.823,14.663-26.708,14.61
		c-9.196-0.052-18.328-7.937-27.512-12.659c-5.267-2.698-10.39-6.641-15.916-7.314c-33.129-4.047-56.918,7.354-64.183,36.151
		c-3.956,15.669-2.671,44.501-3.761,44.501c74.741,0,147.615,0,220.579,0C394.471,555,394.522,535.145,394.471,523.055z"/>
	<path d="M447.289,414.421c-7.056,4.593-14.839,7.939-22.025,12.298c-4.279,2.568-7.729,2.646-12.141,0.103
		c-10.844-6.355-22-12.296-33.182-18.185c-6.809-3.581-17.005-2.517-18.432,1.893c-5.28,16.189-14.632,29.524-28.822,41.068
		c2.282,0.337,2.984,0.545,3.684,0.545c32.118-0.519,55.167,14.372,71.123,41.611c1.271,2.128,4.851,4.048,7.367,4.048
		c35.671,0.311,71.29,0.234,106.988,0.207c2.36,0,4.695-0.285,8.611-0.545c-1.295-17.096-1.036-33.596-4.072-49.473
		C520.813,418.675,480.107,392.798,447.289,414.421z"/>
	<path d="M467.552,396c2.827,0,4.279,0,5.707,0c29.887,0,51.937,8.665,66.983,33.959c2.775,4.724,5.734-0.762,11.077-0.813
		c30.925-0.234,61.9-7.146,92.902-7.146c6.097,0,12.271,0,19.12,0c0,0,0.518-21.119-0.104-33.44
		c-1.997-39.46-46.204-65.17-80.526-44.052c-7.628,4.669-15.721,9.52-23.349,14.084c-4.021,2.426-7.316,3.113-11.493,0.649
		c-10.455-6.135-20.963-12.083-31.986-17.024c-5.061-2.283-11.597-2.54-17.122-1.736c-2.259,0.311-3.349,6.489-5.501,9.575
		c-6.952,10.093-14.166,25.566-21.325,35.515C470.898,387.011,469.548,396,467.552,396z"/>
	<path d="M281.372,445.397c32.376,1.998,59.06-22.104,61.304-55.389c2.139-31.312-22.48-58.059-55.557-60.419
		c-30.562-2.167-57.944,22.557-60.188,54.337C224.701,415.822,249.113,443.373,281.372,445.397z"/>
	<path d="M418.986,378.01c32.636,0,58.242-25.345,58.242-57.657c-0.053-32.235-25.917-57.905-58.242-57.827
		c-32.376,0.078-57.904,25.826-57.748,58.216C361.406,352.82,386.817,378.01,418.986,378.01z"/>
	<path d="M553.656,311.077c32.091-0.115,57.645-25.617,57.645-57.553c0-32.559-25.348-58.255-57.645-58.41
		c-32.014-0.156-58.086,25.877-58.086,58.059C495.57,285.473,521.383,311.182,553.656,311.077z"/>
</g>
<path d="M800.999,543.92c-93.371,0-169.805,76.453-169.805,169.798c0,93.371,76.434,169.817,169.805,169.817
	c93.357,0,169.807-76.446,169.807-169.817C970.806,620.374,894.358,543.92,800.999,543.92 M885.896,730.735h-67.893v67.905h-34.006
	v-67.905h-67.906v-34.008h67.906v-67.905h34.006v67.905h67.893V730.735L885.896,730.735z"/>
</svg>
