<?xml version="1.0" encoding="utf-8"?>
<!-- Generator: Adobe Illustrator 16.0.0, SVG Export Plug-In . SVG Version: 6.00 Build 0)  -->
<!DOCTYPE svg PUBLIC "-//W3C//DTD SVG 1.1//EN" "http://www.w3.org/Graphics/SVG/1.1/DTD/svg11.dtd">
<svg version="1.1" id="Layer_1" xmlns="http://www.w3.org/2000/svg" xmlns:xlink="http://www.w3.org/1999/xlink" x="0px" y="0px"
	 width="1000px" height="1000px" viewBox="0 0 1000 1000" enable-background="new 0 0 1000 1000" xml:space="preserve">
<g>
	<path d="M492.845,327.546c47.366,0,85.899-38.533,85.899-85.897c0-47.366-38.535-85.9-85.899-85.9
		c-47.354,0-85.879,38.535-85.879,85.9C406.964,289.013,445.49,327.546,492.845,327.546z"/>
	<path d="M628.804,373.236c61.526-56.305,67.771-68.672,71.128-75.32c14.696-29.103,22.08-96.816,23.412-110.094
		c2.013-20.051-12.667-38.003-32.726-40.019c-1.211-0.121-2.437-0.183-3.647-0.183c-18.854,0-34.488,14.145-36.375,32.9
		c-3.091,30.71-9.897,71.232-15.567,83.68c-7.165,10.305-42.091,43.354-78.92,76.221H429.604
		c-36.829-32.872-71.759-65.92-78.924-76.225c-5.67-12.433-12.475-52.955-15.563-83.667c-1.881-18.765-17.504-32.916-36.344-32.916
		c-1.221,0-2.456,0.062-3.677,0.184c-20.061,2.013-34.742,19.967-32.731,40.021c1.33,13.28,8.714,80.999,23.41,110.094
		c3.354,6.642,9.596,19.007,71.134,75.322c17.092,15.642,33.422,30.094,44.057,39.421v401.7c0,20.97,17.059,38.028,38.026,38.028
		c20.97,0,38.028-17.059,38.028-38.028V603.692h24.031v210.665c0,20.97,17.058,38.028,38.027,38.028s38.028-17.059,38.028-38.028
		l-0.127-394.913C585.696,411.857,606.679,393.484,628.804,373.236z"/>
	<path d="M324.847,474.397c-4.046-9.359-13.179-15.387-23.345-15.627c-0.063-0.002-91.935-0.017-92.088-0.017
		c-7.768,0-14.967,3.453-19.814,9.188l-4.879-11.28c-3.653-8.45-11.966-13.908-21.175-13.908c-0.213,0-82.7,0-83.17,0
		c-11.247,0-17.522,5.46-21.173,13.908L14.763,559.425c-2.446,5.652-2.542,11.919-0.276,17.645
		c2.27,5.726,6.632,10.223,12.282,12.665c2.914,1.263,5.989,1.902,9.145,1.902c9.206,0,17.514-5.46,21.167-13.908l9.338-21.596
		V755.1c0,13.998,11.393,25.388,25.394,25.388c13.999,0,25.388-11.39,25.388-25.388V624.733h10.708V755.1
		c0,13.998,11.391,25.388,25.39,25.388c13.999,0,25.39-11.39,25.39-25.388V617.598c1.847-2.055,3.396-4.413,4.53-7.038l10.372-23.99
		c0.044,0.032,0.086,0.071,0.129,0.105v223.369c0,15.743,12.811,28.553,28.557,28.553c15.744,0,28.553-12.81,28.553-28.553V661.866
		h12.042v148.178c0,15.743,12.809,28.553,28.555,28.553c15.744,0,28.554-12.81,28.554-28.553l0.066-216.075l7.175,16.593
		c4.11,9.502,13.457,15.643,23.81,15.643c3.544,0,7.004-0.719,10.282-2.138c6.357-2.746,11.262-7.805,13.814-14.244
		c2.553-6.44,2.44-13.488-0.308-19.844L324.847,474.397z"/>
	<path d="M259.438,449.252c36.037,0,65.353-29.318,65.353-65.355c0-36.035-29.316-65.351-65.353-65.351
		c-36.027,0-65.338,29.316-65.338,65.351C194.1,419.934,223.41,449.252,259.438,449.252z"/>
	<path d="M124.849,434.302c32.042,0,58.108-26.066,58.108-58.107c0-32.04-26.066-58.106-58.108-58.106
		c-32.034,0-58.094,26.068-58.094,58.106C66.757,408.233,92.815,434.302,124.849,434.302z"/>
	<path d="M668.919,387.483c0,36.037,29.315,65.355,65.353,65.355c36.027,0,65.338-29.318,65.338-65.355
		c0-36.035-29.311-65.351-65.338-65.351C698.234,322.132,668.919,351.448,668.919,387.483z"/>
	<path d="M813.854,536.92c40.201,0,77.259,14.186,106.435,37.782v-18.571l9.339,21.596c3.651,8.448,11.962,13.908,21.167,13.908
		c3.156,0,6.23-0.64,9.141-1.9c5.652-2.442,10.017-6.941,12.286-12.667c2.269-5.724,2.172-11.988-0.272-17.641l-44.439-102.763
		c-3.649-8.45-11.962-13.908-21.173-13.908c-0.472,0-82.958,0-83.171,0c-9.21,0-17.52,5.46-21.176,13.908l-4.879,11.282
		c-4.847-5.735-12.047-9.188-19.814-9.188c-0.154,0-92.024,0.017-92.088,0.017c-11.259,0-19.3,6.268-23.345,15.627l-49.979,115.575
		c-2.75,6.357-2.859,13.405-0.308,19.844c2.551,6.439,7.457,11.498,13.813,14.244c3.28,1.419,6.74,2.138,10.284,2.138
		c10.353,0,19.699-6.139,23.81-15.643l7.175-16.593l0.009,28.371C696.072,571.408,751.143,536.92,813.854,536.92z"/>
	<path d="M867.282,434.302c32.034,0,58.095-26.066,58.095-58.107c0-32.04-26.061-58.106-58.095-58.106
		c-32.041,0-58.107,26.068-58.107,58.106C809.173,408.233,835.241,434.302,867.282,434.302z"/>
	<path d="M817.338,552.293c-93.371,0-169.805,76.453-169.805,169.798c0,93.371,76.434,169.817,169.805,169.817
		c93.356,0,169.807-76.446,169.807-169.817C987.145,628.747,910.696,552.293,817.338,552.293 M902.235,739.108h-67.894v67.904
		h-34.006v-67.904H732.43V705.1h67.906v-67.904h34.006v67.905h67.894V739.108L902.235,739.108z"/>
</g>
</svg>
