<?xml version="1.0" encoding="utf-8"?>
<!-- Generator: Adobe Illustrator 15.0.0, SVG Export Plug-In . SVG Version: 6.00 Build 0)  -->
<!DOCTYPE svg PUBLIC "-//W3C//DTD SVG 1.1//EN" "http://www.w3.org/Graphics/SVG/1.1/DTD/svg11.dtd">
<svg version="1.1" id="Слой_1" xmlns="http://www.w3.org/2000/svg" xmlns:xlink="http://www.w3.org/1999/xlink" x="0px" y="0px"
	 width="1000px" height="1000px" viewBox="0 0 1000 1000" enable-background="new 0 0 1000 1000" xml:space="preserve">
<g>
	<path d="M744.962,418.205c-112.02,0-203.717,91.723-203.717,203.71c0,112.019,91.697,203.734,203.717,203.734
		c112.004,0,203.721-91.716,203.721-203.734C948.683,509.928,856.967,418.205,744.962,418.205 M846.815,642.331h-81.452V723.8
		h-40.799v-81.469h-81.468v-40.8h81.468v-81.467h40.799v81.467h81.452V642.331L846.815,642.331z"/>
</g>
<path d="M626.637,298.114H190.006c-14.465,0-26.192,11.728-26.192,26.192c0,14.466,11.725,26.193,26.192,26.193
	h436.631c14.467,0,26.194-11.727,26.194-26.193C652.831,309.842,641.104,298.114,626.637,298.114z"/>
<path d="M371.364,679.291c0,14.465-11.727,26.194-26.192,26.194c-14.463,0-26.191-11.729-26.191-26.194v-29.199
	c0-13.621-11.088-24.698-24.721-24.698h-53.351c-13.625,0-24.709,11.082-24.709,24.698v29.199c0,14.465-11.728,26.194-26.194,26.194
	c-14.468,0-26.192-11.729-26.192-26.194v-29.199c0-42.506,34.585-77.084,77.095-77.084h53.351c42.517,0,77.104,34.58,77.104,77.084
	V679.291z M188.809,481.529c0-43.448,35.342-78.798,78.787-78.798c43.443,0,78.781,35.35,78.781,78.798
	c0,43.444-35.342,78.792-78.781,78.792C224.151,560.321,188.809,524.974,188.809,481.529z M626.637,350.5H190.006
	c-14.468,0-26.192-11.727-26.192-26.193c0-14.464,11.727-26.192,26.192-26.192h436.631c14.467,0,26.194,11.728,26.194,26.192
	C652.831,338.772,641.104,350.5,626.637,350.5z"/>
<g>
	<path d="M267.595,402.731c-43.444,0-78.787,35.35-78.787,78.798c0,43.444,35.342,78.792,78.787,78.792
		c43.439,0,78.781-35.348,78.781-78.792C346.377,438.081,311.038,402.731,267.595,402.731z M267.593,507.934
		c-14.556,0-26.404-11.846-26.404-26.404c0-14.564,11.845-26.412,26.404-26.412c14.556,0,26.395,11.848,26.395,26.412
		C293.988,496.088,282.149,507.934,267.593,507.934z"/>
	<path d="M267.593,455.117c-14.559,0-26.404,11.848-26.404,26.412c0,14.559,11.848,26.404,26.404,26.404
		s26.395-11.846,26.395-26.404C293.988,466.965,282.149,455.117,267.593,455.117z"/>
</g>
<path d="M294.26,573.008h-53.351c-42.51,0-77.095,34.578-77.095,77.084v29.199c0,14.465,11.725,26.194,26.192,26.194
	c14.466,0,26.194-11.729,26.194-26.194v-29.199c0-13.616,11.084-24.698,24.709-24.698h53.351c13.632,0,24.721,11.077,24.721,24.698
	v29.199c0,14.465,11.728,26.194,26.191,26.194c14.466,0,26.192-11.729,26.192-26.194v-29.199
	C371.364,607.588,336.776,573.008,294.26,573.008z"/>
<path d="M424.91,415.768c-14.466,0-26.193,11.728-26.193,26.194c0,14.465,11.728,26.193,26.193,26.193h140.434
	c18.034-20.968,39.717-38.715,64.031-52.244c-0.899-0.093-1.813-0.143-2.738-0.143H424.91z"/>
<path d="M398.717,677.275c0,14.464,11.728,26.195,26.193,26.195h99.685c-6.464-16.643-11.062-34.188-13.54-52.388
	H424.91C410.445,651.083,398.717,662.811,398.717,677.275z"/>
<path d="M398.717,559.618c0,14.464,11.728,26.192,26.193,26.192h86.503c2.688-18.216,7.502-35.765,14.187-52.385
	H424.91C410.445,533.426,398.717,545.151,398.717,559.618z"/>
<path d="M147.237,791.005c-23.31,0.005-42.272-18.958-42.272-42.266v-537.75h606.72v103.973v73.704
	c9.915-1.301,20.017-1.981,30.271-1.981c7.457,0,14.831,0.37,22.114,1.065v-46.592h84.549v71.568
	c19.15,9.945,36.765,22.475,52.385,37.113V314.964c0-14.465-11.729-26.193-26.194-26.193H764.071V184.796
	c0-14.465-11.728-26.192-26.191-26.192H78.771c-14.465,0-26.192,11.727-26.192,26.192v563.943c0,52.191,42.463,94.653,94.658,94.653
	h529.479c-34.792-10.224-66.271-28.394-92.32-52.388H147.237z"/>
</svg>
