<?xml version="1.0" encoding="utf-8"?>
<!-- Generator: Adobe Illustrator 19.0.0, SVG Export Plug-In . SVG Version: 6.00 Build 0)  -->
<svg version="1.1" id="Layer_1" xmlns="http://www.w3.org/2000/svg" xmlns:xlink="http://www.w3.org/1999/xlink" x="0px" y="0px"
	 width="50px" height="50px" viewBox="0 0 50 50" style="enable-background:new 0 0 50 50;" xml:space="preserve">
<style type="text/css">
	.st0{fill:#7E7DB1;}
	.st1{clip-path:url(#XMLID_36_);}
	.st2{fill:#FFFFFF;}
</style>
<g>
	<g id="XMLID_34_">
		<circle id="XMLID_54_" class="st0" cx="25" cy="25" r="25"/>
	</g>
	<g>
		<defs>
			<circle id="XMLID_14_" cx="25" cy="25" r="25"/>
		</defs>
		<clipPath id="XMLID_36_">
			<use xlink:href="#XMLID_14_"  style="overflow:visible;"/>
		</clipPath>
		<g class="st1">
			<g>
				<path class="st2" d="M15.8,33.6c0.2,0.1,5.6,4,3,11.8c-0.2,0.5,0.1,1,0.6,1.1c0.6,0.2,1-0.2,1.1-0.6c3-9-3.6-13.8-3.7-13.8
					c-1.7-1.1-2.7-2.4-2.9-3.8c-0.3-1.9,0.8-3.4,0.8-3.4c0,0,0.1-0.1,0.1-0.1l4-7.2c2.8,1.7,11.5,6.9,18.6,7.1l0,0
					c1.8,0,3.5-1.3,3.8-3.1c0.5-2.1-0.9-4.2-3-4.7c-2.4-0.6-4.3,1.2-4.7,3c-0.2,0.9,0,1.9,0.4,2.7c-6.6-1.4-14.8-6.9-14.9-6.9
					c-0.2-0.1-0.5-0.2-0.7-0.1c-0.2,0.1-0.4,0.2-0.6,0.4l-4.4,8c-0.3,0.4-1.5,2.3-1.1,4.7C12.5,30.5,13.7,32.1,15.8,33.6z
					 M36.9,22.8c-1.2-0.3-1.9-1.4-1.7-2.6c0.2-1,1.3-1.9,2.6-1.7c1.2,0.2,1.9,1.4,1.7,2.6C39.3,22.1,38.3,23.2,36.9,22.8z"/>
				<path id="XMLID_31_" class="st2" d="M3.7,44.8c0.1-0.1,7.1-5.7,10.4-10c0.3-0.4,0.8-0.5,1.2-0.2c0.4,0.3,0.5,0.8,0.2,1.2
					C12.1,40.3,5.1,45.9,4.8,46.1c-0.4,0.3-1,0.4-1.3-0.1C3.2,45.6,3.3,45.1,3.7,44.8z"/>
				<path id="XMLID_30_" class="st2" d="M18.1,31.4c-0.4-0.2-0.6-0.7-0.4-1.2l3.8-7.9c0.1-0.2,0.3-0.4,0.6-0.5
					c0.2-0.1,0.5,0,0.7,0.1c6.5,4.3,14.5,4.4,14.6,4.4c0.5,0,0.9,0.4,0.9,0.9c0,0.5-0.4,0.9-0.9,0.9c-0.3,0-7.9,0-14.7-4.1l-3.4,7
					C19.1,31.3,18.7,31.6,18.1,31.4z"/>
			</g>
			<path class="st2" d="M23.5,16c2.3,0,4.2-1.9,4.2-4.2s-1.9-4.2-4.2-4.2c-2.3,0-4.2,1.9-4.2,4.2S21.2,16,23.5,16z M23.5,14.2
				c-1.3,0-2.4-1.1-2.4-2.4s1.1-2.4,2.4-2.4c1.3,0,2.4,1.1,2.4,2.4S24.8,14.2,23.5,14.2z"/>
		</g>
	</g>
</g>
</svg>
