<?xml version="1.0" encoding="utf-8"?>
<!-- Generator: Adobe Illustrator 19.0.0, SVG Export Plug-In . SVG Version: 6.00 Build 0)  -->
<svg version="1.1" id="Layer_1" xmlns="http://www.w3.org/2000/svg" xmlns:xlink="http://www.w3.org/1999/xlink" x="0px" y="0px"
	 width="50px" height="50px" viewBox="0 0 50 50" style="enable-background:new 0 0 50 50;" xml:space="preserve">
<style type="text/css">
	.st0{fill:#5C995C;}
	.st1{fill:#FFFFFF;}
	.st2{fill:#FFFFFF;stroke:#FFFFFF;stroke-width:2;stroke-linecap:round;stroke-miterlimit:10;}
	.st3{clip-path:url(#XMLID_13_);fill:#FFFFFF;}
	.st4{clip-path:url(#XMLID_13_);}
</style>
<g id="XMLID_1_">
	<g id="XMLID_11_">
		<circle id="XMLID_31_" class="st0" cx="25" cy="25" r="25"/>
	</g>
	<circle id="XMLID_10_" class="st1" cx="34.7" cy="12.2" r="1.4"/>
	<line id="XMLID_9_" class="st2" x1="5" y1="24" x2="45" y2="12.8"/>
	<circle id="XMLID_8_" class="st0" cx="28.1" cy="18.3" r="3.1"/>
	<g>
		<defs>
			<circle id="XMLID_2_" cx="25" cy="25" r="25"/>
		</defs>
		<clipPath id="XMLID_13_">
			<use xlink:href="#XMLID_2_"  style="overflow:visible;"/>
		</clipPath>
		<path id="XMLID_7_" class="st3" d="M5.6,23.6c9.9,7.7,5.1,20.5,13.1,26.2c1,0.7,0.1,2.2-0.9,1.5C9.5,45.4,14,32.8,3.9,24.5
			c-0.9-0.8,0.9-2.2,1.5-1.1L5.6,23.6z"/>
		<g class="st4">
			<g>
				<path id="XMLID_6_" class="st1" d="M23,24c0,0,4,1.4,7.6-0.6c2.5-1.4,4.2-4.2,5.1-8.3c0.1-0.5,0.6-0.8,1.1-0.7
					c0.5,0.1,0.8,0.6,0.7,1.1c-1,4.6-3,7.8-6,9.5c-3,1.7-6.2,1.4-7.8,1c0,0,0.3,8.9,0.3,13.1c0,4.8-2.2,10.5-5,19.2
					c-0.2,0.5-0.6,0.7-1.1,0.6c0,0,0,0,0,0c-0.5-0.2-0.7-0.7-0.6-1.2c2.8-8.3,4.9-13.7,4.9-18.6c0-4.7-0.3-14.3-0.3-14.3
					C22,24,22.7,23.9,23,24z"/>
				<path id="XMLID_5_" class="st1" d="M39.8,14l-1.5,0.6c-0.4,2.9-0.4,11.4-8.6,12.7c-0.4,0.1-0.8,0.4-0.8,0.9
					c0,0-0.2,7.2-0.2,12.3c0,5.5,4,6.5,1.2,14.8c-0.2,0.5,0.1,1,0.6,1.2c0,0,0.9,0.2,1.2-0.6c3-8.5-1.1-10.5-1.1-16.7
					c0-5.8,0.2-10.2,0.2-10.2C41.8,25.9,39.8,14,39.8,14z"/>
			</g>
			<path class="st1" d="M31.9,19.8c0.6-2.3-0.7-4.6-3-5.2c-2.3-0.6-4.6,0.7-5.2,3c-0.6,2.3,0.7,4.6,3,5.2
				C28.9,23.3,31.3,22,31.9,19.8z M30.1,19.3c-0.4,1.3-1.7,2-3,1.7c-1.3-0.4-2-1.7-1.7-3c0.4-1.3,1.7-2,3-1.7
				C29.7,16.7,30.5,18,30.1,19.3z"/>
		</g>
	</g>
</g>
</svg>
