<?xml version="1.0" encoding="utf-8"?>
<!-- Generator: Adobe Illustrator 16.0.0, SVG Export Plug-In . SVG Version: 6.00 Build 0)  -->
<!DOCTYPE svg PUBLIC "-//W3C//DTD SVG 1.1//EN" "http://www.w3.org/Graphics/SVG/1.1/DTD/svg11.dtd">
<svg version="1.1" id="Layer_1" xmlns="http://www.w3.org/2000/svg" xmlns:xlink="http://www.w3.org/1999/xlink" x="0px" y="0px"
	 width="1000px" height="1000px" viewBox="0 0 1000 1000" enable-background="new 0 0 1000 1000" xml:space="preserve">
<g>
	<g>
		<path d="M500.002,75.906c-268.454,0-486.075,217.618-486.075,486.076c0,116.977,41.346,224.307,110.195,308.177
			c10.622-85.054,95.57-156.981,214.688-191.05c43.517,40.546,99.73,65.15,161.188,65.15c60.016,0,115.126-23.366,158.2-62.211
			c120.148,37.044,203.267,113.181,206.004,201.675c75.775-85.728,121.871-198.319,121.871-321.741
			C986.073,293.524,768.453,75.906,500.002,75.906z M500.002,686.697c-31.03,0-60.269-8.526-86.229-23.295
			c-62.566-35.598-105.644-108.454-105.644-192.564c0-119.023,86.072-215.86,191.874-215.86
			c105.813,0,191.872,96.837,191.872,215.86c0,85.403-44.428,159.155-108.548,194.137
			C558.066,678.749,529.882,686.697,500.002,686.697z"/>
	</g>
</g>
</svg>
