<?xml version="1.0" encoding="UTF-8" standalone="no"?>
<!-- Generator: Adobe Illustrator 19.0.0, SVG Export Plug-In . SVG Version: 6.00 Build 0)  -->

<svg
   xmlns:dc="http://purl.org/dc/elements/1.1/"
   xmlns:cc="http://creativecommons.org/ns#"
   xmlns:rdf="http://www.w3.org/1999/02/22-rdf-syntax-ns#"
   xmlns:svg="http://www.w3.org/2000/svg"
   xmlns="http://www.w3.org/2000/svg"
   xmlns:sodipodi="http://sodipodi.sourceforge.net/DTD/sodipodi-0.dtd"
   xmlns:inkscape="http://www.inkscape.org/namespaces/inkscape"
   version="1.1"
   id="Layer_1"
   x="0px"
   y="0px"
   width="50px"
   height="50px"
   viewBox="0 0 50 50"
   style="enable-background:new 0 0 50 50;"
   xml:space="preserve"
   sodipodi:docname="badminton_doubles.svg"
   inkscape:version="0.92.1 r15371"><metadata
     id="metadata4529"><rdf:RDF><cc:Work
         rdf:about=""><dc:format>image/svg+xml</dc:format><dc:type
           rdf:resource="http://purl.org/dc/dcmitype/StillImage" /><dc:title></dc:title></cc:Work></rdf:RDF></metadata><defs
     id="defs4527" /><sodipodi:namedview
     pagecolor="#ffffff"
     bordercolor="#666666"
     borderopacity="1"
     objecttolerance="10"
     gridtolerance="10"
     guidetolerance="10"
     inkscape:pageopacity="0"
     inkscape:pageshadow="2"
     inkscape:window-width="1920"
     inkscape:window-height="1018"
     id="namedview4525"
     showgrid="false"
     inkscape:zoom="4.72"
     inkscape:cx="-13.135593"
     inkscape:cy="25"
     inkscape:window-x="-8"
     inkscape:window-y="-8"
     inkscape:window-maximized="1"
     inkscape:current-layer="XMLID_2_" /><style
     type="text/css"
     id="style4514">
	.st0{fill:#CC2929;}
	.st1{fill:#FFFFFF;}
</style><g
     id="XMLID_2_"><g
       id="XMLID_11_"
       style="fill:#db6969;fill-opacity:1"><circle
         id="XMLID_13_"
         class="st0"
         cx="25"
         cy="25"
         r="25"
         style="fill:#db6969;fill-opacity:1" /></g><g
       id="XMLID_3_"><path
         id="XMLID_8_"
         class="st1"
         d="M23.1,17.2c1.9,0,3.5-1.6,3.5-3.5s-1.6-3.5-3.5-3.5c-1.9,0-3.5,1.6-3.5,3.5    S21.2,17.2,23.1,17.2z M23.1,11.8c1.1,0,2,0.9,2,2c0,1.1-0.9,2-2,2c-1.1,0-2-0.9-2-2C21.1,12.7,22,11.8,23.1,11.8z" /><path
         id="XMLID_7_"
         class="st1"
         d="M21.9,32.3c-1.7-0.3-3.2-0.6-3.7-1.4c-0.3-0.4-0.3-1.1-0.1-2c0.9-4.3,1.7-8.2,2-9.8    c2,0.5,6.5,1,11-1c0.4-0.2,0.6-0.6,0.4-1c-0.2-0.4-0.6-0.6-1-0.4c-5.4,2.4-10.9,0.7-10.9,0.7c-0.4,0-0.7,0.2-0.8,0.6    c0,0-0.9,5-2.2,10.6C16.3,30,16.4,31,17,31.8c0.9,1.3,2.6,1.7,4.7,2.1c3.9,0.8,8.4,1.6,9.2,9.3c0,0.4,0.4,0.7,0.8,0.7    c0.4,0,0.7-0.4,0.7-0.8C31.4,34.2,26,33.1,21.9,32.3z" /><path
         id="XMLID_5_"
         class="st1"
         d="M21.2,34.8c-0.4-0.1-0.8,0.2-0.9,0.6c0,0.1-0.8,5.5-5.3,6.7c-0.4,0.1-0.6,0.5-0.5,0.9    c0.1,0.3,0.5,0.6,0.9,0.5c5.4-1.5,6.3-7.7,6.3-8C21.9,35.2,21.7,34.8,21.2,34.8z" /><path
         id="XMLID_4_"
         class="st1"
         d="M34,7.6c-1-1.2-2.7-2-4.5-1c-1.6,1-1.8,3-1.3,4.6c0.7,2.2,2.8,3.8,3.4,4.2l1.6,3.4    c-2.9,2-8.9,2.1-8.9,2.1c-0.4,0-0.7,0.2-0.8,0.6l-1.7,8.7c-0.1,0.4,0.2,0.8,0.6,0.9c0,0,0.7,0,0.9-0.6l1.6-8.1    c7.1-0.4,9.4-2.4,9.9-3c0.2-0.2,0.2-0.5,0.1-0.7l-1.9-4.1c-0.3-0.7-2.1-0.8-3.3-3.9c-0.3-0.8-0.3-2.2,0.7-2.8    c1.1-0.7,2.1,0.1,2.6,0.7c1.3,1.5,1.4,3.7,1,4.8c-0.1,0.4,0.1,0.8,0.5,1c0.4,0.1,0.8-0.1,1-0.5C35.9,12.3,35.6,9.5,34,7.6z" /></g></g></svg>