<?xml version="1.0" encoding="UTF-8" standalone="no"?>
<!-- Generator: Adobe Illustrator 19.0.0, SVG Export Plug-In . SVG Version: 6.00 Build 0)  -->

<svg
   xmlns:dc="http://purl.org/dc/elements/1.1/"
   xmlns:cc="http://creativecommons.org/ns#"
   xmlns:rdf="http://www.w3.org/1999/02/22-rdf-syntax-ns#"
   xmlns:svg="http://www.w3.org/2000/svg"
   xmlns="http://www.w3.org/2000/svg"
   xmlns:xlink="http://www.w3.org/1999/xlink"
   xmlns:sodipodi="http://sodipodi.sourceforge.net/DTD/sodipodi-0.dtd"
   xmlns:inkscape="http://www.inkscape.org/namespaces/inkscape"
   version="1.1"
   id="Layer_1"
   x="0px"
   y="0px"
   width="50px"
   height="50px"
   viewBox="0 0 50 50"
   style="enable-background:new 0 0 50 50;"
   xml:space="preserve"
   sodipodi:docname="ball_mini_tournament.svg"
   inkscape:version="0.92.1 r15371"><metadata
     id="metadata31"><rdf:RDF><cc:Work
         rdf:about=""><dc:format>image/svg+xml</dc:format><dc:type
           rdf:resource="http://purl.org/dc/dcmitype/StillImage" /><dc:title></dc:title></cc:Work></rdf:RDF></metadata><defs
     id="defs29" /><sodipodi:namedview
     pagecolor="#ffffff"
     bordercolor="#666666"
     borderopacity="1"
     objecttolerance="10"
     gridtolerance="10"
     guidetolerance="10"
     inkscape:pageopacity="0"
     inkscape:pageshadow="2"
     inkscape:window-width="1920"
     inkscape:window-height="1018"
     id="namedview27"
     showgrid="false"
     inkscape:zoom="4.72"
     inkscape:cx="25"
     inkscape:cy="25"
     inkscape:window-x="-8"
     inkscape:window-y="-8"
     inkscape:window-maximized="1"
     inkscape:current-layer="g24" /><style
     type="text/css"
     id="style2">
	.st0{fill:#4B3ECC;}
	.st1{clip-path:url(#XMLID_285_);}
	.st2{fill:#FFFFFF;}
</style><g
     id="g24"><g
       id="XMLID_11_"
       style="fill:#342b8e;fill-opacity:1"><circle
         id="XMLID_303_"
         class="st0"
         cx="25"
         cy="25"
         r="25"
         style="fill:#342b8e;fill-opacity:1" /></g><g
       id="g22"><defs
         id="defs7"><circle
           id="XMLID_2_"
           cx="25"
           cy="25"
           r="25" /></defs><clipPath
         id="XMLID_285_"><use
           xlink:href="#XMLID_2_"
           style="overflow:visible;"
           id="use9" /></clipPath><g
         class="st1"
         clip-path="url(#XMLID_285_)"
         id="g20"><path
           class="st2"
           d="M21.4,13.3c2.3,0,4.1-1.9,4.1-4.1c0-2.3-1.9-4.1-4.1-4.1c-2.3,0-4.1,1.9-4.1,4.1     C17.3,11.5,19.2,13.3,21.4,13.3z M21.4,11.5c-1.3,0-2.3-1.1-2.3-2.3c0-1.3,1.1-2.3,2.3-2.3c1.3,0,2.3,1.1,2.3,2.3     C23.8,10.5,22.7,11.5,21.4,11.5z"
           id="path12" /><path
           class="st2"
           d="M38,38.6c0-2.3-1.9-4.1-4.1-4.1c-2.3,0-4.1,1.9-4.1,4.1c0,2.3,1.9,4.1,4.1,4.1C36.1,42.8,38,40.9,38,38.6z      M36.2,38.6c0,1.3-1.1,2.3-2.3,2.3c-1.3,0-2.3-1.1-2.3-2.3c0-1.3,1.1-2.3,2.3-2.3C35.2,36.3,36.2,37.4,36.2,38.6z"
           id="path14" /><path
           id="XMLID_6_"
           class="st2"
           d="M7.4,4C7.4,3.5,7.7,3,8.2,3c0.5,0,0.9,0.3,0.9,0.8c0.7,9.5,14.3,11.8,14.3,11.8     c0.5,0.1,0.8,0.6,0.6,1.1l-3.5,13.3c-0.1,0.4-0.6,0.8-1.1,0.6c-0.5-0.1-0.8-0.6-0.6-1.1l3.3-12.5C22.1,17.2,7.9,14.2,7.4,4z" /><path
           id="XMLID_5_"
           class="st2"
           d="M33.8,26.8c-0.3,0.7-1.1,0.5-1.2,0.5c-5-2.2-7.8-7.5-8-7.8c-0.2-0.4-0.1-1,0.4-1.2     c0.4-0.2,1-0.1,1.2,0.4c0,0.1,2.7,5,7.1,6.9C33.8,25.8,34,26.3,33.8,26.8z" /><path
           id="XMLID_4_"
           class="st2"
           d="M31.1,46.6c-0.5,0.2-1-0.1-1.2-0.5c0-0.1-4.7-10.7-11.5-12.1c-2-0.4-3.5-1.4-4.4-2.9     c-1.5-2.6-0.5-5.9-0.4-6.2l2.2-7.8c0.1-0.5,0.6-0.8,1.1-0.6c0.5,0.1,0.8,0.6,0.6,1.1l-2.2,7.9c0,0,0,0,0,0c0,0-0.9,2.8,0.3,4.8     c0.6,1,1.7,1.7,3.2,2.1c7.7,1.7,12.6,12.7,12.8,13.2C31.8,45.8,31.6,46.4,31.1,46.6z" /><path
           id="XMLID_3_"
           class="st2"
           d="M5,46c-0.1-0.5,0.1-1,0.6-1.1c4.3-1.2,10.2-9.4,10.3-9.5c0.3-0.4,0.8-0.5,1.3-0.2     c0.4,0.3,0.5,0.8,0.2,1.3c-0.3,0.4-6.4,8.8-11.2,10.2C5.5,46.8,5.1,46.4,5,46z" /></g></g></g></svg>