<?xml version="1.0" encoding="utf-8"?>
<!-- Generator: Adobe Illustrator 15.0.0, SVG Export Plug-In . SVG Version: 6.00 Build 0)  -->
<!DOCTYPE svg PUBLIC "-//W3C//DTD SVG 1.1//EN" "http://www.w3.org/Graphics/SVG/1.1/DTD/svg11.dtd">
<svg version="1.1" id="Слой_1" xmlns="http://www.w3.org/2000/svg" xmlns:xlink="http://www.w3.org/1999/xlink" x="0px" y="0px"
	 width="1000px" height="1000px" viewBox="0 0 1000 1000" enable-background="new 0 0 1000 1000" xml:space="preserve">
<g>
	<path fill="#007ABF" d="M498.497,53.966c-245.107,0-444.531,199.408-444.531,444.531S253.39,943.02,498.497,943.02
		c245.099,0,444.523-199.4,444.523-444.523S743.596,53.966,498.497,53.966L498.497,53.966z M826.974,259.69h-19.009
		c-8.198,0-15.451,5.294-17.977,13.079l-40.736,125.383l-106.55,46.819L517.4,353.952V228.297l105.743-76.771
		c6.632-4.825,9.4-13.361,6.875-21.146l-6.027-18.55C706.336,138.625,776.982,191.094,826.974,259.69L826.974,259.69z
		 M373.018,111.816l-6.026,18.547c-2.525,7.802,0.233,16.322,6.874,21.139l105.718,76.778v125.656l-125.293,91.019l-106.572-46.844
		l-40.754-125.381c-2.532-7.818-9.803-13.07-17.984-13.07h-18.959C220.003,191.094,290.674,138.625,373.018,111.816L373.018,111.816
		z M91.822,498.173l15.918,11.578c3.325,2.397,7.212,3.64,11.126,3.64c3.89,0,7.802-1.226,11.119-3.64l104.709-76.083l106.55,46.846
		l48.345,148.713l-64.426,76.713H193.709c-8.205,0-15.451,5.293-17.985,13.079l-5.866,18.041
		c-48.853-67.08-78.061-149.385-78.061-238.564C91.797,498.375,91.822,498.279,91.822,498.173L91.822,498.173z M372.703,885.057
		l15.744-11.498c6.638-4.784,9.422-13.36,6.896-21.121l-40.131-123.422l64.434-76.673H577.34l64.369,76.673l-40.107,123.445
		c-2.525,7.802,0.274,16.313,6.914,21.139l15.75,11.457c-39.632,12.901-81.853,20.154-125.752,20.154
		C454.572,905.203,412.352,897.999,372.703,885.057L372.703,885.057z M827.11,737.117l-5.874-18.098
		c-2.541-7.802-9.812-13.063-17.991-13.063l-131.441,0.023l-64.369-76.697l48.305-148.731l106.591-46.82l104.686,76.029
		c3.325,2.428,7.214,3.654,11.127,3.654c3.914,0,7.826-1.227,11.126-3.654l15.919-11.563c0,0.104,0.023,0.202,0.023,0.314
		C905.188,587.676,875.947,669.98,827.11,737.117L827.11,737.117z M827.11,737.117"/>
</g>
</svg>
