<?xml version="1.0" encoding="UTF-8" standalone="no"?>
<!-- Generator: Adobe Illustrator 19.0.0, SVG Export Plug-In . SVG Version: 6.00 Build 0)  -->

<svg
   xmlns:dc="http://purl.org/dc/elements/1.1/"
   xmlns:cc="http://creativecommons.org/ns#"
   xmlns:rdf="http://www.w3.org/1999/02/22-rdf-syntax-ns#"
   xmlns:svg="http://www.w3.org/2000/svg"
   xmlns="http://www.w3.org/2000/svg"
   xmlns:xlink="http://www.w3.org/1999/xlink"
   xmlns:sodipodi="http://sodipodi.sourceforge.net/DTD/sodipodi-0.dtd"
   xmlns:inkscape="http://www.inkscape.org/namespaces/inkscape"
   version="1.1"
   id="Layer_1"
   x="0px"
   y="0px"
   width="50px"
   height="50px"
   viewBox="0 0 50 50"
   style="enable-background:new 0 0 50 50;"
   xml:space="preserve"
   sodipodi:docname="basketball_mini_tournament.svg"
   inkscape:version="0.92.1 r15371"><metadata
     id="metadata31"><rdf:RDF><cc:Work
         rdf:about=""><dc:format>image/svg+xml</dc:format><dc:type
           rdf:resource="http://purl.org/dc/dcmitype/StillImage" /><dc:title></dc:title></cc:Work></rdf:RDF></metadata><defs
     id="defs29" /><sodipodi:namedview
     pagecolor="#ffffff"
     bordercolor="#666666"
     borderopacity="1"
     objecttolerance="10"
     gridtolerance="10"
     guidetolerance="10"
     inkscape:pageopacity="0"
     inkscape:pageshadow="2"
     inkscape:window-width="1920"
     inkscape:window-height="1018"
     id="namedview27"
     showgrid="false"
     inkscape:zoom="4.72"
     inkscape:cx="25"
     inkscape:cy="25"
     inkscape:window-x="-8"
     inkscape:window-y="-8"
     inkscape:window-maximized="1"
     inkscape:current-layer="g24" /><style
     type="text/css"
     id="style2">
	.st0{fill:#D3A848;}
	.st1{clip-path:url(#XMLID_11_);}
	.st2{fill:#FFFFFF;}
</style><g
     id="g24"><g
       id="XMLID_9_"
       style="fill:#937532;fill-opacity:1"><circle
         id="XMLID_301_"
         class="st0"
         cx="25"
         cy="25"
         r="25"
         style="fill:#937532;fill-opacity:1" /></g><g
       id="g22"><defs
         id="defs7"><circle
           id="XMLID_2_"
           cx="25"
           cy="25"
           r="25" /></defs><clipPath
         id="XMLID_11_"><use
           xlink:href="#XMLID_2_"
           style="overflow:visible;"
           id="use9" /></clipPath><g
         class="st1"
         clip-path="url(#XMLID_11_)"
         id="g20"><g
           id="g16"><path
             class="st2"
             d="M15.9,16.4c2.2-0.5,3.7-2.3,3.8-4.4c1.7,1.9,3.7,5.2,5.2,10.6c0.1,0.5,0.6,0.9,1.3,0.8      c0.6-0.1,0.9-0.8,0.8-1.3C23.7,11,18.6,6.6,14.9,6.7c-3.6,0.1-5.3,3.3-4.8,5.9C10.6,14.9,13,17,15.9,16.4z M12.2,12.2      c-0.3-1.5,0.8-3.2,2.6-3.3c1.3,0,2.4,0.9,2.6,2.1c0.3,1.5-0.6,2.9-2.1,3.2C14,14.6,12.5,13.4,12.2,12.2z"
             id="path12" /><path
             id="XMLID_6_"
             class="st2"
             d="M36.8,31.1c0-0.3-0.2-0.6-0.4-0.7c-0.2-0.2-0.5-0.3-0.8-0.2c-16.4,2.3-20.1-8.3-20.2-8.7      c-0.2-0.6-0.8-0.9-1.4-0.7c-0.6,0.2-0.9,0.8-0.7,1.4c0,0.1,1.1,3.3,4.4,6.2c2.9,2.5,8.2,5.2,17,4.2l1,8.1      c0,0.1,0.5,5.3-1.7,10.5c-3.5,8.1-3,15.7-3,16.1c0,0.6,0.4,1.1,1.2,1c0.6,0,1-0.6,1-1.2c0-0.1-0.4-7.5,2.8-15.1      c2.4-5.6,1.9-11.3,1.8-11.6L36.8,31.1z" /><path
             id="XMLID_5_"
             class="st2"
             d="M29.7,34.8c-0.1-0.6-0.6-1-1.2-1c-0.6,0.1-1,0.6-1,1.2l0.7,6.6c0,0.1,0.5,5.3-1.7,10.5      c-3.5,8.1-3,14.3-3,14.6c0,0.6,0.4,1.1,1.2,1c0.6-0.1,1-0.6,1-1.2c0-0.1-0.5-6,2.8-13.6c2.4-5.6,1.9-11.3,1.8-11.6L29.7,34.8z" /></g><path
           class="st2"
           d="M38.1,23.8c0-2.8-2.3-5.1-5.1-5.1c-2.8,0-5.1,2.3-5.1,5.1c0,2.8,2.3,5.1,5.1,5.1     C35.8,28.9,38.1,26.6,38.1,23.8z M30,23.8c0-1.6,1.3-2.9,2.9-2.9c1.6,0,2.9,1.3,2.9,2.9c0,1.6-1.3,2.9-2.9,2.9     C31.3,26.7,30,25.4,30,23.8z"
           id="path18" /></g></g></g></svg>