<?xml version="1.0" encoding="utf-8"?>
<!-- Generator: Adobe Illustrator 19.0.0, SVG Export Plug-In . SVG Version: 6.00 Build 0)  -->
<svg version="1.1" id="Layer_1" xmlns="http://www.w3.org/2000/svg" xmlns:xlink="http://www.w3.org/1999/xlink" x="0px" y="0px"
	 width="50px" height="50px" viewBox="0 0 50 50" style="enable-background:new 0 0 50 50;" xml:space="preserve">
<style type="text/css">
	.st0{fill:#EA6E1B;}
	.st1{clip-path:url(#XMLID_9_);}
	.st2{fill:#FFFFFF;}
</style>
<g>
	<g id="XMLID_7_">
		<circle id="XMLID_299_" class="st0" cx="25" cy="25" r="25"/>
	</g>
	<g>
		<defs>
			<circle id="XMLID_2_" cx="25" cy="25" r="25"/>
		</defs>
		<clipPath id="XMLID_9_">
			<use xlink:href="#XMLID_2_"  style="overflow:visible;"/>
		</clipPath>
		<g class="st1">
			<g>
				<path id="XMLID_6_" class="st2" d="M40.1,37.6c2-4,0.6-8.9-3.4-11.1c-1.7-0.9-4.5-1.2-4.5-1.2c-2.6-0.5-7.2-1.9-8.3-6.8
					c-0.1-0.3-0.2-0.5-0.5-0.6c-0.3-0.1-0.6-0.1-0.8,0l-7.4,4.2c-0.4,0.2-0.6,0.8-0.3,1.2c0.2,0.4,0.8,0.6,1.2,0.3l6.4-3.7
					c1.3,3.7,4.6,6.2,9.4,7l0,0c0,0,2.6,0.3,3.9,1c3.1,1.7,4.3,5.6,2.7,8.7c-2.6,5-7.2,3.5-8.7,2.7c-1.5-0.8-2.6-2.2-3.1-3.8
					c-1-3.2,0.8-5.9,2-6.8c0.4-0.3,0.4-0.9,0.1-1.2c-0.3-0.4-0.9-0.4-1.2-0.1c-0.8,0.7-4,3.5-2.6,8.7c0.6,2.1,2.1,3.8,4,4.8
					C31.4,42.4,37.4,43.1,40.1,37.6z"/>
				<path id="XMLID_5_" class="st2" d="M14.5,36.6c2.4-3.8-0.2-8-0.3-8.3c-4.2-6.7-1.7-8.5-0.7-9.2c0.1,0,6.8-4,6.8-4
					c0.4-0.2,0.6-0.8,0.3-1.2c-0.2-0.4-0.8-0.6-1.2-0.3c0,0-6.9,4.1-7,4.1c-1.2,0.7-4.8,3.5,0.2,11.6c0.1,0.1,1.9,3.4,0.1,6.4
					c-2.6,4.5-7,3.5-8.5,2.7C0,36.2,0.3,32,1.5,29.7c1.4-2.5,4.3-3.9,7.1-3.2c0.5,0.1,0.9-0.2,1.1-0.7c0.1-0.5-0.2-0.9-0.7-1.1
					c-3.6-0.8-7.3,0.9-9.1,4.1c-1.3,2.4-2.2,8.4,3.4,11.1C6.2,41.3,11.1,41.9,14.5,36.6z"/>
			</g>
			<path class="st2" d="M27.8,18.8c2.3,0,4.1-1.9,4.1-4.1c0-2.3-1.9-4.1-4.1-4.1c-2.3,0-4.1,1.9-4.1,4.1
				C23.7,16.9,25.5,18.8,27.8,18.8z M27.8,17c-1.3,0-2.3-1.1-2.3-2.3c0-1.3,1.1-2.3,2.3-2.3c1.3,0,2.3,1.1,2.3,2.3
				C30.2,15.9,29.1,17,27.8,17z"/>
		</g>
	</g>
</g>
</svg>
