<?xml version="1.0" encoding="utf-8"?>
<!-- Generator: Adobe Illustrator 19.0.0, SVG Export Plug-In . SVG Version: 6.00 Build 0)  -->
<svg version="1.1" id="Layer_1" xmlns="http://www.w3.org/2000/svg" xmlns:xlink="http://www.w3.org/1999/xlink" x="0px" y="0px"
	 width="50px" height="50px" viewBox="0 0 50 50" style="enable-background:new 0 0 50 50;" xml:space="preserve">
<style type="text/css">
	.st0{fill:#3A8ACC;}
	.st1{clip-path:url(#SVGID_2_);}
	.st2{fill:#FFFFFF;}
</style>
<g>
	<g>
		<circle id="XMLID_19_" class="st0" cx="25" cy="25" r="25"/>
	</g>
	<g>
		<defs>
			<circle id="SVGID_1_" cx="25" cy="25" r="25"/>
		</defs>
		<clipPath id="SVGID_2_">
			<use xlink:href="#SVGID_1_"  style="overflow:visible;"/>
		</clipPath>
		<g class="st1">
			<g>
				<path class="st2" d="M33.9,15.9c0-2.3-1.9-4.2-4.2-4.2c-2.3,0-4.2,1.9-4.2,4.2s1.9,4.2,4.2,4.2C32,20.2,33.9,18.3,33.9,15.9z
					 M32,15.9c0,1.3-1.1,2.4-2.4,2.4c-1.3,0-2.4-1.1-2.4-2.4s1.1-2.4,2.4-2.4C30.9,13.5,32,14.6,32,15.9z"/>
				<path class="st2" d="M24.4,22.1c2.4,1.2,4.7,1.8,6,2.1l-1.9,6.4c-0.1,0.5,0.1,1,0.6,1.1c0.1,0,1,0.1,1.1-0.6l2.1-7.4
					c0.1-0.3,0-0.5-0.1-0.8c-0.1-0.2-0.4-0.4-0.7-0.4c-0.1,0-9.1-1.3-13-8c0.5,0.5,5.2,0.1,5.2-4.1c0-2.3-1.9-4.2-4.2-4.2
					c-2.3,0-4.2,1.9-4.2,4.2C15.2,10.9,16.3,18.1,24.4,22.1z M17.1,10.4c0-1.3,1.1-2.4,2.4-2.4c1.3,0,2.4,1.1,2.4,2.4
					c0,1.3-1.1,2.4-2.4,2.4C17.1,12.8,17.1,10.6,17.1,10.4z"/>
				<path class="st2" d="M29.6,33.1c0,0-1.5,0.2-2.4-0.2c-1.3-0.5-2.2-1.3-2.6-2.5c-1-2.6,0.5-6,0.5-6.1c0.2-0.5,0-1-0.4-1.2
					c-0.5-0.2-1,0-1.2,0.4c-0.1,0.2-1.9,4.2-0.6,7.5c0.6,1.6,1.9,2.8,3.7,3.5c1.4,0.6,4.7,0.3,4.7,0.3"/>
			</g>
			<path class="st2" d="M24.6,33.1c4.1,0,7.5,3.4,7.5,7.5s-3.4,7.5-7.5,7.5s-7.5-3.4-7.5-7.5S20.5,33.1,24.6,33.1 M24.6,31.2
				c-5.2,0-9.4,4.2-9.4,9.4s4.2,9.4,9.4,9.4s9.4-4.2,9.4-9.4S29.8,31.2,24.6,31.2L24.6,31.2z"/>
			<g>
				<line class="st2" x1="18.4" y1="23.7" x2="20.9" y2="32.4"/>
				<path class="st2" d="M20.9,33.4c0.1,0,0.2,0,0.3,0c0.5-0.1,0.8-0.7,0.6-1.2l-2.5-8.7c-0.1-0.5-0.7-0.8-1.2-0.6
					c-0.5,0.1-0.8,0.7-0.6,1.2l2.5,8.7C20.1,33.1,20.4,33.4,20.9,33.4z"/>
			</g>
			<g>
				<line class="st2" x1="32.7" y1="37.1" x2="37.1" y2="47.1"/>
				<path class="st2" d="M37.1,48c0.1,0,0.3,0,0.4-0.1c0.5-0.2,0.7-0.8,0.5-1.2l-4.4-10c-0.2-0.5-0.8-0.7-1.2-0.5
					c-0.5,0.2-0.7,0.8-0.5,1.2l4.4,10C36.4,47.8,36.7,48,37.1,48z"/>
			</g>
			<path class="st2" d="M44.2,47.1c0.2,0,0.4-0.1,0.6-0.2c0.4-0.3,0.5-0.9,0.2-1.3c-0.6-0.8-5.9-7.6-8-8.7c-2-1-4.7-2.3-4.7-2.3
				c-0.5-0.2-1,0-1.2,0.5c-0.2,0.5,0,1,0.5,1.2c0,0,2.7,1.3,4.6,2.3c1.3,0.7,5.2,5.4,7.4,8.2C43.6,47,43.9,47.1,44.2,47.1z"/>
		</g>
	</g>
</g>
</svg>
