<?xml version="1.0" encoding="utf-8"?>
<!-- Generator: Adobe Illustrator 19.0.0, SVG Export Plug-In . SVG Version: 6.00 Build 0)  -->
<svg version="1.1" id="Layer_1" xmlns="http://www.w3.org/2000/svg" xmlns:xlink="http://www.w3.org/1999/xlink" x="0px" y="0px"
	 width="50px" height="50px" viewBox="0 0 50 50" style="enable-background:new 0 0 50 50;" xml:space="preserve">
<style type="text/css">
	.st0{fill:#03CFBA;}
	.st1{clip-path:url(#XMLID_38_);}
	.st2{fill:#FFFFFF;}
</style>
<g>
	<g id="XMLID_36_">
		<circle id="XMLID_56_" class="st0" cx="25" cy="25" r="25"/>
	</g>
	<g>
		<defs>
			<circle id="XMLID_14_" cx="25" cy="25" r="25"/>
		</defs>
		<clipPath id="XMLID_38_">
			<use xlink:href="#XMLID_14_"  style="overflow:visible;"/>
		</clipPath>
		<g class="st1">
			<path class="st2" d="M30.6,15.8c2.3,0,4.2-1.9,4.2-4.2c0-2.3-1.9-4.2-4.2-4.2c-2.3,0-4.2,1.9-4.2,4.2
				C26.3,13.9,28.2,15.8,30.6,15.8z M30.6,14c-1.3,0-2.4-1.1-2.4-2.4c0-1.3,1.1-2.4,2.4-2.4c1.3,0,2.4,1.1,2.4,2.4
				C33,12.9,31.9,14,30.6,14z"/>
			<path class="st2" d="M14.7,22.5c0-2.3-1.9-4.2-4.2-4.2c-2.3,0-4.2,1.9-4.2,4.2c0,2.3,1.9,4.2,4.2,4.2
				C12.8,26.8,14.7,24.9,14.7,22.5z M12.9,22.5c0,1.3-1.1,2.4-2.4,2.4c-1.3,0-2.4-1.1-2.4-2.4c0-1.3,1.1-2.4,2.4-2.4
				C11.8,20.1,12.9,21.2,12.9,22.5z"/>
			<path id="XMLID_31_" class="st2" d="M40.7,29.6c-0.4,0.8-1.1,0.5-1.2,0.5c-5.1-2.2-8-7.7-8.2-8c-0.2-0.5-0.1-1,0.4-1.2
				c0.4-0.2,1-0.1,1.2,0.4c0,0.1,2.7,5.2,7.3,7.1C40.7,28.6,41,29.2,40.7,29.6z"/>
			<path id="XMLID_30_" class="st2" d="M38,49.9c-0.6,0.2-1.1-0.1-1.2-0.5c0-0.1-4.8-10.9-11.8-12.4c-2.1-0.5-3.6-1.5-4.5-3
				c-1.5-2.7-0.5-6.1-0.4-6.4l2.3-8c0.1-0.5,0.6-0.8,1.1-0.6c0.5,0.1,0.8,0.6,0.6,1.1l-2.3,8.1c0,0,0,0,0,0c0,0-0.9,2.8,0.3,4.9
				c0.6,1.1,1.7,1.8,3.3,2.1c7.9,1.7,12.9,13,13.1,13.5C38.7,49.2,38.5,49.7,38,49.9z"/>
			<path id="XMLID_29_" class="st2" d="M11.3,49.3c-0.1-0.5,0.2-1,0.6-1.1c4.4-1.2,10.5-9.7,10.5-9.8c0.3-0.4,0.9-0.5,1.3-0.2
				c0.4,0.3,0.5,0.9,0.2,1.3c-0.3,0.4-6.6,9.1-11.5,10.5C11.7,50.1,11.4,49.7,11.3,49.3z"/>
			<path id="XMLID_19_" class="st2" d="M25.8,33.6c0.4,0,0.8-0.3,0.9-0.6l4.4-13.3c0.1-0.4,0-0.8-0.4-1.1c-0.2-0.1-4.8-3.3-10.9-4.3
				C13,13.3,7.3,15.7,7.1,15.8c-0.5,0.2-0.7,0.8-0.5,1.2c0.2,0.5,0.8,0.7,1.2,0.5c0.1,0,5.4-2.3,11.7-1.4c4.5,0.7,8.2,2.7,9.6,3.6
				l-4.1,12.6c-0.2,0.5,0.1,1,0.6,1.2C25.6,33.6,25.7,33.6,25.8,33.6z"/>
		</g>
	</g>
</g>
</svg>
