<?xml version="1.0" encoding="utf-8"?>
<!-- Generator: Adobe Illustrator 19.0.0, SVG Export Plug-In . SVG Version: 6.00 Build 0)  -->
<svg version="1.1" id="Layer_1" xmlns="http://www.w3.org/2000/svg" xmlns:xlink="http://www.w3.org/1999/xlink" x="0px" y="0px"
	 width="50px" height="50px" viewBox="0 0 50 50" style="enable-background:new 0 0 50 50;" xml:space="preserve">
<style type="text/css">
	.st0{fill:#898FDA;}
	.st1{clip-path:url(#XMLID_37_);}
	.st2{fill:#FFFFFF;}
</style>
<g>
	<g id="XMLID_35_">
		<circle id="XMLID_55_" class="st0" cx="25" cy="25" r="25"/>
	</g>
	<g>
		<defs>
			<circle id="XMLID_14_" cx="25" cy="25" r="25"/>
		</defs>
		<clipPath id="XMLID_37_">
			<use xlink:href="#XMLID_14_"  style="overflow:visible;"/>
		</clipPath>
		<g class="st1">
			<path class="st2" d="M18.8,39.1c1.9,0.3,6.9,1.5,8.6,11.1c0.1,0.5,0.5,0.8,1,0.8c0.5-0.1,0.9-0.5,0.8-1
				c-1.8-10.3-7-12.3-10.1-12.7c-2.1-0.3-3.7-1.1-4.6-2.3c-1-1.4-0.8-3.7-0.8-3.7l0.3-8.5c2.1,0.4,6.9,0.9,12-1.8
				c0.5,0.3,1.1,0.5,1.7,0.5c1.7,0,3.1-1.4,3.1-3.1c0-1.7-1.4-3.1-3.1-3.1c-1.7,0-3.1,1.4-3.1,3.1c0,0.4,0.1,0.7,0.2,1
				c-5.8,2.9-11.4,1.2-11.4,1.2c-0.3-0.1-0.6,0-0.8,0.1c-0.2,0.2-0.4,0.4-0.4,0.7l-0.3,9.6c0,1.1-0.1,3.3,1.2,4.9
				C14.3,37.6,16.1,38.8,18.8,39.1z M26.4,18.4c0-0.7,0.5-1.2,1.2-1.2c0.7,0,1.2,0.5,1.2,1.2c0,0.7-0.5,1.2-1.2,1.2
				C26.9,19.6,26.4,19,26.4,18.4z"/>
			<path class="st2" d="M34,21.1c0.2,0,0.4,0.1,0.6,0.1c1.7,0,3.1-1.4,3.1-3.1c0-1.7-1.4-3.1-3.1-3.1c-1.7,0-3.1,1.4-3.1,3.1
				c0,0.8,0.3,1.5,0.8,2.1c-4.5,4.9-12.7,5.4-12.8,5.4c-0.5,0-0.9,0.4-0.9,0.9l-0.3,8.2c0,0.5,0.4,0.9,0.9,0.9c0,0,0,0,0,0
				c0.5,0,0.9-0.4,0.9-0.9l0.2-7.4C23,27.1,29.9,25.9,34,21.1z M34.6,19.2c-0.7,0-1.2-0.5-1.2-1.2c0-0.7,0.5-1.2,1.2-1.2
				c0.7,0,1.2,0.5,1.2,1.2C35.8,18.7,35.3,19.2,34.6,19.2z"/>
			<path id="XMLID_30_" class="st2" d="M11,48.9c0.1,0,5.2-3,6.2-8.3c0.1-0.5,0.6-0.8,1.1-0.7c0.5,0.1,0.8,0.6,0.7,1.1
				c-1.1,6.1-6.9,9.4-7.1,9.6c-0.1,0.1-0.8,0.6-1.3-0.4C10.4,49.7,10.5,49.2,11,48.9z"/>
			<path class="st2" d="M22.3,14.5c0-2.4-2-4.4-4.4-4.4s-4.4,2-4.4,4.4c0,2.4,2,4.4,4.4,4.4S22.3,16.9,22.3,14.5z M20.4,14.5
				c0,1.4-1.1,2.5-2.5,2.5s-2.5-1.1-2.5-2.5S16.6,12,18,12S20.4,13.1,20.4,14.5z"/>
		</g>
	</g>
</g>
</svg>
