<?xml version="1.0" encoding="utf-8"?>
<!-- Generator: Adobe Illustrator 15.0.0, SVG Export Plug-In . SVG Version: 6.00 Build 0)  -->
<!DOCTYPE svg PUBLIC "-//W3C//DTD SVG 1.1//EN" "http://www.w3.org/Graphics/SVG/1.1/DTD/svg11.dtd">
<svg version="1.1" id="Слой_1" xmlns="http://www.w3.org/2000/svg" xmlns:xlink="http://www.w3.org/1999/xlink" x="0px" y="0px"
	 width="1000px" height="1000px" viewBox="0 0 1000 1000" enable-background="new 0 0 1000 1000" xml:space="preserve">
<g>
	<path d="M515.234,502.555c126.793,0,229.656-102.802,229.656-229.929c0-79.129,27.722-151.617-33.352-192.88
		c-36.601-25.007-197.824-36.597-245.544-36.597c-56.599,0-130.035,45.962-170.095,79.839
		c-49.949,42.284-10.633,79.375-10.633,149.638C285.268,399.753,388.136,502.555,515.234,502.555 M354.937,250.086
		c42.312-7.634,70.973,6.461,70.973,6.461l70.532-34.371c0,0-35.913,51.928-3.493,34.371c71.71-24.233,151.8-14.095,192.87-6.178
		c1.461,8.898,2.725,18.015,2.725,27.722c0,94.423-75.204,171.083-168.115,171.083c-93.013,0-168.212-76.66-168.212-171.083
		C352.216,268.385,353.727,259.268,354.937,250.086"/>
	<polygon points="677.649,538.951 373.995,538.951 56.025,887.856 122.827,956.847 350.503,762.488 355.448,914.067
		706.146,908.875 707.103,769.412 850.275,916.788 879.949,956.847 884.399,951.653 886.511,953.766 965.708,894.354 	"/>
</g>
</svg>
