<?xml version="1.0" encoding="utf-8"?>
<!-- Generator: Adobe Illustrator 15.0.0, SVG Export Plug-In . SVG Version: 6.00 Build 0)  -->
<!DOCTYPE svg PUBLIC "-//W3C//DTD SVG 1.1//EN" "http://www.w3.org/Graphics/SVG/1.1/DTD/svg11.dtd">
<svg version="1.1" id="Слой_1" xmlns="http://www.w3.org/2000/svg" xmlns:xlink="http://www.w3.org/1999/xlink" x="0px" y="0px"
	 width="1000px" height="1000px" viewBox="0 0 1000 1000" enable-background="new 0 0 1000 1000" xml:space="preserve">
<g>
	<path d="M460.386,788.262c-59.558,0-113.111-34.288-138.43-86.974l13.248-2.545
		c3.357-0.643,6.119-3.033,7.241-6.267c1.121-3.231,0.437-6.82-1.808-9.404l-39.134-45.24c-1.835-2.124-4.493-3.316-7.24-3.316
		c-0.603,0-1.207,0.059-1.809,0.178c-3.358,0.642-6.126,3.033-7.248,6.266l-19.613,56.509c-1.122,3.24-0.434,6.82,1.809,9.414
		c2.235,2.588,5.692,3.786,9.049,3.139l16.472-3.158c28.591,66.42,94.2,110.139,167.462,110.139c7.934,0,14.369-6.435,14.369-14.369
		C474.755,794.689,468.32,788.262,460.386,788.262"/>
	<path d="M489.126,399.958c59.558,0,113.117,34.29,138.436,86.973l-13.255,2.544
		c-3.357,0.646-6.119,3.036-7.242,6.266c-1.12,3.231-0.434,6.82,1.809,9.408l39.133,45.239c1.839,2.122,4.495,3.305,7.25,3.305
		c0.596,0,1.198-0.047,1.801-0.163c3.364-0.646,6.126-3.037,7.249-6.269l19.611-56.511c1.122-3.237,0.435-6.821-1.809-9.414
		c-2.236-2.586-5.69-3.784-9.049-3.14l-16.472,3.162c-28.592-66.422-94.2-110.14-167.462-110.14
		c-7.935,0-14.369,6.435-14.369,14.371C474.757,393.532,481.191,399.958,489.126,399.958"/>
	<path d="M970.08,771.112V685.93l-11.219-67.248H852.057l34.681,25.962v41.123l-22.381-16.58v8.182h-6.663v93.744
		h-6.882v-102.74h6.608V656.02h-10.239l-77.876-57.272l-75.159,58.681h-9.098v12.354h7.477v101.331h-7.312v-92.337h-7.472v-5.199
		l-15.947,13.233v-41.955l31.926-26.118H583.284l-11.209,67.193v85.183h-5.479v32.242h415.729v-32.242H970.08z M621.318,754.49
		h-37.162v-20.319h37.162V754.49z M621.318,722.032h-37.162V701.7h37.162V722.032z M636.72,734.169h37.105v20.32H636.72V734.169z
		 M636.72,701.7h37.105v20.332H636.72V701.7z M770.773,623.938c8.136,0,14.679,6.618,14.679,14.694
		c0,8.126-6.543,14.731-14.679,14.731c-8.125,0-14.743-6.605-14.743-14.731C756.03,630.556,762.648,623.938,770.773,623.938
		 M830.544,771.112h-8.182v-92.768H716.859v92.768h-7.368V669.781h7.088v-4.769H825.94v3.359h4.604V771.112z M901.585,752.365
		h-37.12v-20.319h37.12V752.365z M901.585,719.905h-37.12v-20.32h37.12V719.905z M954.147,752.365h-37.12v-20.319h37.12V752.365z
		 M954.147,719.905h-37.12v-20.32h37.12V719.905z M769.644,563.952h-2.276v-60.638h4.704v1.14
		c5.213,2.276,17.778,6.563,24.876-1.077c9.052-9.867,24.927,0,24.927,0v27.961c0,0-12.843-10.566-24.927,0
		c-9.22,8.02-20.107,3.851-24.876,1.348v31.267H769.644l110.157,82.428v23.401L768.39,587.369l-99.265,82.412V646.38
		L769.644,563.952z"/>
	<path d="M432.967,581.297v-85.181l-11.219-67.25H314.946l34.68,25.963v41.123l-22.381-16.581v8.182h-6.665v93.744
		h-6.882V478.558h6.611v-12.353h-10.242l-77.873-57.272l-75.161,58.679h-9.098v12.355h7.477v101.331h-7.314v-92.337h-7.472v-5.198
		l-15.946,13.233V455.04l31.926-26.12H46.173l-11.212,67.196v85.181h-5.478v32.242h415.729v-32.242H432.967z M84.205,564.676h-37.16
		v-20.32h37.16V564.676z M84.205,532.218h-37.16v-20.332h37.16V532.218z M99.606,544.354h37.107v20.321H99.606V544.354z
		 M99.606,511.886h37.107v20.332H99.606V511.886z M233.662,434.122c8.135,0,14.679,6.619,14.679,14.693
		c0,8.127-6.544,14.734-14.679,14.734c-8.125,0-14.744-6.607-14.744-14.734C218.917,440.741,225.537,434.122,233.662,434.122
		 M293.432,581.297h-8.183v-92.768H179.747v92.768h-7.368V479.966h7.089v-4.77h109.36v3.361h4.604V581.297z M364.473,562.551
		h-37.122v-20.321h37.122V562.551z M364.473,530.09h-37.122v-20.32h37.122V530.09z M417.035,562.551h-37.118v-20.321h37.118V562.551
		z M417.035,530.09h-37.118v-20.32h37.118V530.09z M232.532,374.137h-2.277V313.5h4.706v1.14c5.212,2.275,17.779,6.563,24.875-1.078
		c9.053-9.868,24.927,0,24.927,0v27.96c0,0-12.842-10.565-24.927,0c-9.218,8.021-20.106,3.85-24.875,1.348v31.267H232.532
		l110.157,82.428v23.401l-111.412-82.413l-99.265,82.413v-23.401L232.532,374.137z"/>
</g>
</svg>
