<?xml version="1.0" encoding="utf-8"?>
<!-- Generator: Adobe Illustrator 19.0.0, SVG Export Plug-In . SVG Version: 6.00 Build 0)  -->
<svg version="1.1" id="Layer_1" xmlns="http://www.w3.org/2000/svg" xmlns:xlink="http://www.w3.org/1999/xlink" x="0px" y="0px"
	 width="50px" height="50px" viewBox="0 0 50 50" style="enable-background:new 0 0 50 50;" xml:space="preserve">
<style type="text/css">
	.st0{fill:#7A316B;}
	.st1{clip-path:url(#XMLID_285_);}
	.st2{fill:#FFFFFF;}
</style>
<g>
	<g id="XMLID_11_">
		<circle id="XMLID_303_" class="st0" cx="25" cy="25" r="25"/>
	</g>
	<g>
		<defs>
			<circle id="XMLID_2_" cx="25" cy="25" r="25"/>
		</defs>
		<clipPath id="XMLID_285_">
			<use xlink:href="#XMLID_2_"  style="overflow:visible;"/>
		</clipPath>
		<g class="st1">
			<path class="st2" d="M15.9,13.4c0-2.6-2.1-4.7-4.7-4.7c-2.6,0-4.7,2.1-4.7,4.7c0,2.6,2.1,4.7,4.7,4.7
				C13.8,18.1,15.9,16,15.9,13.4z M8.6,13.4c0-1.5,1.2-2.7,2.7-2.7c1.5,0,2.7,1.2,2.7,2.7s-1.2,2.7-2.7,2.7
				C9.8,16.1,8.6,14.9,8.6,13.4z"/>
			<path id="XMLID_8_" class="st2" d="M26.5,29.9c0.5-0.2,0.7-0.8,0.5-1.3c-4.7-12.4-20.4-7.8-20.4-7.8C6,20.9,5.7,21.5,5.8,22
				l-1,17.3C5,39.7,5.5,40.1,6.1,40c0.5-0.1,0.9-0.7,0.7-1.2l1.2-16.3c0,0,12.5-3.3,17.1,7C25.3,29.9,26,30.2,26.5,29.9z"/>
			<path id="XMLID_7_" class="st2" d="M42.6,37.8H24.9c-0.6,0-1-0.5-1-1s0.5-1,1-1h17.7c0.6,0,1,0.5,1,1S43.2,37.8,42.6,37.8z"/>
			<path id="XMLID_6_" class="st2" d="M16.6,40.2c-0.5,0-1-0.4-1-1l-1.1-14.4c0-0.6,0.4-1.1,1-1.1c0.6-0.1,1.1,0.4,1.1,1l1.1,14.4
				C17.7,39.6,17.3,40.1,16.6,40.2C16.7,40.2,16.6,40.2,16.6,40.2z"/>
			<path id="XMLID_5_" class="st2" d="M24.8,58.3c-0.5,0-1-0.4-1-1c0-0.1-0.9-10.4-3.9-14.5c-2.4-3.2-10.8-3-13.8-2.7
				c-0.6,0.1-1.1-0.3-1.1-0.9c-0.1-0.6,0.3-1.1,0.9-1.1c0.5-0.1,12.1-1.3,15.7,3.5c3.4,4.6,4.3,15.2,4.3,15.6
				C25.9,57.7,25.5,58.2,24.8,58.3C24.9,58.3,24.8,58.3,24.8,58.3z"/>
			<path id="XMLID_4_" class="st2" d="M26.4,37.6c-0.6,0-1-0.5-1-1v-3.2c0-0.6,0.5-1,1-1c0.6,0,1,0.5,1,1v3.2
				C27.5,37.1,27,37.6,26.4,37.6z"/>
			<path id="XMLID_3_" class="st2" d="M41.6,37.6c-0.6,0-1-0.5-1-1v-3.2c0-0.6,0.5-1,1-1c0.6,0,1,0.5,1,1v3.2
				C42.6,37.1,42.2,37.6,41.6,37.6z"/>
		</g>
	</g>
</g>
</svg>
