<?xml version="1.0" encoding="utf-8"?>
<!-- Generator: Adobe Illustrator 15.0.0, SVG Export Plug-In . SVG Version: 6.00 Build 0)  -->
<!DOCTYPE svg PUBLIC "-//W3C//DTD SVG 1.1//EN" "http://www.w3.org/Graphics/SVG/1.1/DTD/svg11.dtd">
<svg version="1.1" id="Слой_1" xmlns="http://www.w3.org/2000/svg" xmlns:xlink="http://www.w3.org/1999/xlink" x="0px" y="0px"
	 width="1000px" height="1000px" viewBox="0 0 1000 1000" enable-background="new 0 0 1000 1000" xml:space="preserve">
<g>
	<path d="M874.999,375H307.686v-57.688C307.686,211.25,393.935,125,499.998,125
		c69.876,0,130.688,37.75,164.314,93.688l1.251-0.937c11.435,16.125,29.247,27.374,50.437,27.374c34.5,0,62.5-28.001,62.5-62.5
		c0-8.437-1.751-16.5-4.811-23.874l-0.69-1.374c-2.75-6.25-6.688-11.75-11.376-16.687C704.686,56.25,609.498,0,499.998,0
		c-175.25,0-317.312,142.063-317.312,317.313V375h-57.688c-34.5,0-62.5,28-62.5,62.5v500c0,34.503,28.002,62.5,62.5,62.5h750.001
		c34.5,0,62.5-28.001,62.5-62.5v-500C937.499,402.999,909.499,375,874.999,375 M499.998,812.501c-69.062,0-125-55.938-125-125
		c0-69.064,55.938-125,125-125c69.063,0,125,55.936,125,125C624.998,756.563,569.059,812.501,499.998,812.501"/>
</g>
</svg>
