<?xml version="1.0" encoding="utf-8"?>
<!-- Generator: Adobe Illustrator 19.0.0, SVG Export Plug-In . SVG Version: 6.00 Build 0)  -->
<svg version="1.1" id="Layer_1" xmlns="http://www.w3.org/2000/svg" xmlns:xlink="http://www.w3.org/1999/xlink" x="0px" y="0px"
	 width="50px" height="50px" viewBox="0 0 50 50" style="enable-background:new 0 0 50 50;" xml:space="preserve">
<style type="text/css">
	.st0{fill:#B4B4B5;}
	.st1{clip-path:url(#XMLID_66_);fill:#FFFFFF;}
	.st2{fill:#FFFFFF;}
</style>
<g>
	<g id="XMLID_36_">
		<circle id="XMLID_56_" class="st0" cx="25" cy="25" r="25"/>
	</g>
	<g>
		<defs>
			<circle id="XMLID_33_" cx="25" cy="25" r="25"/>
		</defs>
		<clipPath id="XMLID_66_">
			<use xlink:href="#XMLID_33_"  style="overflow:visible;"/>
		</clipPath>
		<path class="st1" d="M25,110.7c-22.3,0-40.5-18.2-40.5-40.5c0-22.3,18.2-40.5,40.5-40.5c22.3,0,40.5,18.2,40.5,40.5
			C65.5,92.6,47.3,110.7,25,110.7z M25,31.6c-21.3,0-38.6,17.3-38.6,38.6c0,21.3,17.3,38.6,38.6,38.6c21.3,0,38.6-17.3,38.6-38.6
			C63.6,48.9,46.3,31.6,25,31.6z"/>
	</g>
	<g>
		<rect id="XMLID_32_" x="12.5" y="19.4" class="st0" width="25" height="18.8"/>
		<path class="st2" d="M37.5,39.1h-25c-0.5,0-0.9-0.4-0.9-0.9V19.4c0-0.5,0.4-0.9,0.9-0.9h25c0.5,0,0.9,0.4,0.9,0.9v18.8
			C38.4,38.6,38,39.1,37.5,39.1z M13.4,37.2h23.1V20.3H13.4V37.2z"/>
	</g>
	<path class="st2" d="M28.1,32.8h-6.3c-0.5,0-0.9-0.4-0.9-0.9v-6.3c0-0.5,0.4-0.9,0.9-0.9h6.3c0.5,0,0.9,0.4,0.9,0.9v6.3
		C29.1,32.4,28.6,32.8,28.1,32.8z M22.8,30.9h4.4v-4.4h-4.4V30.9z"/>
	<path id="XMLID_14_" class="st2" d="M39.4,22.2c-0.2,0-0.5-0.1-0.7-0.3L25,8.2L11.3,21.9c-0.4,0.4-1,0.4-1.3,0
		c-0.4-0.4-0.4-1,0-1.3L24.3,6.2c0.4-0.4,1-0.4,1.3,0L40,20.6c0.4,0.4,0.4,1,0,1.3C39.9,22.1,39.6,22.2,39.4,22.2z"/>
</g>
</svg>
