<?xml version="1.0" encoding="UTF-8" standalone="no"?>
<!-- Generator: Adobe Illustrator 19.0.0, SVG Export Plug-In . SVG Version: 6.00 Build 0)  -->

<svg
   xmlns:dc="http://purl.org/dc/elements/1.1/"
   xmlns:cc="http://creativecommons.org/ns#"
   xmlns:rdf="http://www.w3.org/1999/02/22-rdf-syntax-ns#"
   xmlns:svg="http://www.w3.org/2000/svg"
   xmlns="http://www.w3.org/2000/svg"
   xmlns:xlink="http://www.w3.org/1999/xlink"
   xmlns:sodipodi="http://sodipodi.sourceforge.net/DTD/sodipodi-0.dtd"
   xmlns:inkscape="http://www.inkscape.org/namespaces/inkscape"
   version="1.1"
   id="Layer_1"
   x="0px"
   y="0px"
   width="50px"
   height="50px"
   viewBox="0 0 50 50"
   style="enable-background:new 0 0 50 50;"
   xml:space="preserve"
   sodipodi:docname="cricket_mini_tournament.svg"
   inkscape:version="0.92.1 r15371"><metadata
     id="metadata28"><rdf:RDF><cc:Work
         rdf:about=""><dc:format>image/svg+xml</dc:format><dc:type
           rdf:resource="http://purl.org/dc/dcmitype/StillImage" /><dc:title></dc:title></cc:Work></rdf:RDF></metadata><defs
     id="defs26" /><sodipodi:namedview
     pagecolor="#ffffff"
     bordercolor="#666666"
     borderopacity="1"
     objecttolerance="10"
     gridtolerance="10"
     guidetolerance="10"
     inkscape:pageopacity="0"
     inkscape:pageshadow="2"
     inkscape:window-width="1920"
     inkscape:window-height="1018"
     id="namedview24"
     showgrid="false"
     inkscape:zoom="4.72"
     inkscape:cx="25"
     inkscape:cy="25"
     inkscape:window-x="-8"
     inkscape:window-y="-8"
     inkscape:window-maximized="1"
     inkscape:current-layer="g21" /><style
     type="text/css"
     id="style2">
	.st0{fill:#829922;}
	.st1{clip-path:url(#XMLID_10_);}
	.st2{fill:#FFFFFF;}
</style><g
     id="g21"><g
       id="XMLID_8_"
       style="fill:#272d0a;fill-opacity:1"><circle
         id="XMLID_300_"
         class="st0"
         cx="25"
         cy="25"
         r="25"
         style="fill:#272d0a;fill-opacity:1" /></g><g
       id="g19"><defs
         id="defs7"><circle
           id="XMLID_2_"
           cx="25"
           cy="25"
           r="25" /></defs><clipPath
         id="XMLID_10_"><use
           xlink:href="#XMLID_2_"
           style="overflow:visible;"
           id="use9" /></clipPath><g
         class="st1"
         clip-path="url(#XMLID_10_)"
         id="g17"><path
           class="st2"
           d="M29.3,19.7c0-2.1-1.7-3.9-3.9-3.9c-2.1,0-3.9,1.7-3.9,3.9c0,2.1,1.7,3.9,3.9,3.9     C27.5,23.6,29.3,21.9,29.3,19.7z M27.6,19.7c0,1.2-1,2.2-2.2,2.2c-1.2,0-2.2-1-2.2-2.2c0-1.2,1-2.2,2.2-2.2     C26.6,17.5,27.6,18.5,27.6,19.7z"
           id="path12" /><path
           id="XMLID_5_"
           class="st2"
           d="M25.4,38.5l-1.8-9.1C16,29.6,12.3,25.2,12.2,25c-0.2-0.3-0.3-0.7,0-1C13,23,26,9.5,26,9.5     c0.6-0.6,2.1-2.1,1.4-2.8c-0.5-0.4-1.8,1-2.5,1.8c-0.1,0.1-9.8,11.1-11.2,12.7c-0.3,0.3-0.8,0.4-1.2,0.1     c-0.3-0.3-0.4-0.8-0.1-1.2c1.4-1.6,11.1-12.6,11.2-12.7c1.1-1.3,2.9-3.3,4.7-2c2.3,1.7-0.3,4.3-1.2,5.3c0,0-12,12.4-13.2,13.8     c1.2,1.1,4.5,3.5,10.3,3.2c0.4,0,0.8,0.3,0.9,0.7l1.9,9.8c0.1,0.5-0.2,0.9-0.7,1C26.3,39.2,25.5,39.4,25.4,38.5z" /><path
           id="XMLID_4_"
           class="st2"
           d="M17.5,52.9c-0.1,0-1.2-0.2-0.8-1.1c0.2-0.4,0.3-0.8,0.4-1.2c1.3-3.8,2.9-8.6,8.7-10.6     c5.6-1.8,4.7-5.6,4.7-5.8c0,0,0,0,0,0l-1.6-8.6c-6.6,1.9-12.2-1.2-12.5-1.3c-0.4-0.2-0.5-0.7-0.3-1.1c0.2-0.4,0.7-0.5,1.1-0.3     l0,0c0.1,0,5.8,3,12,0.9c0.8-0.3,1.1,0.4,1.1,0.6l1.7,9.5c0.1,0.6,0.9,5.5-5.8,7.7c-5,1.7-6.4,5.6-7.6,9.5     c-0.1,0.4-0.3,0.9-0.4,1.3C18.2,52.7,17.8,52.9,17.5,52.9z" /><path
           id="XMLID_3_"
           class="st2"
           d="M35.7,52.7c-3.6-3.5-7.9-9.8-8.1-10.1c-0.3-0.4-0.2-0.9,0.2-1.2c0.4-0.3,0.9-0.2,1.2,0.2     c0,0.1,4.4,6.4,7.9,9.8c0.3,0.3,0.4,0.9,0,1.2C36.4,53.2,35.9,52.9,35.7,52.7z" /></g></g></g></svg>