<?xml version="1.0" encoding="UTF-8" standalone="no"?>
<!-- Generator: Adobe Illustrator 19.0.0, SVG Export Plug-In . SVG Version: 6.00 Build 0)  -->

<svg
   xmlns:dc="http://purl.org/dc/elements/1.1/"
   xmlns:cc="http://creativecommons.org/ns#"
   xmlns:rdf="http://www.w3.org/1999/02/22-rdf-syntax-ns#"
   xmlns:svg="http://www.w3.org/2000/svg"
   xmlns="http://www.w3.org/2000/svg"
   xmlns:xlink="http://www.w3.org/1999/xlink"
   xmlns:sodipodi="http://sodipodi.sourceforge.net/DTD/sodipodi-0.dtd"
   xmlns:inkscape="http://www.inkscape.org/namespaces/inkscape"
   version="1.1"
   id="Layer_1"
   x="0px"
   y="0px"
   width="50px"
   height="50px"
   viewBox="0 0 50 50"
   style="enable-background:new 0 0 50 50;"
   xml:space="preserve"
   sodipodi:docname="curling_newage_mini_tournament.svg"
   inkscape:version="0.92.1 r15371"><metadata
     id="metadata30"><rdf:RDF><cc:Work
         rdf:about=""><dc:format>image/svg+xml</dc:format><dc:type
           rdf:resource="http://purl.org/dc/dcmitype/StillImage" /><dc:title></dc:title></cc:Work></rdf:RDF></metadata><defs
     id="defs28" /><sodipodi:namedview
     pagecolor="#ffffff"
     bordercolor="#666666"
     borderopacity="1"
     objecttolerance="10"
     gridtolerance="10"
     guidetolerance="10"
     inkscape:pageopacity="0"
     inkscape:pageshadow="2"
     inkscape:window-width="1920"
     inkscape:window-height="1018"
     id="namedview26"
     showgrid="false"
     inkscape:zoom="4.72"
     inkscape:cx="25"
     inkscape:cy="25"
     inkscape:window-x="-8"
     inkscape:window-y="-8"
     inkscape:window-maximized="1"
     inkscape:current-layer="g23" /><style
     type="text/css"
     id="style2">
	.st0{fill:#E05024;}
	.st1{clip-path:url(#XMLID_37_);}
	.st2{fill:#FFFFFF;}
</style><g
     id="g23"><g
       id="XMLID_35_"
       style="fill:#9c3819;fill-opacity:1"><circle
         id="XMLID_55_"
         class="st0"
         cx="25"
         cy="25"
         r="25"
         style="fill:#9c3819;fill-opacity:1" /></g><g
       id="g21"><defs
         id="defs7"><circle
           id="XMLID_14_"
           cx="25"
           cy="25"
           r="25" /></defs><clipPath
         id="XMLID_37_"><use
           xlink:href="#XMLID_14_"
           style="overflow:visible;"
           id="use9" /></clipPath><g
         class="st1"
         clip-path="url(#XMLID_37_)"
         id="g19"><path
           class="st2"
           d="M33.8,15.8c2.3,0,4.2-1.9,4.2-4.2c0-2.3-1.9-4.2-4.2-4.2c-2.3,0-4.2,1.9-4.2,4.2     C29.6,13.9,31.5,15.8,33.8,15.8z M33.8,14c-1.3,0-2.4-1.1-2.4-2.4c0-1.3,1.1-2.4,2.4-2.4c1.3,0,2.4,1.1,2.4,2.4     C36.2,12.9,35.2,14,33.8,14z"
           id="path12" /><path
           id="XMLID_32_"
           class="st2"
           d="M44,29.6c-0.4,0.8-1.1,0.5-1.2,0.5c-5.1-2.2-8-7.7-8.2-8c-0.2-0.5-0.1-1,0.4-1.2     c0.4-0.2,1-0.1,1.2,0.4c0,0.1,2.7,5.2,7.3,7.1C44,28.6,44.2,29.2,44,29.6z" /><path
           id="XMLID_31_"
           class="st2"
           d="M41.2,49.9c-0.6,0.2-1.1-0.1-1.2-0.5c0-0.1-4.8-10.9-11.8-12.4c-2.1-0.5-3.6-1.5-4.5-3     c-1.5-2.7-0.5-6.1-0.4-6.4l2.3-8c0.1-0.5,0.6-0.8,1.1-0.6c0.5,0.1,0.8,0.6,0.6,1.1l-2.3,8.1c0,0,0,0,0,0c0,0-0.9,2.8,0.3,4.9     c0.6,1.1,1.7,1.8,3.3,2.1c7.9,1.7,12.9,13,13.1,13.5C41.9,49.2,41.7,49.7,41.2,49.9z" /><path
           id="XMLID_30_"
           class="st2"
           d="M14.5,49.3c-0.1-0.5,0.2-1,0.6-1.1c4.4-1.2,10.5-9.7,10.5-9.8c0.3-0.4,0.9-0.5,1.3-0.2     c0.4,0.3,0.5,0.9,0.2,1.3c-0.3,0.4-6.6,9.1-11.5,10.5C15,50.1,14.6,49.7,14.5,49.3z" /><path
           id="XMLID_29_"
           class="st2"
           d="M29.1,33.6c-0.1,0-0.2,0-0.3,0c-0.5-0.2-0.8-0.7-0.6-1.2l4.1-12.6c-1.4-0.8-5.1-2.9-9.6-3.6     c-6.3-1-11.6,1.4-11.7,1.4c-0.5,0.2-1,0-1.2-0.5c-0.2-0.5,0-1,0.5-1.2c0.2-0.1,5.9-2.6,12.7-1.5c6.1,0.9,10.7,4.1,10.9,4.3     c0.3,0.2,0.5,0.7,0.4,1.1L30,33C29.8,33.4,29.5,33.6,29.1,33.6z" /><path
           id="XMLID_19_"
           class="st2"
           d="M15.5,25.3H7.2c-0.5,0-0.9-0.4-0.9-0.9s0.4-0.9,0.9-0.9H14l-0.7-1.7c-1.3,0-2.8,0-3.1,0     c-0.5,0-1-0.4-1-0.9c0-0.5,0.4-1,0.9-1c0.5,0,3.5,0,3.8,0c0.4,0,0.7,0.2,0.9,0.6l1.6,3.6c0.1,0.3,0.1,0.6-0.1,0.9     C16.1,25.2,15.8,25.3,15.5,25.3z" /></g></g></g></svg>