<?xml version="1.0" encoding="utf-8"?>
<!-- Generator: Adobe Illustrator 15.0.0, SVG Export Plug-In . SVG Version: 6.00 Build 0)  -->
<!DOCTYPE svg PUBLIC "-//W3C//DTD SVG 1.1//EN" "http://www.w3.org/Graphics/SVG/1.1/DTD/svg11.dtd">
<svg version="1.1" id="Слой_1" xmlns="http://www.w3.org/2000/svg" xmlns:xlink="http://www.w3.org/1999/xlink" x="0px" y="0px"
	 width="1000px" height="1000px" viewBox="0 0 1000 1000" enable-background="new 0 0 1000 1000" xml:space="preserve">
<g>
	<path fill="#FFFFFF" d="M276.099,128.239c0,52.27,45.654,94.667,102.067,94.667c56.384,0,102.094-42.396,102.094-94.667
		c0-52.277-45.71-94.677-102.094-94.677C321.753,33.563,276.099,75.962,276.099,128.239"/>
	<path fill="#FFFFFF" d="M687.061,460.746c0,33.438,29.189,60.509,65.248,60.509c36.006,0,65.182-27.071,65.182-60.509
		c0-33.406-29.176-60.516-65.182-60.516C716.25,400.23,687.061,427.34,687.061,460.746"/>
	<path fill="#FFFFFF" d="M297.402,268.284c12.472-7.417,23.77-13.633,25.714-14.063c9.298-4.81,19.297-8.464,29.417-10.758
		l25.466,23.733l24.66-24.009c0.06,0,0.174,0,0.24,0.052c12.998,2.893,25.772,7.975,37.125,14.958
		c2.174,0.756,4.298,1.639,6.299,2.785c77.421,44.088,122.906,135.32,180.384,250.792c6.755,13.535,3.823,28.813-5.941,39.398
		c31.237,25.266,108.597-16.753,115.139-18.225l16.237,15.168l15.77-15.332c0.058,0,0.117,0.055,0.117,0.055
		c11.118,2.455,41.831,21.335,52.713,27.339c0.995,0.382,2.067,0.71,3.06,1.256c2.292,1.199,56.484,30.829,56.484,117.647
		c0,11.842-10.363,21.498-23.181,21.498c-12.835,0-23.181-9.656-23.181-21.498c0-28.704-7.291-48.021-15.005-60.57v30.503
		l25.535,135.438h-28.888l-0.058,154.208c0,15.336-13.362,27.778-29.892,27.778c-16.533,0-29.939-12.442-29.939-27.778
		l0.043-154.208h-4.292v154.208c0,15.336-13.4,27.778-29.883,27.778c-16.6,0-29.94-12.442-29.94-27.778l-0.066-154.208h-33.115
		l26.949-135.82v-39.833c-9.355,3.163-19.372,5.17-30.023,5.17c-22.167,0-47.293-8.827-76.241-34.475
		c-6.113-5.402-8.646-12.986-7.536-20.191c-7.115-3.653-13.177-9.273-16.815-16.697c-25.653-51.566-48.731-97.732-72.314-135.17
		v127.313c0,9.878-2.064,19.099-5.652,27.61c0.247,1.913,0.408,3.825,0.408,5.84v351.95c0,24.023-20.993,43.449-46.825,43.449
		c-25.889,0-46.825-19.426-46.825-43.449V618.059c-1.84,0.123-3.72,0.232-5.606,0.232h-1.051v301.856
		c0,24.023-20.937,43.449-46.838,43.449h-0.051c-25.834,0-46.785-19.426-46.785-43.449l-0.058-349.834
		c-6.115-10.521-9.7-22.471-9.7-35.566V401.275c-0.178,0.489-0.117-4.64-0.063-13.158c-24.415,28.539-52.123,70.238-75.423,129.548
		c-5.937,15.117-21.354,24.56-37.783,24.56c-4.514,0-9.231-0.766-13.766-2.295c-6.517-2.19-11.413-6.432-16.203-10.522
		c-23.638-20.199,0-56.085,0-56.085C193.512,326.492,282.9,275.76,297.402,268.284"/>
</g>
</svg>
