<?xml version="1.0" encoding="utf-8"?>
<!-- Generator: Adobe Illustrator 19.0.0, SVG Export Plug-In . SVG Version: 6.00 Build 0)  -->
<svg version="1.1" id="Layer_1" xmlns="http://www.w3.org/2000/svg" xmlns:xlink="http://www.w3.org/1999/xlink" x="0px" y="0px"
	 width="50px" height="50px" viewBox="0 0 50 50" style="enable-background:new 0 0 50 50;" xml:space="preserve">
<style type="text/css">
	.st0{fill:#96DB79;}
	.st1{clip-path:url(#SVGID_2_);}
	.st2{fill:#FFFFFF;}
</style>
<g>
	<g>
		<circle id="XMLID_19_" class="st0" cx="25" cy="25" r="25"/>
	</g>
	<g>
		<defs>
			<circle id="SVGID_1_" cx="25" cy="25" r="25"/>
		</defs>
		<clipPath id="SVGID_2_">
			<use xlink:href="#SVGID_1_"  style="overflow:visible;"/>
		</clipPath>
		<g class="st1">
			<path class="st2" d="M18.6,12.6c0-2.4,1.9-4.3,4.3-4.3c2.4,0,4.3,1.9,4.3,4.3c0,2.4-1.9,4.3-4.3,4.3C20.5,16.9,18.6,15,18.6,12.6
				z M20.4,12.6c0,1.4,1.1,2.5,2.5,2.5c1.4,0,2.5-1.1,2.5-2.5c0-1.4-1.1-2.5-2.5-2.5C21.5,10.1,20.4,11.2,20.4,12.6z"/>
			<path class="st2" d="M37.2,49.8c0.4-0.3,0.4-0.9,0.1-1.3c-3.6-4.2-5.7-8.6-5.7-8.7c-0.2-0.5-0.8-0.7-1.2-0.4
				c-0.5,0.2-0.7,0.8-0.4,1.2c0.1,0.2,2.2,4.7,6,9.1C36,49.9,36.6,50.2,37.2,49.8z"/>
			<path class="st2" d="M25.9,38.9c0.9,0,1.6-0.1,2.3-0.3c3.2-0.8,5-3.1,5.5-5c1.1-3.8-0.6-9.3-1.4-11.4c2.7-1.2,6.1-3.6,8.2-8.2
				c0.2-0.5,0-1-0.5-1.2c-0.5-0.2-1,0-1.2,0.5c-2.1,4.6-5.5,6.7-8,7.6c-0.2,0.1-0.4,0.3-0.5,0.5c-0.1,0.2-0.1,0.5,0,0.7
				c0,0.1,2.8,7,1.6,11.1c-0.4,1.4-1.8,3.2-4.2,3.8C24.9,37.5,18.5,37,7.8,26c-0.4-0.4-0.9-0.4-1.3,0c-0.4,0.4-0.4,0.9,0,1.3
				C15.4,36.5,21.7,38.9,25.9,38.9z"/>
			<path class="st2" d="M27.8,35.2c0.1,0,0.2,0,0.3,0c0.5-0.2,0.8-0.7,0.6-1.2l-4.4-13.6c2-0.1,6-0.7,9.1-3.6c4-3.6,5.5-8,5.6-8.2
				c0.2-0.5-0.1-1-0.6-1.2c-0.5-0.2-1,0.1-1.2,0.6c0,0-1.5,4.2-5.1,7.5c-3.7,3.4-9,3.1-9,3.1c-0.3,0-0.6,0.1-0.8,0.4
				c-0.2,0.2-0.2,0.6-0.2,0.9l4.7,14.9C27.1,34.9,27.4,35.2,27.8,35.2z"/>
		</g>
	</g>
</g>
</svg>
