<?xml version="1.0" encoding="utf-8"?>
<!-- Generator: Adobe Illustrator 19.0.0, SVG Export Plug-In . SVG Version: 6.00 Build 0)  -->
<svg version="1.1" id="Layer_1" xmlns="http://www.w3.org/2000/svg" xmlns:xlink="http://www.w3.org/1999/xlink" x="0px" y="0px"
	 width="50px" height="50px" viewBox="0 0 50 50" style="enable-background:new 0 0 50 50;" xml:space="preserve">
<style type="text/css">
	.st0{fill:#4DCAD4;}
	.st1{clip-path:url(#XMLID_35_);}
	.st2{fill:#FFFFFF;}
</style>
<g>
	<g id="XMLID_33_">
		<circle id="XMLID_53_" class="st0" cx="25" cy="25" r="25"/>
	</g>
	<g>
		<defs>
			<circle id="XMLID_14_" cx="25" cy="25" r="25"/>
		</defs>
		<clipPath id="XMLID_35_">
			<use xlink:href="#XMLID_14_"  style="overflow:visible;"/>
		</clipPath>
		<g class="st1">
			<path class="st2" d="M21.9,21.2c2.4,0,4.4-2,4.4-4.4c0-2.4-2-4.4-4.4-4.4c-2.4,0-4.4,2-4.4,4.4C17.5,19.3,19.5,21.2,21.9,21.2z
				 M21.9,19.3c-1.4,0-2.5-1.1-2.5-2.5c0-1.4,1.1-2.5,2.5-2.5c1.4,0,2.5,1.1,2.5,2.5C24.3,18.2,23.2,19.3,21.9,19.3z"/>
			<path id="XMLID_30_" class="st2" d="M17.5,55.4c0.5,0,0.9-0.4,0.9-0.8c0-0.5,1.2-12.1,0.9-17.5c-0.2-4,0.6-10,0.9-12.1h5.5
				c8.1,0,9-7,9-7.1c0.1-0.5-0.3-1-0.8-1c-0.5-0.1-1,0.3-1,0.8c0,0.2-0.7,5.4-7.2,5.4h-6.3c-0.5,0-0.8,0.3-0.9,0.8
				c-0.1,0.3-1.4,8.2-1.1,13.3c0.3,5.3-0.8,17.1-0.9,17.2C16.5,54.9,16.9,55.3,17.5,55.4C17.4,55.4,17.4,55.4,17.5,55.4z"/>
			<path id="XMLID_29_" class="st2" d="M21.9,55.4c0.4,0,0.8-0.3,0.9-0.7c0.1-0.5,3.4-12.1,3-17.7C25.5,32,25,27,25,27
				c-0.1-0.5-0.5-0.9-1-0.8c-0.5,0.1-0.9,0.5-0.8,1c0,0,0.5,5,0.8,10c0.3,5.2-2.9,16.9-3,17.1c-0.1,0.5,0.2,1,0.7,1.2
				C21.7,55.4,21.8,55.4,21.9,55.4z"/>
			<path id="XMLID_19_" class="st2" d="M31.4,17.5h5.2c0.5,0,0.9-0.4,0.9-0.9s-0.4-0.9-0.9-0.9h-5.2c-0.5,0-0.9,0.4-0.9,0.9
				S30.9,17.5,31.4,17.5z"/>
		</g>
	</g>
</g>
</svg>
