<?xml version="1.0" encoding="UTF-8" standalone="no"?>
<!-- Generator: Adobe Illustrator 19.0.0, SVG Export Plug-In . SVG Version: 6.00 Build 0)  -->

<svg
   xmlns:dc="http://purl.org/dc/elements/1.1/"
   xmlns:cc="http://creativecommons.org/ns#"
   xmlns:rdf="http://www.w3.org/1999/02/22-rdf-syntax-ns#"
   xmlns:svg="http://www.w3.org/2000/svg"
   xmlns="http://www.w3.org/2000/svg"
   xmlns:xlink="http://www.w3.org/1999/xlink"
   xmlns:sodipodi="http://sodipodi.sourceforge.net/DTD/sodipodi-0.dtd"
   xmlns:inkscape="http://www.inkscape.org/namespaces/inkscape"
   version="1.1"
   id="Layer_1"
   x="0px"
   y="0px"
   width="50px"
   height="50px"
   viewBox="0 0 50 50"
   style="enable-background:new 0 0 50 50;"
   xml:space="preserve"
   sodipodi:docname="discus_throw_15k.svg"
   inkscape:version="0.92.1 r15371"><metadata
     id="metadata4518"><rdf:RDF><cc:Work
         rdf:about=""><dc:format>image/svg+xml</dc:format><dc:type
           rdf:resource="http://purl.org/dc/dcmitype/StillImage" /><dc:title></dc:title></cc:Work></rdf:RDF></metadata><defs
     id="defs4516" /><sodipodi:namedview
     pagecolor="#ffffff"
     bordercolor="#666666"
     borderopacity="1"
     objecttolerance="10"
     gridtolerance="10"
     guidetolerance="10"
     inkscape:pageopacity="0"
     inkscape:pageshadow="2"
     inkscape:window-width="1920"
     inkscape:window-height="1018"
     id="namedview4514"
     showgrid="false"
     inkscape:zoom="16.98"
     inkscape:cx="25"
     inkscape:cy="25"
     inkscape:window-x="-8"
     inkscape:window-y="-8"
     inkscape:window-maximized="1"
     inkscape:current-layer="g4511" /><style
     type="text/css"
     id="style4485">
	.st0{fill:#75D68E;}
	.st1{clip-path:url(#XMLID_38_);}
	.st2{fill:#F5F5F5;}
	.st3{fill:#FFFFFF;}
</style><g
     id="g4511"><g
       id="XMLID_36_"
       style="fill:#3a6b47;fill-opacity:1"><circle
         id="XMLID_56_"
         class="st0"
         cx="25"
         cy="25"
         r="25"
         style="fill:#3a6b47;fill-opacity:1" /></g><g
       id="g4509"><defs
         id="defs4490"><circle
           id="XMLID_14_"
           cx="25"
           cy="25"
           r="25" /></defs><clipPath
         id="XMLID_38_"><use
           xlink:href="#XMLID_14_"
           style="overflow:visible;"
           id="use4492" /></clipPath><g
         class="st1"
         clip-path="url(#XMLID_38_)"
         id="g4507"><g
           id="g4503"><g
             id="g4499"><path
               id="XMLID_35_"
               class="st2"
               d="M27.5,35.9l7.6-9.7c0.2-0.3,0.3-0.7,0.1-1c-0.1-0.3-5.7-8.1-27.1-6.8       c-0.5,0-0.9,0.4-0.9,0.9c0,0.5,0.4,0.9,0.9,0.9c17.4-0.9,23.9,4,25.1,5.4L26,34.8c-0.3,0.4-0.3,1,0.2,1.3       C26.7,36.5,27.3,36.2,27.5,35.9z" /><path
               id="XMLID_34_"
               class="st2"
               d="M33,54c0.2-0.3,5.8-6.4,4.1-11.1c-0.9-2.4-3.4-4-7.5-4.6c-4.3-0.6-6.9-1.9-7.6-3.7       c-0.7-2,1.2-4.2,1.2-4.3l4.6-5.5c0.3-0.4,0.3-1-0.1-1.3c-0.4-0.3-1-0.3-1.3,0.1l-4.6,5.5c-0.1,0.1-2.6,3.1-1.5,6.1       c0.9,2.5,4,4.1,9.1,4.9c3.4,0.5,5.4,1.6,6.1,3.4c1.1,3.1-2.3,7.7-3.7,9.3c-0.3,0.4-0.3,1,0.1,1.3C32.2,54.6,32.8,54.2,33,54z" /><path
               id="XMLID_33_"
               class="st2"
               d="M10.9,52.9l12.3-12.1c0.4-0.4,0.4-0.9,0-1.3c-0.4-0.4-0.9-0.4-1.3,0L9.6,51.6       c-0.4,0.4-0.4,0.9-0.1,1.3C10.1,53.5,10.7,53.1,10.9,52.9z" /><path
               id="XMLID_32_"
               class="st2"
               d="M44.8,29.3c2.2-2,1.3-5.7,1.3-5.8c-0.1-0.5-0.6-0.8-1.1-0.7c-0.5,0.1-0.8,0.6-0.7,1.1       c0,0,0.6,2.7-0.8,4c-1.1,1-3.3,1-6.5,0c-0.5-0.2-1,0.1-1.2,0.6c-0.2,0.5,0.1,1,0.6,1.2C42,31.6,43.8,30.1,44.8,29.3z" /></g><path
             class="st2"
             d="M37.9,16.7c0-2.3-1.9-4.2-4.2-4.2c-2.3,0-4.2,1.9-4.2,4.2c0,2.3,1.9,4.2,4.2,4.2C36,21,37.9,19.1,37.9,16.7      z M36,16.7c0,1.3-1.1,2.4-2.4,2.4c-1.3,0-2.4-1.1-2.4-2.4s1.1-2.4,2.4-2.4C35,14.3,36,15.4,36,16.7z"
             id="path4501" /></g><path
           class="st3"
           d="M11.1,28.2c-2.7,0-4.8-1.5-4.8-3.3c0-1.9,2.1-3.3,4.8-3.3s4.8,1.5,4.8,3.3C15.9,26.7,13.8,28.2,11.1,28.2z      M11.1,23.4c-1.7,0-3,0.8-3,1.5s1.3,1.5,3,1.5s3-0.8,3-1.5S12.8,23.4,11.1,23.4z"
           id="path4505" /></g></g></g></svg>