<?xml version="1.0" encoding="utf-8"?>
<!-- Generator: Adobe Illustrator 19.0.0, SVG Export Plug-In . SVG Version: 6.00 Build 0)  -->
<svg version="1.1" id="Layer_1" xmlns="http://www.w3.org/2000/svg" xmlns:xlink="http://www.w3.org/1999/xlink" x="0px" y="0px"
	 width="50px" height="50px" viewBox="0 0 50 50" style="enable-background:new 0 0 50 50;" xml:space="preserve">
<style type="text/css">
	.st0{fill:#00A084;}
	.st1{clip-path:url(#XMLID_37_);}
	.st2{fill:#FFFFFF;}
</style>
<g>
	<g id="XMLID_35_">
		<circle id="XMLID_55_" class="st0" cx="25" cy="25" r="25"/>
	</g>
	<g>
		<defs>
			<circle id="XMLID_14_" cx="25" cy="25" r="25"/>
		</defs>
		<clipPath id="XMLID_37_">
			<use xlink:href="#XMLID_14_"  style="overflow:visible;"/>
		</clipPath>
		<g class="st1">
			<g>
				<path class="st2" d="M19.6,12.1C20.1,9.8,18.2,7,15.5,7c-2,0-3.6,1.4-4.1,3.3c-0.9,3.6,3.8,12.9,15.3,14.8l-3.8,12.4
					c-0.2,0.5,0.1,1,0.6,1.2c0.6,0.2,1-0.2,1.2-0.6l4.1-13.4c0.1-0.3,0-0.6-0.1-0.8c-0.2-0.2-0.4-0.4-0.7-0.4
					c-0.1,0-9.3-1.3-13.3-8.1C15.4,15.6,18.9,15.7,19.6,12.1z M17.8,11.7c-0.4,2.1-2.6,1.8-2.8,1.8c-1.9-0.4-1.9-2.2-1.8-2.8
					c0.3-1.1,1.3-2.1,2.8-1.8C17.2,9.2,18,10.4,17.8,11.7z"/>
				<path id="XMLID_32_" class="st2" d="M29.1,27.2c-0.3-0.4-0.3-1,0.2-1.3c0.4-0.3,1-0.3,1.3,0.2c0,0,3.5,4.3,9.5,4.3
					c0.5,0,0.9,0.4,0.9,0.9c0,0.5-0.4,0.9-0.9,0.9C33.2,32.3,29.3,27.4,29.1,27.2z"/>
				<path id="XMLID_31_" class="st2" d="M17.8,31.3l1.3-4.8c0.1-0.5,0.7-0.8,1.2-0.7c0.5,0.1,0.8,0.7,0.7,1.2l-1.3,4.8
					c-0.1,0.2-1.5,6,4.5,8c3.4,1.1,5.8,3.1,7.2,5.8c2.3,4.6,0.5,9.7,0.4,9.9c-0.1,0.4-0.6,0.8-1.2,0.6c-0.5-0.2-0.7-0.7-0.6-1.2
					c0,0,1.6-4.6-0.3-8.5c-1.1-2.2-3.1-3.8-6.1-4.8C17.3,39.6,17.1,34,17.8,31.3z"/>
				<path id="XMLID_30_" class="st2" d="M9.5,55.1C18.3,50.3,21,43,21,42.9c0.2-0.5,0.7-0.7,1.2-0.6c0.5,0.2,0.7,0.7,0.6,1.2
					c-0.1,0.3-2.9,8.1-12.4,13.2c-0.1,0.1-0.9,0.3-1.3-0.4C8.9,55.9,9,55.3,9.5,55.1z"/>
			</g>
			<path class="st2" d="M26,21.2c2.5,0,4.5-2,4.5-4.5c0-2.5-2-4.5-4.5-4.5c-2.5,0-4.5,2-4.5,4.5C21.5,19.2,23.5,21.2,26,21.2z
				 M26,19.3c-1.4,0-2.5-1.1-2.5-2.5c0-1.4,1.1-2.5,2.5-2.5c1.4,0,2.5,1.1,2.5,2.5C28.5,18.2,27.4,19.3,26,19.3z"/>
		</g>
	</g>
</g>
</svg>
