<?xml version="1.0" encoding="UTF-8" standalone="no"?>
<!-- Created with Inkscape (http://www.inkscape.org/) -->

<svg
   xmlns:dc="http://purl.org/dc/elements/1.1/"
   xmlns:cc="http://creativecommons.org/ns#"
   xmlns:rdf="http://www.w3.org/1999/02/22-rdf-syntax-ns#"
   xmlns:svg="http://www.w3.org/2000/svg"
   xmlns="http://www.w3.org/2000/svg"
   xmlns:sodipodi="http://sodipodi.sourceforge.net/DTD/sodipodi-0.dtd"
   xmlns:inkscape="http://www.inkscape.org/namespaces/inkscape"
   width="7.0555639mm"
   height="7.055584mm"
   viewBox="0 0 25.00003 25.000101"
   id="svg4358"
   version="1.1"
   inkscape:version="0.91 r13725"
   sodipodi:docname="edit2.svg">
  <defs
     id="defs4360" />
  <sodipodi:namedview
     id="base"
     pagecolor="#ffffff"
     bordercolor="#666666"
     borderopacity="1.0"
     inkscape:pageopacity="0.0"
     inkscape:pageshadow="2"
     inkscape:zoom="1.979899"
     inkscape:cx="-45.260772"
     inkscape:cy="-12.722668"
     inkscape:document-units="px"
     inkscape:current-layer="layer1"
     showgrid="false"
     fit-margin-top="0"
     fit-margin-left="0"
     fit-margin-right="0"
     fit-margin-bottom="0"
     inkscape:window-width="1280"
     inkscape:window-height="1000"
     inkscape:window-x="0"
     inkscape:window-y="0"
     inkscape:window-maximized="1" />
  <metadata
     id="metadata4363">
    <rdf:RDF>
      <cc:Work
         rdf:about="">
        <dc:format>image/svg+xml</dc:format>
        <dc:type
           rdf:resource="http://purl.org/dc/dcmitype/StillImage" />
        <dc:title></dc:title>
      </cc:Work>
    </rdf:RDF>
  </metadata>
  <g
     inkscape:label="Layer 1"
     inkscape:groupmode="layer"
     id="layer1"
     transform="translate(-333.21441,-602.7196)">
    <path
       inkscape:connector-curvature="0"
       id="path740"
       style="fill:#8c8c8c;fill-opacity:1;fill-rule:nonzero;stroke:none"
       d="m 339.20441,625.6072 -1.76625,0 0,-2.1125 -2.11125,0 0,-1.765 1.50125,-1.50125 3.8775,3.8775 -1.50125,1.50125 z m -5.99,-4.7525 0,6.865 6.86375,0 13.72875,-13.73 -6.86375,-6.86375 -13.72875,13.72875 z" />
    <g
       id="g742"
       transform="matrix(1.25,0,0,-1.25,357.60319,607.20835)">
      <path
         d="m 0,0 -3.102,3.09 c -0.318,0.316 -0.753,0.501 -1.201,0.501 -0.449,0 -0.886,-0.185 -1.19,-0.501 L -7.683,0.911 -2.192,-4.58 0,-2.389 c 0.304,0.304 0.489,0.74 0.489,1.188 C 0.489,-0.753 0.304,-0.317 0,0"
         style="fill:#8c8c8c;fill-opacity:1;fill-rule:nonzero;stroke:none"
         id="path744"
         inkscape:connector-curvature="0" />
    </g>
  </g>
</svg>
