<?xml version="1.0" encoding="utf-8"?>
<!-- Generator: Adobe Illustrator 16.0.0, SVG Export Plug-In . SVG Version: 6.00 Build 0)  -->
<!DOCTYPE svg PUBLIC "-//W3C//DTD SVG 1.1//EN" "http://www.w3.org/Graphics/SVG/1.1/DTD/svg11.dtd">
<svg version="1.1" id="Layer_1" xmlns="http://www.w3.org/2000/svg" xmlns:xlink="http://www.w3.org/1999/xlink" x="0px" y="0px"
	 width="1000px" height="1000px" viewBox="0 0 1000 1000" enable-background="new 0 0 1000 1000" xml:space="preserve">
<g>
	<path d="M950.628,139.555l-96.617-96.618c-11.984-11.983-26.919-17.883-42.776-17.883s-31.9,5.991-42.783,17.883l-64.716,64.724
		c-12.907-3.965-27.842-1.016-37.8,7.927l-27.841,27.84c-10.969,10.974-12.909,27.842-7.01,41.858L318.367,498.005
		c-1.015,1.017-2.032,2.033-2.032,2.951v1.015c-1.01,1.018-1.01,2.031-2.026,2.951l-55.683,169.357l-5.993,17.89l-5.992,17.884
		c0,1.011,0,2.026-1.015,2.026c-2.032,9.958,0,17.885,2.949,22.866c1.016,2.026,2.026,3.96,2.95,4.977
		c5.993,7.007,14.934,10.973,24.894,10.973h6.913c1.012,0,2.027,0,2.027-1.016l24.893-7.925l179.225-58.731
		c2.951-1.011,4.976-2.027,7.009-3.961l313.64-313.641c3.967,2.025,7.926,2.025,12.909,2.025c9.957,0,18.898-3.966,25.906-10.974
		l27.843-27.842c10.967-10.967,12.901-25.902,7.926-38.809l64.718-64.724C974.508,202.345,974.508,163.437,950.628,139.555
		L950.628,139.555z M485.608,639.43L434.9,588.637l297.692-298.709l50.8,50.794L485.608,639.43z M706.684,264.021L408.994,562.729
		l-50.8-51.724l297.693-297.692L706.684,264.021z M322.328,699.171l-24.893-24.892l42.781-129.435l111.553,111.552L322.328,699.171z
		 M830.134,325.788c-1.017-1.016-1.017-2.026-2.031-2.026L673.774,168.414c-2.032-2.026-2.949-2.95-4.98-3.96l21.941-22.865
		l2.032,2.025l156.358,156.365c1.017,1.011,2.026,2.026,2.949,2.026L830.134,325.788z M924.725,200.313l-62.696,62.691
		L731.577,131.629l62.691-62.691c8.941-8.942,24.892-8.942,33.839,0l96.617,96.526C933.668,175.422,933.668,190.355,924.725,200.313
		L924.725,200.313z M924.725,200.313"/>
</g>
<path fill-rule="evenodd" clip-rule="evenodd" d="M643.266,615.046c-18.052,0-32.599,14.667-32.599,32.588v271.872H88.622V397.567
	h271.847c18.054,0,32.735-14.656,32.735-32.601c0-18.05-14.681-32.585-32.735-32.585H66.985c-23.999,0-43.552,19.405-43.552,43.407
	v565.487c0,24.001,19.553,43.54,43.552,43.54h565.342c24.002,0,43.54-19.539,43.54-43.54V647.634
	C675.867,629.713,661.322,615.046,643.266,615.046L643.266,615.046z M327.869,723.799"/>
</svg>
