<?xml version="1.0" encoding="utf-8"?>
<!-- Generator: Adobe Illustrator 16.0.0, SVG Export Plug-In . SVG Version: 6.00 Build 0)  -->
<!DOCTYPE svg PUBLIC "-//W3C//DTD SVG 1.1//EN" "http://www.w3.org/Graphics/SVG/1.1/DTD/svg11.dtd">
<svg version="1.1" id="Layer_1" xmlns="http://www.w3.org/2000/svg" xmlns:xlink="http://www.w3.org/1999/xlink" x="0px" y="0px"
	 width="1000px" height="1000px" viewBox="0 0 1000 1000" enable-background="new 0 0 1000 1000" xml:space="preserve">
<g>
	<g>
		<path d="M499.085,764.732c-109.101,0-226.531-42.666-339.578-123.4C75,580.993,22.837,521.202,20.661,518.683
			c-8.925-10.31-8.925-25.613,0-35.925C22.837,480.24,75,420.447,159.507,360.11c113.058-80.726,230.478-123.402,339.578-123.402
			c109.104,0,226.525,42.676,339.582,123.402c84.508,60.337,136.668,120.13,138.845,122.647c8.928,10.312,8.928,25.615,0,35.925
			c-2.177,2.52-54.337,62.311-138.845,122.649C725.61,722.066,608.189,764.732,499.085,764.732L499.085,764.732z M79.019,500.721
			c21.091,21.511,60.896,59.331,113.464,96.735c72.054,51.271,183.74,112.403,306.603,112.403
			c122.855,0,234.541-61.132,306.604-112.403c52.558-37.393,92.363-75.225,113.466-96.735
			c-21.093-21.509-60.908-59.33-113.466-96.735c-72.063-51.271-183.749-112.403-306.604-112.403
			c-122.863,0-234.548,61.132-306.603,112.403C139.926,441.391,100.109,479.211,79.019,500.721L79.019,500.721z M79.019,500.721"/>
	</g>
	<path d="M499.085,670.827c-93.796,0-170.105-76.308-170.105-170.106c0-93.799,76.31-170.105,170.105-170.105
		c41.253,0,81.047,14.959,112.053,42.119c11.392,9.988,12.538,27.318,2.551,38.712c-9.979,11.401-27.319,12.547-38.711,2.558
		c-20.996-18.39-47.95-28.517-75.893-28.517c-63.543,0-115.232,51.701-115.232,115.232c0,63.543,51.689,115.233,115.232,115.233
		c63.546,0,115.235-51.69,115.235-115.233c0-15.152,12.282-27.435,27.438-27.435c15.153,0,27.436,12.282,27.436,27.435
		C669.193,594.52,592.886,670.827,499.085,670.827L499.085,670.827z M499.085,670.827"/>
	<path d="M499.085,555.594c-30.253,0-54.872-24.618-54.872-54.873c0-30.253,24.619-54.872,54.872-54.872
		c30.258,0,54.875,24.619,54.875,54.872C553.96,530.976,529.343,555.594,499.085,555.594L499.085,555.594z M499.085,555.594"/>
</g>
</svg>
