<?xml version="1.0" encoding="utf-8"?>
<!-- Generator: Adobe Illustrator 19.0.0, SVG Export Plug-In . SVG Version: 6.00 Build 0)  -->
<svg version="1.1" id="Layer_1" xmlns="http://www.w3.org/2000/svg" xmlns:xlink="http://www.w3.org/1999/xlink" x="0px" y="0px"
	 width="50px" height="50px" viewBox="0 0 50 50" style="enable-background:new 0 0 50 50;" xml:space="preserve">
<style type="text/css">
	.st0{fill:#5C995C;}
	.st1{clip-path:url(#XMLID_13_);}
	.st2{fill:#FFFFFF;}
</style>
<g>
	<g id="XMLID_10_">
		<circle id="XMLID_302_" class="st0" cx="25" cy="25" r="25"/>
	</g>
	<g>
		<defs>
			<circle id="XMLID_2_" cx="25" cy="25" r="25"/>
		</defs>
		<clipPath id="XMLID_13_">
			<use xlink:href="#XMLID_2_"  style="overflow:visible;"/>
		</clipPath>
		<g class="st1">
			<g>
				<path id="XMLID_9_" class="st2" d="M28,25.6c0.7-0.1,1.1-0.7,1-1.4c-0.1-0.9-1-1.1-1.4-1c-0.5,0.1-0.9-0.3-0.9-0.7
					c-0.1-0.5,0.3-0.9,0.7-0.9c0.8-0.1,2.3,0.1,2.9,1.4c0,0,13.5-4.2,13.5-4.2c0.4-0.1,0.9,0.1,1.1,0.6c0.1,0.4-0.1,0.9-0.6,1.1
					c0,0-13.6,4.2-13.6,4.2c-0.1,1.4-1.1,2.6-2.5,2.8c0,0-0.1,0-0.1,0c-0.4,0-0.8-0.3-0.8-0.7C27.2,26.1,27.6,25.7,28,25.6z"/>
				<path id="XMLID_8_" class="st2" d="M-2,13.7c0.1-0.5,0.5-0.8,1-0.7c0.5,0.1,0.8,0.5,0.7,1c0,0-0.4,3.2,2,5.7
					c2.6,2.7,7.5,3.7,14.3,3c0.2,0,0.9,0.1,0.9,0.8l-0.1,11.9c0,0.5-0.4,0.8-0.8,0.8c0,0,0,0,0,0c-0.5,0-0.8-0.4-0.8-0.9l0.1-11
					c-7,0.6-11.9-0.6-14.8-3.6C-2.5,17.7-2,13.9-2,13.7z"/>
				<path id="XMLID_7_" class="st2" d="M8.6,32.2L8.6,32.2l0-6c0-0.5,0.4-0.8,0.8-0.8c0,0,0,0,0,0c0.5,0,0.8,0.4,0.8,0.9l0,6
					c0,0,0,0,0,0c0,0-0.1,5,7.3,6.4c1.9,0.4,3.3,1.3,4.1,2.7c2.1,3.4,0.6,8.7,0.5,8.9c-0.1,0.4-0.5,0.7-1.1,0.6
					c-0.5-0.1-0.7-0.6-0.6-1.1c0,0,1.4-4.7-0.3-7.5c-0.6-1.1-1.6-1.7-3-2C8.8,38.7,8.6,32.7,8.6,32.2z"/>
				<path id="XMLID_6_" class="st2" d="M5.5,49.5c3.7-2.9,7.6-8.7,7.7-8.8c0.3-0.4,0.8-0.5,1.2-0.2c0.4,0.3,0.5,0.8,0.2,1.2
					c-0.2,0.2-4.1,6-8,9.1c-0.2,0.1-0.8,0.4-1.2-0.1C5,50.3,5.1,49.8,5.5,49.5z"/>
				<path id="XMLID_5_" class="st2" d="M18.2,23.8c0.2-0.4,0.7-0.6,1.1-0.4c0,0,2.3,1.1,7.5,0.2c0.5-0.1,0.9,0.2,1,0.7
					c0.1,0.5-0.2,0.9-0.7,1c-4.8,1-8.6-0.4-8.6-0.4C18.1,24.8,18,24.2,18.2,23.8z"/>
			</g>
			<path class="st2" d="M11.4,20.5c2.2,0,3.9-1.8,3.9-3.9c0-2.2-1.8-3.9-3.9-3.9c-2.2,0-3.9,1.8-3.9,3.9
				C7.5,18.8,9.3,20.5,11.4,20.5z M11.4,18.8c-1.2,0-2.2-1-2.2-2.2c0-1.2,1-2.2,2.2-2.2c1.2,0,2.2,1,2.2,2.2
				C13.6,17.8,12.6,18.8,11.4,18.8z"/>
		</g>
	</g>
</g>
</svg>
