<?xml version="1.0" encoding="utf-8"?>
<!-- Generator: Adobe Illustrator 19.0.0, SVG Export Plug-In . SVG Version: 6.00 Build 0)  -->
<svg version="1.1" id="Layer_1" xmlns="http://www.w3.org/2000/svg" xmlns:xlink="http://www.w3.org/1999/xlink" x="0px" y="0px"
	 width="50px" height="50px" viewBox="0 0 50 50" style="enable-background:new 0 0 50 50;" xml:space="preserve">
<style type="text/css">
	.st0{fill:#666564;}
	.st1{clip-path:url(#XMLID_38_);}
	.st2{fill:#FFFFFF;}
</style>
<g>
	<g id="XMLID_36_">
		<circle id="XMLID_56_" class="st0" cx="25" cy="25" r="25"/>
	</g>
	<g>
		<defs>
			<circle id="XMLID_14_" cx="25" cy="25" r="25"/>
		</defs>
		<clipPath id="XMLID_38_">
			<use xlink:href="#XMLID_14_"  style="overflow:visible;"/>
		</clipPath>
		<g class="st1">
			<path class="st2" d="M21.4,13.3c2.3,0,4.1-1.9,4.1-4.1c0-2.3-1.9-4.1-4.1-4.1c-2.3,0-4.1,1.9-4.1,4.1
				C17.3,11.5,19.2,13.3,21.4,13.3z M21.4,11.5c-1.3,0-2.3-1.1-2.3-2.3c0-1.3,1.1-2.3,2.3-2.3c1.3,0,2.3,1.1,2.3,2.3
				C23.8,10.5,22.7,11.5,21.4,11.5z"/>
			<path class="st2" d="M38,38.6c0-2.3-1.9-4.1-4.1-4.1c-2.3,0-4.1,1.9-4.1,4.1c0,2.3,1.9,4.1,4.1,4.1C36.1,42.8,38,40.9,38,38.6z
				 M36.2,38.6c0,1.3-1.1,2.3-2.3,2.3c-1.3,0-2.3-1.1-2.3-2.3c0-1.3,1.1-2.3,2.3-2.3C35.2,36.3,36.2,37.4,36.2,38.6z"/>
			<path id="XMLID_31_" class="st2" d="M7.4,4C7.4,3.5,7.7,3,8.2,3c0.5,0,0.9,0.3,0.9,0.8c0.7,9.5,14.3,11.8,14.3,11.8
				c0.5,0.1,0.8,0.6,0.6,1.1l-3.5,13.3c-0.1,0.4-0.6,0.8-1.1,0.6c-0.5-0.1-0.8-0.6-0.6-1.1l3.3-12.5C22.1,17.2,7.9,14.2,7.4,4z"/>
			<path id="XMLID_30_" class="st2" d="M33.8,26.8c-0.3,0.7-1.1,0.5-1.2,0.5c-5-2.2-7.8-7.5-8-7.8c-0.2-0.4-0.1-1,0.4-1.2
				c0.4-0.2,1-0.1,1.2,0.4c0,0.1,2.7,5,7.1,6.9C33.8,25.8,34,26.3,33.8,26.8z"/>
			<path id="XMLID_29_" class="st2" d="M31.1,46.6c-0.5,0.2-1-0.1-1.2-0.5c0-0.1-4.7-10.7-11.5-12.1c-2-0.4-3.5-1.4-4.4-2.9
				c-1.5-2.6-0.5-5.9-0.4-6.2l2.2-7.8c0.1-0.5,0.6-0.8,1.1-0.6c0.5,0.1,0.8,0.6,0.6,1.1l-2.2,7.9c0,0,0,0,0,0c0,0-0.9,2.8,0.3,4.8
				c0.6,1,1.7,1.7,3.2,2.1c7.7,1.7,12.6,12.7,12.8,13.2C31.8,45.8,31.6,46.4,31.1,46.6z"/>
			<path id="XMLID_19_" class="st2" d="M5,46c-0.1-0.5,0.1-1,0.6-1.1c4.3-1.2,10.2-9.4,10.3-9.5c0.3-0.4,0.8-0.5,1.3-0.2
				c0.4,0.3,0.5,0.8,0.2,1.3c-0.3,0.4-6.4,8.8-11.2,10.2C5.5,46.8,5.1,46.4,5,46z"/>
		</g>
	</g>
</g>
</svg>
