<?xml version="1.0" encoding="utf-8"?>
<!-- Generator: Adobe Illustrator 15.0.0, SVG Export Plug-In . SVG Version: 6.00 Build 0)  -->
<!DOCTYPE svg PUBLIC "-//W3C//DTD SVG 1.1//EN" "http://www.w3.org/Graphics/SVG/1.1/DTD/svg11.dtd">
<svg version="1.1" id="Слой_1" xmlns="http://www.w3.org/2000/svg" xmlns:xlink="http://www.w3.org/1999/xlink" x="0px" y="0px"
	 width="1000px" height="1000px" viewBox="0 0 1000 1000" enable-background="new 0 0 1000 1000" xml:space="preserve">
<g>
	<g>
		<path fill="#9B9B9B" d="M218.38,561.769c-12.646-114.083,41.838-182.89,62.753-205.061
			c19.462,118.222,121.624,208.953,245.188,208.953c117.003,0,214.79-81.489,241.302-190.709
			c19.947,35.794,54.002,108.793,45.732,186.817c207.733-1.702,105.323-238.805-40.137-264.836
			c-0.973-12.221-1.944-24.351-4.622-36.058c-8.757-74.919-75.895-227.402-268.052-222.814
			C334.406,41.986,298.168,166.773,289.65,242.877c-5.843,18.759-9.726,38.488-10.947,58.651
			C62.702,339.194,86.572,558.117,218.38,561.769 M409.569,246.068c0,0,21.163,7.266,21.163,76.653
			c36.729,12.894,100.46-107.546,100.46-107.546v94.83c40.621,10.946,168.324-3.611,168.324-3.611l4.623,4.104
			c0.241,2.004,0.729,3.923,0.729,6.113c0,98.513-80.27,178.51-178.546,178.51c-97.056,0-176.104-78.086-178.298-174.649
			C383.536,307.577,409.569,246.068,409.569,246.068"/>
	</g>
	<g>
		<polygon fill="#9B9B9B" points="823.494,947.567 922.981,922.998 685.332,601.432 588.276,601.432 395.87,601.432 
			204.438,831.783 125.653,919.426 201.164,983.455 203.708,986 386.385,766.838 397.329,853.679 363.032,930.053 711.115,924.221 
			665.142,853.679 673.654,746.646 		"/>
	</g>
</g>
</svg>
