<?xml version="1.0" encoding="UTF-8" standalone="no"?>
<!-- Generator: Adobe Illustrator 15.0.0, SVG Export Plug-In . SVG Version: 6.00 Build 0)  -->

<svg
   xmlns:dc="http://purl.org/dc/elements/1.1/"
   xmlns:cc="http://creativecommons.org/ns#"
   xmlns:rdf="http://www.w3.org/1999/02/22-rdf-syntax-ns#"
   xmlns:svg="http://www.w3.org/2000/svg"
   xmlns="http://www.w3.org/2000/svg"
   xmlns:sodipodi="http://sodipodi.sourceforge.net/DTD/sodipodi-0.dtd"
   xmlns:inkscape="http://www.inkscape.org/namespaces/inkscape"
   version="1.1"
   id="Слой_1"
   x="0px"
   y="0px"
   width="978.11981"
   height="595.40375"
   viewBox="0 0 978.11981 595.40375"
   enable-background="new 0 0 1000 1000"
   xml:space="preserve"
   inkscape:version="0.91 r13725"
   sodipodi:docname="girl_boy.svg"><metadata
     id="metadata15"><rdf:RDF><cc:Work
         rdf:about=""><dc:format>image/svg+xml</dc:format><dc:type
           rdf:resource="http://purl.org/dc/dcmitype/StillImage" /><dc:title></dc:title></cc:Work></rdf:RDF></metadata><defs
     id="defs13" /><sodipodi:namedview
     pagecolor="#ffffff"
     bordercolor="#666666"
     borderopacity="1"
     objecttolerance="10"
     gridtolerance="10"
     guidetolerance="10"
     inkscape:pageopacity="0"
     inkscape:pageshadow="2"
     inkscape:window-width="1280"
     inkscape:window-height="1000"
     id="namedview11"
     showgrid="false"
     fit-margin-top="0"
     fit-margin-left="0"
     fit-margin-right="0"
     fit-margin-bottom="0"
     inkscape:zoom="0.236"
     inkscape:cx="495"
     inkscape:cy="293.942"
     inkscape:window-x="0"
     inkscape:window-y="0"
     inkscape:window-maximized="1"
     inkscape:current-layer="Слой_1" /><g
     id="g3"
     transform="translate(-5,-198.53825)"><path
       d="m 290.032,505.385 c 78.574,0 142.289,-63.716 142.289,-142.44 0,-49.013 17.154,-93.887 -20.676,-119.467 C 388.978,228.01 289.118,220.81 259.553,220.81 c -35.074,0 -80.562,28.489 -105.375,49.473 -30.938,26.189 -6.585,49.164 -6.585,92.662 0.002,78.724 63.719,142.44 142.439,142.44 M 190.784,349.008 c 26.191,-4.75 43.959,3.982 43.959,3.982 l 43.648,-21.291 c 0,0 -22.207,32.164 -2.141,21.291 44.414,-15.01 94.038,-8.732 119.467,-3.831 0.915,5.514 1.683,11.183 1.683,17.153 0,58.509 -46.562,105.988 -104.149,105.988 -57.587,0 -104.149,-47.479 -104.149,-105.988 0,-5.97 0.918,-11.639 1.682,-17.304"
       id="path5"
       inkscape:connector-curvature="0" /><path
       d="m 534.479,528.359 c -7.964,-71.832 26.344,-115.179 39.479,-129.115 12.295,74.437 76.623,131.564 154.431,131.564 73.669,0 135.239,-51.308 151.936,-120.078 12.558,22.554 33.999,68.503 28.795,117.629 130.798,-1.111 66.318,-150.368 -25.272,-166.754 -0.613,-7.696 -1.227,-15.354 -2.908,-22.706 -5.516,-47.174 -47.787,-143.208 -168.789,-140.296 -104.607,2.489 -127.43,81.059 -132.789,128.962 -3.676,11.792 -6.126,24.237 -6.894,36.948 -136.013,23.704 -120.998,161.55 -37.989,163.846 M 654.868,329.555 c 0,0 13.323,4.596 13.323,48.285 23.126,8.116 63.257,-67.734 63.257,-67.734 l 0,59.732 c 25.577,6.89 105.989,-2.299 105.989,-2.299 l 2.907,2.604 c 0.155,1.264 0.459,2.489 0.459,3.828 0,62.032 -50.54,112.421 -112.417,112.421 -61.114,0 -110.891,-49.162 -112.271,-109.97 22.364,-8.116 38.753,-46.867 38.753,-46.867"
       id="path7"
       inkscape:connector-curvature="0" /><polygon
       points="390.05,535.098 201.966,535.098 5,751.212 46.354,793.942 187.418,673.558 190.481,767.447 407.661,764.229 408.274,677.846 496.957,769.13 515.336,793.942 518.094,790.729 521.002,793.636 528.814,778.32 636.028,655.639 642.918,710.315 621.323,758.409 840.502,754.732 811.552,710.315 816.91,642.924 911.259,769.438 973.904,753.968 824.264,551.488 763.153,551.488 642.002,551.488 521.463,696.53 "
       id="polygon9" /></g></svg>