<?xml version="1.0" encoding="utf-8"?>
<!-- Generator: Adobe Illustrator 15.0.0, SVG Export Plug-In . SVG Version: 6.00 Build 0)  -->
<!DOCTYPE svg PUBLIC "-//W3C//DTD SVG 1.1//EN" "http://www.w3.org/Graphics/SVG/1.1/DTD/svg11.dtd">
<svg version="1.1" id="Слой_1" xmlns="http://www.w3.org/2000/svg" xmlns:xlink="http://www.w3.org/1999/xlink" x="0px" y="0px"
	 width="1000px" height="1000px" viewBox="0 0 1000 1000" enable-background="new 0 0 1000 1000" xml:space="preserve">
<g>
	<path d="M290.032,505.385c78.574,0,142.289-63.716,142.289-142.44c0-49.013,17.154-93.887-20.676-119.467
		c-22.667-15.468-122.527-22.668-152.092-22.668c-35.074,0-80.562,28.489-105.375,49.473c-30.938,26.189-6.585,49.164-6.585,92.662
		C147.595,441.669,211.312,505.385,290.032,505.385 M190.784,349.008c26.191-4.75,43.959,3.982,43.959,3.982l43.648-21.291
		c0,0-22.207,32.164-2.141,21.291c44.414-15.01,94.038-8.732,119.467-3.831c0.915,5.514,1.683,11.183,1.683,17.153
		c0,58.509-46.562,105.988-104.149,105.988s-104.149-47.479-104.149-105.988C189.102,360.342,190.02,354.673,190.784,349.008"/>
	<path d="M534.479,528.359c-7.964-71.832,26.344-115.179,39.479-129.115
		c12.295,74.437,76.623,131.564,154.431,131.564c73.669,0,135.239-51.308,151.936-120.078
		c12.558,22.554,33.999,68.503,28.795,117.629c130.798-1.111,66.318-150.368-25.272-166.754c-0.613-7.696-1.227-15.354-2.908-22.706
		c-5.516-47.174-47.787-143.208-168.789-140.296c-104.607,2.489-127.43,81.059-132.789,128.962
		c-3.676,11.792-6.126,24.237-6.894,36.948C436.455,388.217,451.47,526.063,534.479,528.359 M654.868,329.555
		c0,0,13.323,4.596,13.323,48.285c23.126,8.116,63.257-67.734,63.257-67.734v59.732c25.577,6.89,105.989-2.299,105.989-2.299
		l2.907,2.604c0.155,1.264,0.459,2.489,0.459,3.828c0,62.032-50.54,112.421-112.417,112.421
		c-61.114,0-110.891-49.162-112.271-109.97C638.479,368.306,654.868,329.555,654.868,329.555"/>
	<polygon points="763.153,551.488 642.002,551.488 521.463,696.53 390.05,535.098 201.966,535.098 5,751.212
		46.354,793.942 187.418,673.558 190.481,767.447 407.661,764.229 408.274,677.846 496.957,769.13 515.336,793.942 518.094,790.729 
		521.002,793.636 528.814,778.32 636.028,655.639 642.918,710.315 621.323,758.409 840.502,754.732 811.552,710.315 816.91,642.924 
		911.259,769.438 973.904,753.968 824.264,551.488 	"/>
</g>
</svg>
