<?xml version="1.0" encoding="UTF-8" standalone="no"?>
<!-- Generator: Adobe Illustrator 19.0.0, SVG Export Plug-In . SVG Version: 6.00 Build 0)  -->

<svg
   xmlns:dc="http://purl.org/dc/elements/1.1/"
   xmlns:cc="http://creativecommons.org/ns#"
   xmlns:rdf="http://www.w3.org/1999/02/22-rdf-syntax-ns#"
   xmlns:svg="http://www.w3.org/2000/svg"
   xmlns="http://www.w3.org/2000/svg"
   xmlns:xlink="http://www.w3.org/1999/xlink"
   xmlns:sodipodi="http://sodipodi.sourceforge.net/DTD/sodipodi-0.dtd"
   xmlns:inkscape="http://www.inkscape.org/namespaces/inkscape"
   version="1.1"
   id="Layer_1"
   x="0px"
   y="0px"
   width="50px"
   height="50px"
   viewBox="0 0 50 50"
   style="enable-background:new 0 0 50 50;"
   xml:space="preserve"
   sodipodi:docname="golf_sixes_mini_tournament.svg"
   inkscape:version="0.92.1 r15371"><metadata
     id="metadata29"><rdf:RDF><cc:Work
         rdf:about=""><dc:format>image/svg+xml</dc:format><dc:type
           rdf:resource="http://purl.org/dc/dcmitype/StillImage" /><dc:title></dc:title></cc:Work></rdf:RDF></metadata><defs
     id="defs27" /><sodipodi:namedview
     pagecolor="#ffffff"
     bordercolor="#666666"
     borderopacity="1"
     objecttolerance="10"
     gridtolerance="10"
     guidetolerance="10"
     inkscape:pageopacity="0"
     inkscape:pageshadow="2"
     inkscape:window-width="1920"
     inkscape:window-height="1018"
     id="namedview25"
     showgrid="false"
     inkscape:zoom="4.72"
     inkscape:cx="25"
     inkscape:cy="25"
     inkscape:window-x="-8"
     inkscape:window-y="-8"
     inkscape:window-maximized="1"
     inkscape:current-layer="g22" /><style
     type="text/css"
     id="style2">
	.st0{fill:#DD981D;}
	.st1{clip-path:url(#XMLID_34_);}
	.st2{fill:#FFFFFF;}
</style><g
     id="g22"><g
       id="XMLID_32_"
       style="fill:#9a6a14;fill-opacity:1"><circle
         id="XMLID_52_"
         class="st0"
         cx="25"
         cy="25"
         r="25"
         style="fill:#9a6a14;fill-opacity:1" /></g><g
       id="g20"><defs
         id="defs7"><circle
           id="XMLID_14_"
           cx="25"
           cy="25"
           r="25" /></defs><clipPath
         id="XMLID_34_"><use
           xlink:href="#XMLID_14_"
           style="overflow:visible;"
           id="use9" /></clipPath><g
         class="st1"
         clip-path="url(#XMLID_34_)"
         id="g18"><g
           id="g14"><path
             id="XMLID_31_"
             class="st2"
             d="M23.1,27.1c0,0,4.1,0.3,6.8-2.4c1.9-1.9,2.8-4.9,2.6-8.9c0-0.5,0.3-0.9,0.8-0.9      c0.5,0,0.9,0.3,0.9,0.8c0.3,4.5-0.8,7.9-3.1,10.2c-2.3,2.3-5.3,2.8-6.9,2.9l3,11.9c0.1,0.3,1.9,6.8,1.4,15.5      c0,0.5-0.4,0.8-0.9,0.8c0,0,0,0,0,0c-0.5,0-0.9-0.4-0.8-0.9c0.4-8.3-1.3-14.8-1.4-14.9l-3.3-13C22.2,27.2,22.8,27,23.1,27.1z" /><path
             id="XMLID_30_"
             class="st2"
             d="M14.9,8.8c1.2,0,2.9,0.8,3.1,3.1c0.1,0.8-0.9,0.9-0.9,0.9c-0.5,0-0.9-0.4-0.9-0.8      c0-1.3-1.1-1.4-1.4-1.4c-2.1-0.2-2.1,1.5-2.1,1.6c-0.1,2.5,2.2,2.3,2.2,2.3c0,0,21.7-2.6,21.7-2.6c0.5-0.1,0.9,0.2,1,0.7      c1.6,11.1-2.8,15.7-6.5,17.7L34,40.8c0.1,0.3,1.9,6.8,1.4,15.4c0,0.8-0.9,0.8-0.9,0.8c-0.5,0-0.9-0.4-0.8-0.9      c0.5-8.3-1.3-14.7-1.3-14.8l-3-11.3c-0.1-0.4,0.1-0.8,0.5-1c7.2-3.3,6.6-12.5,6.3-15.3c0,0-21.1,2.5-21.4,2.5      c-2.9,0-3.7-2.6-3.7-4.1C11.3,8.3,14.9,8.8,14.9,8.8z" /></g><path
           class="st2"
           d="M30,21.4c0-2.2-1.8-4-4-4c-2.2,0-4,1.8-4,4c0,2.2,1.8,4,4,4C28.1,25.5,30,23.6,30,21.4z M28.2,21.4     c0,1.3-1,2.3-2.3,2.3c-1.3,0-2.3-1-2.3-2.3c0-1.3,1-2.3,2.3-2.3C27.2,19.1,28.2,20.2,28.2,21.4z"
           id="path16" /></g></g></g></svg>