<?xml version="1.0" encoding="utf-8"?>
<!-- Generator: Adobe Illustrator 19.0.0, SVG Export Plug-In . SVG Version: 6.00 Build 0)  -->
<svg version="1.1" id="Layer_1" xmlns="http://www.w3.org/2000/svg" xmlns:xlink="http://www.w3.org/1999/xlink" x="0px" y="0px"
	 width="50px" height="50px" viewBox="0 0 50 50" style="enable-background:new 0 0 50 50;" xml:space="preserve">
<style type="text/css">
	.st0{fill:#D64FA4;}
	.st1{clip-path:url(#XMLID_35_);}
	.st2{fill:#FFFFFF;}
</style>
<g>
	<g id="XMLID_33_">
		<circle id="XMLID_53_" class="st0" cx="25" cy="25" r="25"/>
	</g>
	<g>
		<defs>
			<circle id="XMLID_14_" cx="25" cy="25" r="25"/>
		</defs>
		<clipPath id="XMLID_35_">
			<use xlink:href="#XMLID_14_"  style="overflow:visible;"/>
		</clipPath>
		<g class="st1">
			<path class="st2" d="M24.3,16.9c-2.4,0-4.3-1.9-4.3-4.3c0-2.4,1.9-4.3,4.3-4.3c2.4,0,4.3,1.9,4.3,4.3
				C28.6,15,26.7,16.9,24.3,16.9z M24.3,10.1c-1.4,0-2.5,1.1-2.5,2.5c0,1.4,1.1,2.5,2.5,2.5c1.4,0,2.5-1.1,2.5-2.5
				C26.8,11.2,25.6,10.1,24.3,10.1z"/>
			<path id="XMLID_30_" class="st2" d="M19,35.3c-0.5-0.1-0.8-0.7-0.6-1.2L23,19.6c-7.3,0-11.1-3.8-13-7C7.9,9,7.6,5.4,7.6,5
				c0-0.3-0.3-3.4,1.9-4.9c1.8-1.2,4.5-0.9,8,0.9c8.3,4.2,11.3,2.7,15.1,0.8c2.5-1.3,5.4-2.7,10.2-2.7c0.5,0,0.9,0.4,0.9,0.9
				S43.3,1,42.8,1c-4.4,0-6.9,1.3-9.4,2.5c-3.9,1.9-7.6,3.8-16.8-0.8c-2.9-1.5-5-1.8-6.2-1C9.2,2.5,9.4,4.9,9.4,4.9
				c0,0.6,0.9,13.5,14.8,12.8c0.3,0,0.6,0.1,0.8,0.4c0.2,0.2,0.2,0.6,0.1,0.8l-5,15.8C20,35.1,19.5,35.4,19,35.3z"/>
			<path id="XMLID_29_" class="st2" d="M10,49.8c-0.4-0.3-0.4-0.9-0.1-1.3c3.6-4.2,5.7-8.6,5.7-8.7c0.2-0.5,0.8-0.7,1.2-0.4
				c0.5,0.2,0.7,0.8,0.4,1.2c-0.1,0.2-2.2,4.7-6,9.1C11.1,49.9,10.5,50.2,10,49.8z"/>
			<path id="XMLID_19_" class="st2" d="M21.3,38.9c-0.9,0-1.6-0.1-2.3-0.3c-3.2-0.8-5-3.1-5.5-5c-1.1-3.8,0.6-9.3,1.4-11.4
				c-2.7-1.2-6.1-3.6-8.2-8.2c-0.2-0.5,0-1,0.5-1.2c0.5-0.2,1,0,1.2,0.5c2.1,4.6,5.5,6.7,8,7.6c0.2,0.1,0.4,0.3,0.5,0.5
				c0.1,0.2,0.1,0.5,0,0.7c0,0.1-2.8,7-1.6,11.1c0.4,1.4,1.8,3.2,4.2,3.8c2.9,0.7,9.3,0.2,19.9-10.8c0.4-0.4,0.9-0.4,1.3,0
				c0.4,0.4,0.4,0.9,0,1.3C31.8,36.5,25.4,38.9,21.3,38.9z"/>
		</g>
	</g>
</g>
</svg>
