<?xml version="1.0" encoding="utf-8"?>
<!-- Generator: Adobe Illustrator 19.0.0, SVG Export Plug-In . SVG Version: 6.00 Build 0)  -->
<svg version="1.1" id="Layer_1" xmlns="http://www.w3.org/2000/svg" xmlns:xlink="http://www.w3.org/1999/xlink" x="0px" y="0px"
	 width="50px" height="50px" viewBox="0 0 50 50" style="enable-background:new 0 0 50 50;" xml:space="preserve">
<style type="text/css">
	.st0{fill:#FF7449;}
	.st1{clip-path:url(#XMLID_37_);}
	.st2{fill:#FFFFFF;}
</style>
<g>
	<g id="XMLID_35_">
		<circle id="XMLID_55_" class="st0" cx="25" cy="25" r="25"/>
	</g>
	<g>
		<defs>
			<circle id="XMLID_14_" cx="25" cy="25" r="25"/>
		</defs>
		<clipPath id="XMLID_37_">
			<use xlink:href="#XMLID_14_"  style="overflow:visible;"/>
		</clipPath>
		<g class="st1">
			<g>
				<path id="XMLID_34_" class="st2" d="M17,31.9l-2.3-4.2c-0.2-0.4-0.8-0.6-1.2-0.4c-0.4,0.2-0.6,0.8-0.4,1.2l2.3,4.2
					c0,0,0,0,0,0.1c0,0.1,4.6,7.6-10.2,21.8c-0.4,0.4-0.4,1,0,1.3c0.5,0.5,1.1,0.2,1.3,0C22.1,41.1,17.4,32.6,17,31.9z"/>
				<path id="XMLID_33_" class="st2" d="M19.3,40.7c-0.4-0.3-1-0.1-1.3,0.3c-0.3,0.4-0.1,1,0.3,1.3c0.3,0.2,6.9,4.4,5.2,12.9
					c-0.1,0.5,0.2,0.9,0.7,1.1c0.2,0.1,0.9,0.2,1.1-0.7C27.3,45.7,19.4,40.7,19.3,40.7z"/>
				<path class="st2" d="M46.8,19.5c-0.4-1.9-2.1-3.3-4-3.3c-3,0.1-4.3,2.5-4.1,4.6c-9.8,2.2-33,4.8-33.3,4.9
					c-0.3,0-0.6,0.2-0.7,0.5c-0.1,0.3-0.1,0.6,0,0.9L11.9,39c0.2,0.3,0.6,0.7,1.3,0.3c0.5-0.2,0.6-0.8,0.3-1.3L7,27.3
					c5.3-0.6,23.8-2.9,32.3-4.8c0.7,1,2.2,2.3,4.3,1.8C45.9,23.9,47.3,21.7,46.8,19.5z M43.3,22.6c-0.2,0-0.3,0.1-0.5,0.1h0
					c-1.1,0-2.1-0.7-2.2-1.8c-0.4-2.6,2.1-2.8,2.2-2.8c1.1,0,2,0.8,2.2,1.8C45.3,21.1,44.5,22.3,43.3,22.6z"/>
				<path id="XMLID_30_" class="st2" d="M13.8,21.5c0,0,12,0.8,12,0.8c0.6,0,0.9-0.4,0.9-0.9c0-0.5-0.4-0.9-0.9-1l-12-0.8
					c-0.5,0-0.9,0.4-1,0.9C12.9,21.1,13.3,21.5,13.8,21.5z"/>
			</g>
			<path class="st2" d="M7.4,23.3c2.4,0,4.4-2,4.4-4.4c0-2.4-2-4.4-4.4-4.4c-2.4,0-4.4,2-4.4,4.4C3.1,21.4,5,23.3,7.4,23.3z
				 M7.4,16.5c1.4,0,2.5,1.1,2.5,2.5c0,1.4-1.1,2.5-2.5,2.5C6.1,21.4,5,20.3,5,19C5,17.6,6.1,16.5,7.4,16.5z"/>
		</g>
	</g>
</g>
</svg>
