<?xml version="1.0" encoding="utf-8"?>
<!-- Generator: Adobe Illustrator 15.0.0, SVG Export Plug-In . SVG Version: 6.00 Build 0)  -->
<!DOCTYPE svg PUBLIC "-//W3C//DTD SVG 1.1//EN" "http://www.w3.org/Graphics/SVG/1.1/DTD/svg11.dtd">
<svg version="1.1" id="Слой_1" xmlns="http://www.w3.org/2000/svg" xmlns:xlink="http://www.w3.org/1999/xlink" x="0px" y="0px"
	 width="728.185px" height="806.092px" viewBox="0 0 728.185 806.092" enable-background="new 0 0 728.185 806.092"
	 xml:space="preserve">
<g>
	<defs>
		<rect id="SVGID_1_" width="728.185" height="806.092"/>
	</defs>
	<clipPath id="SVGID_2_">
		<use xlink:href="#SVGID_1_"  overflow="visible"/>
	</clipPath>
	<path clip-path="url(#SVGID_2_)" fill="#007DBA" d="M688.389,0L168.136,683.436c0,0-34.325,50.758-63.617,31.254
		c-23.103-21.05-20.273-34.846-15.188-83.092c-6.855-29.406-57.82-46.562-83.408-2.869
		c-41.7,204.334,149.235,196.18,184.587,151.055C209.8,752.583,728.185,22.4,728.185,22.4L688.389,0z"/>
	<path clip-path="url(#SVGID_2_)" fill="#007DBA" d="M95.438,519.321c34.965,0,63.261-28.318,63.261-63.218
		c0-34.987-28.316-63.237-63.261-63.237c-34.853-0.024-63.171,28.271-63.171,63.191C32.268,491.003,60.585,519.321,95.438,519.321"
		/>
</g>
</svg>
