<?xml version="1.0" encoding="utf-8"?>
<!-- Generator: Adobe Illustrator 15.0.0, SVG Export Plug-In . SVG Version: 6.00 Build 0)  -->
<!DOCTYPE svg PUBLIC "-//W3C//DTD SVG 1.1//EN" "http://www.w3.org/Graphics/SVG/1.1/DTD/svg11.dtd">
<svg version="1.1" id="Слой_1" xmlns="http://www.w3.org/2000/svg" xmlns:xlink="http://www.w3.org/1999/xlink" x="0px" y="0px"
	 width="1000px" height="1000px" viewBox="0 0 1000 1000" enable-background="new 0 0 1000 1000" xml:space="preserve">
<g>
	<path fill="#007DBA" d="M644.725,609.086L979.661,80.865c2.819-4.059,3.612-8.908,2.237-13.477
		c-1.375-4.555-4.813-8.479-9.561-10.875l-52.657-26.594c-9.9-4.995-22.647-2.177-28.474,6.278L584.398,523.667l-93.38,135.23
		L389.223,806.288c-15.523,22.47-44.111,36.429-74.616,36.429H64.273c-24.037,0-43.594,16.708-43.594,37.256v55.289
		c0,20.557,19.557,37.29,43.594,37.29H328.74c40.085,0,77.632-18.337,98.019-47.862l124.493-180.235L644.725,609.086z"/>
	<path fill="#007DBA" d="M258.501,744.025c0,33.231-26.241,60.362-58.374,60.362c-32.302,0-58.357-27.131-58.357-60.362
		c0-33.424,26.055-60.355,58.357-60.355C232.261,683.67,258.501,710.602,258.501,744.025"/>
</g>
</svg>
