<?xml version="1.0" encoding="utf-8"?>
<!-- Generator: Adobe Illustrator 19.0.0, SVG Export Plug-In . SVG Version: 6.00 Build 0)  -->
<svg version="1.1" id="Layer_1" xmlns="http://www.w3.org/2000/svg" xmlns:xlink="http://www.w3.org/1999/xlink" x="0px" y="0px"
	 width="50px" height="50px" viewBox="0 0 50 50" style="enable-background:new 0 0 50 50;" xml:space="preserve">
<style type="text/css">
	.st0{fill:#2B9BCC;}
	.st1{fill:#FFFFFF;}
</style>
<g>
	<g id="XMLID_7_">
		<circle id="XMLID_299_" class="st0" cx="25" cy="25" r="25"/>
	</g>
	<g>
		<g>
			<path id="XMLID_6_" class="st1" d="M40.6,38.3c1,0,2.5-0.4,4.1-2.1c0.3-0.3,0.3-0.7,0-1c-0.3-0.3-0.7-0.3-1,0
				c-2.4,2.3-3.7,1.8-4.1,1.4c-7.6-9-14.4-18.6-14.4-18.7c-0.2-0.2-0.4-0.3-0.7-0.3c-0.3,0-0.5,0.2-0.6,0.5l-1.6,5.7
				c-0.1,0.4,0.1,0.8,0.5,0.9c0.4,0.1,0.8-0.1,0.9-0.5L25,20c2.1,2.9,13.8,17.7,13.8,17.7C39.3,38.2,39.5,38.3,40.6,38.3z"/>
			<path id="XMLID_5_" class="st1" d="M13.2,41.9c6.4-5,7.3-9.1,7.4-9.3c0.1-0.4-0.2-0.8-0.6-0.8c-0.4-0.1-0.8,0.2-0.8,0.6
				c0,0.1-0.9,3.8-6.9,8.5c-0.3,0.2-0.4,0.7-0.1,1C12.6,42.2,13,42,13.2,41.9z"/>
			<path id="XMLID_4_" class="st1" d="M27.6,42.2c0-0.2,1.4-4.1-0.3-7.6c-1-2.1-2.9-3.5-5.5-4.4c-4.5-1.5-3.5-5.7-3.4-6.1l0.8-2.4
				c0.2,1.4,0.7,2.9,1.7,4.2c1.8,2.4,4.7,3.6,8.8,3.7c0.4,0,0.7-0.3,0.7-0.7c0-0.4-0.3-0.7-0.7-0.7C26.1,28,23.5,27,22,25
				c-2.5-3.3-1.1-8.4-1.1-8.4c0.1-0.4-0.1-0.8-0.5-0.9c-0.4-0.1-0.8,0.1-0.9,0.5L17,23.7c0,0,0,0,0,0c-0.6,2-0.4,6.3,4.4,7.9
				c2.2,0.7,3.8,2,4.6,3.7c1.5,3,0.3,6.5,0.2,6.5c-0.1,0.4,0.1,0.8,0.4,0.9C26.8,42.7,27.4,42.8,27.6,42.2z"/>
		</g>
		<path class="st1" d="M26.6,12.6c0-1.8-1.5-3.4-3.4-3.4c-1.8,0-3.4,1.5-3.4,3.4c0,1.8,1.5,3.4,3.4,3.4
			C25.1,15.9,26.6,14.4,26.6,12.6z M25.1,12.6c0,1-0.9,1.9-1.9,1.9c-1,0-1.9-0.9-1.9-1.9c0-1,0.9-1.9,1.9-1.9
			C24.3,10.7,25.1,11.5,25.1,12.6z"/>
	</g>
</g>
</svg>
