<?xml version="1.0" encoding="utf-8"?>
<!-- Generator: Adobe Illustrator 19.0.0, SVG Export Plug-In . SVG Version: 6.00 Build 0)  -->
<svg version="1.1" id="Layer_1" xmlns="http://www.w3.org/2000/svg" xmlns:xlink="http://www.w3.org/1999/xlink" x="0px" y="0px"
	 width="50px" height="50px" viewBox="0 0 50 50" style="enable-background:new 0 0 50 50;" xml:space="preserve">
<style type="text/css">
	.st0{clip-path:url(#XMLID_39_);}
	.st1{fill:#FFFFFF;}
</style>
<g>
	<g id="XMLID_37_">
	</g>
	<g>
		<defs>
			<circle id="XMLID_14_" cx="25" cy="25" r="25"/>
		</defs>
		<use xlink:href="#XMLID_14_"  style="overflow:visible;fill:#63ACDC;"/>
		<clipPath id="XMLID_39_">
			<use xlink:href="#XMLID_14_"  style="overflow:visible;"/>
		</clipPath>
		<g class="st0">
			<g>
				<path id="XMLID_36_" class="st1" d="M-1.3,44.2c-0.3-0.4-0.2-1,0.2-1.3C1,41.4,6.6,34.5,8.6,32c0.3-0.4,0.9-0.5,1.3-0.2
					c0.4,0.3,0.5,0.9,0.2,1.3c-0.3,0.4-7.3,9.4-10,11.3C-0.2,44.5-0.9,44.7-1.3,44.2z"/>
				<path id="XMLID_35_" class="st1" d="M18,44.7c-0.5-0.1-0.8-0.6-0.6-1.1c2.1-7.8-4.3-11-4.5-11.1c-2.6-1.3-4-3.1-4.3-5.4
					c-0.8-5.4,5.5-11.4,5.8-11.6c0.4-0.3,1-0.3,1.3,0c0.3,0.4,0.3,1,0,1.3c-0.1,0.1-5.8,5.6-5.2,10.1c0.2,1.7,1.3,3,3.3,4
					c0.1,0,8,4,5.5,13.2C19,44.5,18.6,44.8,18,44.7z"/>
				<path id="XMLID_34_" class="st1" d="M40.2,18.2c-0.4-0.3-0.5-0.9-0.2-1.3c0.3-0.4,7.3-9.4,10-11.3c0.4-0.3,1-0.2,1.3,0.2
					c0.3,0.4,0.2,1-0.2,1.3C49,8.6,43.4,15.5,41.4,18C41.3,18.2,40.8,18.6,40.2,18.2z"/>
				<path id="XMLID_33_" class="st1" d="M34.4,34.5c-0.4-0.3-0.3-1,0-1.3c0.1-0.1,5.8-5.6,5.2-10.1c-0.2-1.7-1.3-3-3.3-4
					c-0.1,0-8-4-5.5-13.2C31,5.5,31.5,5.2,32,5.3c0.5,0.1,0.8,0.6,0.6,1.1c-2.1,7.8,4.3,11,4.5,11.1c2.6,1.3,4,3.1,4.3,5.4
					c0.8,5.4-5.5,11.4-5.8,11.6C35.6,34.7,35,35.1,34.4,34.5z"/>
				<path id="XMLID_32_" class="st1" d="M30.1,31.2c-0.3,0-0.6-0.3-0.7-0.6c0,0-0.8-2.1-4.4-4.5l-1-0.6c-2.4-1.6-3.7-3.1-4.4-4.1
					l-4.9,6.3c-0.3,0.4-0.9,0.5-1.3,0.2c-0.4-0.3-0.5-0.9-0.2-1.3l5.8-7.3c0.2-0.3,0.6-0.4,0.9-0.3c0.3,0.1,0.6,0.3,0.7,0.6
					c0,0,0.8,2.1,4.4,4.5l1,0.6c2.4,1.6,3.7,3.1,4.4,4.1l4.9-6.3c0.3-0.4,0.9-0.5,1.3-0.2c0.4,0.3,0.5,0.9,0.2,1.3L31,30.9
					C30.8,31.1,30.6,31.2,30.1,31.2z"/>
			</g>
			<path class="st1" d="M29.4,41c2.4,0,4.4-2,4.4-4.4c0-2.4-2-4.4-4.4-4.4c-2.4,0-4.4,2-4.4,4.4C25,39.1,27,41,29.4,41z M29.4,34.2
				c1.4,0,2.5,1.1,2.5,2.5c0,1.4-1.1,2.5-2.5,2.5c-1.4,0-2.5-1.1-2.5-2.5C26.9,35.3,28,34.2,29.4,34.2z"/>
			<path class="st1" d="M20.6,17.6c2.4,0,4.4-2,4.4-4.4c0-2.4-2-4.4-4.4-4.4c-2.4,0-4.4,2-4.4,4.4C16.3,15.7,18.2,17.6,20.6,17.6z
				 M20.6,10.8c1.4,0,2.5,1.1,2.5,2.5c0,1.4-1.1,2.5-2.5,2.5c-1.4,0-2.5-1.1-2.5-2.5C18.2,11.9,19.3,10.8,20.6,10.8z"/>
		</g>
	</g>
</g>
</svg>
