<?xml version="1.0" encoding="utf-8"?>
<!-- Generator: Adobe Illustrator 19.0.0, SVG Export Plug-In . SVG Version: 6.00 Build 0)  -->
<svg version="1.1" id="Layer_1" xmlns="http://www.w3.org/2000/svg" xmlns:xlink="http://www.w3.org/1999/xlink" x="0px" y="0px"
	 width="50px" height="50px" viewBox="0 0 50 50" style="enable-background:new 0 0 50 50;" xml:space="preserve">
<style type="text/css">
	.st0{fill:#E75D4D;}
	.st1{clip-path:url(#XMLID_36_);}
	.st2{fill:#FFFFFF;}
</style>
<g>
	<g id="XMLID_34_">
		<circle id="XMLID_54_" class="st0" cx="25" cy="25" r="25"/>
	</g>
	<g>
		<defs>
			<circle id="XMLID_14_" cx="25" cy="25" r="25"/>
		</defs>
		<clipPath id="XMLID_36_">
			<use xlink:href="#XMLID_14_"  style="overflow:visible;"/>
		</clipPath>
		<g class="st1">
			<path class="st2" d="M27.8,13.5c0-2.4-2-4.4-4.4-4.4s-4.4,2-4.4,4.4c0,2.4,2,4.4,4.4,4.4S27.8,15.9,27.8,13.5z M25.9,13.5
				c0,1.4-1.1,2.5-2.5,2.5S21,14.9,21,13.5s1.1-2.5,2.5-2.5S25.9,12.1,25.9,13.5z"/>
			<path id="XMLID_31_" class="st2" d="M17.7,31.5c-0.2,0-0.4-0.1-0.6-0.2c-5.4-4.1-5.4-5.1-5.4-5.5c0-0.4,0-1.5,6.4-5.8
				c0.4-0.3,1-0.2,1.3,0.2c0.3,0.4,0.2,1-0.2,1.3c-2.2,1.5-4.8,3.5-5.5,4.3c0.6,0.8,2.7,2.6,4.5,4c0.4,0.3,0.5,0.9,0.2,1.3
				C18.2,31.3,17.9,31.5,17.7,31.5z"/>
			<path id="XMLID_30_" class="st2" d="M24.6,36.2c-2.1-0.3-3.7-1.1-4.6-2.3c-1-1.4-0.8-3.7-0.8-3.7l0.3-9.4l-1.8,0.8l-0.3,8.4
				c0,1.1-0.1,3.3,1.2,4.9c1.2,1.6,3.1,2.8,5.7,3.1c1.9,0.3,6.9,1.5,8.6,11.1c0.1,0.5,0.5,0.8,1,0.8c0.5-0.1,0.9-0.5,0.8-1
				C32.9,38.7,27.6,36.7,24.6,36.2z"/>
			<path id="XMLID_29_" class="st2" d="M23.8,34.2c-0.1,0-0.3,0-0.4-0.1c-0.5-0.2-0.6-0.8-0.4-1.3l0,0c0,0,1.5-3,1.5-6.5
				c-0.1-2.9-0.5-4.8-0.5-4.9c-0.1-0.3,0-0.6,0.2-0.8s0.4-0.4,0.7-0.4h13.7c0.5,0,0.9,0.4,0.9,0.9s-0.4,0.9-0.9,0.9H25.9
				c0.1,0.9,0.3,2.3,0.4,4.1c0.1,3.9-1.6,7.2-1.7,7.4C24.4,34,24.1,34.2,23.8,34.2z"/>
			<path id="XMLID_19_" class="st2" d="M6.2,49.7c-0.4,0-0.8-0.3-0.9-0.6c-0.2-0.5,0.1-1,0.6-1.2l0,0c0,0,3.2-1.1,7.3-4.3
				c3.3-2.6,5.5-5.5,5.5-5.6c0.3-0.4,0.9-0.5,1.3-0.2c0.4,0.3,0.5,0.9,0.2,1.3c-0.1,0.1-2.4,3.2-5.8,6c-4.4,3.4-7.7,4.5-7.9,4.6
				C6.4,49.7,6.3,49.7,6.2,49.7z"/>
		</g>
	</g>
</g>
</svg>
