<?xml version="1.0" encoding="utf-8"?>
<!-- Generator: Adobe Illustrator 15.0.0, SVG Export Plug-In . SVG Version: 6.00 Build 0)  -->
<!DOCTYPE svg PUBLIC "-//W3C//DTD SVG 1.1//EN" "http://www.w3.org/Graphics/SVG/1.1/DTD/svg11.dtd">
<svg version="1.1" id="Слой_1" xmlns="http://www.w3.org/2000/svg" xmlns:xlink="http://www.w3.org/1999/xlink" x="0px" y="0px"
	 width="1000px" height="1000px" viewBox="0 0 1000 1000" enable-background="new 0 0 1000 1000" xml:space="preserve">
<polygon fill="#FFFFFF" points="56.896,543.458 56.896,594.487 95.149,594.487 95.149,798.02 606.96,798.02 606.96,593.806 
	644.648,593.806 644.648,543.458 "/>
<polygon fill="#FFFFFF" points="655.061,390.016 655.061,441.098 822.685,441.098 822.685,543.214 785.456,543.214 785.456,644.758 
	913.582,644.758 913.582,440.698 951.236,440.698 951.236,390.016 "/>
<polygon fill-rule="evenodd" clip-rule="evenodd" fill="#FFFFFF" points="797.8,466.61 797.8,517.604 760.306,517.604 
	760.306,721.217 632.223,721.217 632.223,619.711 669.39,619.711 669.39,517.775 501.646,517.775 501.646,466.61 "/>
<g>
	<path fill-rule="evenodd" clip-rule="evenodd" fill="#FFFFFF" d="M223.938,517.109c1.24-18.868-0.222-38.291,4.295-56.204
		c8.289-32.862,35.47-51.223,73.284-46.617c6.319,0.768,12.173,5.603,18.175,8.69c10.498,5.407,20.916,15.104,31.421,15.174
		c10.156,0.063,20.737-9.172,30.502-15.319c45.083-28.389,94.054,11.716,94.216,52.249c0.058,13.809,0.007,27.616,0.007,42.028
		H223.938z"/>
	<path fill-rule="evenodd" clip-rule="evenodd" fill="#FFFFFF" d="M405.274,387.978c16.195-13.165,26.883-28.411,32.912-46.915
		c1.634-5.016,13.261-6.239,21.064-2.138c12.752,6.698,25.458,13.513,37.909,20.745c4.99,2.898,8.955,2.825,13.818-0.125
		c8.204-4.974,17.155-8.77,25.152-14.037c37.497-24.683,84.004,4.869,90.37,38.336c3.447,18.128,3.179,36.962,4.665,56.511
		c-4.47,0.293-7.16,0.624-9.849,0.625c-40.739,0.015-81.482,0.083-122.22-0.232c-2.875-0.021-6.979-2.21-8.398-4.63
		c-18.241-31.114-44.537-48.087-81.217-47.52C408.685,388.613,407.886,388.374,405.274,387.978"/>
	<path fill-rule="evenodd" clip-rule="evenodd" fill="#FFFFFF" d="M782.894,364.013c-7.814,0-14.848,0.003-21.884,0
		c-35.352-0.011-70.709-0.169-106.06,0.103c-6.097,0.045-9.482-1.778-12.666-7.14c-17.158-28.903-42.321-44.728-76.45-45.097
		c-1.655-0.016-3.308-0.003-6.518-0.003c2.292-2.524,3.818-3.918,5.001-5.56c8.186-11.359,16.407-22.696,24.366-34.208
		c2.445-3.537,3.697-10.502,6.219-10.866c6.363-0.918,13.812-0.477,19.611,2.127c12.583,5.653,24.548,12.758,36.478,19.765
		c4.788,2.812,8.53,2.639,13.16-0.131c8.72-5.218,17.986-9.531,26.635-14.853c39.224-24.129,89.693,7.707,91.996,52.773
		C783.499,334.982,782.894,349.11,782.894,364.013"/>
	<path fill-rule="evenodd" clip-rule="evenodd" fill="#FFFFFF" d="M416.692,317.643c-2.578,38.006-33.051,65.522-70.019,63.225
		c-36.839-2.291-64.715-33.765-62.153-70.173c2.553-36.28,33.825-64.518,68.711-62.046
		C391.007,251.33,419.119,281.888,416.692,317.643"/>
	<path fill-rule="evenodd" clip-rule="evenodd" fill="#FFFFFF" d="M503.82,303.95c-36.725,0.004-65.74-28.783-65.933-65.413
		c-0.193-36.975,28.973-66.376,65.935-66.463c36.961-0.086,66.479,29.225,66.494,66.034
		C570.335,274.998,541.099,303.944,503.82,303.95"/>
	<path fill-rule="evenodd" clip-rule="evenodd" fill="#FFFFFF" d="M723.467,161.798c-0.011,36.45-29.189,65.592-65.796,65.715
		c-36.886,0.123-66.376-29.256-66.368-66.113c0.009-36.759,29.758-66.49,66.352-66.312
		C694.524,95.266,723.475,124.613,723.467,161.798"/>
</g>
</svg>
