<?xml version="1.0" encoding="UTF-8" standalone="no"?>
<!-- Generator: Adobe Illustrator 15.0.0, SVG Export Plug-In . SVG Version: 6.00 Build 0)  -->

<svg
   xmlns:dc="http://purl.org/dc/elements/1.1/"
   xmlns:cc="http://creativecommons.org/ns#"
   xmlns:rdf="http://www.w3.org/1999/02/22-rdf-syntax-ns#"
   xmlns:svg="http://www.w3.org/2000/svg"
   xmlns="http://www.w3.org/2000/svg"
   xmlns:xlink="http://www.w3.org/1999/xlink"
   xmlns:sodipodi="http://sodipodi.sourceforge.net/DTD/sodipodi-0.dtd"
   xmlns:inkscape="http://www.inkscape.org/namespaces/inkscape"
   version="1.1"
   id="Слой_1"
   x="0px"
   y="0px"
   width="916.87097"
   height="399.58301"
   viewBox="0 0 916.87097 399.58301"
   enable-background="new 0 0 1000 1000"
   xml:space="preserve"
   inkscape:version="0.91 r13725"
   sodipodi:docname="logo.svg"><metadata
     id="metadata57"><rdf:RDF><cc:Work
         rdf:about=""><dc:format>image/svg+xml</dc:format><dc:type
           rdf:resource="http://purl.org/dc/dcmitype/StillImage" /><dc:title></dc:title></cc:Work></rdf:RDF></metadata><defs
     id="defs55" /><sodipodi:namedview
     pagecolor="#ffffff"
     bordercolor="#666666"
     borderopacity="1"
     objecttolerance="10"
     gridtolerance="10"
     guidetolerance="10"
     inkscape:pageopacity="0"
     inkscape:pageshadow="2"
     inkscape:window-width="1280"
     inkscape:window-height="995"
     id="namedview53"
     showgrid="false"
     fit-margin-top="0"
     fit-margin-left="0"
     fit-margin-right="0"
     fit-margin-bottom="0"
     inkscape:zoom="0.236"
     inkscape:cx="454.19871"
     inkscape:cy="190.34601"
     inkscape:window-x="0"
     inkscape:window-y="0"
     inkscape:window-maximized="1"
     inkscape:current-layer="Слой_1" /><polygon
     points="141.502,689.092 91.71,489.928 41.92,489.928 41.92,639.298 91.71,689.092 "
     id="polygon3"
     style="fill:#00416f"
     transform="translate(-41.564,-290.763)" /><polygon
     points="340.667,639.298 340.667,489.928 290.875,489.928 241.084,689.092 290.875,689.092 "
     id="polygon5"
     style="fill:#38541d"
     transform="translate(-41.564,-290.763)" /><polygon
     points="76.769,404.932 41.564,440.129 76.773,475.34 111.979,440.136 "
     id="polygon7"
     style="fill:#ffffff"
     transform="translate(-41.564,-290.763)" /><polygon
     points="226.146,325.967 190.934,290.763 155.729,325.967 190.938,361.17 "
     id="polygon9"
     style="fill:#ffffff"
     transform="translate(-41.564,-290.763)" /><polygon
     points="305.107,475.34 269.896,440.136 305.103,404.929 340.312,440.136 "
     id="polygon11"
     style="fill:#ffffff"
     transform="translate(-41.564,-290.763)" /><polygon
     points="265.977,390.345 116.606,390.345 166.397,689.092 216.188,689.092 "
     id="polygon13"
     style="fill:#872a1e"
     transform="translate(-41.564,-290.763)" /><polygon
     points="191.293,564.614 91.71,489.928 41.92,489.928 41.92,614.402 91.71,539.718 "
     id="polygon15"
     style="fill:#ffffff"
     transform="translate(-41.564,-290.763)" /><polygon
     points="191.293,539.716 290.875,614.402 340.667,614.402 340.667,489.928 290.875,564.611 "
     id="polygon17"
     style="fill:#ffffff"
     transform="translate(-41.564,-290.763)" /><polygon
     points="191.293,440.136 191.293,514.82 116.606,390.345 191.293,390.345 265.979,390.345 "
     id="polygon19"
     style="fill:#ffffff"
     transform="translate(-41.564,-290.763)" /><g
     id="g21"
     transform="translate(-41.564,-290.763)"><defs
       id="defs23"><rect
         id="SVGID_1_"
         x="41.563999"
         y="290.763"
         width="916.87097"
         height="399.58301" /></defs><clipPath
       id="SVGID_2_"><use
         xlink:href="#SVGID_1_"
         overflow="visible"
         id="use27"
         style="overflow:visible"
         x="0"
         y="0"
         width="100%"
         height="100%" /></clipPath><path
       clip-path="url(#SVGID_2_)"
       d="m 497.489,480.766 c 0,5.379 -0.511,10.216 -1.527,14.518 -1.021,4.304 -2.698,8.009 -5.037,11.115 -2.335,3.109 -5.363,5.497 -9.078,7.17 -3.715,1.673 -8.335,2.509 -13.844,2.509 -5.038,0 -9.41,-0.718 -13.124,-2.152 -3.72,-1.434 -6.772,-3.432 -9.17,-6.004 -2.396,-2.567 -4.167,-5.585 -5.305,-9.052 -1.143,-3.465 -1.709,-7.229 -1.709,-11.293 l 14.161,-2.866 c 0,2.392 0.238,4.631 0.716,6.72 0.476,2.094 1.283,3.975 2.421,5.647 1.133,1.676 2.688,2.988 4.658,3.943 1.974,0.958 4.396,1.435 7.259,1.435 3.589,0 6.424,-0.566 8.52,-1.704 2.086,-1.133 3.642,-2.689 4.658,-4.66 1.012,-1.973 1.644,-4.272 1.882,-6.903 0.238,-2.625 0.359,-5.375 0.359,-8.244 0,-3.702 -0.18,-6.722 -0.539,-9.052 -0.36,-2.329 -1.138,-4.358 -2.329,-6.094 -1.196,-1.729 -2.898,-3.253 -5.11,-4.571 -2.213,-1.311 -5.169,-2.749 -8.869,-4.3 -5.859,-2.51 -10.552,-5.048 -14.072,-7.62 -3.524,-2.567 -6.248,-5.257 -8.159,-8.067 -1.91,-2.805 -3.166,-5.796 -3.764,-8.961 -0.598,-3.166 -0.895,-6.659 -0.895,-10.486 0,-4.777 0.598,-9.168 1.797,-13.175 1.198,-4.001 3.026,-7.466 5.484,-10.396 2.456,-2.927 5.541,-5.198 9.261,-6.812 3.715,-1.614 8.028,-2.419 12.949,-2.419 5.392,0 9.914,0.839 13.575,2.509 3.652,1.675 6.589,3.853 8.806,6.543 2.218,2.689 3.778,5.645 4.673,8.874 0.9,3.223 1.353,6.394 1.353,9.498 L 483.329,420 c 0,-5.616 -1.137,-9.949 -3.408,-12.997 -2.271,-3.046 -6.156,-4.57 -11.649,-4.57 -3.107,0 -5.588,0.601 -7.44,1.793 -1.853,1.194 -3.316,2.721 -4.391,4.571 -1.074,1.853 -1.792,3.915 -2.149,6.185 -0.359,2.271 -0.54,4.478 -0.54,6.63 0,2.627 0.148,4.93 0.448,6.902 0.301,1.972 1.108,3.827 2.431,5.558 1.32,1.731 3.272,3.438 5.85,5.105 2.582,1.678 6.209,3.409 10.892,5.198 5.402,2.154 9.687,4.393 12.871,6.725 3.18,2.329 5.606,4.929 7.289,7.794 1.677,2.869 2.757,6.099 3.237,9.682 0.476,3.584 0.719,7.649 0.719,12.19"
       id="path29"
       inkscape:connector-curvature="0"
       style="fill:#333233" /><path
       clip-path="url(#SVGID_2_)"
       d="m 574.74,481.304 c 0,8.244 -1.136,14.998 -3.4,20.254 l 10.035,8.067 -6.992,8.604 -9.676,-7.706 c -4.663,3.702 -10.877,5.555 -18.643,5.555 -10.279,0 -17.626,-2.806 -22.049,-8.424 -4.423,-5.617 -6.63,-13.021 -6.63,-22.227 l 0,-61.483 c 0,-4.419 0.385,-8.72 1.162,-12.905 0.777,-4.181 2.212,-7.916 4.304,-11.203 2.091,-3.287 4.988,-5.917 8.693,-7.886 3.7,-1.975 8.543,-2.959 14.52,-2.959 6.215,0 11.203,0.868 14.967,2.599 3.764,1.733 6.661,4.152 8.693,7.259 2.032,3.107 3.375,6.754 4.031,10.936 0.656,4.185 0.984,8.781 0.984,13.799 l 0,57.72 z m -14.157,-59.908 c 0,-2.147 -0.149,-4.352 -0.446,-6.618 -0.303,-2.266 -0.93,-4.328 -1.883,-6.175 -0.957,-1.848 -2.421,-3.394 -4.391,-4.648 -1.974,-1.25 -4.57,-1.877 -7.799,-1.877 -3.583,0 -6.336,0.86 -8.247,2.586 -1.91,1.729 -3.345,3.783 -4.304,6.161 -0.952,2.382 -1.521,4.916 -1.701,7.592 -0.18,2.682 -0.268,4.911 -0.268,6.698 l 0,60.372 c 0,1.784 0.18,3.695 0.54,5.718 0.355,2.022 1.074,3.926 2.149,5.716 1.074,1.787 2.538,3.243 4.391,4.374 1.853,1.13 4.271,1.696 7.259,1.696 3.107,0 5.617,-0.537 7.527,-1.612 l -10.575,-8.783 6.992,-8.427 9.681,7.89 c 0.715,-2.623 1.074,-5.604 1.074,-8.945 l 0,-61.718 z"
       id="path31"
       inkscape:connector-curvature="0"
       style="fill:#333233" /><path
       clip-path="url(#SVGID_2_)"
       d="m 653.952,390.245 0,91.059 c 0,11.112 -2.15,19.69 -6.453,25.723 -4.304,6.036 -11.714,9.051 -22.226,9.051 -10.279,0 -17.632,-2.806 -22.047,-8.424 -4.424,-5.617 -6.632,-13.024 -6.632,-22.229 l 0,-95.18 14.159,0 0,95.208 c 0,1.79 0.18,3.701 0.535,5.729 0.359,2.027 1.079,3.937 2.154,5.728 1.074,1.79 2.537,3.253 4.391,4.384 1.853,1.136 4.269,1.699 7.26,1.699 2.985,0 5.436,-0.598 7.347,-1.789 1.911,-1.193 3.408,-2.714 4.483,-4.563 1.074,-1.848 1.818,-3.968 2.241,-6.353 0.418,-2.388 0.627,-4.834 0.627,-7.343 l 0,-92.699 14.161,0 z"
       id="path33"
       inkscape:connector-curvature="0"
       style="fill:#333233" /><path
       clip-path="url(#SVGID_2_)"
       d="m 724.573,514.822 -5.733,-27.783 -27.783,0 -5.558,27.783 -13.624,0 26.529,-124.755 13.264,0 26.89,124.755 -13.985,0 z m -20.072,-99.124 -5.197,29.038 -5.918,29.219 22.946,0 -6.098,-29.576 -5.019,-28.681 -0.714,0 z"
       id="path35"
       inkscape:connector-curvature="0"
       style="fill:#333233" /><path
       clip-path="url(#SVGID_2_)"
       d="m 786.02,390.067 c 7.381,0 13.222,1.284 17.51,3.854 4.289,2.57 7.265,6.903 8.938,12.993 1.307,5.021 1.964,11.234 1.964,18.645 l 0,26.707 0,26.079 c 0,7.111 -0.778,13.117 -2.324,18.016 -2.266,7.053 -5.868,11.891 -10.813,14.519 -4.94,2.631 -10.571,3.943 -16.883,3.943 l -27.341,0 0,-124.756 28.949,0 z m 14.251,31.154 c 0,-5.604 -1.197,-10.016 -3.589,-13.241 -2.392,-3.218 -6.632,-4.828 -12.725,-4.828 l -12.726,0 0,98.585 12.726,0 c 5.854,0 10.036,-1.609 12.545,-4.832 2.514,-3.221 3.769,-7.812 3.769,-13.776 l 0,-61.908 z"
       id="path37"
       inkscape:connector-curvature="0"
       style="fill:#333233" /><rect
       x="440.328"
       y="564.33398"
       clip-path="url(#SVGID_2_)"
       width="14.162"
       height="124.758"
       id="rect39"
       style="fill:#333233" /><polygon
       clip-path="url(#SVGID_2_)"
       points="477.018,564.334 490.463,564.334 516.272,627.608 524.879,650.374 525.593,650.194 525.593,564.334 539.753,564.334 539.753,689.092 526.493,689.092 500.679,626.354 491.717,603.769 491.177,603.769 491.177,689.092 477.018,689.092 "
       id="polygon41"
       style="fill:#333233" /><polygon
       clip-path="url(#SVGID_2_)"
       points="616.652,577.419 595.5,577.419 595.5,564.334 651.963,564.334 651.963,577.419 630.812,577.419 630.812,689.092 616.652,689.092 "
       id="polygon43"
       style="fill:#333233" /><path
       clip-path="url(#SVGID_2_)"
       d="m 725.305,655.572 c 0,11.113 -2.179,19.69 -6.537,25.723 -4.361,6.037 -11.801,9.051 -22.318,9.051 -10.279,0 -17.598,-2.805 -21.954,-8.424 -4.366,-5.616 -6.545,-13.023 -6.545,-22.227 l 0,-61.482 c 0,-4.42 0.385,-8.721 1.167,-12.906 0.773,-4.183 2.207,-7.914 4.299,-11.204 2.091,-3.284 4.988,-5.915 8.694,-7.887 3.705,-1.972 8.542,-2.957 14.519,-2.957 6.215,0 11.203,0.869 14.967,2.6 3.768,1.733 6.659,4.155 8.693,7.26 2.032,3.109 3.375,6.752 4.036,10.933 0.651,4.187 0.979,8.784 0.979,13.803 l 0,57.717 z m -14.158,-59.936 c 0,-2.142 -0.149,-4.347 -0.446,-6.61 -0.302,-2.264 -0.93,-4.315 -1.883,-6.16 -0.957,-1.846 -2.421,-3.396 -4.391,-4.644 -1.974,-1.25 -4.57,-1.877 -7.799,-1.877 -3.583,0 -6.336,0.865 -8.249,2.592 -1.908,1.726 -3.343,3.78 -4.296,6.16 -0.958,2.381 -1.527,4.914 -1.702,7.59 -0.18,2.68 -0.271,4.914 -0.271,6.698 l 0,60.372 c 0,1.786 0.179,3.695 0.539,5.716 0.359,2.024 1.075,3.929 2.149,5.716 1.075,1.789 2.538,3.245 4.391,4.374 1.853,1.132 4.271,1.699 7.26,1.699 2.985,0 5.436,-0.597 7.352,-1.785 1.911,-1.19 3.404,-2.708 4.479,-4.553 1.08,-1.846 1.823,-3.961 2.241,-6.342 0.419,-2.38 0.627,-4.823 0.627,-7.327 l 0,-61.619 z"
       id="path45"
       inkscape:connector-curvature="0"
       style="fill:#333233" /><path
       clip-path="url(#SVGID_2_)"
       d="m 804.104,564.515 0,91.058 c 0,11.113 -2.15,19.69 -6.453,25.723 -4.303,6.037 -11.713,9.051 -22.229,9.051 -10.276,0 -17.623,-2.805 -22.044,-8.424 -4.424,-5.616 -6.633,-13.023 -6.633,-22.227 l 0,-95.181 14.16,0 0,95.208 c 0,1.79 0.18,3.7 0.539,5.729 0.355,2.026 1.075,3.936 2.15,5.728 1.074,1.789 2.537,3.253 4.391,4.384 1.852,1.135 4.273,1.699 7.259,1.699 2.986,0 5.437,-0.598 7.353,-1.79 1.906,-1.193 3.403,-2.713 4.479,-4.563 1.073,-1.848 1.822,-3.968 2.241,-6.354 0.418,-2.385 0.627,-4.831 0.627,-7.338 l 0,-92.701 14.16,0 z"
       id="path47"
       inkscape:connector-curvature="0"
       style="fill:#333233" /><path
       clip-path="url(#SVGID_2_)"
       d="m 853.559,563.259 c 9.681,0 16.697,2.629 21.059,7.888 4.362,5.261 6.545,12.132 6.545,20.614 l -14.159,2.509 c 0.116,-5.495 -0.87,-9.858 -2.962,-13.085 -2.09,-3.227 -5.645,-4.84 -10.662,-4.84 -2.869,0 -5.198,0.659 -6.993,1.972 -1.788,1.317 -3.194,2.959 -4.21,4.93 -1.017,1.972 -1.702,4.153 -2.062,6.543 -0.36,2.393 -0.54,4.66 -0.54,6.81 l 0,62.918 c 0,1.791 0.18,3.735 0.54,5.824 0.359,2.091 1.045,4.007 2.062,5.735 1.016,1.733 2.388,3.2 4.123,4.394 1.731,1.194 4.031,1.792 6.899,1.792 4.663,0 8.097,-1.435 10.309,-4.304 2.207,-2.867 3.374,-7.407 3.496,-13.622 l 14.519,2.51 c -0.242,8.963 -2.664,15.953 -7.259,20.974 -4.604,5.018 -11.505,7.526 -20.704,7.526 -9.443,0 -16.493,-2.626 -21.151,-7.886 -4.663,-5.257 -6.992,-12.667 -6.992,-22.227 l 0,-61.664 c 0,-4.418 0.389,-8.753 1.167,-12.995 0.772,-4.239 2.178,-8.003 4.211,-11.293 2.032,-3.284 4.901,-5.941 8.608,-7.977 3.697,-2.029 8.417,-3.046 14.156,-3.046"
       id="path49"
       inkscape:connector-curvature="0"
       style="fill:#333233" /><polygon
       clip-path="url(#SVGID_2_)"
       points="915.233,689.092 901.074,689.092 901.074,564.334 915.233,564.334 915.233,619.185 944.271,619.185 944.271,564.334 958.436,564.334 958.436,689.092 944.271,689.092 944.271,631.553 915.233,631.553 "
       id="polygon51"
       style="fill:#333233" /></g></svg>