<?xml version="1.0" encoding="utf-8"?>
<!-- Generator: Adobe Illustrator 16.0.0, SVG Export Plug-In . SVG Version: 6.00 Build 0)  -->
<!DOCTYPE svg PUBLIC "-//W3C//DTD SVG 1.1//EN" "http://www.w3.org/Graphics/SVG/1.1/DTD/svg11.dtd">
<svg version="1.1" id="Layer_1" xmlns="http://www.w3.org/2000/svg" xmlns:xlink="http://www.w3.org/1999/xlink" x="0px" y="0px"
	 width="1000px" height="1000px" viewBox="0 0 1000 1000" enable-background="new 0 0 1000 1000" xml:space="preserve">
<path fill="#225412" fill-rule="evenodd" clip-rule="evenodd" d="M336.995,483.924c-17.48,29.133-33.32,59.418-52.943,87.027
	c-16.389,23.075-34.974,34.744-54.622,29.188c-30.743-8.681-44.029-39.834-27.299-69.314
	c24.622-43.409,50.714-85.986,76.279-128.854c19.431-32.576,38.582-65.323,58.685-97.465c11.722-18.75,28.081-31.795,52.4-34.821
	c1.277,6.778,1.874,12.318,3.397,17.589c5.773,20.002,22.541,27.515,41.244,18.554c6.26-3.009,12.836-5.771,18.322-9.904
	c11.143-8.389,20.801-7.149,32.809-0.441c40.408,22.587,49.399,18.757,63.916-25.628c22.023,2.824,38.65,14.95,49.693,33.08
	c45.677,75.051,90.773,150.464,135.39,226.156c15.459,26.216,8.837,52.03-14.702,65.57c-24.305,14.007-48.394,7.228-64.642-19.173
	c-18.688-30.334-36.632-61.131-59.049-90.674c0,7.97-0.008,15.948,0,23.911c0.086,131.791-0.874,263.567,0.76,395.329
	c0.672,53.716-45.795,76.372-83.037,62.321c-24.258-9.132-37.551-26.199-37.529-53.16c0.046-74.112,0.489-148.241,0.758-222.355
	c0.017-4.44,0.991-9.208-0.317-13.2c-1.252-3.838-0.084-10.74-7.481-10.276c-6.477,0.403-7.591,6.529-7.722,9.935
	c-0.767,18.959-0.364,37.947-0.364,56.936c-0.007,57.649-1.982,115.388,0.571,172.944c2.176,48.948-43.222,74.948-87.839,56.563
	c-21.798-8.991-31.517-26.418-31.586-49.414c-0.162-57.013-0.086-114.025-0.125-171.055c-0.045-82.965-0.108-165.916-0.202-248.881
	c-0.007-2.979-0.377-5.951-0.586-8.922C339.78,484.97,338.388,484.443,336.995,483.924z"/>
<path fill="#225412" fill-rule="evenodd" clip-rule="evenodd" d="M536.733,228.163c-14.083-11.621-29.396-10.794-44.693-1.37
	c-15.872,9.773-31.478,9.557-47.704,0.464c-12.474-6.986-25.318-10.383-39.379-2.212c-2.964,1.725-10.391-1.022-13.897-3.948
	c-37.908-31.633-50.978-85.479-32.678-132.387c17.992-46.134,62.941-75.932,112.455-74.563
	c51.867,1.439,95.71,34.055,110.837,82.462C597.003,145.646,580.036,196.151,536.733,228.163z"/>
<path fill="#225412" d="M425.655,298.278l43.054-17.435l43.023,17.323c4.303,2.333,9.684,0.838,12.158-3.384c4.07-6.939,9.182-18.18,9.182-30.861
	c0-12.687-5.109-23.927-9.18-30.867c-2.477-4.227-7.854-5.719-12.16-3.383l-42.429,23.021l-43.648-23.133
	c-4.29-2.272-9.611-0.772-12.073,3.411c-4.081,6.934-9.235,18.214-9.235,30.952c0,12.732,5.156,24.012,9.235,30.945
	C416.048,299.055,421.361,300.553,425.655,298.278z"/>
</svg>
