<?xml version="1.0" encoding="UTF-8" standalone="no"?>
<!-- Generator: Adobe Illustrator 19.0.0, SVG Export Plug-In . SVG Version: 6.00 Build 0)  -->

<svg
   xmlns:dc="http://purl.org/dc/elements/1.1/"
   xmlns:cc="http://creativecommons.org/ns#"
   xmlns:rdf="http://www.w3.org/1999/02/22-rdf-syntax-ns#"
   xmlns:svg="http://www.w3.org/2000/svg"
   xmlns="http://www.w3.org/2000/svg"
   xmlns:xlink="http://www.w3.org/1999/xlink"
   xmlns:sodipodi="http://sodipodi.sourceforge.net/DTD/sodipodi-0.dtd"
   xmlns:inkscape="http://www.inkscape.org/namespaces/inkscape"
   version="1.1"
   id="Layer_1"
   x="0px"
   y="0px"
   width="50px"
   height="50px"
   viewBox="0 0 50 50"
   style="enable-background:new 0 0 50 50;"
   xml:space="preserve"
   sodipodi:docname="mini_olympic_games_mini_tournament.svg"
   inkscape:version="0.92.1 r15371"><metadata
     id="metadata29"><rdf:RDF><cc:Work
         rdf:about=""><dc:format>image/svg+xml</dc:format><dc:type
           rdf:resource="http://purl.org/dc/dcmitype/StillImage" /><dc:title></dc:title></cc:Work></rdf:RDF></metadata><defs
     id="defs27" /><sodipodi:namedview
     pagecolor="#ffffff"
     bordercolor="#666666"
     borderopacity="1"
     objecttolerance="10"
     gridtolerance="10"
     guidetolerance="10"
     inkscape:pageopacity="0"
     inkscape:pageshadow="2"
     inkscape:window-width="1920"
     inkscape:window-height="1018"
     id="namedview25"
     showgrid="false"
     inkscape:zoom="4.72"
     inkscape:cx="25"
     inkscape:cy="25"
     inkscape:window-x="-8"
     inkscape:window-y="-8"
     inkscape:window-maximized="1"
     inkscape:current-layer="g22" /><style
     type="text/css"
     id="style2">
	.st0{fill:#28B269;}
	.st1{clip-path:url(#XMLID_11_);}
	.st2{fill:#FFFFFF;}
</style><g
     id="g22"><g
       id="XMLID_9_"
       style="fill:#68c996;fill-opacity:1"><circle
         id="XMLID_301_"
         class="st0"
         cx="25"
         cy="25"
         r="25"
         style="fill:#68c996;fill-opacity:1" /></g><g
       id="g20"><defs
         id="defs7"><circle
           id="XMLID_2_"
           cx="25"
           cy="25"
           r="25" /></defs><clipPath
         id="XMLID_11_"><use
           xlink:href="#XMLID_2_"
           style="overflow:visible;"
           id="use9" /></clipPath><g
         class="st1"
         clip-path="url(#XMLID_11_)"
         id="g18"><path
           id="XMLID_8_"
           class="st2"
           d="M33.9,25.8c-0.2-0.4-0.1-1,0.4-1.2c0.4-0.2,1-0.1,1.2,0.4c0,0,2.6,5,7,6.9     c0.5,0.2,0.7,0.7,0.5,1.2c-0.1,0.3-0.5,0.5-0.8,0.5c-0.1,0-0.2,0-0.4-0.1C36.8,31.4,34,26.1,33.9,25.8z" /><path
           id="XMLID_7_"
           class="st2"
           d="M17.8,51.4C21.7,49,28,41.2,28,41.1c0.3-0.4,0.9-0.4,1.3-0.1c0.4,0.3,0.4,0.9,0.1,1.3     c-0.3,0.3-6.5,8.1-10.7,10.6c-0.1,0.1-0.8,0.3-1.2-0.3C17.3,52.2,17.4,51.6,17.8,51.4z" /><path
           class="st2"
           d="M32.8,15.3c0-2.3-1.9-4.2-4.2-4.2c-2.3,0-4.2,1.9-4.2,4.2s1.9,4.2,4.2,4.2C30.9,19.5,32.8,17.7,32.8,15.3z      M31,15.3c0,1.3-1.1,2.4-2.4,2.4c-1.3,0-2.4-1.1-2.4-2.4c0-1.3,1.1-2.4,2.4-2.4C30,12.9,31,14,31,15.3z"
           id="path14" /><path
           id="XMLID_4_"
           class="st2"
           d="M1.4,22.1L27.3,6.3c0.4-0.3,1-0.1,1.2,0.3c0.3,0.4,0.1,1-0.3,1.2l-16.1,9.9     c6.7,8.4,19.4,3.4,19.6,3.3c0.3-0.1,0.6-0.1,0.8,0.1c0.2,0.2,0.4,0.4,0.4,0.7v13.7c0,0.5-0.4,0.9-0.9,0.9c-0.5,0-0.9-0.4-0.9-0.9     V23c-1.4,0.5-14,4.4-20.5-4.5l-8.3,5.1c-0.1,0.1-0.8,0.3-1.2-0.3C0.9,22.9,1,22.4,1.4,22.1z" /><path
           id="XMLID_3_"
           class="st2"
           d="M25.2,32.9V27c0-0.5,0.4-0.9,0.9-0.9c0.5,0,0.9,0.4,0.9,0.9v5.9c0,0,0,0,0,0     c0,0.2-0.2,4.4,5.2,5.3c6.8,1.1,9.2,13.3,9.2,13.8c0.1,0.5-0.2,0.9-0.7,1c-0.5,0.1-1-0.3-1-0.7C39.2,49.2,36.6,40.8,32,40     C25.3,38.9,25.2,33.5,25.2,32.9z" /></g></g></g></svg>