<?xml version="1.0" encoding="utf-8"?>
<!-- Generator: Adobe Illustrator 19.0.0, SVG Export Plug-In . SVG Version: 6.00 Build 0)  -->
<svg version="1.1" id="Layer_1" xmlns="http://www.w3.org/2000/svg" xmlns:xlink="http://www.w3.org/1999/xlink" x="0px" y="0px"
	 width="50px" height="50px" viewBox="0 0 50 50" style="enable-background:new 0 0 50 50;" xml:space="preserve">
<style type="text/css">
	.st0{fill:#625F59;}
	.st1{clip-path:url(#XMLID_34_);}
	.st2{fill:#FFFFFF;}
</style>
<g>
	<g id="XMLID_32_">
		<circle id="XMLID_52_" class="st0" cx="25" cy="25" r="25"/>
	</g>
	<g>
		<defs>
			<circle id="XMLID_14_" cx="25" cy="25" r="25"/>
		</defs>
		<clipPath id="XMLID_34_">
			<use xlink:href="#XMLID_14_"  style="overflow:visible;"/>
		</clipPath>
		<g class="st1">
			<g>
				<path id="XMLID_31_" class="st2" d="M23.1,27.1c0,0,4.1,0.3,6.8-2.4c1.9-1.9,2.8-4.9,2.6-8.9c0-0.5,0.3-0.9,0.8-0.9
					c0.5,0,0.9,0.3,0.9,0.8c0.3,4.5-0.8,7.9-3.1,10.2c-2.3,2.3-5.3,2.8-6.9,2.9l3,11.9c0.1,0.3,1.9,6.8,1.4,15.5
					c0,0.5-0.4,0.8-0.9,0.8c0,0,0,0,0,0c-0.5,0-0.9-0.4-0.8-0.9c0.4-8.3-1.3-14.8-1.4-14.9l-3.3-13C22.2,27.2,22.8,27,23.1,27.1z"/>
				<path id="XMLID_30_" class="st2" d="M14.9,8.8c1.2,0,2.9,0.8,3.1,3.1c0.1,0.8-0.9,0.9-0.9,0.9c-0.5,0-0.9-0.4-0.9-0.8
					c0-1.3-1.1-1.4-1.4-1.4c-2.1-0.2-2.1,1.5-2.1,1.6c-0.1,2.5,2.2,2.3,2.2,2.3c0,0,21.7-2.6,21.7-2.6c0.5-0.1,0.9,0.2,1,0.7
					c1.6,11.1-2.8,15.7-6.5,17.7L34,40.8c0.1,0.3,1.9,6.8,1.4,15.4c0,0.8-0.9,0.8-0.9,0.8c-0.5,0-0.9-0.4-0.8-0.9
					c0.5-8.3-1.3-14.7-1.3-14.8l-3-11.3c-0.1-0.4,0.1-0.8,0.5-1c7.2-3.3,6.6-12.5,6.3-15.3c0,0-21.1,2.5-21.4,2.5
					c-2.9,0-3.7-2.6-3.7-4.1C11.3,8.3,14.9,8.8,14.9,8.8z"/>
			</g>
			<path class="st2" d="M30,21.4c0-2.2-1.8-4-4-4c-2.2,0-4,1.8-4,4c0,2.2,1.8,4,4,4C28.1,25.5,30,23.6,30,21.4z M28.2,21.4
				c0,1.3-1,2.3-2.3,2.3c-1.3,0-2.3-1-2.3-2.3c0-1.3,1-2.3,2.3-2.3C27.2,19.1,28.2,20.2,28.2,21.4z"/>
		</g>
	</g>
</g>
</svg>
