<?xml version="1.0" encoding="UTF-8" standalone="no"?>
<!-- Generator: Adobe Illustrator 16.0.0, SVG Export Plug-In . SVG Version: 6.00 Build 0)  -->

<svg
   xmlns:dc="http://purl.org/dc/elements/1.1/"
   xmlns:cc="http://creativecommons.org/ns#"
   xmlns:rdf="http://www.w3.org/1999/02/22-rdf-syntax-ns#"
   xmlns:svg="http://www.w3.org/2000/svg"
   xmlns="http://www.w3.org/2000/svg"
   xmlns:sodipodi="http://sodipodi.sourceforge.net/DTD/sodipodi-0.dtd"
   xmlns:inkscape="http://www.inkscape.org/namespaces/inkscape"
   version="1.1"
   id="Layer_1"
   x="0px"
   y="0px"
   width="1049.1277"
   height="1036.009"
   viewBox="0 0 1049.1277 1036.009"
   enable-background="new 0 0 1000 1000"
   xml:space="preserve"
   inkscape:version="0.91 r13725"
   sodipodi:docname="mixed.svg"><metadata
     id="metadata19"><rdf:RDF><cc:Work
         rdf:about=""><dc:format>image/svg+xml</dc:format><dc:type
           rdf:resource="http://purl.org/dc/dcmitype/StillImage" /><dc:title></dc:title></cc:Work></rdf:RDF></metadata><defs
     id="defs17" /><sodipodi:namedview
     pagecolor="#ffffff"
     bordercolor="#666666"
     borderopacity="1"
     objecttolerance="10"
     gridtolerance="10"
     guidetolerance="10"
     inkscape:pageopacity="0"
     inkscape:pageshadow="2"
     inkscape:window-width="1280"
     inkscape:window-height="995"
     id="namedview15"
     showgrid="false"
     inkscape:zoom="0.236"
     inkscape:cx="537.77745"
     inkscape:cy="501.40657"
     inkscape:window-x="1280"
     inkscape:window-y="0"
     inkscape:window-maximized="1"
     inkscape:current-layer="Layer_1"
     fit-margin-top="0"
     fit-margin-left="0"
     fit-margin-right="0"
     fit-margin-bottom="0" /><path
     d="m 142.15643,517.12323 c -17.48,31.07074 -33.32,63.37009 -52.94302,92.81545 -16.389,24.6098 -34.974,37.05494 -54.622,31.12939 C 3.8484095,631.80967 -9.4375905,598.58458 7.2924095,567.14377 31.91441,520.84749 58.00641,475.43856 83.57141,429.71927 c 19.43102,-34.74275 38.58202,-69.66786 58.68502,-103.94773 11.722,-19.99712 28.081,-33.90979 52.4,-37.13706 1.277,7.22883 1.874,13.13731 3.397,18.7589 5.773,21.3324 22.541,29.34511 41.244,19.78809 6.26,-3.20914 12.836,-6.15484 18.322,-10.56275 11.143,-8.94698 20.801,-7.6245 32.809,-0.47033 40.408,24.08934 49.399,20.0046 63.916,-27.3326 22.023,3.01183 38.65,15.94437 49.693,35.28026 45.677,80.04289 90.773,160.47186 135.39,241.19839 15.459,27.95971 8.837,55.49069 -14.702,69.93128 -24.305,14.93864 -48.394,7.70875 -64.642,-20.44827 -18.688,-32.35161 -36.632,-65.19702 -59.049,-96.70502 0,8.5001 -0.008,17.00875 0,25.50139 0.086,140.55687 -0.874,281.09772 0.76,421.62366 0.672,57.28892 -45.795,81.45162 -83.037,66.46622 -24.258,-9.7394 -37.551,-27.9416 -37.529,-56.6959 0.046,-79.04144 0.489,-158.10101 0.758,-237.14457 0.017,-4.73531 0.991,-9.82046 -0.317,-14.07798 -1.252,-4.09327 -0.084,-11.45434 -7.481,-10.95949 -6.477,0.42981 -7.591,6.96327 -7.722,10.59581 -0.767,20.22003 -0.364,40.47099 -0.364,60.72301 -0.007,61.48342 -1.982,123.06283 0.571,184.44708 2.176,52.20374 -43.222,79.93304 -87.839,60.32524 -21.798,-9.589 -31.517,-28.1752 -31.586,-52.70074 -0.162,-60.80512 -0.086,-121.60918 -0.125,-182.43243 -0.045,-88.48328 -0.108,-176.95163 -0.202,-265.43491 -0.007,-3.17714 -0.377,-6.34682 -0.586,-9.51543 -1.394,-0.55459 -2.786,-1.11664 -4.179,-1.67016 z"
     id="path3"
     inkscape:connector-curvature="0"
     style="clip-rule:evenodd;fill:#225412;fill-rule:evenodd" /><path
     d="m 345.903,238.1805 c -14.53066,-12.51631 -29.8118,-11.62559 -44.74578,-1.47555 -15.49553,10.52593 -31.10985,10.29329 -47.68612,0.49975 -12.74311,-7.52422 -25.71797,-11.18293 -39.46421,-2.38242 -2.89755,1.8579 -10.43037,-1.10074 -14.04908,-4.25216 C 160.83127,196.50004 145.68706,138.50563 162.18011,87.983734 178.39498,38.295464 222.19613,6.2017643 271.76287,7.6762343 323.6853,9.2260943 368.7847,44.354904 385.77639,96.491294 402.99435,149.30621 387.97286,203.70222 345.903,238.1805 Z"
     id="path5"
     inkscape:connector-curvature="0"
     style="clip-rule:evenodd;fill:#225412;fill-rule:evenodd" /><path
     d="m 230.81642,317.16405 43.054,-18.47791 43.023,18.3592 c 4.303,2.47256 9.684,0.88813 12.158,-3.58642 4.07,-7.35406 9.182,-19.26746 9.182,-32.707 0,-13.4459 -5.109,-25.35824 -9.18,-32.71337 -2.477,-4.47984 -7.854,-6.06109 -12.16,-3.58536 l -42.429,24.39805 -43.648,-24.51675 c -4.29,-2.4079 -9.611,-0.81817 -12.073,3.61504 -4.081,7.34877 -9.235,19.3035 -9.235,32.80345 0,13.49359 5.156,25.44832 9.235,32.79603 2.466,4.43851 7.779,6.02612 12.073,3.61504 z"
     id="path7"
     inkscape:connector-curvature="0"
     style="fill:#225412" /><path
     d="m 919.89955,553.14412 c 5.273,19.52501 10.718,39.01785 15.775,58.60397 13.183,51.05897 26.722,102.02253 39.119,153.30878 6.669,27.65211 -0.685,36.43639 -27.79,36.81803 -10.359,0.13615 -20.719,0.0161 -33.189,0.0161 0,29.9109 0.028,57.90179 -0.016,85.88838 -0.028,26.27669 0.656,52.58556 -0.398,78.799 -1.396,34.34382 -24.34,55.91532 -56.518,54.87542 -31.18,-1.0067 -52.308,-23.64913 -52.527,-57.30466 -0.329,-49.4209 -0.171,-98.82786 -0.058,-148.24876 0.021,-9.21415 -0.343,-17.04968 -14.058,-11.6584 0,41.09653 0.007,82.86416 0,124.63394 0,10.64961 0.021,21.281 -0.008,31.91346 -0.115,36.91131 -19.887,59.23112 -53.255,60.10152 -34.088,0.9005 -56.255,-21.03756 -56.839,-58.46774 -0.754,-48.77982 -0.164,-97.59073 -0.199,-146.38663 -0.005,-3.69746 -0.391,-7.40884 -0.761,-14.17876 -11.608,0 -23.029,0.3988 -34.41,-0.0901 -28.771,-1.19104 -35.455,-13.0617 -26.883,-41.84482 20.65,-69.37365 40.315,-139.1 60.274,-208.717 0.812,-2.82804 0.549,-6.03664 -1.94,-10.40412 -16.835,30.09743 -32.513,61.06322 -51.108,89.84741 -7.227,11.18242 -20.031,21.34211 -32.137,25.03742 -16.666,5.0718 -31.75,-4.1252 -41.619,-20.31939 -10.104,-16.55868 -8.123,-33.17954 0.805,-49.31477 28.531,-51.51459 57.239,-102.92197 85.917,-154.35187 12.242,-21.95424 24.526,-43.88382 36.91,-65.74694 13.717,-24.2452 33.553,-37.59741 60.31,-37.76572 40.827,-0.2605 81.655,-0.48135 122.469,-0.22942 25.708,0.15331 46.644,11.51261 60.024,35.19926 41.312,73.13222 82.31295,146.47884 122.81295,220.13099 20.55,37.33689 2.252,72.85777 -36.711,73.07218 -15.75999,0.0751 -25.96395,-9.71695 -33.60095,-22.97912 -12.886,-22.27371 -25.239,-44.88511 -37.909,-67.31106 -2.85,-5.01069 -6.098,-9.77911 -9.177,-14.65152 -1.096,0.57998 -2.193,1.14386 -3.305,1.72491 z"
     id="path9"
     inkscape:connector-curvature="0"
     style="clip-rule:evenodd;fill:#66952e;fill-rule:evenodd" /><path
     d="m 778.64391,67.735314 c 1.50944,5.95389 2.38544,11.51956 2.878,16.1567 0.76478,7.21694 -4.03048,13.77494 -10.83515,14.82319 l -62.9856,17.645746 -33.77657,58.97837 c -2.91719,6.51885 -10.15722,9.45999 -16.45451,6.67435 -0.6239,-0.27633 -1.26793,-0.57055 -1.92573,-0.87708 -0.0974,2.03945 -0.14724,4.09231 -0.14724,6.15749 0,66.27026 50.86663,119.99396 113.61496,119.99396 62.74727,0 113.6139,-53.72258 113.6139,-119.99396 0,-62.84359 -45.743,-114.394716 -103.98206,-119.558766 z"
     id="path11"
     inkscape:connector-curvature="0"
     style="fill:#66952e" /><path
     d="m 660.46914,150.26228 32.05946,-53.628536 59.93049,-16.7169 c 6.47471,-1.03215 11.02958,-7.00833 10.28916,-13.50862 -0.47508,-4.17774 -1.31826,-9.18672 -2.7647,-14.53775 -2.25344,-8.33596 -5.98758,-17.50839 -12.18863,-25.70526 C 737.60945,12.700714 723.1194,4.9401643 713.19266,0.89372434 707.15122,-1.5711857 700.20231,1.2313843 697.47125,7.2243743 l -26.90841,59.0472397 -65.26107,11.0602 c -6.41245,1.08721 -10.90205,7.02139 -10.17648,13.47021 1.20182,10.688756 4.74272,26.865296 14.96937,40.383006 9.60888,12.70352 23.05985,20.32502 32.88677,24.54149 0.62632,0.26898 1.23996,0.52547 1.83461,0.76639 5.9982,2.43068 12.88504,-0.31412 15.6531,-6.23063 z"
     id="path13"
     inkscape:connector-curvature="0"
     style="fill:#66952e"
     inkscape:transform-center-x="-26.816945"
     inkscape:transform-center-y="17.513772" /></svg>