<?xml version="1.0" encoding="utf-8"?>
<!-- Generator: Adobe Illustrator 15.0.0, SVG Export Plug-In . SVG Version: 6.00 Build 0)  -->
<!DOCTYPE svg PUBLIC "-//W3C//DTD SVG 1.1//EN" "http://www.w3.org/Graphics/SVG/1.1/DTD/svg11.dtd">
<svg version="1.1" id="Слой_1" xmlns="http://www.w3.org/2000/svg" xmlns:xlink="http://www.w3.org/1999/xlink" x="0px" y="0px"
	 width="1000px" height="1000px" viewBox="0 0 1000 1000" enable-background="new 0 0 1000 1000" xml:space="preserve">
<g>
	<path fill="#FFFFFF" d="M500.544,129.226c0,51.952-42.139,94.09-94.156,94.09c-51.955,0-94.094-42.138-94.094-94.09
		c0-51.958,42.139-94.1,94.094-94.1C458.405,35.126,500.544,77.268,500.544,129.226"/>
	<path fill="#FFFFFF" d="M814.41,562.392c-0.868-0.543-1.844-0.87-2.82-1.249c-9.979-5.967-38.345-24.732-48.54-27.172
		c-0.054,0-0.108,0-0.163-0.054l-14.536,15.293l-14.968-15.13c-5.966,1.462-77.341,43.278-106.141,18.113
		c9.058-10.522,11.716-25.709,5.532-39.103c-53.043-114.825-94.911-205.501-166.282-249.323c-1.85-1.138-3.858-2.015-5.808-2.766
		c-10.466-6.942-22.236-11.996-34.223-14.868c-0.109,0-0.163-0.055-0.271-0.055l-22.724,23.866l-23.432-23.589
		c-9.332,2.278-34.443,14.646-37.638,16.645c-3.853,2.332-7.653,4.727-11.39,7.167c-9.602,5.098-95.564,54.343-155.548,205.504
		c-0.116-0.292-0.237-0.565-0.352-0.856c0,0-11.861,41.521,0.566,55.141c0.183,0.205-0.179,0.211,0,0
		c4.014,4.666,9.109,8.461,15.241,10.687c4.176,1.517,8.464,2.278,12.69,2.278c15.133,0,29.338-9.385,34.818-24.406
		c20.176-55.33,44.042-95.3,65.628-123.555c1.245,3.269,2.169,6.681,2.494,10.301c0.217-0.693,0.432-1.402,0.646-2.049v79.239
		l-48.265,315.051c18.059,9.003,37.419,15.185,57.271,19.308v102.073c0,23.862,19.309,43.17,43.116,43.17h0.055
		c23.812,0,43.174-19.308,43.174-43.17v-95.454c2.061-0.055,4.066-0.164,6.126-0.272v95.727c0,23.862,19.314,43.17,43.174,43.17
		c23.809,0,43.171-19.308,43.171-43.17V812.092c34.279-6.997,56.787-14.59,56.787-14.59l-51.96-327.036v-61.19
		c21.75,37.267,42.956,83.15,66.656,134.398c3.362,7.313,8.949,12.914,15.514,16.534c-1.032,7.173,1.245,14.71,6.886,20.134
		c26.683,25.491,49.897,34.225,70.345,34.225c9.762,0,18.98-2.009,27.604-5.166v39.658l-24.785,134.938h30.535v153.324
		c0,15.242,12.367,27.552,27.605,27.552c15.242,0,27.606-12.31,27.606-27.552V783.997h3.907v153.324
		c0,15.242,12.31,27.552,27.551,27.552c15.239,0,27.605-12.31,27.605-27.552V783.997h26.685l-23.595-134.612v-30.318
		c7.161,12.473,13.834,31.672,13.834,60.202c0,11.823,9.543,21.367,21.367,21.367s21.365-9.544,21.365-21.367
		C866.477,593.032,816.579,563.583,814.41,562.392"/>
	<path fill="#FFFFFF" d="M808.498,460.688c0,33.233-26.9,60.14-60.147,60.14c-33.192,0-60.093-26.907-60.093-60.14
		c0-33.198,26.9-60.15,60.093-60.15C781.598,400.538,808.498,427.49,808.498,460.688"/>
</g>
</svg>
