<?xml version="1.0" encoding="utf-8"?>
<!-- Generator: Adobe Illustrator 15.0.0, SVG Export Plug-In . SVG Version: 6.00 Build 0)  -->
<!DOCTYPE svg PUBLIC "-//W3C//DTD SVG 1.1//EN" "http://www.w3.org/Graphics/SVG/1.1/DTD/svg11.dtd">
<svg version="1.1" id="Слой_1" xmlns="http://www.w3.org/2000/svg" xmlns:xlink="http://www.w3.org/1999/xlink" x="0px" y="0px"
	 width="1000px" height="1000px" viewBox="0 0 1000 1000" enable-background="new 0 0 1000 1000" xml:space="preserve">
<g>
	<path fill="#007DBA" d="M328.596,73.893c-53.532,0-104.05,17.592-146.105,50.888c-74.036,58.614-103.367,153.059-82.903,239.397
		c0.072,0.55,0.194,1.083,0.383,1.602c7.782,31.882,22.375,62.61,44.042,89.983c44.96,56.801,112.345,89.374,184.875,89.374
		c53.527,0,104.045-17.592,146.094-50.888c49.344-39.065,80.527-95.001,87.799-157.521c7.264-62.513-10.239-124.11-49.311-173.454
		C468.505,106.463,401.115,73.893,328.596,73.893 M340.108,286.04c-34.368,8.329-69.842,9.301-104.072,3.457
		c14.458-106.27,110.249-184.709,126.796-197.532c39.374,6.089,76.016,22.647,106.469,47.998
		C404.835,177.2,357.49,230.751,340.108,286.04 M117.5,257.438c45.251,33.91,100.648,51.93,156.709,51.93
		c18.814,0,37.694-2.045,56.283-6.192c26.605,27.411,46.175,60.546,57.663,96.278c-13.327,2.713-46.96,8.541-89.178,8.248
		c-49.467-0.385-121.075-9.559-183.008-50.74C108.511,324.021,109.138,289.837,117.5,257.438 M193.523,138.566
		c37.187-29.441,81.852-45.007,129.172-45.007c3.995,0,7.968,0.116,11.934,0.332c-10.996,9.389-27.145,24.328-44.014,43.971
		c-27.253,31.717-61.347,82.035-69.813,142.201c-34.346-7.977-66.943-23.333-95.074-45.422
		C138.174,197.966,160.954,164.343,193.523,138.566 M155.241,440.457c-15.655-18.489-27.248-38.779-34.924-59.926
		c62.917,34.225,132.334,42.149,181.299,42.453c1.082,0.008,81.894-5.779,95.045-8.368c7.845,28.548,10.018,58.489,5.906,88.173
		c-24.783,9.16-51.31,13.889-78.688,13.889C257.716,516.678,196.255,488.895,155.241,440.457 M461.2,468.417
		c-11.677,9.255-24.118,17.111-37.15,23.546c6.843-72.484-18.079-145.632-67.925-199.034c8.149-29.009,25.973-57.718,51.084-83.375
		c13.985,12.933,92.113,90.542,97.276,212.218C492.713,439.233,478.185,454.975,461.2,468.417 M545.282,333.032
		c-2.945,25.412-10.293,49.613-21.524,71.769c-7.165-64.274-32.538-114.984-53.837-147.485
		c-20.789-31.699-41.009-51.75-48.78-58.943c17.487-16.059,37.792-30.726,60.311-43.303c6.839,6.607,13.29,13.697,19.304,21.29
		C536.037,220.92,551.846,276.563,545.282,333.032"/>
	<path fill="#007DBA" d="M867.85,349.642c-7.527,0-13.643,4.604-13.643,10.27v174.587h-136.44v-10.271
		c0-5.664-6.112-10.268-13.642-10.268H185.662c-7.529,0-13.645,4.604-13.645,10.268v41.08c0,5.668,6.116,10.271,13.645,10.271
		h42.434l53.164,340.104c1.908,13.809,29.502,11.363,27.104-2.406l-5.104-32.633l0.561,0.469l60.008-39.666l71.021,59.361
		c5.049,4.213,13.668,4.561,19.278,0.764c0.349-0.24,0.676-0.492,0.999-0.764l70.883-59.303l59.972,39.617l0.544-0.471
		l-5.101,32.633c-2.413,13.762,25.195,16.207,27.101,2.398l53.164-340.104h40.198c4.328,0.541,8.728-0.512,11.835-2.84
		c0.113-0.078,0.223-0.16,0.328-0.24c3.041-2.328,4.41-5.605,3.717-8.824v-8.637h136.44v378.295
		c-0.708,3.24,0.663,6.539,3.729,8.875c3.103,2.479,7.648,3.633,12.114,3.08h52.375c7.529,0,13.646-4.594,13.646-10.27V359.911
		c0-5.666-6.117-10.27-13.646-10.27H867.85z M286.125,575.578h114.798l11.832,4.182l-68.708,24.252L286.125,575.578z
		 M488.864,575.578h114.785l-57.92,28.434L477.03,579.76L488.864,575.578z M257.186,585.887l57.812,28.373l-50.578,17.859
		L257.186,585.887z M632.587,585.887l-7.22,46.232l-50.579-17.848L632.587,585.887z M444.894,591.102l73.963,26.105l-73.963,36.305
		l-73.964-36.313l73.964-26.107V591.102z M341.872,627.467l78.052,38.303l-67.967,33.367l-74.214-49.033L341.872,627.467z
		 M547.902,627.467l64.126,22.637l-74.2,49.033l-67.968-33.359L547.902,627.467z M270.775,672.828l57.44,37.961l-47.833,23.475
		L270.775,672.828z M619.01,672.828l-9.605,61.436l-47.847-23.475L619.01,672.828z M444.894,678.033l71.654,35.172l-71.654,47.348
		l-71.656-47.348L444.894,678.033z M349.505,724.857l74.711,49.365l-58.132,38.412l-72.297-60.426L349.505,724.857z
		 M540.279,724.857l55.72,27.352l-72.24,60.463l-58.188-38.449L540.279,724.857z M287.11,777.322l58.466,48.859l-46.074,30.449
		L287.11,777.322z M602.662,777.352l-12.391,79.279l-46.007-30.406L602.662,777.352z M444.894,787.893l60.613,40.057l-60.52,50.645
		l-60.652-50.695L444.894,787.893z"/>
</g>
</svg>
