<?xml version="1.0" encoding="UTF-8" standalone="no"?>
<!-- Generator: Adobe Illustrator 19.0.0, SVG Export Plug-In . SVG Version: 6.00 Build 0)  -->

<svg
   xmlns:dc="http://purl.org/dc/elements/1.1/"
   xmlns:cc="http://creativecommons.org/ns#"
   xmlns:rdf="http://www.w3.org/1999/02/22-rdf-syntax-ns#"
   xmlns:svg="http://www.w3.org/2000/svg"
   xmlns="http://www.w3.org/2000/svg"
   xmlns:xlink="http://www.w3.org/1999/xlink"
   xmlns:sodipodi="http://sodipodi.sourceforge.net/DTD/sodipodi-0.dtd"
   xmlns:inkscape="http://www.inkscape.org/namespaces/inkscape"
   version="1.1"
   id="Layer_1"
   x="0px"
   y="0px"
   width="50px"
   height="50px"
   viewBox="0 0 50 50"
   style="enable-background:new 0 0 50 50;"
   xml:space="preserve"
   sodipodi:docname="netball_five_mini_tournament.svg"
   inkscape:version="0.92.1 r15371"><metadata
     id="metadata32"><rdf:RDF><cc:Work
         rdf:about=""><dc:format>image/svg+xml</dc:format><dc:type
           rdf:resource="http://purl.org/dc/dcmitype/StillImage" /><dc:title></dc:title></cc:Work></rdf:RDF></metadata><defs
     id="defs30" /><sodipodi:namedview
     pagecolor="#ffffff"
     bordercolor="#666666"
     borderopacity="1"
     objecttolerance="10"
     gridtolerance="10"
     guidetolerance="10"
     inkscape:pageopacity="0"
     inkscape:pageshadow="2"
     inkscape:window-width="1920"
     inkscape:window-height="1018"
     id="namedview28"
     showgrid="false"
     inkscape:zoom="4.72"
     inkscape:cx="25"
     inkscape:cy="25"
     inkscape:window-x="-8"
     inkscape:window-y="-8"
     inkscape:window-maximized="1"
     inkscape:current-layer="g25" /><style
     type="text/css"
     id="style2">
	.st0{fill:#00B1C7;}
	.st1{clip-path:url(#XMLID_37_);}
	.st2{fill:#FFFFFF;}
</style><g
     id="g25"><g
       id="XMLID_35_"
       style="fill:#007b8b;fill-opacity:1"><circle
         id="XMLID_55_"
         class="st0"
         cx="25"
         cy="25"
         r="25"
         style="fill:#007b8b;fill-opacity:1" /></g><g
       id="g23"><defs
         id="defs7"><circle
           id="XMLID_14_"
           cx="25"
           cy="25"
           r="25" /></defs><clipPath
         id="XMLID_37_"><use
           xlink:href="#XMLID_14_"
           style="overflow:visible;"
           id="use9" /></clipPath><g
         class="st1"
         clip-path="url(#XMLID_37_)"
         id="g21"><g
           id="g17"><path
             class="st2"
             d="M19.6,12.1C20.1,9.8,18.2,7,15.5,7c-2,0-3.6,1.4-4.1,3.3c-0.9,3.6,3.8,12.9,15.3,14.8l-3.8,12.4      c-0.2,0.5,0.1,1,0.6,1.2c0.6,0.2,1-0.2,1.2-0.6l4.1-13.4c0.1-0.3,0-0.6-0.1-0.8c-0.2-0.2-0.4-0.4-0.7-0.4      c-0.1,0-9.3-1.3-13.3-8.1C15.4,15.6,18.9,15.7,19.6,12.1z M17.8,11.7c-0.4,2.1-2.6,1.8-2.8,1.8c-1.9-0.4-1.9-2.2-1.8-2.8      c0.3-1.1,1.3-2.1,2.8-1.8C17.2,9.2,18,10.4,17.8,11.7z"
             id="path12" /><path
             id="XMLID_32_"
             class="st2"
             d="M29.1,27.2c-0.3-0.4-0.3-1,0.2-1.3c0.4-0.3,1-0.3,1.3,0.2c0,0,3.5,4.3,9.5,4.3      c0.5,0,0.9,0.4,0.9,0.9c0,0.5-0.4,0.9-0.9,0.9C33.2,32.3,29.3,27.4,29.1,27.2z" /><path
             id="XMLID_31_"
             class="st2"
             d="M17.8,31.3l1.3-4.8c0.1-0.5,0.7-0.8,1.2-0.7c0.5,0.1,0.8,0.7,0.7,1.2l-1.3,4.8      c-0.1,0.2-1.5,6,4.5,8c3.4,1.1,5.8,3.1,7.2,5.8c2.3,4.6,0.5,9.7,0.4,9.9c-0.1,0.4-0.6,0.8-1.2,0.6c-0.5-0.2-0.7-0.7-0.6-1.2      c0,0,1.6-4.6-0.3-8.5c-1.1-2.2-3.1-3.8-6.1-4.8C17.3,39.6,17.1,34,17.8,31.3z" /><path
             id="XMLID_30_"
             class="st2"
             d="M9.5,55.1C18.3,50.3,21,43,21,42.9c0.2-0.5,0.7-0.7,1.2-0.6c0.5,0.2,0.7,0.7,0.6,1.2      c-0.1,0.3-2.9,8.1-12.4,13.2c-0.1,0.1-0.9,0.3-1.3-0.4C8.9,55.9,9,55.3,9.5,55.1z" /></g><path
           class="st2"
           d="M26,21.2c2.5,0,4.5-2,4.5-4.5c0-2.5-2-4.5-4.5-4.5c-2.5,0-4.5,2-4.5,4.5C21.5,19.2,23.5,21.2,26,21.2z      M26,19.3c-1.4,0-2.5-1.1-2.5-2.5c0-1.4,1.1-2.5,2.5-2.5c1.4,0,2.5,1.1,2.5,2.5C28.5,18.2,27.4,19.3,26,19.3z"
           id="path19" /></g></g></g></svg>