<?xml version="1.0" encoding="utf-8"?>
<!-- Generator: Adobe Illustrator 19.0.0, SVG Export Plug-In . SVG Version: 6.00 Build 0)  -->
<svg version="1.1" id="Layer_1" xmlns="http://www.w3.org/2000/svg" xmlns:xlink="http://www.w3.org/1999/xlink" x="0px" y="0px"
	 width="50px" height="50px" viewBox="0 0 50 50" style="enable-background:new 0 0 50 50;" xml:space="preserve">
<style type="text/css">
	.st0{fill:#D3A848;}
	.st1{clip-path:url(#XMLID_11_);}
	.st2{fill:#FFFFFF;}
</style>
<g>
	<g id="XMLID_9_">
		<circle id="XMLID_301_" class="st0" cx="25" cy="25" r="25"/>
	</g>
	<g>
		<defs>
			<circle id="XMLID_2_" cx="25" cy="25" r="25"/>
		</defs>
		<clipPath id="XMLID_11_">
			<use xlink:href="#XMLID_2_"  style="overflow:visible;"/>
		</clipPath>
		<g class="st1">
			<g>
				<path class="st2" d="M15.9,16.4c2.2-0.5,3.7-2.3,3.8-4.4c1.7,1.9,3.7,5.2,5.2,10.6c0.1,0.5,0.6,0.9,1.3,0.8
					c0.6-0.1,0.9-0.8,0.8-1.3C23.7,11,18.6,6.6,14.9,6.7c-3.6,0.1-5.3,3.3-4.8,5.9C10.6,14.9,13,17,15.9,16.4z M12.2,12.2
					c-0.3-1.5,0.8-3.2,2.6-3.3c1.3,0,2.4,0.9,2.6,2.1c0.3,1.5-0.6,2.9-2.1,3.2C14,14.6,12.5,13.4,12.2,12.2z"/>
				<path id="XMLID_6_" class="st2" d="M36.8,31.1c0-0.3-0.2-0.6-0.4-0.7c-0.2-0.2-0.5-0.3-0.8-0.2c-16.4,2.3-20.1-8.3-20.2-8.7
					c-0.2-0.6-0.8-0.9-1.4-0.7c-0.6,0.2-0.9,0.8-0.7,1.4c0,0.1,1.1,3.3,4.4,6.2c2.9,2.5,8.2,5.2,17,4.2l1,8.1
					c0,0.1,0.5,5.3-1.7,10.5c-3.5,8.1-3,15.7-3,16.1c0,0.6,0.4,1.1,1.2,1c0.6,0,1-0.6,1-1.2c0-0.1-0.4-7.5,2.8-15.1
					c2.4-5.6,1.9-11.3,1.8-11.6L36.8,31.1z"/>
				<path id="XMLID_5_" class="st2" d="M29.7,34.8c-0.1-0.6-0.6-1-1.2-1c-0.6,0.1-1,0.6-1,1.2l0.7,6.6c0,0.1,0.5,5.3-1.7,10.5
					c-3.5,8.1-3,14.3-3,14.6c0,0.6,0.4,1.1,1.2,1c0.6-0.1,1-0.6,1-1.2c0-0.1-0.5-6,2.8-13.6c2.4-5.6,1.9-11.3,1.8-11.6L29.7,34.8z"
					/>
			</g>
			<path class="st2" d="M38.1,23.8c0-2.8-2.3-5.1-5.1-5.1c-2.8,0-5.1,2.3-5.1,5.1c0,2.8,2.3,5.1,5.1,5.1
				C35.8,28.9,38.1,26.6,38.1,23.8z M30,23.8c0-1.6,1.3-2.9,2.9-2.9c1.6,0,2.9,1.3,2.9,2.9c0,1.6-1.3,2.9-2.9,2.9
				C31.3,26.7,30,25.4,30,23.8z"/>
		</g>
	</g>
</g>
</svg>
