<?xml version="1.0" encoding="utf-8"?>
<!-- Generator: Adobe Illustrator 15.0.0, SVG Export Plug-In . SVG Version: 6.00 Build 0)  -->
<!DOCTYPE svg PUBLIC "-//W3C//DTD SVG 1.1//EN" "http://www.w3.org/Graphics/SVG/1.1/DTD/svg11.dtd">
<svg version="1.1" id="Слой_1" xmlns="http://www.w3.org/2000/svg" xmlns:xlink="http://www.w3.org/1999/xlink" x="0px" y="0px"
	 width="1000px" height="1000px" viewBox="0 0 1000 1000" enable-background="new 0 0 1000 1000" xml:space="preserve">
<g>
	<path fill="#FFFFFF" d="M952.786,789.61V600.307l-24.929-149.444H690.507l77.069,57.684v91.399l-49.735-36.85v18.185H703.03v208.33
		h-15.293V561.29h14.689v-27.457h-22.758L506.623,406.548L339.598,536.966h-20.23v27.456h16.617V789.61h-16.257V584.411h-16.618
		V572.85l-35.404,29.384v-93.206l70.929-58.043H93.214L68.287,600.307V789.61H56.124v71.649H980V789.61H952.786z M177.752,752.641
		H95.141v-45.188h82.611V752.641z M177.752,680.508H95.141v-45.159h82.611V680.508z M211.951,707.483h82.486v45.187h-82.486V707.483
		z M211.951,635.349h82.486v45.159h-82.486V635.349z M509.874,462.544c18.063,0,32.633,14.693,32.633,32.634
		c0,18.063-14.569,32.755-32.633,32.755s-32.755-14.691-32.755-32.755C477.119,477.237,491.811,462.544,509.874,462.544
		 M642.698,789.61h-18.183V583.448H390.055V789.61h-16.378V564.422h15.774v-10.597h243.012v7.465h10.235V789.61z M800.572,747.945
		h-82.489v-45.16h82.489V747.945z M800.572,675.81h-82.489v-45.157h82.489V675.81z M917.382,747.945h-82.521v-45.16h82.521V747.945z
		 M917.382,675.81h-82.521v-45.157h82.521V675.81z M507.344,329.238h-5.057V194.486h10.477v2.527
		c11.561,5.059,39.498,14.572,55.272-2.409c20.112-21.915,55.395,0,55.395,0v62.138c0,0-28.538-23.481-55.395,0
		c-20.47,17.822-44.676,8.552-55.272,3.012v69.483H507.344l244.817,183.162v52.022L504.575,381.259L283.963,564.422v-52.022
		L507.344,329.238z"/>
</g>
</svg>
