<?xml version="1.0" encoding="utf-8"?>
<!-- Generator: Adobe Illustrator 16.0.0, SVG Export Plug-In . SVG Version: 6.00 Build 0)  -->
<!DOCTYPE svg PUBLIC "-//W3C//DTD SVG 1.1//EN" "http://www.w3.org/Graphics/SVG/1.1/DTD/svg11.dtd">
<svg version="1.1" id="Layer_1" xmlns="http://www.w3.org/2000/svg" xmlns:xlink="http://www.w3.org/1999/xlink" x="0px" y="0px"
	 width="1000px" height="1000px" viewBox="0 0 1000 1000" enable-background="new 0 0 1000 1000" xml:space="preserve">
<g>
	<g>
		<defs>
			<rect id="SVGID_1_" x="15.049" y="131.151" width="969.901" height="727.734"/>
		</defs>
		<clipPath id="SVGID_2_">
			<use xlink:href="#SVGID_1_"  overflow="visible"/>
		</clipPath>
		<path clip-path="url(#SVGID_2_)" d="M141.623,855.652h709.62c69.897,0,126.67-56.393,126.67-125.623V358.018
			c0-69.147-56.678-125.444-126.385-125.551l1.047-0.095V212.9c0.666-10.758-6.276-19.413-17.023-19.413h-68.185
			c-10.747,0-19.495,8.654-19.495,19.508v19.376h-25.2c-10.367-58.867-62.194-103.836-124.578-103.836H394.88
			c-62.395,0-114.222,44.969-124.601,103.836H141.623c-69.801,0-126.574,56.404-126.574,125.646v372.011
			C15.049,799.26,71.822,855.652,141.623,855.652L141.623,855.652z M56.894,358.018c0-46.134,38.027-83.697,84.729-83.697h168.515
			l3.233-41.949c9.686-35.567,42.414-61.981,81.509-61.981h203.213c39.084,0,71.797,26.414,81.498,61.981l3.231,41.949h168.42
			c46.788,0,84.826,37.563,84.826,83.697v372.011c0,46.216-38.038,83.779-84.826,83.779h-709.62
			c-46.702,0-84.729-37.563-84.729-83.779V358.018z M370.239,264.895h249.536c8.749,0,15.788-7.132,15.788-15.87
			s-7.039-15.774-15.788-15.774H370.239c-8.761,0-15.797,7.037-15.797,15.774S361.478,264.895,370.239,264.895L370.239,264.895z
			 M496.516,777.577c130.296,0,236.236-105.938,236.236-236.222c0-130.296-105.94-236.318-236.236-236.318
			c-130.271,0-236.317,105.927-236.317,236.318C260.198,671.639,366.245,777.577,496.516,777.577L496.516,777.577z M496.516,344.599
			c108.425,0,196.675,88.25,196.675,196.757c0,108.411-88.25,196.756-196.675,196.756c-108.505,0-196.756-88.25-196.756-196.756
			C299.759,432.849,388.011,344.599,496.516,344.599L496.516,344.599z M371.949,554.479c0-78.36,63.705-142.075,142.076-142.075
			c7.324,0,13.219-5.896,13.219-13.123c0-7.323-5.895-13.22-13.219-13.22c-92.802,0-168.417,75.496-168.417,168.418
			c0,7.323,5.885,13.22,13.218,13.22C366.055,567.698,371.949,561.802,371.949,554.479L371.949,554.479z M371.949,554.479"/>
	</g>
</g>
</svg>
