<?xml version="1.0" encoding="UTF-8" standalone="no"?>
<svg
   xmlns:dc="http://purl.org/dc/elements/1.1/"
   xmlns:cc="http://creativecommons.org/ns#"
   xmlns:rdf="http://www.w3.org/1999/02/22-rdf-syntax-ns#"
   xmlns:svg="http://www.w3.org/2000/svg"
   xmlns="http://www.w3.org/2000/svg"
   xmlns:sodipodi="http://sodipodi.sourceforge.net/DTD/sodipodi-0.dtd"
   xmlns:inkscape="http://www.inkscape.org/namespaces/inkscape"
   height="24px"
   id="Layer_1"
   version="1.2"
   viewBox="0 0 24 24"
   width="24px"
   xml:space="preserve"
   inkscape:version="0.91 r13725"
   sodipodi:docname="pin.svg"><metadata
     id="metadata9"><rdf:RDF><cc:Work
         rdf:about=""><dc:format>image/svg+xml</dc:format><dc:type
           rdf:resource="http://purl.org/dc/dcmitype/StillImage" /></cc:Work></rdf:RDF></metadata><defs
     id="defs7" /><sodipodi:namedview
     pagecolor="#ffffff"
     bordercolor="#666666"
     borderopacity="1"
     objecttolerance="10"
     gridtolerance="10"
     guidetolerance="10"
     inkscape:pageopacity="0"
     inkscape:pageshadow="2"
     inkscape:window-width="640"
     inkscape:window-height="480"
     id="namedview5"
     showgrid="false"
     inkscape:zoom="9.8333333"
     inkscape:cx="12"
     inkscape:cy="12"
     inkscape:window-x="0"
     inkscape:window-y="0"
     inkscape:window-maximized="0"
     inkscape:current-layer="Layer_1" /><path
     d="M 15.953536,5.7171581 C 15.512681,5.2963798 14.796433,5.2942275 14.351045,5.7128534 14.233181,5.824774 14.151583,5.9571416 14.096052,6.09489 13.153143,7.9631025 12.115037,9.0166625 10.804937,9.6386826 9.3350427,10.327424 7.6475535,10.806315 4.9276245,10.806315 c -0.1473295,0 -0.294659,0.0269 -0.4329221,0.08179 -0.2776594,0.109769 -0.4975203,0.31962 -0.6131173,0.582203 -0.1144637,0.262583 -0.1144637,0.559603 0,0.822185 0.057799,0.132368 0.1405297,0.251822 0.2459269,0.350828 l 3.6753041,3.489985 -5.1417991,6.510764 6.8564876,-4.882535 3.6741704,3.488909 c 0.104264,0.101159 0.230061,0.178642 0.369457,0.233526 0.138263,0.05488 0.285593,0.08394 0.432922,0.08394 0.14733,0 0.294659,-0.02906 0.432922,-0.08394 0.27766,-0.109768 0.498654,-0.317467 0.613118,-0.582202 0.0578,-0.130215 0.08726,-0.271192 0.08726,-0.410017 0,-2.582782 0.503187,-4.185183 1.227368,-5.559439 0.653916,-1.24404 1.763421,-2.229802 3.731969,-3.125166 0.146196,-0.05273 0.284459,-0.130216 0.40119,-0.242136 0.440855,-0.422931 0.438588,-1.103064 -0.0045,-1.52169 L 15.953536,5.7171581 Z"
     id="path3"
     inkscape:connector-curvature="0" /></svg>