<?xml version="1.0" encoding="utf-8"?>
<!-- Generator: Adobe Illustrator 19.0.0, SVG Export Plug-In . SVG Version: 6.00 Build 0)  -->
<svg version="1.1" id="Layer_1" xmlns="http://www.w3.org/2000/svg" xmlns:xlink="http://www.w3.org/1999/xlink" x="0px" y="0px"
	 width="50px" height="50px" viewBox="0 0 50 50" style="enable-background:new 0 0 50 50;" xml:space="preserve">
<style type="text/css">
	.st0{fill:#00C698;}
	.st1{clip-path:url(#XMLID_34_);}
	.st2{fill:#FFFFFF;}
</style>
<g>
	<g id="XMLID_32_">
		<circle id="XMLID_52_" class="st0" cx="25" cy="25" r="25"/>
	</g>
	<g>
		<defs>
			<circle id="XMLID_14_" cx="25" cy="25" r="25"/>
		</defs>
		<clipPath id="XMLID_34_">
			<use xlink:href="#XMLID_14_"  style="overflow:visible;"/>
		</clipPath>
		<g class="st1">
			<path class="st2" d="M17.9,16.8c0-2.4-1.9-4.3-4.3-4.3c-2.4,0-4.3,1.9-4.3,4.3c0,2.4,1.9,4.3,4.3,4.3
				C15.9,21.1,17.9,19.2,17.9,16.8z M16,16.8c0,1.4-1.1,2.5-2.5,2.5c-1.4,0-2.5-1.1-2.5-2.5c0-1.4,1.1-2.5,2.5-2.5
				C14.9,14.3,16,15.4,16,16.8z"/>
			<path id="XMLID_29_" class="st2" d="M1,26.8l4.2-6.9c0.3-0.4,0.8-0.6,1.3-0.3c0.4,0.3,0.6,0.8,0.3,1.3l-4.2,6.9c0,0,0,0,0,0
				c0,0-1.2,1.7-0.5,3.7c0.6,1.8,2.4,3.3,5.5,4.5c9.6,3.6,6.2,13.3,6.1,13.4c-0.1,0.4-0.7,0.7-1.2,0.5c-0.5-0.2-0.7-0.7-0.5-1.2
				c0.1-0.3,2.9-8.1-5.1-11.1C3.2,36.3,1,34.4,0.3,32C-0.6,29.3,0.8,27.1,1,26.8z"/>
			<path id="XMLID_19_" class="st2" d="M18,32.8c0.1,0,2.9-0.9,6.2-2.9c-2.6-0.7-8.7-2.6-12.7-5.7l-4.2,6.6
				c-0.2,0.3-0.7,0.6-1.3,0.3c-0.4-0.3-0.6-0.8-0.3-1.3l4.7-7.5c0.1-0.2,0.4-0.4,0.6-0.4c0.3,0,0.5,0,0.7,0.2
				c4.5,4,14.2,6.4,14.3,6.4c2.8-2.1,5.5-4.9,6.7-8.7c0.1-0.4,0.5-0.7,0.9-0.6c0.4,0,0.8,0.3,0.8,0.7c0,0,0.5,2.6,2.5,4.4
				c2.8,2.4,7.3,5.6,7.3,5.7c0.8,0.6,2.2,2.3,1.2,4.7c-0.1,0.2-1.4,2.2-3.5,2.1c-0.8,0-1.7-0.2-2.7-0.5l-5.7-2
				c-0.5-0.2-0.7-0.7-0.6-1.2c0.2-0.5,0.7-0.7,1.2-0.6l5.7,2c3.1,1.1,3.8-0.5,3.8-0.5c0.6-1.6-0.4-2.4-0.6-2.5
				c-0.2-0.1-4.6-3.3-7.5-5.8c-1.1-1-1.8-2.1-2.3-3C29.5,31.1,19,34.4,18.5,34.6c-0.5,0.2-1-0.1-1.1-0.6C17.2,33.5,17.5,33,18,32.8z
				"/>
		</g>
	</g>
</g>
</svg>
