<?xml version="1.0" encoding="utf-8"?>
<!-- Generator: Adobe Illustrator 15.0.0, SVG Export Plug-In . SVG Version: 6.00 Build 0)  -->
<!DOCTYPE svg PUBLIC "-//W3C//DTD SVG 1.1//EN" "http://www.w3.org/Graphics/SVG/1.1/DTD/svg11.dtd">
<svg version="1.1" id="Слой_1" xmlns="http://www.w3.org/2000/svg" xmlns:xlink="http://www.w3.org/1999/xlink" x="0px" y="0px"
	 width="1000px" height="1000px" viewBox="0 0 1000 1000" enable-background="new 0 0 1000 1000" xml:space="preserve">
<g>
	<path fill="#007ABF" d="M978.748,74.294C834.173,232.502,698.443,398.166,552.544,555.152
		c-5.557,22.455-10.471,32.328-27.625,47.583c-12.486,43.447-11.791,67.85-58.052,97.635c-0.392,1.37-0.985,2.391-1.567,3.411
		c4.76,12.355-13.534,30.547-22.681,36.535C418.591,856.349,351.184,938.1,245.266,987.948c-6.627,1.36-16.825,5.852-23.684,3.881
		c0.281-8.233,15.979-15.299,18.503-24.075c-8.791,3.713-45.895,21.254-53.518,7.482c7.804-7.554,24.764-21.091,27.835-31.792
		c-18.211,11.697-28.598,15.833-48.663,7.097c3.707-12.888,18.937-22.463,24.991-35.275c-14.204,6.014-23.033,15.058-33.015,27.035
		c-18.366-9.438,13.18-49.96,17.739-57.556c-9.573,0.221-30.655,20.88-38.472,28.438c-1.096-0.314-2.19-0.626-3.489-1.302
		c2.716-30.097,17.885-56.023,32.626-81.485c-8.159,3.596-16.318,7.189-23.619,11.923c-1.29-0.667-2.858-1.419-4.342-2.439l0,0
		c3.499-9.087,3.499-9.087,8.021-17.59c56.506-83.565,117.366-172.576,215.182-212.518c14.117-7.817,25.965-13.905,41.532-17.455
		c21.204-20.04,49.17-35.757,77.796-42.371c16.383-1.23,16.383-1.23,21.205-2.519C668.941,410.968,796.772,198.882,944.956,39.94
		c9.533-5.276,23.608-5.684,34.028-2.69C990.504,48.869,985.896,61.802,978.748,74.294z"/>
</g>
<g>
	<g>
		<path fill="#007ABF" d="M665.292,776.612c41.38-26.675,63.793-65.474,131.034-54.562c32.759,4.85,65.518,23.036,96.552,31.524
			c32.759,9.699,60.346,13.337,93.104,13.337c-29.31,1.212-62.068,13.338-96.552,13.338c-27.586,0-55.172,2.424-81.034,7.273
			c-37.931,7.276-118.966,24.25-141.379-9.699"/>
	</g>
</g>
<path fill="#007ABF" d="M608.829,678.121c-44.71,0-81.092,36.373-81.092,81.09c0,44.716,36.38,81.081,81.092,81.081
	c44.714,0,81.094-36.365,81.094-81.081C689.923,714.494,653.543,678.121,608.829,678.121"/>
<g>
	<g>
		<path fill="#007ABF" d="M637.292,712.572c29.623-39.323,37.259-83.476,104.132-96.455c32.418-6.761,69.441-1.006,101.498-3.757
			c34.093-2.21,61.239-8.322,91.981-19.635c-27.088,11.259-53.644,33.951-86.006,45.859c-25.889,9.526-50.94,21.327-73.537,34.81
			c-33.085,19.927-103.273,63.84-136.031,39.719"/>
	</g>
</g>
</svg>
