<?xml version="1.0" encoding="utf-8"?>
<!-- Generator: Adobe Illustrator 19.0.0, SVG Export Plug-In . SVG Version: 6.00 Build 0)  -->
<svg version="1.1" id="Layer_1" xmlns="http://www.w3.org/2000/svg" xmlns:xlink="http://www.w3.org/1999/xlink" x="0px" y="0px"
	 width="50px" height="50px" viewBox="0 0 50 50" style="enable-background:new 0 0 50 50;" xml:space="preserve">
<style type="text/css">
	.st0{fill:#224799;}
	.st1{fill:#FFFFFF;}
</style>
<g>
	<g id="XMLID_8_">
		<circle id="XMLID_300_" class="st0" cx="25" cy="25" r="25"/>
	</g>
	<g>
		<path class="st1" d="M27.3,14.6c2,0,3.6-1.6,3.6-3.6c0-2-1.6-3.6-3.6-3.6c-2,0-3.6,1.6-3.6,3.6C23.7,13,25.3,14.6,27.3,14.6z
			 M27.3,13.1c-1.1,0-2-0.9-2-2s0.9-2,2-2c1.1,0,2,0.9,2,2S28.4,13.1,27.3,13.1z"/>
		<path id="XMLID_5_" class="st1" d="M11.2,22c-0.4-0.2-0.5-0.6-0.4-1c3.6-9.4,18.2-4.3,18.2-4.3c0.4,0.1,0.7,0.5,0.5,0.9l-3,11.5
			c-0.1,0.3-0.5,0.7-0.9,0.6c-0.4-0.1-0.7-0.5-0.6-0.9L27.9,18c0,0-12.2-4.2-15.6,3.7C12.1,22,11.6,22.2,11.2,22z"/>
		<path id="XMLID_4_" class="st1" d="M30.8,18.8c0.4,0,0.8,0.3,0.8,0.8c0,1.7,0,4.6,5.5,5.5l0.7-2.4c0.1-0.4,0.5-0.7,1-0.5
			c0.4,0.1,0.7,0.5,0.5,1l-1.8,6.4c-0.1,0.3-0.4,0.8-0.9,0.6c-0.6-0.1-0.7-0.6-0.6-1.1l0.7-2.5c-5.8-1.1-6.6-4.3-6.6-7
			C30,19.2,30.3,18.8,30.8,18.8z"/>
		<path id="XMLID_3_" class="st1" d="M24.7,32.5c-1.8-0.4-3-1.2-3.8-2.5c-1.3-2.3-0.5-5.1-0.4-5.4l1.6-5.9c0.1-0.4,0.5-0.7,1-0.5
			c0.4,0.1,0.7,0.5,0.5,1L22.1,25c0,0,0,0,0,0c0,0-0.8,2.4,0.2,4.2c0.5,0.9,1.4,1.5,2.7,1.8c1.7,0.4,2.9,1.3,3.6,2.6
			c1.7,3.2-0.4,8.1-0.5,8.3c-0.1,0.3-0.4,0.7-1,0.5c-0.6-0.1-0.5-0.8-0.4-1.2c0,0,1.9-4.4,0.5-6.9C26.8,33.3,26,32.7,24.7,32.5z"/>
		<path id="XMLID_2_" class="st1" d="M14.5,41c6.9-1.8,8.7-6.9,8.8-7.1c0.1-0.4,0.6-0.6,1-0.5c0.4,0.1,0.6,0.6,0.5,1
			c-0.1,0.2-2.1,6.1-9.8,8.1c-0.1,0-0.7,0.2-0.9-0.5C13.8,41.5,14.1,41.1,14.5,41z"/>
	</g>
</g>
</svg>
