<?xml version="1.0" encoding="utf-8"?>
<!-- Generator: Adobe Illustrator 19.0.0, SVG Export Plug-In . SVG Version: 6.00 Build 0)  -->
<svg version="1.1" id="Layer_1" xmlns="http://www.w3.org/2000/svg" xmlns:xlink="http://www.w3.org/1999/xlink" x="0px" y="0px"
	 width="50px" height="50px" viewBox="0 0 50 50" style="enable-background:new 0 0 50 50;" xml:space="preserve">
<style type="text/css">
	.st0{fill:#23BC95;}
	.st1{clip-path:url(#XMLID_35_);}
	.st2{fill:#FFFFFF;}
</style>
<g>
	<g id="XMLID_33_">
		<circle id="XMLID_53_" class="st0" cx="25" cy="25" r="25"/>
	</g>
	<g>
		<defs>
			<circle id="XMLID_14_" cx="25" cy="25" r="25"/>
		</defs>
		<clipPath id="XMLID_35_">
			<use xlink:href="#XMLID_14_"  style="overflow:visible;"/>
		</clipPath>
		<g class="st1">
			<path class="st2" d="M24.2,14.9c2.4,0.4,4.6-1.3,5-3.7c0.4-2.4-1.3-4.6-3.7-5c-2.4-0.4-4.6,1.3-5,3.7
				C20.2,12.3,21.9,14.6,24.2,14.9z M24.5,13.1c-1.3-0.2-2.3-1.5-2.1-2.8c0.2-1.3,1.5-2.3,2.8-2.1c1.3,0.2,2.3,1.5,2.1,2.8
				C27.1,12.3,25.9,13.3,24.5,13.1z"/>
			<path id="XMLID_30_" class="st2" d="M31.6,49.8C31.6,49.8,31.6,49.8,31.6,49.8c0.6,0,1-0.5,0.9-1c-0.7-9.9-8.3-17.7-9.9-19.2
				l-0.9-12.1c0-0.5-0.4-0.8-0.8-0.9c-0.5,0-0.9,0.2-1,0.7c-0.3,1.2-3.4,11.4-3.4,14.2c0,0.5,0.4,0.9,0.9,0.9s0.9-0.4,0.9-0.9
				c0-1.3,0.9-5.1,1.9-8.5l0.5,7.2c0,0.2,0.1,0.5,0.3,0.6c0.1,0.1,8.9,8.1,9.6,18.2C30.7,49.5,31.1,49.8,31.6,49.8z"/>
			<path id="XMLID_29_" class="st2" d="M31,32.4c0.1,0,0.2,0,0.3-0.1c0.5-0.2,0.7-0.7,0.6-1.2c-1.7-4.7-3-13.6-3-13.7
				c-0.1-0.5-0.5-0.8-1-0.8c-0.5,0-0.9,0.4-0.9,0.9c0,0.1-0.8,9.5-1.7,12.5c-0.2,0.5,0.1,1,0.6,1.2c0.5,0.1,1-0.1,1.2-0.6
				c0.4-1.3,0.8-3.7,1.1-6.1c0.5,2.5,1.2,5.3,1.9,7.4C30.3,32.1,30.7,32.4,31,32.4z"/>
			<path id="XMLID_19_" class="st2" d="M17.1,49.9c0.3,0,0.6-0.1,0.8-0.4c0.2-0.3,5.2-7.6,6.6-12.9c0.1-0.5-0.2-1-0.7-1.1
				c-0.5-0.1-1,0.2-1.1,0.7c-1.3,5-6.3,12.3-6.3,12.3c-0.3,0.4-0.2,1,0.2,1.3C16.7,49.8,16.9,49.9,17.1,49.9z"/>
		</g>
	</g>
</g>
</svg>
