<?xml version="1.0" encoding="UTF-8" standalone="no"?>
<!-- Generator: Adobe Illustrator 19.0.0, SVG Export Plug-In . SVG Version: 6.00 Build 0)  -->

<svg
   xmlns:dc="http://purl.org/dc/elements/1.1/"
   xmlns:cc="http://creativecommons.org/ns#"
   xmlns:rdf="http://www.w3.org/1999/02/22-rdf-syntax-ns#"
   xmlns:svg="http://www.w3.org/2000/svg"
   xmlns="http://www.w3.org/2000/svg"
   xmlns:xlink="http://www.w3.org/1999/xlink"
   xmlns:sodipodi="http://sodipodi.sourceforge.net/DTD/sodipodi-0.dtd"
   xmlns:inkscape="http://www.inkscape.org/namespaces/inkscape"
   version="1.1"
   id="Layer_1"
   x="0px"
   y="0px"
   width="50px"
   height="50px"
   viewBox="0 0 50 50"
   style="enable-background:new 0 0 50 50;"
   xml:space="preserve"
   sodipodi:docname="rounders_mini_tournament.svg"
   inkscape:version="0.92.1 r15371"><metadata
     id="metadata29"><rdf:RDF><cc:Work
         rdf:about=""><dc:format>image/svg+xml</dc:format><dc:type
           rdf:resource="http://purl.org/dc/dcmitype/StillImage" /><dc:title></dc:title></cc:Work></rdf:RDF></metadata><defs
     id="defs27" /><sodipodi:namedview
     pagecolor="#ffffff"
     bordercolor="#666666"
     borderopacity="1"
     objecttolerance="10"
     gridtolerance="10"
     guidetolerance="10"
     inkscape:pageopacity="0"
     inkscape:pageshadow="2"
     inkscape:window-width="1920"
     inkscape:window-height="1018"
     id="namedview25"
     showgrid="false"
     inkscape:zoom="4.72"
     inkscape:cx="25"
     inkscape:cy="25"
     inkscape:window-x="-8"
     inkscape:window-y="-8"
     inkscape:window-maximized="1"
     inkscape:current-layer="g22" /><style
     type="text/css"
     id="style2">
	.st0{fill:#A2BBDC;}
	.st1{clip-path:url(#XMLID_36_);}
	.st2{fill:#FFFFFF;}
</style><g
     id="g22"><g
       id="XMLID_34_"
       style="fill:#71829a;fill-opacity:1"><circle
         id="XMLID_54_"
         class="st0"
         cx="25"
         cy="25"
         r="25"
         style="fill:#71829a;fill-opacity:1" /></g><g
       id="g20"><defs
         id="defs7"><circle
           id="XMLID_14_"
           cx="25"
           cy="25"
           r="25" /></defs><clipPath
         id="XMLID_36_"><use
           xlink:href="#XMLID_14_"
           style="overflow:visible;"
           id="use9" /></clipPath><g
         class="st1"
         clip-path="url(#XMLID_36_)"
         id="g18"><path
           class="st2"
           d="M25.9,16.9c2.3,0,4.2-1.9,4.2-4.2c0-2.3-1.9-4.2-4.2-4.2c-2.3,0-4.2,1.9-4.2,4.2     C21.6,15,23.5,16.9,25.9,16.9z M25.9,15c-1.3,0-2.4-1.1-2.4-2.4s1.1-2.4,2.4-2.4c1.3,0,2.4,1.1,2.4,2.4S27.2,15,25.9,15z"
           id="path12" /><path
           id="XMLID_31_"
           class="st2"
           d="M6.8,25.6c-0.5-0.2-0.6-0.7-0.4-1.2C10.6,13.2,28,19.3,28,19.3c0.5,0.1,0.8,0.6,0.7,1.1     L25,34.1c-0.1,0.4-0.6,0.8-1.1,0.7c-0.5-0.1-0.8-0.6-0.7-1.1l3.4-12.8c0,0-14.5-4.9-18.6,4.4C7.8,25.6,7.2,25.8,6.8,25.6z" /><path
           id="XMLID_30_"
           class="st2"
           d="M30,21.9c0.5,0,0.9,0.4,0.9,0.9c0,2,0,5.4,6.5,6.6l2.6-8.2c0.1-0.5,0.6-0.8,1.1-0.6     c0.5,0.1,0.8,0.6,0.6,1.1l-3.3,10.9c-0.1,0.4-0.4,0.9-1.1,0.8c-0.7-0.1-0.8-0.8-0.7-1.3l0.2-0.9c-7-1.3-7.9-5.1-7.9-8.3     C29.1,22.3,29.5,21.9,30,21.9z" /><path
           id="XMLID_29_"
           class="st2"
           d="M22.8,38.1c-2.1-0.5-3.6-1.5-4.5-3c-1.5-2.7-0.5-6-0.4-6.4l1.9-7c0.1-0.5,0.6-0.8,1.1-0.6     c0.5,0.1,0.8,0.6,0.6,1.1l-1.9,7c0,0,0,0,0,0c0,0-0.9,2.9,0.3,4.9c0.6,1.1,1.7,1.8,3.3,2.1c2,0.4,3.5,1.5,4.3,3.1     c2,3.9-0.5,9.6-0.6,9.8c-0.2,0.3-0.5,0.8-1.2,0.6c-0.7-0.2-0.7-0.9-0.4-1.4c0-0.1,2.2-5.2,0.6-8.3C25.3,39.1,24.3,38.4,22.8,38.1     z" /><path
           id="XMLID_19_"
           class="st2"
           d="M10.6,48.2C18.8,46,20.9,40,21,39.7c0.2-0.5,0.7-0.7,1.2-0.6c0.5,0.2,0.7,0.7,0.6,1.2     c-0.1,0.3-2.5,7.2-11.7,9.7c-0.1,0-0.8,0.2-1.1-0.6C9.8,48.8,10.1,48.3,10.6,48.2z" /></g></g></g></svg>