<?xml version="1.0" encoding="utf-8"?>
<!-- Generator: Adobe Illustrator 15.0.0, SVG Export Plug-In . SVG Version: 6.00 Build 0)  -->
<!DOCTYPE svg PUBLIC "-//W3C//DTD SVG 1.1//EN" "http://www.w3.org/Graphics/SVG/1.1/DTD/svg11.dtd">
<svg version="1.1" id="Слой_1" xmlns="http://www.w3.org/2000/svg" xmlns:xlink="http://www.w3.org/1999/xlink" x="0px" y="0px"
	 width="1000px" height="1000px" viewBox="0 0 1000 1000" enable-background="new 0 0 1000 1000" xml:space="preserve">
<g>
	<path fill="#007ABF" d="M786.541,957.863v17.987c75.824-7.231,133.666-68.599,140.892-140.9h-18.159
		C844.38,831.424,786.541,889.264,786.541,957.863"/>
	<polygon fill="#007ABF" points="132.842,798.98 215.894,878.333 519.404,614.702 400.175,495.492 	"/>
	<path fill="#007ABF" d="M107.64,820.669c-18.2-7.23-39.671-3.706-57.879,14.281c-21.669,21.689-21.669,54.313,0,76.003
		l50.605,50.435c21.718,21.693,54.185,21.693,75.853,0c14.438-14.46,18.008-36.145,14.438-57.66L107.64,820.669z"/>
	<path fill="#007ABF" d="M786.541,654.378v18.162c0,90.287-72.303,162.41-162.591,162.41h-17.984
		c7.225,76.003,68.595,137.372,144.424,144.603v-18.165c0-90.284,72.297-162.407,162.586-162.407h17.989
		C923.733,723.15,862.365,661.608,786.541,654.378"/>
	<path fill="#007ABF" d="M747.63,674.62v-18.147c-76.727,7.294-135.068,69.216-142.383,142.168h18.197
		C689.284,802.197,747.63,747.577,747.63,674.62"/>
	<path fill="#007ABF" d="M943.703,77.493l-11.065-10.829c-47.451-47.51-120.612-43.772-164.321,3.534L387.111,510.323
		L507.26,625.254l432.702-383.678C991.17,197.801,991.17,124.826,943.703,77.493"/>
</g>
</svg>
