<?xml version="1.0" encoding="UTF-8" standalone="no"?>
<!-- Generator: Adobe Illustrator 19.0.0, SVG Export Plug-In . SVG Version: 6.00 Build 0)  -->

<svg
   xmlns:dc="http://purl.org/dc/elements/1.1/"
   xmlns:cc="http://creativecommons.org/ns#"
   xmlns:rdf="http://www.w3.org/1999/02/22-rdf-syntax-ns#"
   xmlns:svg="http://www.w3.org/2000/svg"
   xmlns="http://www.w3.org/2000/svg"
   xmlns:xlink="http://www.w3.org/1999/xlink"
   xmlns:sodipodi="http://sodipodi.sourceforge.net/DTD/sodipodi-0.dtd"
   xmlns:inkscape="http://www.inkscape.org/namespaces/inkscape"
   version="1.1"
   id="Layer_1"
   x="0px"
   y="0px"
   width="50px"
   height="50px"
   viewBox="-614 376 50 50"
   style="enable-background:new -614 376 50 50;"
   xml:space="preserve"
   sodipodi:docname="rounders_ball_throw.svg"
   inkscape:version="0.92.1 r15371"><metadata
     id="metadata4518"><rdf:RDF><cc:Work
         rdf:about=""><dc:format>image/svg+xml</dc:format><dc:type
           rdf:resource="http://purl.org/dc/dcmitype/StillImage" /><dc:title></dc:title></cc:Work></rdf:RDF></metadata><defs
     id="defs4516" /><sodipodi:namedview
     pagecolor="#ffffff"
     bordercolor="#666666"
     borderopacity="1"
     objecttolerance="10"
     gridtolerance="10"
     guidetolerance="10"
     inkscape:pageopacity="0"
     inkscape:pageshadow="2"
     inkscape:window-width="1920"
     inkscape:window-height="1018"
     id="namedview4514"
     showgrid="false"
     inkscape:zoom="16.98"
     inkscape:cx="25"
     inkscape:cy="25"
     inkscape:window-x="-8"
     inkscape:window-y="-8"
     inkscape:window-maximized="1"
     inkscape:current-layer="g4489" /><style
     type="text/css"
     id="style4485">
	.st0{fill:#EF3A4F;}
	.st1{clip-path:url(#SVGID_2_);}
	.st2{fill:#FFFFFF;}
</style><g
     id="g4489"><circle
       class="st0"
       cx="-589"
       cy="401"
       r="25"
       id="circle4487"
       style="fill:#3aefda;fill-opacity:1" /></g><g
     id="g4511"><defs
       id="defs4492"><circle
         id="SVGID_1_"
         cx="-589"
         cy="401"
         r="25" /></defs><clipPath
       id="SVGID_2_"><use
         xlink:href="#SVGID_1_"
         style="overflow:visible;"
         id="use4494" /></clipPath><g
       class="st1"
       clip-path="url(#SVGID_2_)"
       id="g4509"><g
         id="g4505"><path
           class="st2"
           d="M-601.6,391.4c0.2,1.1,2.7,7.8,14.2,9.7l-3.8,12.4c-0.2,0.5,0.1,1,0.6,1.2c0.6,0.2,1-0.2,1.2-0.6l4.1-13.4     c0.1-0.3,0-0.6-0.1-0.8c-0.2-0.2-0.4-0.4-0.7-0.4c-0.1,0-9.3-1.3-13.3-8.1C-600.4,389.5-601.7,390.4-601.6,391.4z M-596.2,387.7     c-0.4,2.1-2.6,1.8-2.8,1.8c-1.9-0.4-1.9-2.2-1.8-2.8c0.3-1.1,1.3-2.1,2.8-1.8C-596.8,385.2-596,386.4-596.2,387.7z"
           id="path4497" /><path
           class="st2"
           d="M-584.9,403.2c-0.3-0.4-0.3-1,0.2-1.3c0.4-0.3,1-0.3,1.3,0.2c0,0,3.5,4.3,9.5,4.3c0.5,0,0.9,0.4,0.9,0.9     c0,0.5-0.4,0.9-0.9,0.9C-580.8,408.3-584.7,403.4-584.9,403.2z"
           id="path4499" /><path
           class="st2"
           d="M-596.2,407.3l1.3-4.8c0.1-0.5,0.7-0.8,1.2-0.7c0.5,0.1,0.8,0.7,0.7,1.2l-1.3,4.8c-0.1,0.2-1.5,6,4.5,8     c3.4,1.1,5.8,3.1,7.2,5.8c2.3,4.6,0.5,9.7,0.4,9.9c-0.1,0.4-0.6,0.8-1.2,0.6c-0.5-0.2-0.7-0.7-0.6-1.2c0,0,1.6-4.6-0.3-8.5     c-1.1-2.2-3.1-3.8-6.1-4.8C-596.7,415.6-596.9,410-596.2,407.3z"
           id="path4501" /><path
           class="st2"
           d="M-604.5,431.1c8.8-4.8,11.5-12.1,11.5-12.2c0.2-0.5,0.7-0.7,1.2-0.6c0.5,0.2,0.7,0.7,0.6,1.2     c-0.1,0.3-2.9,8.1-12.4,13.2c-0.1,0.1-0.9,0.3-1.3-0.4C-605.1,431.9-605,431.3-604.5,431.1z"
           id="path4503" /></g><path
         class="st2"
         d="M-588,397.2c2.5,0,4.5-2,4.5-4.5c0-2.5-2-4.5-4.5-4.5c-2.5,0-4.5,2-4.5,4.5    C-592.5,395.2-590.5,397.2-588,397.2z M-588,395.3c-1.4,0-2.5-1.1-2.5-2.5c0-1.4,1.1-2.5,2.5-2.5c1.4,0,2.5,1.1,2.5,2.5    C-585.5,394.2-586.6,395.3-588,395.3z"
         id="path4507" /></g></g></svg>