<?xml version="1.0" encoding="utf-8"?>
<!-- Generator: Adobe Illustrator 19.0.0, SVG Export Plug-In . SVG Version: 6.00 Build 0)  -->
<svg version="1.1" id="Layer_1" xmlns="http://www.w3.org/2000/svg" xmlns:xlink="http://www.w3.org/1999/xlink" x="0px" y="0px"
	 width="50px" height="50px" viewBox="0 0 50 50" style="enable-background:new 0 0 50 50;" xml:space="preserve">
<style type="text/css">
	.st0{fill:#28B2A1;}
	.st1{clip-path:url(#XMLID_10_);}
	.st2{fill:#FFFFFF;}
</style>
<g>
	<g id="XMLID_8_">
		<circle id="XMLID_300_" class="st0" cx="25" cy="25" r="25"/>
	</g>
	<g>
		<defs>
			<circle id="XMLID_2_" cx="25" cy="25" r="25"/>
		</defs>
		<clipPath id="XMLID_10_">
			<use xlink:href="#XMLID_2_"  style="overflow:visible;"/>
		</clipPath>
		<g class="st1">
			<path id="XMLID_7_" class="st2" d="M24.2,33.1c1.9,0.6,4.7-0.6,7.3-3c0.4-0.3,0.9-0.3,1.3,0s0.3,0.9,0,1.3
				c-2.5,2.4-5.1,3.7-7.5,3.7c-0.6,0-1.1-0.1-1.6-0.2c-0.5-0.1-0.7-0.7-0.6-1.1C23.2,33.2,23.7,32.9,24.2,33.1z"/>
			<path class="st2" d="M23.6,25.6c0-2.3-1.9-4.2-4.2-4.2s-4.2,1.9-4.2,4.2c0,2.3,1.9,4.2,4.2,4.2S23.6,27.9,23.6,25.6z M21.8,25.6
				c0,1.3-1.1,2.4-2.4,2.4c-1.3,0-2.4-1.1-2.4-2.4c0-1.3,1.1-2.4,2.4-2.4C20.8,23.3,21.8,24.3,21.8,25.6z"/>
			<path id="XMLID_4_" class="st2" d="M-0.1,6.2c0.6-0.7,2.4-2.1,4.9-0.4C5,6,6.8,7.4,7.8,10.6c0,0,21.7,13.6,28.8,18.3
				c0.5,0.3,0.7,0.4,0.8,0.6c1.5,2.7,3.4,3.5,3.4,3.5c0,0,1.6,0.6,2.3-0.7c0.8-1.4-0.8-2.3-0.8-2.3c0,0-1.3-0.8-3.9-0.8
				c-0.5,0-0.9-0.4-0.9-0.9c0-0.5,0.4-0.9,0.9-0.9c2.9-0.1,5.9,0.8,6.6,3c0.3,0.9,0.3,1.9-0.2,2.7c-1.5,2.6-4.2,1.8-4.6,1.6
				c-0.3-0.1-2.4-1.1-4.2-4L14.6,17c-0.1,0.2-3.7,3.3-3.3,7.3c0.7,6.7,10,7.8,10.1,7.8c0.3,0,0.5,0.2,0.6,0.4
				c0.1,0.2,0.2,0.5,0.1,0.7l-2,7.7c-0.1,0.4-0.5,0.7-1.1,0.7c-0.5-0.1-0.8-0.6-0.7-1.1l1.7-6.7c-2.7-0.5-10-2.5-10.7-9.3
				c-0.5-4.8,3.5-8.3,3.5-8.4l-6.5-4.2c-0.2-0.1-0.3-0.3-0.4-0.5c-0.9-3-2.5-4.2-2.5-4.2c0,0-1.5-1.1-2.4,0.2C1,7.7,0.6,8.8,1.5,9.7
				c0,0,1.2,1.2,3.7,1.8c0.5,0.1,0.8,0.6,0.7,1.1c-0.1,0.5-0.6,0.8-1.1,0.7c-2.8-0.6-4.2-1.9-4.5-2.2C-1.6,9-0.7,6.9-0.1,6.2z"/>
			<path id="XMLID_3_" class="st2" d="M14.7,32.8c0.5,0.2,0.6,0.7,0.4,1.2c0,0-1.5,3.4-0.5,6c0.4,1.1,1.3,1.9,2.6,2.4
				c0.9,0.4,1.9,0.4,7.4-0.7c6.8-1.4,13.2,1.6,15.4,4.1c0.3,0.4,0.3,0.9-0.1,1.3c-0.2,0.2-0.8,0.4-1.3-0.1
				c-1.9-2.1-7.6-4.8-13.7-3.5c-5.8,1.2-7.1,1.2-8.5,0.6c-1.8-0.7-3-1.8-3.6-3.4c-1.3-3.3,0.5-7.2,0.6-7.4
				C13.7,32.8,14.2,32.6,14.7,32.8z"/>
		</g>
	</g>
</g>
</svg>
