<?xml version="1.0" encoding="UTF-8" standalone="no"?>
<!-- Generator: Adobe Illustrator 19.0.0, SVG Export Plug-In . SVG Version: 6.00 Build 0)  -->

<svg
   xmlns:dc="http://purl.org/dc/elements/1.1/"
   xmlns:cc="http://creativecommons.org/ns#"
   xmlns:rdf="http://www.w3.org/1999/02/22-rdf-syntax-ns#"
   xmlns:svg="http://www.w3.org/2000/svg"
   xmlns="http://www.w3.org/2000/svg"
   xmlns:xlink="http://www.w3.org/1999/xlink"
   xmlns:sodipodi="http://sodipodi.sourceforge.net/DTD/sodipodi-0.dtd"
   xmlns:inkscape="http://www.inkscape.org/namespaces/inkscape"
   version="1.1"
   id="Layer_1"
   x="0px"
   y="0px"
   width="50px"
   height="50px"
   viewBox="0 0 50 50"
   style="enable-background:new 0 0 50 50;"
   xml:space="preserve"
   sodipodi:docname="rugby_mini_tournament.svg"
   inkscape:version="0.92.1 r15371"><metadata
     id="metadata31"><rdf:RDF><cc:Work
         rdf:about=""><dc:format>image/svg+xml</dc:format><dc:type
           rdf:resource="http://purl.org/dc/dcmitype/StillImage" /><dc:title></dc:title></cc:Work></rdf:RDF></metadata><defs
     id="defs29" /><sodipodi:namedview
     pagecolor="#ffffff"
     bordercolor="#666666"
     borderopacity="1"
     objecttolerance="10"
     gridtolerance="10"
     guidetolerance="10"
     inkscape:pageopacity="0"
     inkscape:pageshadow="2"
     inkscape:window-width="1920"
     inkscape:window-height="1018"
     id="namedview27"
     showgrid="false"
     inkscape:zoom="4.72"
     inkscape:cx="25"
     inkscape:cy="25"
     inkscape:window-x="-8"
     inkscape:window-y="-8"
     inkscape:window-maximized="1"
     inkscape:current-layer="g24" /><style
     type="text/css"
     id="style2">
	.st0{fill:#6E3D99;}
	.st1{clip-path:url(#XMLID_11_);}
	.st2{fill:#FFFFFF;}
</style><g
     id="g24"><g
       id="XMLID_9_"
       style="fill:#9977b7;fill-opacity:1"><circle
         id="XMLID_301_"
         class="st0"
         cx="25"
         cy="25"
         r="25"
         style="fill:#9977b7;fill-opacity:1" /></g><g
       id="g22"><defs
         id="defs7"><circle
           id="XMLID_2_"
           cx="25"
           cy="25"
           r="25" /></defs><clipPath
         id="XMLID_11_"><use
           xlink:href="#XMLID_2_"
           style="overflow:visible;"
           id="use9" /></clipPath><g
         class="st1"
         clip-path="url(#XMLID_11_)"
         id="g20"><g
           id="g16"><path
             class="st2"
             d="M15.8,33.6c0.2,0.1,5.6,4,3,11.8c-0.2,0.5,0.1,1,0.6,1.1c0.6,0.2,1-0.2,1.1-0.6c3-9-3.6-13.8-3.7-13.8      c-1.7-1.1-2.7-2.4-2.9-3.8c-0.3-1.9,0.8-3.4,0.8-3.4c0,0,0.1-0.1,0.1-0.1l4-7.2c2.8,1.7,11.5,6.9,18.6,7.1l0,0      c1.8,0,3.5-1.3,3.8-3.1c0.5-2.1-0.9-4.2-3-4.7c-2.4-0.6-4.3,1.2-4.7,3c-0.2,0.9,0,1.9,0.4,2.7c-6.6-1.4-14.8-6.9-14.9-6.9      c-0.2-0.1-0.5-0.2-0.7-0.1c-0.2,0.1-0.4,0.2-0.6,0.4l-4.4,8c-0.3,0.4-1.5,2.3-1.1,4.7C12.5,30.5,13.7,32.1,15.8,33.6z       M36.9,22.8c-1.2-0.3-1.9-1.4-1.7-2.6c0.2-1,1.3-1.9,2.6-1.7c1.2,0.2,1.9,1.4,1.7,2.6C39.3,22.1,38.3,23.2,36.9,22.8z"
             id="path12" /><path
             id="XMLID_6_"
             class="st2"
             d="M3.7,44.8c0.1-0.1,7.1-5.7,10.4-10c0.3-0.4,0.8-0.5,1.2-0.2c0.4,0.3,0.5,0.8,0.2,1.2      C12.1,40.3,5.1,45.9,4.8,46.1c-0.4,0.3-1,0.4-1.3-0.1C3.2,45.6,3.3,45.1,3.7,44.8z" /><path
             id="XMLID_5_"
             class="st2"
             d="M18.1,31.4c-0.4-0.2-0.6-0.7-0.4-1.2l3.8-7.9c0.1-0.2,0.3-0.4,0.6-0.5c0.2-0.1,0.5,0,0.7,0.1      c6.5,4.3,14.5,4.4,14.6,4.4c0.5,0,0.9,0.4,0.9,0.9c0,0.5-0.4,0.9-0.9,0.9c-0.3,0-7.9,0-14.7-4.1l-3.4,7      C19.1,31.3,18.7,31.6,18.1,31.4z" /></g><path
           class="st2"
           d="M23.5,16c2.3,0,4.2-1.9,4.2-4.2s-1.9-4.2-4.2-4.2c-2.3,0-4.2,1.9-4.2,4.2S21.2,16,23.5,16z M23.5,14.2     c-1.3,0-2.4-1.1-2.4-2.4s1.1-2.4,2.4-2.4c1.3,0,2.4,1.1,2.4,2.4S24.8,14.2,23.5,14.2z"
           id="path18" /></g></g></g></svg>