<?xml version="1.0" encoding="utf-8"?>
<!-- Generator: Adobe Illustrator 15.0.0, SVG Export Plug-In . SVG Version: 6.00 Build 0)  -->
<!DOCTYPE svg PUBLIC "-//W3C//DTD SVG 1.1//EN" "http://www.w3.org/Graphics/SVG/1.1/DTD/svg11.dtd">
<svg version="1.1" id="Слой_1" xmlns="http://www.w3.org/2000/svg" xmlns:xlink="http://www.w3.org/1999/xlink" x="0px" y="0px"
	 width="1000px" height="1000px" viewBox="0 0 1000 1000" enable-background="new 0 0 1000 1000" xml:space="preserve">
<g>
	<g>
		<path fill="#007ABF" d="M637.638,65.214c50.371-7.548,98.033-10.283,140.472-10.283c22.489,0,44.978,0.798,66.838,2.346
			c50.54,3.627,91.383,44.449,94.985,95.013c3.846,53.876,4.353,126.74-7.738,207.459L637.638,65.214z M65.115,637.396
			c-12.097,80.72-11.607,153.608-7.763,207.485c3.627,50.54,44.467,91.384,95.003,94.986c21.843,1.571,44.326,2.346,66.841,2.346
			c42.442,0,90.102-2.715,140.452-10.259L65.115,637.396z M921.215,418.824C896.816,528.392,847.074,646.9,750.951,749.702
			c-0.386,0.406-0.773,0.8-1.184,1.181c-102.336,95.687-220.635,145.579-331.043,170.099L76.09,578.345
			c24.396-109.588,74.144-228.082,170.263-330.9c0.384-0.383,0.774-0.797,1.181-1.157
			c102.343-95.687,220.613-145.602,331.05-170.122L921.215,418.824z M682.324,420.756l-35.4-35.429l27.541-27.544
			c9.674-9.67,9.674-25.334,0-35.011c-9.67-9.67-25.341-9.67-35.015,0l-27.542,27.541l-35.426-35.403
			c-9.674-9.67-25.344-9.67-35.016,0c-9.673,9.676-9.673,25.343,0,35.022l35.401,35.396l-40.455,40.486l-35.427-35.405
			c-9.673-9.677-25.341-9.677-35.019,0c-9.669,9.669-9.669,25.345,0,35.015l35.406,35.401l-40.455,40.483l-35.429-35.406
			c-9.67-9.669-25.336-9.669-35.013,0c-9.67,9.677-9.67,25.344,0,35.014l35.403,35.401l-40.457,40.481l-35.426-35.402
			c-9.669-9.667-25.346-9.667-35.015,0c-9.677,9.678-9.677,25.343,0,35.021l35.404,35.396l-27.549,27.548
			c-9.67,9.668-9.67,25.36,0,35.015c4.844,4.831,11.174,7.257,17.532,7.257c6.338,0,12.674-2.426,17.515-7.257l27.539-27.543
			l35.399,35.421c4.842,4.817,11.175,7.23,17.513,7.23c6.333,0,12.665-2.413,17.507-7.23c9.67-9.666,9.67-25.36,0-35.04
			l-35.405-35.4l40.481-40.481l35.402,35.427c4.836,4.836,11.172,7.229,17.506,7.229c6.362,0,12.696-2.394,17.532-7.229
			c9.674-9.667,9.674-25.367,0-35.033l-35.429-35.409l40.483-40.481l35.402,35.434c4.858,4.828,11.196,7.23,17.531,7.23
			s12.672-2.402,17.508-7.23c9.671-9.68,9.671-25.372,0-35.021l-35.402-35.424l40.456-40.478l35.425,35.421
			c4.838,4.842,11.174,7.254,17.508,7.254c6.336,0,12.672-2.412,17.508-7.254C691.997,446.098,691.997,430.431,682.324,420.756
			L682.324,420.756z M682.324,420.756"/>
	</g>
</g>
</svg>
