<?xml version="1.0" encoding="utf-8"?>
<!-- Generator: Adobe Illustrator 19.0.0, SVG Export Plug-In . SVG Version: 6.00 Build 0)  -->
<svg version="1.1" id="Layer_1" xmlns="http://www.w3.org/2000/svg" xmlns:xlink="http://www.w3.org/1999/xlink" x="0px" y="0px"
	 width="50px" height="50px" viewBox="0 0 50 50" style="enable-background:new 0 0 50 50;" xml:space="preserve">
<style type="text/css">
	.st0{fill:#00BBD1;}
	.st1{clip-path:url(#XMLID_34_);}
	.st2{fill:#FFFFFF;}
</style>
<g>
	<g id="XMLID_32_">
		<circle id="XMLID_52_" class="st0" cx="25" cy="25" r="25"/>
	</g>
	<g>
		<defs>
			<circle id="XMLID_14_" cx="25" cy="25" r="25"/>
		</defs>
		<clipPath id="XMLID_34_">
			<use xlink:href="#XMLID_14_"  style="overflow:visible;"/>
		</clipPath>
		<g class="st1">
			<path class="st2" d="M16.8,20.4c2.4,0,4.3-1.9,4.3-4.3c0-2.4-1.9-4.3-4.3-4.3c-2.4,0-4.3,1.9-4.3,4.3
				C12.5,18.4,14.4,20.4,16.8,20.4z M16.8,13.5c1.4,0,2.5,1.1,2.5,2.5c0,1.4-1.1,2.5-2.5,2.5c-1.4,0-2.5-1.1-2.5-2.5
				C14.3,14.7,15.5,13.5,16.8,13.5z"/>
			<path id="XMLID_29_" class="st2" d="M53.9,36c-0.1-0.1-9.1-9.8-19.5-2.5c-4.5,3.2-8.1,4.4-10.6,3.7c-2.4-0.7-3.5-3.2-4.2-4.9
				c-0.1-0.2-0.1-0.3-0.2-0.4c-0.8-1.8-2.5-6.1-3.5-8.6c6.2,1.9,13.2-0.1,18.1-4.4c2,1.6,8.5,6.1,18.8,8.8c0.7,0.2,1-0.3,1.1-0.7
				c0.1-0.5-0.2-1-0.7-1.1c-9.6-2.3-15.9-6.7-17.9-8.3c4-4.4,15-19.1,15.5-19.8l0,0c0.4-0.6,0.1-1.3-0.4-1.4c-0.4-0.1-0.8,0-1,0.3
				c-0.5,0.7-12.3,16.9-16.2,20.5c-8.7,8.1-18.1,4-18.4,3.8c-0.3-0.2-0.7-0.1-1,0.2c-0.3,0.3-0.4,0.7-0.2,1c0,0.1,3.2,7.9,4.3,10.5
				c0.1,0.1,0.1,0.3,0.2,0.4c0.8,1.9,2.1,4.9,5.4,5.9c3.8,1.2,8.1-1.1,12.1-4c8.9-6.2,16.8,1.9,17.1,2.2c0.3,0.4,0.9,0.4,1.3,0
				C54.2,37,54.2,36.4,53.9,36z"/>
			<path id="XMLID_19_" class="st2" d="M35.4,38c-4.3,3.2-8.2,4.4-11.8,3.7c-4.4-0.9-6.7-4.6-6.8-4.6c-0.3-0.4-0.8-0.6-1.3-0.3
				c-0.4,0.3-0.6,0.8-0.3,1.3c0.1,0.2,2.7,4.4,8,5.5c4.5,0.9,9.4-1.2,13.3-4.1c7.3-5.4,12.2,0.5,12.4,0.7c0.3,0.4,0.9,0.5,1.3,0.1
				c0.4-0.3,0.5-0.9,0.1-1.3C50.3,39,44.2,31.5,35.4,38z"/>
		</g>
	</g>
</g>
</svg>
