<?xml version="1.0" encoding="utf-8"?>
<!-- Generator: Adobe Illustrator 16.0.0, SVG Export Plug-In . SVG Version: 6.00 Build 0)  -->
<!DOCTYPE svg PUBLIC "-//W3C//DTD SVG 1.1//EN" "http://www.w3.org/Graphics/SVG/1.1/DTD/svg11.dtd">
<svg version="1.1" id="Layer_1" xmlns="http://www.w3.org/2000/svg" xmlns:xlink="http://www.w3.org/1999/xlink" x="0px" y="0px"
	 width="1000px" height="1000px" viewBox="0 0 1000 1000" enable-background="new 0 0 1000 1000" xml:space="preserve">
<path d="M787.884,502.009c-21.479,0-38.787,17.451-38.787,38.774v323.479H127.958V243.248h323.449
	c21.481,0,38.949-17.438,38.949-38.79c0-21.476-17.467-38.77-38.949-38.77H102.213c-28.555,0-51.819,23.089-51.819,51.646v672.829
	c0,28.558,23.264,51.805,51.819,51.805h672.656c28.558,0,51.805-23.247,51.805-51.805V540.783
	C826.674,519.46,809.367,502.009,787.884,502.009L787.884,502.009z"/>
<g>
	<path d="M853.81,45.897H566.363c-52.844,0.056-49.174,14.013-21.294,41.324l90.221,88.472L480.285,327.331
		c-32.082,31.434-32.054,82.373,0,113.778l67.525,66.245c32.053,31.35,83.945,31.377,115.999-0.027l155.005-151.667l88.539,86.824
		c30.848,30.223,42.225,31.02,42.225-20.801l0.027-281.845C949.578,45.403,950.278,45.87,853.81,45.897z"/>
</g>
</svg>
