<?xml version="1.0" encoding="utf-8"?>
<!-- Generator: Adobe Illustrator 15.0.0, SVG Export Plug-In . SVG Version: 6.00 Build 0)  -->
<!DOCTYPE svg PUBLIC "-//W3C//DTD SVG 1.1//EN" "http://www.w3.org/Graphics/SVG/1.1/DTD/svg11.dtd">
<svg version="1.1" id="Слой_1" xmlns="http://www.w3.org/2000/svg" xmlns:xlink="http://www.w3.org/1999/xlink" x="0px" y="0px"
	 width="1000px" height="1000px" viewBox="0 0 1000 1000" enable-background="new 0 0 1000 1000" xml:space="preserve">
<path fill="#FFFFFF" d="M203.004,101.833h626.01v442.638h-626.01V101.833z M151.553,50.382v545.535h62.444v338.559h87.411V595.917
	h423.397v353.701h87.287V595.917h68.355V50.382H151.553z"/>
<g>
	<path fill="#FFFFFF" d="M790.38,135.113H516.051v373.072H790.38V135.113z M721.799,311.236c0,7.121-2.447,13.133-7.565,18.143
		c-5.015,4.914-11.027,7.475-18.042,7.475h-76.928v62.097h89.842c3.456,0,6.462,1.243,8.911,3.687
		c2.561,2.455,3.782,5.471,3.782,8.917c0,3.568-1.222,6.563-3.782,9.012c-2.449,2.449-5.455,3.676-8.911,3.676H593.987v-87.389
		c0-7.013,2.454-13.138,7.465-18.159c5.01-5.01,10.91-7.458,17.812-7.458h76.928v-61.68h-90.511c-3.564,0-6.57-1.222-9.02-3.794
		c-2.335-2.421-3.563-5.45-3.563-8.884c0-3.568,1.228-6.568,3.563-9.018c2.449-2.454,5.455-3.682,9.02-3.682h90.511
		c7.015,0,13.027,2.566,18.042,7.454c5.118,5.01,7.565,10.909,7.565,17.923V311.236z"/>
	<path fill="#FFFFFF" d="M329.779,256.029h37.834v147.836h-38.38c-3.558,0-6.473,1.114-8.916,3.569
		c-2.466,2.33-3.688,5.24-3.688,8.681c0,3.45,1.222,6.473,3.688,9.017c2.443,2.556,5.358,3.783,8.916,3.783h101.091
		c3.568,0,6.45-1.227,8.894-3.682c2.454-2.442,3.676-5.325,3.676-8.882c0,0,1.402-8.467-1.053-10.921
		c-2.443-2.449-15.896-2.015-21.525-1.621l-2.478,0.057H392.67V230.979h-62.891c-3.45,0-6.444,1.222-8.904,3.669
		c-2.449,2.343-3.677,5.332-3.677,8.782c0,3.57,1.228,6.463,3.677,8.918C323.335,254.802,326.329,256.029,329.779,256.029"/>
</g>
</svg>
