<?xml version="1.0" encoding="utf-8"?>
<!-- Generator: Adobe Illustrator 15.0.0, SVG Export Plug-In . SVG Version: 6.00 Build 0)  -->
<!DOCTYPE svg PUBLIC "-//W3C//DTD SVG 1.1//EN" "http://www.w3.org/Graphics/SVG/1.1/DTD/svg11.dtd">
<svg version="1.1" id="Слой_1" xmlns="http://www.w3.org/2000/svg" xmlns:xlink="http://www.w3.org/1999/xlink" x="0px" y="0px"
	 width="1000px" height="1000px" viewBox="0 0 1000 1000" enable-background="new 0 0 1000 1000" xml:space="preserve">
<g>
	<path d="M885.075,114.905c-66.271-66.271-154.421-102.77-248.142-102.77c-93.722,0-181.834,36.499-248.127,102.77
		C322.535,181.2,286.036,269.321,286.036,363.039c0,78.792,25.877,153.553,73.463,214.777l-67.487,67.49l-6.824-6.823
		c-9.351-9.347-24.543-9.347-33.94,0L34.944,854.784c-30.384,30.411-30.384,79.845,0,110.248
		c14.721,14.722,34.298,22.833,55.109,22.833c20.819,0,40.42-8.111,55.115-22.833l216.301-216.3c9.379-9.376,9.379-24.563,0-33.945
		l-6.799-6.82l67.491-67.49c61.208,47.588,135.984,73.474,214.772,73.474c93.721,0,181.842-36.506,248.111-102.771
		c66.3-66.27,102.8-154.396,102.8-248.141C987.845,269.321,951.345,181.2,885.075,114.905 M851.129,577.229
		c-57.226,57.204-133.291,88.712-214.195,88.712c-80.893,0-156.964-31.508-214.164-88.712
		c-57.22-57.221-88.726-133.294-88.726-214.19c0-80.901,31.505-156.966,88.726-214.193c57.199-57.196,133.271-88.702,214.164-88.702
		c80.904,0,156.97,31.506,214.195,88.702c57.199,57.227,88.707,133.292,88.707,214.193
		C939.836,443.935,908.328,520.009,851.129,577.229 M653.743,120.695c1.787,13.131-7.38,25.225-20.513,27.029
		c-8.277,1.172-198.689,30.171-198.689,215.315c0,13.244-10.738,24.005-24.004,24.005c-13.247,0-24.005-10.761-24.005-24.005
		c0-119.132,65.893-184.535,121.166-218.436c58.486-35.864,116.56-44.115,118.99-44.443
		C639.846,98.352,651.938,107.571,653.743,120.695"/>
</g>
</svg>
