<?xml version="1.0" encoding="utf-8"?>
<!-- Generator: Adobe Illustrator 19.0.0, SVG Export Plug-In . SVG Version: 6.00 Build 0)  -->
<svg version="1.1" id="Layer_1" xmlns="http://www.w3.org/2000/svg" xmlns:xlink="http://www.w3.org/1999/xlink" x="0px" y="0px"
	 width="50px" height="50px" viewBox="0 0 50 50" style="enable-background:new 0 0 50 50;" xml:space="preserve">
<style type="text/css">
	.st0{fill:#71A0DD;}
	.st1{clip-path:url(#XMLID_36_);}
	.st2{fill:#FFFFFF;}
</style>
<g>
	<g id="XMLID_34_">
		<circle id="XMLID_54_" class="st0" cx="25" cy="25" r="25"/>
	</g>
	<g>
		<defs>
			<circle id="XMLID_14_" cx="25" cy="25" r="25"/>
		</defs>
		<clipPath id="XMLID_36_">
			<use xlink:href="#XMLID_14_"  style="overflow:visible;"/>
		</clipPath>
		<g class="st1">
			<g>
				<path id="XMLID_33_" class="st2" d="M18.1,54.8c0.1-0.2,2.2-5.3,0.2-10.2c-1.2-2.8-3.4-5-6.7-6.4c-5.4-2.3-5-7.4-5-7.6
					c0,0,0-0.1,0-0.1l0.1-6.8c7.6,5,13.9,4,18,2.2c4.7-2.1,7.3-5.6,7.5-5.7c0.3-0.4,0.2-1-0.2-1.3c-0.4-0.3-1-0.2-1.3,0.2l0,0
					c0,0-2.5,3.3-6.8,5.2c-5.6,2.5-11.5,1.5-17.5-3c-0.3-0.2-0.6-0.2-1-0.1c-0.3,0.2-0.5,0.5-0.5,0.8l-0.1,8.5
					c0,0.6-0.3,6.8,6.1,9.4c9.6,4.1,5.7,13.8,5.6,14.2c-0.2,0.5,0,1,0.5,1.2C17,55.4,17.8,55.6,18.1,54.8z"/>
				<path id="XMLID_32_" class="st2" d="M25.6,20.9c1.4-0.2,2.5-1.3,2.6-2.7L44.5,15c0.5-0.1,0.8-0.6,0.7-1.1
					c-0.1-0.5-0.6-0.8-1.1-0.7l-16.9,3.4c-0.5,0.1-0.8,0.6-0.7,1c0.1,0.7-0.4,1.4-1.1,1.5c-1.1,0.2-1.4-0.8-1.5-1.1
					c-0.1-0.6-0.9-0.8-1.1-0.8l-6.4,1.4c-0.5,0.1-0.8,0.6-0.7,1.1c0.1,0.5,0.6,0.8,1.1,0.7l5.6-1.2C22.5,19.6,23.4,21.2,25.6,20.9z"
					/>
				<path id="XMLID_31_" class="st2" d="M12.2,36.5c0.5,0,0.9-0.4,0.9-0.9v-6.8c0-0.5-0.4-0.9-0.9-0.9s-0.9,0.4-0.9,0.9v6.8
					C11.2,36,11.7,36.5,12.2,36.5z"/>
				<path id="XMLID_30_" class="st2" d="M-1.3,54.7L8.4,42c0.3-0.4,0.2-1-0.2-1.3c-0.4-0.3-1-0.2-1.3,0.2l-9.7,12.7
					c-0.3,0.4-0.2,1,0.2,1.3C-2,55.3-1.5,55-1.3,54.7z"/>
			</g>
			<path class="st2" d="M15.3,16.9c0-2.4-2-4.4-4.4-4.4c-2.4,0-4.4,2-4.4,4.4c0,2.4,2,4.4,4.4,4.4C13.4,21.2,15.3,19.3,15.3,16.9z
				 M13.5,16.9c0,1.4-1.1,2.5-2.5,2.5c-1.4,0-2.5-1.1-2.5-2.5c0-1.4,1.1-2.5,2.5-2.5C12.4,14.4,13.5,15.5,13.5,16.9z"/>
		</g>
	</g>
</g>
</svg>
