<?xml version="1.0" encoding="utf-8"?>
<!-- Generator: Adobe Illustrator 19.0.0, SVG Export Plug-In . SVG Version: 6.00 Build 0)  -->
<svg version="1.1" id="Layer_1" xmlns="http://www.w3.org/2000/svg" xmlns:xlink="http://www.w3.org/1999/xlink" x="0px" y="0px"
	 width="50px" height="50px" viewBox="0 0 50 50" style="enable-background:new 0 0 50 50;" xml:space="preserve">
<style type="text/css">
	.st0{fill:#FF9A6A;}
	.st1{clip-path:url(#XMLID_38_);}
	.st2{fill:#F5F5F5;}
	.st3{fill:#FFFFFF;}
</style>
<g>
	<g id="XMLID_36_">
		<circle id="XMLID_56_" class="st0" cx="25" cy="25" r="25"/>
	</g>
	<g>
		<defs>
			<circle id="XMLID_14_" cx="25" cy="25" r="25"/>
		</defs>
		<clipPath id="XMLID_38_">
			<use xlink:href="#XMLID_14_"  style="overflow:visible;"/>
		</clipPath>
		<g class="st1">
			<g>
				<g>
					<path id="XMLID_35_" class="st2" d="M25,35.9l-7.6-9.7c-0.2-0.3-0.3-0.7-0.1-1c0.1-0.3,5.7-8.1,27.1-6.8c0.5,0,0.9,0.4,0.9,0.9
						c0,0.5-0.4,0.9-0.9,0.9c-17.4-0.9-23.9,4-25.1,5.4l7.2,9.1c0.3,0.4,0.3,1-0.2,1.3C25.7,36.5,25.2,36.2,25,35.9z"/>
					<path id="XMLID_34_" class="st2" d="M19.5,54c-0.2-0.3-5.8-6.4-4.1-11.1c0.9-2.4,3.4-4,7.5-4.6c4.3-0.6,6.9-1.9,7.6-3.7
						c0.7-2-1.2-4.2-1.2-4.3l-4.6-5.5c-0.3-0.4-0.3-1,0.1-1.3c0.4-0.3,1-0.3,1.3,0.1l4.6,5.5c0.1,0.1,2.6,3.1,1.5,6.1
						c-0.9,2.5-4,4.1-9.1,4.9c-3.4,0.5-5.4,1.6-6.1,3.4c-1.1,3.1,2.3,7.7,3.7,9.3c0.3,0.4,0.3,1-0.1,1.3
						C20.3,54.6,19.7,54.2,19.5,54z"/>
					<path id="XMLID_33_" class="st2" d="M41.6,52.9L29.3,40.8c-0.4-0.4-0.4-0.9,0-1.3c0.4-0.4,0.9-0.4,1.3,0l12.3,12.1
						c0.4,0.4,0.4,0.9,0.1,1.3C42.4,53.5,41.8,53.1,41.6,52.9z"/>
					<path id="XMLID_32_" class="st2" d="M7.7,29.3c-2.2-2-1.3-5.7-1.3-5.8c0.1-0.5,0.6-0.8,1.1-0.7c0.5,0.1,0.8,0.6,0.7,1.1
						c0,0-0.6,2.7,0.8,4c1.1,1,3.3,1,6.5,0c0.5-0.2,1,0.1,1.2,0.6c0.2,0.5-0.1,1-0.6,1.2C10.5,31.6,8.6,30.1,7.7,29.3z"/>
				</g>
				<path class="st2" d="M18.9,21c2.3,0,4.2-1.9,4.2-4.2c0-2.3-1.9-4.2-4.2-4.2c-2.3,0-4.2,1.9-4.2,4.2C14.6,19.1,16.5,21,18.9,21z
					 M18.9,14.3c1.3,0,2.4,1.1,2.4,2.4s-1.1,2.4-2.4,2.4c-1.3,0-2.4-1.1-2.4-2.4S17.5,14.3,18.9,14.3z"/>
			</g>
			<path class="st3" d="M12.7,26.9c-1.8,0-3.3-1.5-3.3-3.3c0-1.8,1.5-3.3,3.3-3.3c1.8,0,3.3,1.5,3.3,3.3
				C16,25.4,14.5,26.9,12.7,26.9z M12.7,22.1c-0.8,0-1.5,0.7-1.5,1.5s0.7,1.5,1.5,1.5c0.8,0,1.5-0.7,1.5-1.5S13.5,22.1,12.7,22.1z"
				/>
		</g>
	</g>
</g>
</svg>
