<?xml version="1.0" encoding="UTF-8" standalone="no"?>
<!-- Generator: Adobe Illustrator 19.0.0, SVG Export Plug-In . SVG Version: 6.00 Build 0)  -->

<svg
   xmlns:dc="http://purl.org/dc/elements/1.1/"
   xmlns:cc="http://creativecommons.org/ns#"
   xmlns:rdf="http://www.w3.org/1999/02/22-rdf-syntax-ns#"
   xmlns:svg="http://www.w3.org/2000/svg"
   xmlns="http://www.w3.org/2000/svg"
   xmlns:xlink="http://www.w3.org/1999/xlink"
   xmlns:sodipodi="http://sodipodi.sourceforge.net/DTD/sodipodi-0.dtd"
   xmlns:inkscape="http://www.inkscape.org/namespaces/inkscape"
   version="1.1"
   id="Layer_1"
   x="0px"
   y="0px"
   width="50px"
   height="50px"
   viewBox="0 0 50 50"
   style="enable-background:new 0 0 50 50;"
   xml:space="preserve"
   sodipodi:docname="shot_put300.svg"
   inkscape:version="0.92.1 r15371"><metadata
     id="metadata5125"><rdf:RDF><cc:Work
         rdf:about=""><dc:format>image/svg+xml</dc:format><dc:type
           rdf:resource="http://purl.org/dc/dcmitype/StillImage" /><dc:title></dc:title></cc:Work></rdf:RDF></metadata><defs
     id="defs5123" /><sodipodi:namedview
     pagecolor="#ffffff"
     bordercolor="#666666"
     borderopacity="1"
     objecttolerance="10"
     gridtolerance="10"
     guidetolerance="10"
     inkscape:pageopacity="0"
     inkscape:pageshadow="2"
     inkscape:window-width="1920"
     inkscape:window-height="1018"
     id="namedview5121"
     showgrid="false"
     inkscape:zoom="4.72"
     inkscape:cx="25"
     inkscape:cy="25"
     inkscape:window-x="-8"
     inkscape:window-y="-8"
     inkscape:window-maximized="1"
     inkscape:current-layer="g5118" /><style
     type="text/css"
     id="style5092">
	.st0{fill:#FF9A6A;}
	.st1{clip-path:url(#XMLID_38_);}
	.st2{fill:#F5F5F5;}
	.st3{fill:#FFFFFF;}
</style><g
     id="g5118"><g
       id="XMLID_36_"
       style="fill:#e58a5f;fill-opacity:1"><circle
         id="XMLID_56_"
         class="st0"
         cx="25"
         cy="25"
         r="25"
         style="fill:#e58a5f;fill-opacity:1" /></g><g
       id="g5116"><defs
         id="defs5097"><circle
           id="XMLID_14_"
           cx="25"
           cy="25"
           r="25" /></defs><clipPath
         id="XMLID_38_"><use
           xlink:href="#XMLID_14_"
           style="overflow:visible;"
           id="use5099" /></clipPath><g
         class="st1"
         clip-path="url(#XMLID_38_)"
         id="g5114"><g
           id="g5110"><g
             id="g5106"><path
               id="XMLID_35_"
               class="st2"
               d="M25,35.9l-7.6-9.7c-0.2-0.3-0.3-0.7-0.1-1c0.1-0.3,5.7-8.1,27.1-6.8c0.5,0,0.9,0.4,0.9,0.9       c0,0.5-0.4,0.9-0.9,0.9c-17.4-0.9-23.9,4-25.1,5.4l7.2,9.1c0.3,0.4,0.3,1-0.2,1.3C25.7,36.5,25.2,36.2,25,35.9z" /><path
               id="XMLID_34_"
               class="st2"
               d="M19.5,54c-0.2-0.3-5.8-6.4-4.1-11.1c0.9-2.4,3.4-4,7.5-4.6c4.3-0.6,6.9-1.9,7.6-3.7       c0.7-2-1.2-4.2-1.2-4.3l-4.6-5.5c-0.3-0.4-0.3-1,0.1-1.3c0.4-0.3,1-0.3,1.3,0.1l4.6,5.5c0.1,0.1,2.6,3.1,1.5,6.1       c-0.9,2.5-4,4.1-9.1,4.9c-3.4,0.5-5.4,1.6-6.1,3.4c-1.1,3.1,2.3,7.7,3.7,9.3c0.3,0.4,0.3,1-0.1,1.3       C20.3,54.6,19.7,54.2,19.5,54z" /><path
               id="XMLID_33_"
               class="st2"
               d="M41.6,52.9L29.3,40.8c-0.4-0.4-0.4-0.9,0-1.3c0.4-0.4,0.9-0.4,1.3,0l12.3,12.1       c0.4,0.4,0.4,0.9,0.1,1.3C42.4,53.5,41.8,53.1,41.6,52.9z" /><path
               id="XMLID_32_"
               class="st2"
               d="M7.7,29.3c-2.2-2-1.3-5.7-1.3-5.8c0.1-0.5,0.6-0.8,1.1-0.7c0.5,0.1,0.8,0.6,0.7,1.1       c0,0-0.6,2.7,0.8,4c1.1,1,3.3,1,6.5,0c0.5-0.2,1,0.1,1.2,0.6c0.2,0.5-0.1,1-0.6,1.2C10.5,31.6,8.6,30.1,7.7,29.3z" /></g><path
             class="st2"
             d="M18.9,21c2.3,0,4.2-1.9,4.2-4.2c0-2.3-1.9-4.2-4.2-4.2c-2.3,0-4.2,1.9-4.2,4.2C14.6,19.1,16.5,21,18.9,21z       M18.9,14.3c1.3,0,2.4,1.1,2.4,2.4s-1.1,2.4-2.4,2.4c-1.3,0-2.4-1.1-2.4-2.4S17.5,14.3,18.9,14.3z"
             id="path5108" /></g><path
           class="st3"
           d="M12.7,26.9c-1.8,0-3.3-1.5-3.3-3.3c0-1.8,1.5-3.3,3.3-3.3c1.8,0,3.3,1.5,3.3,3.3     C16,25.4,14.5,26.9,12.7,26.9z M12.7,22.1c-0.8,0-1.5,0.7-1.5,1.5s0.7,1.5,1.5,1.5c0.8,0,1.5-0.7,1.5-1.5S13.5,22.1,12.7,22.1z"
           id="path5112" /></g></g></g></svg>