<?xml version="1.0" encoding="utf-8"?>
<!-- Generator: Adobe Illustrator 15.0.0, SVG Export Plug-In . SVG Version: 6.00 Build 0)  -->
<!DOCTYPE svg PUBLIC "-//W3C//DTD SVG 1.1//EN" "http://www.w3.org/Graphics/SVG/1.1/DTD/svg11.dtd">
<svg version="1.1" id="Слой_1" xmlns="http://www.w3.org/2000/svg" xmlns:xlink="http://www.w3.org/1999/xlink" x="0px" y="0px"
	 width="1000px" height="1000px" viewBox="0 0 1000 1000" enable-background="new 0 0 1000 1000" xml:space="preserve">
<g>
	<path fill="#FFFFFF" d="M370.036,457.792l20.12-0.187l10.084-17.313c5.077-8.61,11.628-16.004,19.209-22.086l85.162-158.161
		L402.696,70.815C393.15,53.034,372,45.078,353.096,52.098l-162.652,60.55c-11.417,4.305-20.308,13.499-24.146,24.988
		c-3.931,11.51-2.433,24.145,4.118,34.439l181.908,287.871C358.057,458.636,363.952,457.792,370.036,457.792"/>
	<path fill="#FFFFFF" d="M888.688,137.636c-3.93-11.582-12.728-20.776-24.144-24.988L701.891,52.121
		c-18.903-7.018-40.055,0.936-49.6,18.694L474.853,400.541c12.353,0.726,24.425,4.189,35.188,10.366l17.405,9.92l17.408-9.92
		c12.259-7.02,26.016-10.668,40.055-10.668c28.636,0,55.403,15.371,69.813,40.055L664.83,457.7l20.122,0.093
		c5.989,0,11.979,0.843,17.687,2.153L884.57,172.075C891.028,161.781,892.62,149.146,888.688,137.636"/>
	<path fill="#FFFFFF" d="M762.349,603.133L725.1,581.421l-0.279-43.145c-0.095-22.086-17.969-40.055-40.149-40.147l-43.143-0.164
		L619.816,460.6c-11.138-19.091-35.655-25.643-54.936-14.692l-37.435,21.43l-37.435-21.43c-19.185-10.951-43.704-4.399-54.84,14.692
		l-21.807,37.248l-43.05,0.281c-22.181,0.188-40.055,18.062-40.241,40.147l-0.188,43.145l-37.247,21.712
		c-19.185,11.23-25.737,35.655-14.692,54.934l21.338,37.435l-21.338,37.435c-11.045,19.187-4.492,43.706,14.692,54.936
		l37.247,21.712l0.188,43.143c0.187,22.087,18.061,40.055,40.241,40.149l43.05,0.188l21.807,37.34
		c11.136,19.092,35.655,25.643,54.84,14.693l37.435-21.432l37.435,21.432c6.363,3.557,13.196,5.334,20.028,5.334
		c13.827,0,27.42-7.205,34.907-20.027l21.712-37.34l43.143-0.188c22.181-0.095,40.055-18.063,40.149-40.149l0.279-43.143
		l37.249-21.712c19.067-11.229,25.641-35.656,14.692-54.936l-21.431-37.435l21.431-37.435
		C788.084,638.788,781.416,614.269,762.349,603.133 M681.116,664.805l-76.835,55.965l29.293,90.287
		c2.62,7.886-0.188,16.495-6.855,21.268c-3.346,2.434-7.277,3.65-11.207,3.65c-3.931,0-7.861-1.217-11.137-3.65l-76.929-55.87
		l-76.834,55.87c-6.646,4.866-15.722,4.866-22.367,0c-6.645-4.772-9.452-13.382-6.924-21.268l29.384-90.287l-76.926-55.965
		c-6.646-4.771-9.453-13.382-6.833-21.243c2.526-7.769,9.828-13.102,18.063-13.102h94.989l29.386-90.404
		c2.62-7.769,9.92-13.103,18.155-13.103c8.142,0,15.442,5.334,18.063,13.103l29.291,90.404h95.084
		c8.143,0,15.535,5.333,18.062,13.102C690.567,651.423,687.76,660.033,681.116,664.805"/>
</g>
</svg>
