<?xml version="1.0" encoding="utf-8"?>
<!-- Generator: Adobe Illustrator 19.0.0, SVG Export Plug-In . SVG Version: 6.00 Build 0)  -->
<svg version="1.1" id="Layer_1" xmlns="http://www.w3.org/2000/svg" xmlns:xlink="http://www.w3.org/1999/xlink" x="0px" y="0px"
	 width="50px" height="50px" viewBox="0 0 50 50" style="enable-background:new 0 0 50 50;" xml:space="preserve">
<style type="text/css">
	.st0{fill:#0178BF;}
	.st1{clip-path:url(#SVGID_2_);}
	.st2{fill:#FFFFFF;}
</style>
<g>
	<circle id="XMLID_19_" class="st0" cx="25" cy="25" r="25"/>
</g>
<g>
	<defs>
		<circle id="SVGID_1_" cx="25" cy="25" r="25"/>
	</defs>
	<clipPath id="SVGID_2_">
		<use xlink:href="#SVGID_1_"  style="overflow:visible;"/>
	</clipPath>
	<g class="st1">
		<path class="st2" d="M25.4,11.1c2.3,0,4.2-1.9,4.2-4.2c0-2.3-1.9-4.2-4.2-4.2s-4.2,1.9-4.2,4.2C21.1,9.2,23,11.1,25.4,11.1z
			 M25.4,4.4c1.3,0,2.4,1.1,2.4,2.4c0,1.3-1.1,2.4-2.4,2.4C24,9.2,23,8.2,23,6.8C23,5.5,24,4.4,25.4,4.4z"/>
		<path class="st2" d="M44.9,18.6c-1.9-4.2-7.4-8.7-19-5.8l-2.6,0.7c-0.5,0.1-0.8,0.6-0.7,1.1l3.6,13.7c0.1,0.4,0.5,0.8,1.1,0.7
			c0.5-0.1,0.8-0.6,0.7-1.1L24.6,15l1.7-0.5c0,0,0,0,0,0c0.1,0,12.9-3.8,16.8,4.8c0.2,0.5,0.8,0.7,1.2,0.4
			C44.9,19.6,45.1,19.1,44.9,18.6z"/>
		<path class="st2" d="M24.5,27.3c0.5-0.2,0.7-0.7,0.6-1.2c-0.2-0.5-0.7-0.7-1.2-0.6c-0.1,0-9.9,3.5-6.8,15.9l-8.6,7
			c-0.4,0.3-0.5,0.9-0.1,1.3c0.6,0.6,1.1,0.3,1.3,0.1l9.1-7.4c0.3-0.2,0.4-0.6,0.3-1C15.9,30.4,24.1,27.4,24.5,27.3z"/>
		<path class="st2" d="M16,24l5.9-7.2c0.3-0.4,0.3-1-0.1-1.3c-0.4-0.3-1-0.3-1.3,0.1l-5.9,7.2c-0.3,0.4-0.3,1,0.1,1.3
			C15.2,24.5,15.8,24.2,16,24z"/>
		<path class="st2" d="M37,32.2L25.8,42.3c-0.7-1.7-1.7-5.5-0.5-7.9c0.6-1.1,1.6-1.8,3.1-2.2c2.1-0.5,3.6-1.5,4.5-3
			c1.5-2.7,0.5-6,0.4-6.4l-1.9-7c-0.1-0.5-0.6-0.8-1.1-0.6c-0.5,0.1-0.8,0.6-0.6,1.1c0,0,1.9,7,1.9,7c0,0,0.9,2.8-0.3,4.9
			c-0.6,1.1-1.7,1.8-3.3,2.1c-2,0.4-3.5,1.5-4.3,3.1c-2.3,4.3,0.7,9.9,0.7,10L15,52.1c-0.4,0.3-0.4,0.9-0.1,1.3
			c0.6,0.6,1.1,0.2,1.3,0.1l21.9-20c0.4-0.3,0.4-0.9,0.1-1.3C37.9,31.9,37.3,31.8,37,32.2z"/>
	</g>
</g>
</svg>
