<?xml version="1.0" standalone="no"?><!-- Generator: Gravit.io --><svg xmlns="http://www.w3.org/2000/svg" xmlns:xlink="http://www.w3.org/1999/xlink" style="isolation:isolate" viewBox="0 0 533.333 533.333" width="533.333" height="533.333"><defs><clipPath id="_clipPath_mHddRz1qBGHSGyfrn7S7O6DLBzAqivRi"><rect width="533.333" height="533.333"/></clipPath></defs><g clip-path="url(#_clipPath_mHddRz1qBGHSGyfrn7S7O6DLBzAqivRi)"><g id="Group"><path d=" M 265.5 86 C 136.542 86 32 186.139 32 309.667 C 32 433.194 136.542 533.333 265.5 533.333 C 394.458 533.333 499 433.194 499 309.667 C 498.999 186.139 394.458 86 265.5 86 Z  M 353.062 197.833 C 369.183 197.833 382.25 216.609 382.25 239.771 C 382.25 262.932 369.183 281.708 353.062 281.708 C 336.942 281.708 323.875 262.932 323.875 239.771 C 323.875 216.609 336.941 197.833 353.062 197.833 Z  M 177.938 197.833 C 194.057 197.833 207.125 216.609 207.125 239.771 C 207.125 262.932 194.057 281.708 177.938 281.708 C 161.818 281.708 148.75 262.932 148.75 239.771 C 148.75 216.609 161.817 197.833 177.938 197.833 Z  M 265.5 477.417 C 189.399 477.417 126.211 416.314 119.562 338.366 C 162.326 362.007 212.62 375.526 265.5 375.526 C 318.38 375.526 368.673 362.069 411.438 338.429 C 404.791 416.379 341.602 477.417 265.5 477.417 Z " fill="rgb(0,0,0)"/></g></g></svg>