<?xml version="1.0" encoding="utf-8"?>
<!-- Generator: Adobe Illustrator 19.0.0, SVG Export Plug-In . SVG Version: 6.00 Build 0)  -->
<svg version="1.1" id="Layer_1" xmlns="http://www.w3.org/2000/svg" xmlns:xlink="http://www.w3.org/1999/xlink" x="0px" y="0px"
	 width="50px" height="50px" viewBox="0 0 50 50" style="enable-background:new 0 0 50 50;" xml:space="preserve">
<style type="text/css">
	.st0{fill:#FD576B;}
	.st1{clip-path:url(#XMLID_35_);}
	.st2{fill:#FFFFFF;}
</style>
<g>
	<g id="XMLID_33_">
		<circle id="XMLID_53_" class="st0" cx="25" cy="25" r="25"/>
	</g>
	<g>
		<defs>
			<circle id="XMLID_14_" cx="25" cy="25" r="25"/>
		</defs>
		<clipPath id="XMLID_35_">
			<use xlink:href="#XMLID_14_"  style="overflow:visible;"/>
		</clipPath>
		<g class="st1">
			<path class="st2" d="M24.1,20.7c0-2.4,1.9-4.3,4.3-4.3c2.4,0,4.3,1.9,4.3,4.3s-1.9,4.3-4.3,4.3C26.1,25.1,24.1,23.1,24.1,20.7z
				 M26,20.7c0,1.4,1.1,2.5,2.5,2.5c1.4,0,2.5-1.1,2.5-2.5c0-1.4-1.1-2.5-2.5-2.5C27.1,18.2,26,19.3,26,20.7z"/>
			<path id="XMLID_30_" class="st2" d="M13.5,30.6c6.9,0,12.8-2.6,13.4-3.4c0.3-0.4,0.2-0.9-0.1-1.2c-0.2-0.2-5.2-4.8-8.3-6.8
				C15.3,17,8.2,17.8,7.7,17.8c-0.5,0-0.9,0.4-0.9,0.9c0,0.5,0.4,0.9,0.9,0.9c0.5,0,7.2-0.6,9.8,1.1c2.2,1.4,5.4,4.3,7,5.7
				c-2.9,1.2-10.3,3.8-17.5,1.3c-0.5-0.2-1,0.1-1.2,0.6c-0.2,0.5,0.1,1,0.6,1.2C8.8,30.3,11.2,30.6,13.5,30.6z"/>
			<path id="XMLID_29_" class="st2" d="M27.4,31c4.2-1.2,8.6-2.6,15.5,0.2c0.5,0.2,1,0,1.2-0.5c0.2-0.5,0-1-0.5-1.2
				c-7.5-3-12.4-1.6-16.7-0.2c-0.6,0.2-13,4.7-20.5,1.5c-0.5-0.2-1,0.1-1.2,0.6c-0.2,0.5,0.1,1,0.6,1.2C11.2,34.4,17.3,33.9,27.4,31
				z"/>
			<path id="XMLID_19_" class="st2" d="M44.8,27.5c0.2-0.5-0.1-1.1-0.6-1.3c-6.9-2.7-12.4-1.5-12.6-1.4c-0.5,0.1-0.8,0.6-0.7,1.1
				c0.1,0.5,0.6,0.8,1.1,0.7l0,0c0.1,0,5.2-1.1,11.5,1.4C43.6,28,44.5,28.1,44.8,27.5z"/>
		</g>
	</g>
</g>
</svg>
