<?xml version="1.0" encoding="utf-8"?>
<!-- Generator: Adobe Illustrator 19.0.0, SVG Export Plug-In . SVG Version: 6.00 Build 0)  -->
<svg version="1.1" id="Layer_1" xmlns="http://www.w3.org/2000/svg" xmlns:xlink="http://www.w3.org/1999/xlink" x="0px" y="0px"
	 width="50px" height="50px" viewBox="0 0 50 50" style="enable-background:new 0 0 50 50;" xml:space="preserve">
<style type="text/css">
	.st0{fill:#23420F;}
	.st1{fill:#FFFFFF;}
</style>
<g>
	<g id="XMLID_8_">
		<circle id="XMLID_300_" class="st0" cx="25" cy="25" r="25"/>
	</g>
	<g>
		<g>
			<path id="XMLID_7_" class="st1" d="M25.6,27.1L32,19c0.2-0.2,0.2-0.5,0.1-0.8C32,18,27.3,11.4,9.4,12.5c-0.4,0-0.8,0.3-0.8,0.8
				C8.7,13.7,9,14,9.4,14c14.5-0.7,20,3.4,21,4.5l-6,7.6c-0.3,0.3-0.2,0.8,0.1,1.1C25,27.5,25.5,27.3,25.6,27.1z"/>
			<path id="XMLID_6_" class="st1" d="M30.2,42.2c0.2-0.2,4.8-5.4,3.4-9.3c-0.7-2-2.8-3.3-6.3-3.8c-3.6-0.5-5.8-1.6-6.4-3.1
				c-0.6-1.7,1-3.6,1-3.6l3.9-4.6c0.3-0.3,0.2-0.8-0.1-1.1c-0.3-0.3-0.8-0.2-1.1,0.1l-3.8,4.6c-0.1,0.1-2.2,2.6-1.3,5.1
				c0.8,2.1,3.3,3.4,7.6,4.1c2.8,0.4,4.5,1.4,5.1,2.8c0.9,2.6-1.9,6.5-3.1,7.8c-0.3,0.3-0.3,0.8,0.1,1.1
				C29.6,42.7,30.1,42.4,30.2,42.2z"/>
			<path id="XMLID_5_" class="st1" d="M11.7,41.3l10.3-10.1c0.3-0.3,0.3-0.8,0-1.1c-0.3-0.3-0.8-0.3-1.1,0L10.7,40.2
				c-0.3,0.3-0.4,0.8-0.1,1.1C11.1,41.8,11.6,41.5,11.7,41.3z"/>
			<path id="XMLID_4_" class="st1" d="M40.1,21.6c1.8-1.7,1.1-4.7,1.1-4.9c-0.1-0.4-0.5-0.7-0.9-0.6c-0.4,0.1-0.7,0.5-0.6,0.9
				c0,0,0.5,2.3-0.6,3.4c-0.9,0.9-2.8,0.9-5.4,0c-0.4-0.1-0.8,0.1-1,0.5c-0.1,0.4,0.1,0.8,0.5,1C37.7,23.5,39.3,22.3,40.1,21.6z"/>
		</g>
		<path class="st1" d="M34.3,11.1c0-2-1.6-3.6-3.6-3.6c-2,0-3.6,1.6-3.6,3.6c0,2,1.6,3.6,3.6,3.6C32.7,14.6,34.3,13,34.3,11.1z
			 M32.8,11.1c0,1.1-0.9,2-2,2c-1.1,0-2-0.9-2-2s0.9-2,2-2C31.9,9,32.8,9.9,32.8,11.1z"/>
	</g>
</g>
</svg>
