<svg xmlns="http://www.w3.org/2000/svg" width="30" height="30"><rect id="backgroundrect" width="100%" height="100%" x="0" y="0" fill="none" stroke="none"/>

 <g style="">
  <title>background</title>
  <rect fill="none" id="canvas_background" height="402" width="582" y="-1" x="-1"/>
 </g>
 <g style="" class="currentLayer">
  <title>Layer 1</title>
  <path fill="#4B252D" id="svg_1" d="m29.84294129212618,15.264765092972668 c0,7.906034385320306 -6.5464665801331865,14.315290387500118 -14.623102498001442,14.315290387500118 s-14.623102498001442,-6.409256002179807 -14.623102498001442,-14.315290387500118 c0,-7.905699085503296 6.5464665801331865,-14.314955087683103 14.623102498001442,-14.314955087683103 s14.623102498001442,6.409256002179807 14.623102498001442,14.314955087683103 l0,0 zm-13.381702524875879,-11.060199763949939 c0,-0.8841856174600138 -0.7313435272138747,-1.6013919260481695 -1.6343044348184512,-1.6013919260481695 c-0.9043311062504119,0 -1.6356746334642867,0.7172063085881578 -1.6356746334642867,1.6013919260481695 s0.7313435272138747,1.6027331253162167 1.6356746334642867,1.6027331253162167 c0.902960907604578,0 1.6343044348184512,-0.718547507856204 1.6343044348184512,-1.6027331253162167 l0,0 zm-0.15414734765632018,9.43366035162589 c-0.27232698085949963,0.5659860911158523 -0.021923178333343375,1.2392681236754677 0.5545879019012943,1.5038196792977474 l6.7907044887530885,3.1162764993073058 l0.9793494821098206,-2.0456641835887526 l-6.7889917404457965,-3.1176176985753528 c-0.5778812788804721,-0.2658927548903266 -1.2660635487505754,-0.021123888471741015 -1.5356501323184064,0.543185703559052 zm-4.166774081981061,-6.939700312692413 l-4.195205703882117,1.6835403812160514 c-0.590898166015894,0.23772757026133898 -0.872816537396231,0.8982682097745083 -0.6316615757294541,1.4739779955837005 l0.4391486659897838,1.048147227978765 l1.069440043073403,-0.42985436540907807 l4.24864345106964,-1.7073466682238858 c0.049327151250022495,-0.018441489935646902 0.10105215013025444,-0.028165184628988017 0.15311969867194503,-0.028165184628988017 c0.22402747859385228,0 0.4031809515366426,0.17670300356519839 0.4031809515366426,0.39598908389089044 l0,2.9466147918993544 c0,0.15289671655736312 -0.08940546164066589,0.29305204006827973 -0.23259122013031486,0.35810020456856084 l-7.858774333180657,3.5843550438557235 l0.9769516344796111,2.049687781392894 l8.168439227139132,-3.728198665353768 c0.7659410430211822,-0.3493824093262552 1.257157257552655,-1.103471697785705 1.257157257552655,-1.929315147085672 l0,-3.3171210896973498 c0,-0.05230677145383483 0.009933940182296229,-0.10327234363962255 0.030144370208347104,-0.1498790182042574 c0.08563741536462252,-0.20252108947510428 0.3192562844793123,-0.2987521369574795 0.52615628000024,-0.21492718270453912 l4.050649746746633,1.625198213056004 l1.0677272947661114,0.4271719668729841 l0.43812101700540845,-1.0441236301746237 c0.24081241200531822,-0.5783921843452873 -0.04076340971356029,-1.2389328238584565 -0.6302913770836204,-1.4749838950347365 l-3.9091767365642793,-1.5688678437980286 c-1.72096949916745,-0.691723522495263 -3.6515793911474934,-0.691723522495263 -5.371178691669109,0 zm-7.10139703169594,17.185121521303778 l0.21512118739593167,0.6055514695232405 c6.198093574429901,-2.1130594468081165 12.944266607193384,-2.1130594468081165 19.143730380269123,0 l0.21512118739593167,-0.6055514695232405 c-6.338196385966423,-2.161007320640799 -13.235433819433101,-2.161007320640799 -19.573972755060986,0 z" class=""/>
  <polyline stroke-linecap="round" id="svg_2" points="83.5,63.5 83.5,63.5 " stroke-width="1.5" stroke="#000" fill="none" class=""/>
 </g>
</svg>