<?xml version="1.0" encoding="UTF-8" standalone="no"?>
<!-- Generator: Adobe Illustrator 19.0.0, SVG Export Plug-In . SVG Version: 6.00 Build 0)  -->

<svg
   xmlns:dc="http://purl.org/dc/elements/1.1/"
   xmlns:cc="http://creativecommons.org/ns#"
   xmlns:rdf="http://www.w3.org/1999/02/22-rdf-syntax-ns#"
   xmlns:svg="http://www.w3.org/2000/svg"
   xmlns="http://www.w3.org/2000/svg"
   xmlns:xlink="http://www.w3.org/1999/xlink"
   xmlns:sodipodi="http://sodipodi.sourceforge.net/DTD/sodipodi-0.dtd"
   xmlns:inkscape="http://www.inkscape.org/namespaces/inkscape"
   version="1.1"
   id="Layer_1"
   x="0px"
   y="0px"
   width="50px"
   height="50px"
   viewBox="0 0 50 50"
   style="enable-background:new 0 0 50 50;"
   xml:space="preserve"
   sodipodi:docname="triple_jump.svg"
   inkscape:version="0.92.1 r15371"><metadata
     id="metadata5695"><rdf:RDF><cc:Work
         rdf:about=""><dc:format>image/svg+xml</dc:format><dc:type
           rdf:resource="http://purl.org/dc/dcmitype/StillImage" /><dc:title></dc:title></cc:Work></rdf:RDF></metadata><defs
     id="defs5693" /><sodipodi:namedview
     pagecolor="#ffffff"
     bordercolor="#666666"
     borderopacity="1"
     objecttolerance="10"
     gridtolerance="10"
     guidetolerance="10"
     inkscape:pageopacity="0"
     inkscape:pageshadow="2"
     inkscape:window-width="1920"
     inkscape:window-height="1018"
     id="namedview5691"
     showgrid="false"
     inkscape:zoom="4.72"
     inkscape:cx="25"
     inkscape:cy="25"
     inkscape:window-x="-8"
     inkscape:window-y="-8"
     inkscape:window-maximized="1"
     inkscape:current-layer="g5688" /><style
     type="text/css"
     id="style5670">
	.st0{fill:#E36BB3;}
	.st1{clip-path:url(#XMLID_34_);}
	.st2{fill:#FFFFFF;}
</style><g
     id="g5688"><g
       id="XMLID_32_"
       style="fill:#6bb3e3;fill-opacity:1"><circle
         id="XMLID_52_"
         class="st0"
         cx="25"
         cy="25"
         r="25"
         style="fill:#6bb3e3;fill-opacity:1" /></g><g
       id="g5686"><defs
         id="defs5675"><circle
           id="XMLID_14_"
           cx="25"
           cy="25"
           r="25" /></defs><clipPath
         id="XMLID_34_"><use
           xlink:href="#XMLID_14_"
           style="overflow:visible;"
           id="use5677" /></clipPath><g
         class="st1"
         clip-path="url(#XMLID_34_)"
         id="g5684"><path
           class="st2"
           d="M24.5,11.7c0-2.4-2-4.4-4.4-4.4c-2.4,0-4.4,2-4.4,4.4c0,2.4,2,4.4,4.4,4.4C22.6,16.1,24.5,14.1,24.5,11.7z      M17.7,11.7c0-1.4,1.1-2.5,2.5-2.5c1.4,0,2.5,1.1,2.5,2.5c0,1.4-1.1,2.5-2.5,2.5C18.8,14.2,17.7,13.1,17.7,11.7z"
           id="path5680" /><path
           id="XMLID_29_"
           class="st2"
           d="M30.7,43.7c-0.5,0-0.9-0.3-0.9-0.8c-0.1-0.5,0.3-1,0.8-1.1c4-0.6,6.6-2.1,7.6-4.5     c1.2-2.8-0.1-6.9-3.5-11.3c-2.9-3.8-9.3-7.6-9.4-7.6c-0.4-0.2-0.6-0.7-0.4-1.1s0.6-0.7,1-0.6c0,0,3.2,0.4,5.5-0.5     c3.1-1.2,3.9-6,3.9-6c0.1-0.5,0.6-0.9,1.1-0.8c0.5,0.1,0.9,0.6,0.8,1.1c0,0.2-1,5.8-5,7.4c-1,0.4-2,0.6-3,0.7     c2.2,1.5,5.2,3.9,7.1,6.3c3.9,5.1,5.2,9.6,3.8,13.2c-0.9,2.1-3.1,4.8-9.1,5.6C30.8,43.7,30.7,43.7,30.7,43.7z" /><path
           id="XMLID_19_"
           class="st2"
           d="M26.4,36.8c-1.6,0-3.9-0.8-6.9-3.7c-0.4-0.4-0.4-1,0-1.3c0.4-0.4,1-0.4,1.3,0     c2.6,2.6,5,3.7,6.6,3c0.9-0.4,1.5-1.3,1.5-2.4c0-5.2-5.6-8.8-8.7-10.8L20,21.4c-5.6-3.6-13.1-6.9-13.2-6.9     c-0.5-0.2-0.7-0.8-0.5-1.2c0.2-0.5,0.8-0.7,1.2-0.5c0.1,0,7.7,3.4,13.4,7.1l0.2,0.1c3.3,2.1,9.5,6.2,9.5,12.4     c0,1.8-1,3.5-2.6,4.1C27.7,36.7,27.1,36.8,26.4,36.8z" /></g></g></g></svg>