<?xml version="1.0" encoding="utf-8"?>
<!-- Generator: Adobe Illustrator 15.1.0, SVG Export Plug-In . SVG Version: 6.00 Build 0)  -->
<!DOCTYPE svg PUBLIC "-//W3C//DTD SVG 1.1//EN" "http://www.w3.org/Graphics/SVG/1.1/DTD/svg11.dtd">
<svg version="1.1" id="Layer_1" xmlns="http://www.w3.org/2000/svg" xmlns:xlink="http://www.w3.org/1999/xlink" x="0px" y="0px"
	 width="100px" height="100px" viewBox="0 0 100 100" enable-background="new 0 0 100 100" xml:space="preserve">
<polygon fill="#FFFFFF" points="4.94,51.822 4.94,55.466 94.939,55.466 94.939,51.822 40.933,51.822 "/>
<rect x="40.933" y="44.534" fill="#FFFFFF" width="54.006" height="3.644"/>
<rect x="40.933" y="37.246" fill="#FFFFFF" width="54.006" height="3.644"/>
<rect x="40.933" y="29.957" fill="#FFFFFF" width="54.006" height="3.644"/>
<rect x="4.94" y="66.398" fill="#FFFFFF" width="90" height="3.645"/>
<rect x="4.94" y="59.11" fill="#FFFFFF" width="90" height="3.645"/>
<rect x="40.933" y="26.313" fill="#B22234" width="54.006" height="3.644"/>
<rect x="40.933" y="33.601" fill="#B22234" width="54.006" height="3.645"/>
<rect x="40.933" y="40.89" fill="#B22234" width="54.006" height="3.644"/>
<rect x="40.933" y="48.178" fill="#B22234" width="54.006" height="3.645"/>
<rect x="4.94" y="55.466" fill="#B22234" width="90" height="3.645"/>
<rect x="4.94" y="62.755" fill="#B22234" width="90" height="3.644"/>
<rect x="4.94" y="70.043" fill="#B22234" width="90" height="3.645"/>
<polygon fill="#3C3B6E" points="10.993,41.626 10.993,41.625 10.993,41.625 10.993,41.625 10.993,41.625 "/>
<polygon fill="#3C3B6E" points="28.9,41.625 28.9,41.626 28.9,41.625 28.9,41.625 28.9,41.625 "/>
<polygon fill="#3C3B6E" points="34.87,41.625 34.87,41.626 34.87,41.625 34.87,41.625 34.87,41.625 "/>
<polygon fill="#3C3B6E" points="16.962,41.626 16.962,41.625 16.962,41.625 16.962,41.625 16.962,41.625 "/>
<rect x="19.947" y="44.184" fill="#3C3B6E" width="0" height="0"/>
<polygon fill="#3C3B6E" points="22.931,41.625 22.931,41.626 22.931,41.625 22.931,41.625 22.931,41.625 "/>
<path fill="#3C3B6E" d="M40.933,48.178v-3.644V40.89v-3.644v-3.645v-3.644v-3.644H4.94v25.509h35.993V48.178z M38.711,45.364
	l-0.857-0.623l-0.858,0.623l0.328-1.008l-0.858-0.623h1.06l0.328-1.008l0.328,1.008h1.06l-0.858,0.624L38.711,45.364z
	 M10.993,45.283l0.328,1.008h1.06l-0.858,0.623l0.328,1.008l-0.857-0.623l-0.858,0.623l0.328-1.008l-0.858-0.623h1.06L10.993,45.283
	z M13.447,44.356l-0.858-0.623h1.061l0.328-1.008l0.328,1.008h1.06l-0.857,0.623l0.327,1.008l-0.857-0.623l-0.858,0.623
	L13.447,44.356z M12.589,33.5h1.061l0.328-1.008l0.328,1.008h1.06l-0.857,0.624l0.327,1.008l-0.857-0.623l-0.858,0.623l0.328-1.008
	L12.589,33.5z M18.559,33.5h1.06l0.328-1.008l0.327,1.008h1.06l-0.857,0.623l0.328,1.008l-0.857-0.623l-0.858,0.623l0.328-1.008
	L18.559,33.5z M24.528,33.5h1.06l0.328-1.008l0.328,1.008h1.061l-0.858,0.624l0.328,1.008l-0.858-0.623l-0.857,0.623l0.328-1.008
	L24.528,33.5z M30.497,33.5h1.06l0.328-1.008l0.328,1.008h1.06l-0.857,0.624l0.328,1.008l-0.858-0.623l-0.857,0.623l0.328-1.008
	L30.497,33.5z M30.288,41.175l-0.858,0.623l0.328,1.008L28.9,42.183l-0.857,0.623l0.327-1.008l-0.857-0.623h1.06l0.328-1.008
	l0.328,1.008H30.288z M29.758,47.922L28.9,47.299l-0.857,0.623l0.327-1.008l-0.857-0.623h1.06l0.328-1.008l0.328,1.008h1.06
	l-0.858,0.623L29.758,47.922z M24.319,41.175l-0.857,0.623l0.328,1.008l-0.858-0.623l-0.857,0.623l0.328-1.008l-0.858-0.623h1.06
	l0.328-1.008l0.328,1.008H24.319z M23.789,47.922l-0.858-0.623l-0.857,0.623l0.328-1.008l-0.858-0.623h1.06l0.328-1.008l0.328,1.008
	h1.06l-0.857,0.623L23.789,47.922z M21.543,36.059h1.06l0.328-1.009l0.328,1.009h1.06l-0.857,0.623l0.328,1.008l-0.858-0.623
	l-0.857,0.623l0.328-1.008L21.543,36.059z M26.773,40.248l-0.858-0.623l-0.857,0.623l0.328-1.008l-0.857-0.623h1.06l0.328-1.008
	l0.328,1.008h1.061l-0.858,0.623L26.773,40.248z M19.947,37.608l0.327,1.008h1.06l-0.857,0.623l0.328,1.008l-0.857-0.623
	l-0.858,0.623l0.328-1.008l-0.857-0.623h1.06L19.947,37.608z M32.743,40.248l-0.858-0.623l-0.857,0.623l0.328-1.008l-0.858-0.623
	h1.06l0.328-1.008l0.328,1.008h1.06l-0.857,0.623L32.743,40.248z M29.758,37.69L28.9,37.067l-0.857,0.623l0.327-1.008l-0.857-0.623
	h1.06L28.9,35.05l0.328,1.009h1.06l-0.858,0.623L29.758,37.69z M15.574,36.059h1.06l0.328-1.009l0.328,1.009h1.06l-0.857,0.623
	l0.327,1.008l-0.857-0.623l-0.857,0.623l0.328-1.008L15.574,36.059z M13.978,37.608l0.328,1.008h1.06l-0.857,0.623l0.327,1.008
	l-0.857-0.623l-0.858,0.623l0.328-1.008l-0.858-0.623h1.061L13.978,37.608z M16.962,40.167l0.328,1.008h1.06l-0.857,0.623
	l0.327,1.008l-0.857-0.623l-0.857,0.623l0.328-1.008l-0.858-0.623h1.06L16.962,40.167z M17.819,47.922l-0.857-0.623l-0.857,0.623
	l0.328-1.008l-0.858-0.623h1.06l0.328-1.008l0.328,1.008h1.06l-0.857,0.623L17.819,47.922z M19.417,44.356l-0.857-0.623h1.06
	l0.328-1.008l0.327,1.008h1.06l-0.857,0.623l0.328,1.008l-0.857-0.623l-0.858,0.623L19.417,44.356z M25.386,44.356l-0.857-0.623
	h1.06l0.328-1.008l0.328,1.008h1.061l-0.858,0.624l0.328,1.008l-0.858-0.623l-0.857,0.623L25.386,44.356z M31.355,44.356
	l-0.858-0.623h1.06l0.328-1.008l0.328,1.008h1.06l-0.857,0.623l0.328,1.008l-0.858-0.623l-0.857,0.623L31.355,44.356z
	 M35.727,47.922l-0.857-0.623l-0.858,0.623l0.328-1.008l-0.858-0.623h1.061l0.328-1.008l0.328,1.008h1.06L35.4,46.914L35.727,47.922
	z M36.257,41.175l-0.858,0.623l0.328,1.008l-0.857-0.623l-0.858,0.623l0.328-1.008l-0.858-0.623h1.061l0.328-1.008l0.328,1.008
	H36.257z M38.711,40.248l-0.857-0.623l-0.858,0.623l0.328-1.008l-0.858-0.623h1.06l0.328-1.008l0.328,1.008h1.06l-0.858,0.623
	L38.711,40.248z M35.727,37.69l-0.857-0.623l-0.858,0.623l0.328-1.008l-0.858-0.623h1.061l0.328-1.009l0.328,1.009h1.06L35.4,36.682
	L35.727,37.69z M38.711,35.131l-0.857-0.623l-0.858,0.623l0.328-1.008L36.466,33.5h1.06l0.328-1.008l0.328,1.008h1.06l-0.858,0.624
	L38.711,35.131z M37.854,27.375l0.328,1.008h1.06l-0.858,0.623l0.328,1.008l-0.857-0.623l-0.858,0.623l0.328-1.008l-0.858-0.623
	h1.06L37.854,27.375z M35.197,30.942h1.06L35.4,31.565l0.327,1.008L34.87,31.95l-0.858,0.623l0.328-1.008l-0.858-0.624h1.061
	l0.328-1.008L35.197,30.942z M31.885,27.375l0.328,1.008h1.06l-0.857,0.623l0.328,1.008l-0.858-0.623l-0.857,0.623l0.328-1.008
	l-0.858-0.623h1.06L31.885,27.375z M29.228,30.942h1.06l-0.858,0.624l0.328,1.008L28.9,31.95l-0.857,0.623l0.327-1.008l-0.857-0.624
	h1.06l0.328-1.008L29.228,30.942z M25.916,27.375l0.328,1.008h1.061l-0.858,0.623l0.328,1.008l-0.858-0.623l-0.857,0.623
	l0.328-1.008l-0.857-0.623h1.06L25.916,27.375z M23.259,30.942h1.06l-0.857,0.624l0.328,1.008l-0.858-0.623l-0.857,0.623
	l0.328-1.008l-0.858-0.624h1.06l0.328-1.008L23.259,30.942z M19.947,27.375l0.327,1.008h1.06l-0.857,0.623l0.328,1.008l-0.857-0.623
	l-0.858,0.623l0.328-1.008l-0.857-0.623h1.06L19.947,27.375z M17.29,30.942h1.06l-0.857,0.624l0.327,1.008l-0.857-0.623
	l-0.857,0.623l0.328-1.008l-0.858-0.624h1.06l0.328-1.008L17.29,30.942z M13.978,27.375l0.328,1.008h1.06l-0.857,0.623l0.327,1.008
	l-0.857-0.623l-0.858,0.623l0.328-1.008l-0.858-0.623h1.061L13.978,27.375z M11.321,30.942h1.06l-0.858,0.624l0.328,1.008
	l-0.857-0.623l-0.858,0.623l0.328-1.008l-0.858-0.624h1.06l0.328-1.008L11.321,30.942z M6.621,28.384h1.06l0.328-1.008l0.328,1.008
	h1.06l-0.857,0.623l0.328,1.008l-0.858-0.623l-0.857,0.623l0.328-1.008L6.621,28.384z M6.621,33.5h1.06l0.328-1.008L8.336,33.5h1.06
	l-0.857,0.623l0.328,1.008l-0.858-0.623l-0.857,0.623l0.328-1.008L6.621,33.5z M9.605,36.059h1.06l0.328-1.009l0.328,1.009h1.06
	l-0.858,0.623l0.328,1.008l-0.857-0.623l-0.858,0.623l0.328-1.008L9.605,36.059z M8.866,40.248l-0.858-0.623l-0.857,0.623
	l0.328-1.008l-0.858-0.623h1.06l0.328-1.008l0.328,1.008h1.06L8.539,39.24L8.866,40.248z M10.993,40.167l0.328,1.008h1.06
	l-0.858,0.623l0.328,1.008l-0.857-0.623l-0.858,0.623l0.328-1.008l-0.858-0.623h1.06L10.993,40.167z M6.621,43.733h1.06l0.328-1.008
	l0.328,1.008h1.06l-0.857,0.623l0.328,1.008l-0.858-0.623l-0.857,0.623l0.328-1.008L6.621,43.733z M8.866,50.48l-0.858-0.623
	L7.151,50.48l0.328-1.008L6.621,48.85h1.06l0.328-1.008l0.328,1.008h1.06l-0.857,0.623L8.866,50.48z M14.835,50.48l-0.857-0.623
	L13.12,50.48l0.328-1.008l-0.858-0.623h1.061l0.328-1.008l0.328,1.008h1.06l-0.857,0.623L14.835,50.48z M20.804,50.48l-0.857-0.623
	l-0.858,0.623l0.328-1.008l-0.857-0.623h1.06l0.328-1.008l0.327,1.008h1.06l-0.857,0.623L20.804,50.48z M26.773,50.48l-0.858-0.623
	l-0.857,0.623l0.328-1.008l-0.857-0.623h1.06l0.328-1.008l0.328,1.008h1.061l-0.858,0.623L26.773,50.48z M32.743,50.48l-0.858-0.623
	l-0.857,0.623l0.328-1.008l-0.858-0.623h1.06l0.328-1.008l0.328,1.008h1.06l-0.857,0.623L32.743,50.48z M38.711,50.48l-0.857-0.623
	l-0.858,0.623l0.328-1.008l-0.858-0.623h1.06l0.328-1.008l0.328,1.008h1.06l-0.858,0.623L38.711,50.48z"/>
<polygon fill="#FFFFFF" points="7.151,30.015 8.008,29.392 8.866,30.015 8.539,29.007 9.396,28.384 8.336,28.384 8.008,27.375 
	7.681,28.384 6.621,28.384 7.479,29.007 "/>
<polygon fill="#FFFFFF" points="13.447,29.007 13.12,30.015 13.978,29.392 14.835,30.015 14.508,29.007 15.365,28.384 
	14.305,28.384 13.978,27.375 13.65,28.384 12.589,28.384 "/>
<polygon fill="#FFFFFF" points="19.417,29.007 19.089,30.015 19.947,29.392 20.804,30.015 20.477,29.007 21.334,28.384 
	20.274,28.384 19.947,27.375 19.619,28.384 18.559,28.384 "/>
<polygon fill="#FFFFFF" points="25.386,29.007 25.058,30.015 25.916,29.392 26.773,30.015 26.446,29.007 27.304,28.384 
	26.243,28.384 25.916,27.375 25.588,28.384 24.528,28.384 "/>
<polygon fill="#FFFFFF" points="31.355,29.007 31.027,30.015 31.885,29.392 32.743,30.015 32.415,29.007 33.272,28.384 
	32.212,28.384 31.885,27.375 31.557,28.384 30.497,28.384 "/>
<polygon fill="#FFFFFF" points="37.324,29.007 36.996,30.015 37.854,29.392 38.711,30.015 38.384,29.007 39.242,28.384 
	38.182,28.384 37.854,27.375 37.526,28.384 36.466,28.384 "/>
<polygon fill="#FFFFFF" points="10.665,30.942 9.605,30.942 10.463,31.565 10.135,32.573 10.993,31.95 11.851,32.573 11.523,31.565 
	12.381,30.942 11.321,30.942 10.993,29.934 "/>
<polygon fill="#FFFFFF" points="16.634,30.942 15.574,30.942 16.432,31.565 16.104,32.573 16.962,31.95 17.819,32.573 
	17.492,31.565 18.35,30.942 17.29,30.942 16.962,29.934 "/>
<polygon fill="#FFFFFF" points="22.604,30.942 21.543,30.942 22.401,31.565 22.074,32.573 22.931,31.95 23.789,32.573 
	23.461,31.565 24.319,30.942 23.259,30.942 22.931,29.934 "/>
<polygon fill="#FFFFFF" points="28.573,30.942 27.513,30.942 28.37,31.565 28.043,32.573 28.9,31.95 29.758,32.573 29.43,31.565 
	30.288,30.942 29.228,30.942 28.9,29.934 "/>
<polygon fill="#FFFFFF" points="34.542,30.942 33.481,30.942 34.339,31.565 34.012,32.573 34.87,31.95 35.727,32.573 35.4,31.565 
	36.257,30.942 35.197,30.942 34.87,29.934 "/>
<polygon fill="#FFFFFF" points="7.151,35.131 8.008,34.508 8.866,35.131 8.539,34.123 9.396,33.5 8.336,33.5 8.008,32.492 
	7.681,33.5 6.621,33.5 7.479,34.124 "/>
<polygon fill="#FFFFFF" points="13.978,34.508 14.835,35.131 14.508,34.124 15.365,33.5 14.305,33.5 13.978,32.492 13.65,33.5 
	12.589,33.5 13.447,34.124 13.12,35.131 "/>
<polygon fill="#FFFFFF" points="19.089,35.131 19.947,34.508 20.804,35.131 20.477,34.123 21.334,33.5 20.274,33.5 19.947,32.492 
	19.619,33.5 18.559,33.5 19.417,34.124 "/>
<polygon fill="#FFFFFF" points="25.058,35.131 25.916,34.508 26.773,35.131 26.446,34.124 27.304,33.5 26.243,33.5 25.916,32.492 
	25.588,33.5 24.528,33.5 25.386,34.123 "/>
<polygon fill="#FFFFFF" points="31.027,35.131 31.885,34.508 32.743,35.131 32.415,34.124 33.272,33.5 32.212,33.5 31.885,32.492 
	31.557,33.5 30.497,33.5 31.355,34.124 "/>
<polygon fill="#FFFFFF" points="39.242,33.5 38.182,33.5 37.854,32.492 37.526,33.5 36.466,33.5 37.324,34.123 36.996,35.131 
	37.854,34.508 38.711,35.131 38.384,34.124 "/>
<polygon fill="#FFFFFF" points="10.135,37.69 10.993,37.067 11.851,37.69 11.523,36.682 12.381,36.059 11.321,36.059 10.993,35.05 
	10.665,36.059 9.605,36.059 10.463,36.682 "/>
<polygon fill="#FFFFFF" points="16.104,37.69 16.962,37.067 17.819,37.69 17.492,36.682 18.35,36.059 17.29,36.059 16.962,35.05 
	16.634,36.059 15.574,36.059 16.432,36.682 "/>
<polygon fill="#FFFFFF" points="22.074,37.69 22.931,37.067 23.789,37.69 23.461,36.682 24.319,36.059 23.259,36.059 22.931,35.05 
	22.604,36.059 21.543,36.059 22.401,36.682 "/>
<polygon fill="#FFFFFF" points="30.288,36.059 29.228,36.059 28.9,35.05 28.573,36.059 27.513,36.059 28.37,36.682 28.043,37.69 
	28.9,37.067 29.758,37.69 29.43,36.682 "/>
<polygon fill="#FFFFFF" points="36.257,36.059 35.197,36.059 34.87,35.05 34.542,36.059 33.481,36.059 34.339,36.682 34.012,37.69 
	34.87,37.067 35.727,37.69 35.4,36.682 "/>
<polygon fill="#FFFFFF" points="8.336,38.617 8.008,37.608 7.681,38.617 6.621,38.617 7.479,39.24 7.151,40.248 8.008,39.625 
	8.866,40.248 8.539,39.24 9.396,38.617 "/>
<polygon fill="#FFFFFF" points="13.447,39.24 13.12,40.248 13.978,39.625 14.835,40.248 14.508,39.24 15.365,38.617 14.305,38.617 
	13.978,37.608 13.65,38.617 12.589,38.617 "/>
<polygon fill="#FFFFFF" points="19.417,39.24 19.089,40.248 19.947,39.625 20.804,40.248 20.477,39.24 21.334,38.617 20.274,38.617 
	19.947,37.608 19.619,38.617 18.559,38.617 "/>
<polygon fill="#FFFFFF" points="26.243,38.617 25.916,37.608 25.588,38.617 24.528,38.617 25.386,39.24 25.058,40.248 
	25.916,39.625 26.773,40.248 26.446,39.24 27.304,38.617 "/>
<polygon fill="#FFFFFF" points="32.212,38.617 31.885,37.608 31.557,38.617 30.497,38.617 31.355,39.24 31.027,40.248 
	31.885,39.625 32.743,40.248 32.415,39.24 33.272,38.617 "/>
<polygon fill="#FFFFFF" points="38.182,38.617 37.854,37.608 37.526,38.617 36.466,38.617 37.324,39.24 36.996,40.248 
	37.854,39.625 38.711,40.248 38.384,39.24 39.242,38.617 "/>
<path fill="#FFFFFF" d="M9.605,41.175l0.858,0.623l-0.328,1.008l0.858-0.623l0.857,0.623l-0.328-1.008l0.858-0.623h-1.06
	l-0.328-1.008l-0.328,1.008H9.605z M10.993,41.625L10.993,41.625L10.993,41.625L10.993,41.625L10.993,41.625L10.993,41.625z"/>
<path fill="#FFFFFF" d="M15.574,41.175l0.858,0.623l-0.328,1.008l0.857-0.623l0.857,0.623l-0.327-1.008l0.857-0.623h-1.06
	l-0.328-1.008l-0.328,1.008H15.574z M16.962,41.625L16.962,41.625L16.962,41.625L16.962,41.625L16.962,41.625L16.962,41.625z"/>
<path fill="#FFFFFF" d="M22.931,40.167l-0.328,1.008h-1.06l0.858,0.623l-0.328,1.008l0.857-0.623l0.858,0.623l-0.328-1.008
	l0.857-0.623h-1.06L22.931,40.167z M22.931,41.625L22.931,41.625L22.931,41.625L22.931,41.625L22.931,41.625L22.931,41.625z"/>
<path fill="#FFFFFF" d="M28.9,40.167l-0.328,1.008h-1.06l0.857,0.623l-0.327,1.008l0.857-0.623l0.858,0.623l-0.328-1.008
	l0.858-0.623h-1.06L28.9,40.167z M28.9,41.625L28.9,41.625L28.9,41.625L28.9,41.625L28.9,41.625L28.9,41.625z"/>
<path fill="#FFFFFF" d="M34.87,40.167l-0.328,1.008h-1.061l0.858,0.623l-0.328,1.008l0.858-0.623l0.857,0.623l-0.328-1.008
	l0.858-0.623h-1.06L34.87,40.167z M34.87,41.625L34.87,41.625L34.87,41.625L34.87,41.625L34.87,41.625L34.87,41.625z"/>
<polygon fill="#FFFFFF" points="7.151,45.364 8.008,44.741 8.866,45.364 8.539,44.356 9.396,43.733 8.336,43.733 8.008,42.725 
	7.681,43.733 6.621,43.733 7.479,44.356 "/>
<polygon fill="#FFFFFF" points="14.835,45.364 14.508,44.356 15.365,43.733 14.305,43.733 13.978,42.725 13.65,43.733 
	12.589,43.733 13.447,44.356 13.12,45.364 13.978,44.741 "/>
<path fill="#FFFFFF" d="M20.804,45.364l-0.328-1.008l0.857-0.623h-1.06l-0.327-1.008l-0.328,1.008h-1.06l0.857,0.623l-0.328,1.008
	l0.858-0.623L20.804,45.364z M19.947,44.184L19.947,44.184L19.947,44.184L19.947,44.184L19.947,44.184z"/>
<polygon fill="#FFFFFF" points="26.773,45.364 26.446,44.356 27.304,43.733 26.243,43.733 25.916,42.725 25.588,43.733 
	24.528,43.733 25.386,44.356 25.058,45.364 25.916,44.741 "/>
<polygon fill="#FFFFFF" points="32.743,45.364 32.415,44.356 33.272,43.733 32.212,43.733 31.885,42.725 31.557,43.733 
	30.497,43.733 31.355,44.356 31.027,45.364 31.885,44.741 "/>
<polygon fill="#FFFFFF" points="39.242,43.733 38.182,43.733 37.854,42.725 37.526,43.733 36.466,43.733 37.324,44.356 
	36.996,45.364 37.854,44.741 38.711,45.364 38.384,44.356 "/>
<polygon fill="#FFFFFF" points="10.463,46.914 10.135,47.922 10.993,47.299 11.851,47.922 11.523,46.914 12.381,46.291 
	11.321,46.291 10.993,45.283 10.665,46.291 9.605,46.291 "/>
<polygon fill="#FFFFFF" points="17.29,46.291 16.962,45.283 16.634,46.291 15.574,46.291 16.432,46.914 16.104,47.922 
	16.962,47.299 17.819,47.922 17.492,46.914 18.35,46.291 "/>
<polygon fill="#FFFFFF" points="23.259,46.291 22.931,45.283 22.604,46.291 21.543,46.291 22.401,46.914 22.074,47.922 
	22.931,47.299 23.789,47.922 23.461,46.914 24.319,46.291 "/>
<polygon fill="#FFFFFF" points="29.228,46.291 28.9,45.283 28.573,46.291 27.513,46.291 28.37,46.914 28.043,47.922 28.9,47.299 
	29.758,47.922 29.43,46.914 30.288,46.291 "/>
<polygon fill="#FFFFFF" points="35.197,46.291 34.87,45.283 34.542,46.291 33.481,46.291 34.339,46.914 34.012,47.922 34.87,47.299 
	35.727,47.922 35.4,46.914 36.257,46.291 "/>
<polygon fill="#FFFFFF" points="8.336,48.85 8.008,47.841 7.681,48.85 6.621,48.85 7.479,49.473 7.151,50.48 8.008,49.858 
	8.866,50.48 8.539,49.473 9.396,48.85 "/>
<polygon fill="#FFFFFF" points="14.305,48.85 13.978,47.841 13.65,48.85 12.589,48.85 13.447,49.473 13.12,50.48 13.978,49.858 
	14.835,50.48 14.508,49.473 15.365,48.85 "/>
<polygon fill="#FFFFFF" points="20.274,48.85 19.947,47.841 19.619,48.85 18.559,48.85 19.417,49.473 19.089,50.48 19.947,49.858 
	20.804,50.48 20.477,49.473 21.334,48.85 "/>
<polygon fill="#FFFFFF" points="26.243,48.85 25.916,47.841 25.588,48.85 24.528,48.85 25.386,49.473 25.058,50.48 25.916,49.858 
	26.773,50.48 26.446,49.473 27.304,48.85 "/>
<polygon fill="#FFFFFF" points="32.212,48.85 31.885,47.841 31.557,48.85 30.497,48.85 31.355,49.473 31.027,50.48 31.885,49.857 
	32.743,50.48 32.415,49.473 33.272,48.85 "/>
<polygon fill="#FFFFFF" points="38.182,48.85 37.854,47.841 37.526,48.85 36.466,48.85 37.324,49.473 36.996,50.48 37.854,49.857 
	38.711,50.48 38.384,49.473 39.242,48.85 "/>
</svg>
