<?xml version="1.0" encoding="utf-8"?>
<!-- Generator: Adobe Illustrator 19.0.0, SVG Export Plug-In . SVG Version: 6.00 Build 0)  -->
<svg version="1.1" id="Layer_1" xmlns="http://www.w3.org/2000/svg" xmlns:xlink="http://www.w3.org/1999/xlink" x="0px" y="0px"
	 width="50px" height="50px" viewBox="0 0 50 50" style="enable-background:new 0 0 50 50;" xml:space="preserve">
<style type="text/css">
	.st0{fill:#5C995C;}
	.st1{clip-path:url(#XMLID_36_);}
	.st2{fill:#FFFFFF;}
</style>
<g>
	<g id="XMLID_34_">
		<circle id="XMLID_54_" class="st0" cx="25" cy="25" r="25"/>
	</g>
	<g>
		<defs>
			<circle id="XMLID_14_" cx="25" cy="25" r="25"/>
		</defs>
		<use xlink:href="#XMLID_14_"  style="overflow:visible;fill:#FF5A54;"/>
		<clipPath id="XMLID_36_">
			<use xlink:href="#XMLID_14_"  style="overflow:visible;"/>
		</clipPath>
		<g class="st1">
			<path class="st2" d="M24.9,18.9c0-2.3-1.9-4.2-4.2-4.2c-2.3,0-4.2,1.9-4.2,4.2s1.9,4.2,4.2,4.2C23,23.2,24.9,21.2,24.9,18.9z
				 M23,18.9c0,1.3-1.1,2.4-2.4,2.4c-1.3,0-2.4-1.1-2.4-2.4s1.1-2.4,2.4-2.4C22,16.5,23,17.6,23,18.9z"/>
			<path class="st2" d="M15.4,25.1c2.4,1.2,4.7,1.8,6,2.1l-1.9,6.4c-0.1,0.5,0.1,1,0.6,1.1c0.1,0,1,0.1,1.1-0.6l2.1-7.4
				c0.1-0.3,0-0.5-0.1-0.8c-0.1-0.2-0.4-0.4-0.7-0.4c-0.1,0-9.1-1.3-13-8c0.5,0.5,5.2,0.1,5.2-4.1c0-2.3-1.9-4.2-4.2-4.2
				c-2.3,0-4.2,1.9-4.2,4.2C6.3,13.9,7.3,21,15.4,25.1z M8.1,13.4c0-1.3,1.1-2.4,2.4-2.4c1.3,0,2.4,1.1,2.4,2.4
				c0,1.3-1.1,2.4-2.4,2.4C8.2,15.8,8.1,13.6,8.1,13.4z"/>
			<path id="XMLID_29_" class="st2" d="M34,33.7c-1.5-0.8-3-0.9-4.4-1.1c-0.5-0.1-1-0.1-1.4-0.2c-3.2-0.6-4.7-3.3-4.7-3.4
				c-0.2-0.4-0.1-1,0.4-1.2c0.4-0.2,1-0.1,1.2,0.4c0,0.1,1.1,2,3.4,2.5c0.4,0.1,0.8,0.1,1.2,0.2c1.4,0.2,3.2,0.4,5,1.3
				c0.5,0.2,0.6,0.8,0.4,1.2C34.8,34,34.1,33.7,34,33.7z"/>
			<path id="XMLID_19_" class="st2" d="M15.6,26.2c0.5,0.2,0.7,0.8,0.4,1.2c0,0-1.6,3.4-0.5,6.1c0.4,1.1,1.3,1.9,2.6,2.5
				c0.9,0.4,1.9,0.4,7.6-0.7c6.9-1.4,13.4,1.7,15.7,4.2c0.3,0.4,0.3,1-0.1,1.3c-0.5,0.4-1.1,0.1-1.3-0.1c-2-2.2-7.7-4.9-13.9-3.6
				c-5.9,1.2-7.2,1.2-8.6,0.7c-1.8-0.7-3-1.9-3.7-3.5c-1.3-3.4,0.5-7.3,0.6-7.5C14.6,26.1,15.2,25.9,15.6,26.2z"/>
		</g>
	</g>
</g>
</svg>
