<?xml version="1.0" encoding="utf-8"?>
<!-- Generator: Adobe Illustrator 16.0.0, SVG Export Plug-In . SVG Version: 6.00 Build 0)  -->
<!DOCTYPE svg PUBLIC "-//W3C//DTD SVG 1.1//EN" "http://www.w3.org/Graphics/SVG/1.1/DTD/svg11.dtd">
<svg version="1.1" id="Layer_1" xmlns="http://www.w3.org/2000/svg" xmlns:xlink="http://www.w3.org/1999/xlink" x="0px" y="0px"
	 width="1000px" height="1000px" viewBox="0 0 1000 1000" enable-background="new 0 0 1000 1000" xml:space="preserve">
<path fill="#225412" fill-rule="evenodd" clip-rule="evenodd" d="M627.45,540.242c5.273,18.213,10.718,36.396,15.775,54.666
	c13.183,47.628,26.722,95.167,39.119,143.007c6.669,25.794-0.685,33.988-27.79,34.344c-10.359,0.127-20.719,0.015-33.189,0.015
	c0,27.901,0.028,54.011-0.016,80.117c-0.028,24.511,0.656,49.052-0.398,73.504c-1.396,32.036-24.34,52.158-56.518,51.188
	c-31.18-0.939-52.308-22.06-52.527-53.454c-0.329-46.1-0.171-92.187-0.058-138.287c0.021-8.595-0.343-15.904-14.058-10.875
	c0,38.335,0.007,77.296,0,116.259c0,9.934,0.021,19.851-0.008,29.769c-0.115,34.431-19.887,55.251-53.255,56.063
	c-34.088,0.84-56.255-19.624-56.839-54.539c-0.754-45.502-0.164-91.033-0.199-136.55c-0.005-3.449-0.391-6.911-0.761-13.226
	c-11.608,0-23.029,0.372-34.41-0.084c-28.771-1.111-35.455-12.184-26.883-39.033c20.65-64.712,40.315-129.753,60.274-194.692
	c0.812-2.638,0.549-5.631-1.94-9.705c-16.835,28.075-32.513,56.96-51.108,83.81c-7.227,10.431-20.031,19.908-32.137,23.355
	c-16.666,4.731-31.75-3.848-41.619-18.954c-10.104-15.446-8.123-30.95,0.805-46.001c28.531-48.053,57.239-96.006,85.917-143.98
	c12.242-20.479,24.526-40.935,36.91-61.329c13.717-22.616,33.553-35.071,60.31-35.228c40.827-0.243,81.655-0.449,122.469-0.214
	c25.708,0.143,46.644,10.739,60.024,32.834c41.312,68.218,82.313,136.636,122.813,205.339c20.55,34.828,2.252,67.962-36.711,68.162
	c-15.76,0.07-25.964-9.064-33.601-21.435c-12.886-20.777-25.239-41.869-37.909-62.788c-2.85-4.674-6.098-9.122-9.177-13.667
	C629.659,539.174,628.562,539.7,627.45,540.242z"/>
<path fill="#225412" d="M500.486,95.396c1.425,5.322,2.252,10.297,2.717,14.442c0.722,6.451-3.805,12.313-10.229,13.25l-59.462,15.773
	l-31.887,52.719c-2.754,5.827-9.589,8.456-15.534,5.966c-0.589-0.247-1.197-0.51-1.818-0.784c-0.092,1.823-0.139,3.658-0.139,5.504
	c0,59.237,48.021,107.259,107.259,107.259c59.237,0,107.258-48.021,107.258-107.259C598.651,146.092,555.467,100.012,500.486,95.396
	z"/>
<path fill="#225412" d="M394.224,178.429l30.517-50.454l56.909-15.096c6.147-0.897,10.48-6.507,9.788-12.681c-0.444-3.968-1.236-8.729-2.6-13.822
	c-2.125-7.934-5.654-16.68-11.526-24.532c-9.645-12.898-23.385-20.441-32.8-24.404c-5.73-2.414-12.33,0.156-14.932,5.805
	l-25.637,55.658l-61.959,9.664c-6.088,0.95-10.359,6.521-9.681,12.646c1.123,10.152,4.457,25.538,14.141,38.487
	c9.099,12.169,21.853,19.567,31.173,23.69c0.594,0.263,1.176,0.514,1.74,0.75C385.046,186.521,391.587,184.005,394.224,178.429z"/>
</svg>
