<?xml version="1.0" encoding="utf-8"?>
<!-- Generator: Adobe Illustrator 15.0.0, SVG Export Plug-In . SVG Version: 6.00 Build 0)  -->
<!DOCTYPE svg PUBLIC "-//W3C//DTD SVG 1.1//EN" "http://www.w3.org/Graphics/SVG/1.1/DTD/svg11.dtd">
<svg version="1.1" id="Слой_1" xmlns="http://www.w3.org/2000/svg" xmlns:xlink="http://www.w3.org/1999/xlink" x="0px" y="0px"
	 width="1000px" height="1000px" viewBox="0 0 1000 1000" enable-background="new 0 0 1000 1000" xml:space="preserve">
<polygon fill="#00416F" points="298.664,261.774 298.664,439.339 357.853,498.527 417.041,498.527 357.853,261.774 "/>
<polygon fill="#38541D" points="653.794,261.774 653.794,439.339 594.605,498.527 535.417,498.527 594.605,261.774 "/>
<polygon fill="#007DBA" points="298.242,202.58 340.09,160.738 381.943,202.586 340.097,244.435 "/>
<polygon fill="#D4642B" points="475.802,25.021 433.953,66.87 475.807,108.72 517.661,66.87 "/>
<polygon fill="#759339" points="569.665,202.586 611.512,160.738 653.371,202.586 611.518,244.435 "/>
<polygon fill="#872A1E" points="505.823,498.527 565.012,143.398 387.447,143.398 446.635,498.527 "/>
<polygon fill="#007DBA" points="298.664,261.774 298.664,409.745 357.853,320.963 476.229,350.557 357.853,261.774 "/>
<polygon fill="#759339" points="653.794,409.745 653.794,261.774 594.605,350.557 476.229,320.963 594.605,409.745 "/>
<polygon fill="#D4642B" points="387.447,143.398 476.229,143.398 565.012,143.398 476.229,202.586 476.229,291.369 "/>
<g>
	<defs>
		<rect id="SVGID_1_" x="168.282" y="25.021" width="615.888" height="948.504"/>
	</defs>
	<clipPath id="SVGID_2_">
		<use xlink:href="#SVGID_1_"  overflow="visible"/>
	</clipPath>
	<path clip-path="url(#SVGID_2_)" fill="#333233" d="M322.796,724.389c0,6.393-0.606,12.146-1.82,17.259
		c-1.214,5.115-3.209,9.52-5.983,13.214c-2.78,3.695-6.381,6.534-10.79,8.522c-4.422,1.988-9.908,2.982-16.462,2.982
		c-5.983,0-11.186-0.853-15.601-2.558c-4.417-1.705-8.052-4.081-10.902-7.139c-2.849-3.052-4.953-6.638-6.306-10.759
		c-1.353-4.119-2.029-8.593-2.029-13.425l16.832-3.407c0,2.844,0.284,5.505,0.855,7.988c0.566,2.488,1.526,4.725,2.879,6.713
		c1.347,1.992,3.19,3.553,5.537,4.688c2.341,1.138,5.219,1.705,8.63,1.705c4.261,0,7.636-0.674,10.121-2.026
		c2.485-1.347,4.329-3.197,5.537-5.541c1.208-2.343,1.954-5.077,2.243-8.201c0.283-3.124,0.421-6.394,0.421-9.804
		c0-4.398-0.213-7.99-0.636-10.759c-0.427-2.771-1.352-5.182-2.773-7.246c-1.423-2.055-3.446-3.866-6.069-5.433
		c-2.63-1.561-6.146-3.266-10.55-5.113c-6.958-2.984-12.536-5.999-16.727-9.057c-4.19-3.052-7.422-6.249-9.693-9.589
		c-2.271-3.335-3.77-6.888-4.474-10.653c-0.712-3.76-1.069-7.916-1.069-12.465c0-5.679,0.717-10.898,2.139-15.661
		c1.427-4.757,3.595-8.875,6.52-12.358c2.919-3.479,6.59-6.178,11.005-8.097c4.417-1.917,9.549-2.876,15.393-2.876
		c6.416,0,11.792,0.997,16.139,2.982c4.347,1.991,7.831,4.58,10.474,7.777c2.636,3.195,4.484,6.711,5.554,10.548
		c1.069,3.836,1.607,7.602,1.607,11.291l-16.838,4.264c0-6.676-1.352-11.826-4.046-15.45c-2.699-3.621-7.317-5.434-13.849-5.434
		c-3.699,0-6.641,0.714-8.843,2.133c-2.203,1.419-3.943,3.234-5.221,5.434c-1.282,2.205-2.132,4.652-2.56,7.35
		c-0.423,2.702-0.637,5.329-0.637,7.884c0,3.127,0.174,5.86,0.532,8.205c0.358,2.344,1.318,4.548,2.89,6.604
		c1.566,2.061,3.884,4.086,6.953,6.073c3.063,1.992,7.382,4.047,12.948,6.18c6.415,2.555,11.514,5.22,15.294,7.991
		c3.78,2.769,6.664,5.857,8.664,9.269c2,3.407,3.277,7.242,3.85,11.506C322.507,714.163,322.796,718.996,322.796,724.389"/>
	<path clip-path="url(#SVGID_2_)" fill="#333233" d="M414.631,725.029c0,9.804-1.353,17.829-4.052,24.077l11.936,9.59l-8.312,10.229
		l-11.509-9.162c-5.537,4.401-12.924,6.604-22.16,6.604c-12.214,0-20.953-3.335-26.208-10.014
		c-5.254-6.676-7.884-15.479-7.884-26.421v-73.086c0-5.252,0.463-10.368,1.388-15.341c0.919-4.974,2.623-9.41,5.115-13.317
		c2.479-3.907,5.924-7.031,10.328-9.375c4.404-2.345,10.156-3.518,17.261-3.518c7.387,0,13.317,1.034,17.796,3.089
		c4.475,2.061,7.913,4.937,10.336,8.63c2.41,3.694,4.011,8.025,4.791,12.999c0.78,4.975,1.174,10.439,1.174,16.407V725.029z
		 M397.793,653.816c0-2.552-0.179-5.171-0.531-7.867c-0.354-2.693-1.099-5.144-2.237-7.34c-1.139-2.197-2.873-4.038-5.22-5.526
		c-2.341-1.488-5.434-2.233-9.271-2.233c-4.261,0-7.526,1.028-9.798,3.077c-2.277,2.055-3.982,4.497-5.116,7.326
		c-1.138,2.833-1.809,5.841-2.021,9.023c-0.215,3.188-0.325,5.837-0.325,7.962v71.766c0,2.124,0.215,4.393,0.643,6.797
		c0.427,2.405,1.277,4.668,2.555,6.795c1.283,2.124,3.017,3.855,5.225,5.199c2.196,1.344,5.076,2.018,8.63,2.018
		c3.688,0,6.671-0.639,8.948-1.916l-12.572-10.442l8.312-10.014l11.503,9.375c0.855-3.118,1.277-6.661,1.277-10.632V653.816z"/>
	<path clip-path="url(#SVGID_2_)" fill="#333233" d="M508.789,616.786v108.243c0,13.212-2.562,23.407-7.677,30.578
		c-5.109,7.175-13.919,10.759-26.42,10.759c-12.221,0-20.953-3.335-26.208-10.014c-5.254-6.676-7.884-15.482-7.884-26.421V616.786
		h16.831v113.178c0,2.126,0.215,4.398,0.642,6.809c0.428,2.41,1.278,4.68,2.556,6.809c1.277,2.128,3.017,3.867,5.219,5.211
		c2.202,1.35,5.08,2.021,8.63,2.021s6.462-0.712,8.739-2.128c2.272-1.419,4.047-3.225,5.324-5.424
		c1.282-2.197,2.167-4.717,2.664-7.555c0.497-2.836,0.746-5.742,0.746-8.723V616.786H508.789z"/>
	<path clip-path="url(#SVGID_2_)" fill="#333233" d="M592.739,764.875l-6.821-33.027h-33.027l-6.601,33.027h-16.199l31.539-148.304
		h15.769l31.958,148.304H592.739z M568.872,647.045l-6.178,34.517l-7.029,34.731h27.271l-7.242-35.157l-5.965-34.091H568.872z"/>
	<path clip-path="url(#SVGID_2_)" fill="#333233" d="M665.776,616.574c8.779,0,15.716,1.526,20.819,4.582
		c5.093,3.054,8.635,8.201,10.618,15.443c1.561,5.968,2.336,13.355,2.336,22.164v31.748v31.004c0,8.451-0.92,15.589-2.757,21.413
		c-2.695,8.383-6.977,14.135-12.856,17.259c-5.878,3.127-12.565,4.688-20.073,4.688h-32.496V616.574H665.776z M682.718,653.608
		c0-6.661-1.422-11.91-4.261-15.739c-2.843-3.826-7.883-5.74-15.125-5.74h-15.133V749.32h15.133c6.953,0,11.93-1.913,14.912-5.742
		s4.474-9.288,4.474-16.378V653.608z"/>
	<rect x="168.282" y="823.731" clip-path="url(#SVGID_2_)" fill="#333233" width="16.838" height="148.302"/>
	<polygon clip-path="url(#SVGID_2_)" fill="#333233" points="228.73,870.608 228.73,972.033 211.899,972.033 211.899,823.731 
		227.881,823.731 258.562,898.948 268.792,926.011 269.643,925.796 269.643,823.731 286.474,823.731 286.474,972.033 
		270.705,972.033 240.025,897.456 229.373,870.608 	"/>
	<polygon clip-path="url(#SVGID_2_)" fill="#333233" points="394.718,839.285 394.718,972.033 377.886,972.033 377.886,839.285 
		352.743,839.285 352.743,823.731 419.861,823.731 419.861,839.285 	"/>
	<path clip-path="url(#SVGID_2_)" fill="#333233" d="M507.045,932.189c0,13.21-2.589,23.406-7.771,30.576
		c-5.191,7.176-14.034,10.76-26.531,10.76c-12.219,0-20.917-3.335-26.103-10.014c-5.186-6.677-7.774-15.482-7.774-26.422v-73.086
		c0-5.254,0.457-10.367,1.382-15.344c0.925-4.97,2.629-9.407,5.115-13.317c2.485-3.904,5.93-7.031,10.334-9.375
		c4.399-2.344,10.156-3.514,17.261-3.514c7.387,0,13.317,1.031,17.79,3.089c4.475,2.061,7.92,4.939,10.335,8.63
		c2.417,3.697,4.012,8.025,4.792,12.997c0.78,4.977,1.17,10.441,1.17,16.406V932.189z M490.217,860.94
		c0-2.546-0.179-5.167-0.531-7.858c-0.359-2.69-1.104-5.129-2.237-7.323c-1.139-2.193-2.878-4.037-5.22-5.521
		c-2.347-1.484-5.434-2.23-9.271-2.23c-4.261,0-7.532,1.029-9.804,3.081c-2.272,2.052-3.977,4.494-5.115,7.323
		c-1.133,2.829-1.809,5.84-2.023,9.022c-0.214,3.185-0.318,5.841-0.318,7.962v71.767c0,2.124,0.215,4.393,0.643,6.795
		c0.422,2.407,1.277,4.67,2.555,6.794c1.277,2.127,3.017,3.858,5.22,5.199c2.201,1.347,5.081,2.021,8.629,2.021
		c3.55,0,6.462-0.709,8.74-2.122c2.265-1.416,4.046-3.22,5.323-5.413s2.168-4.707,2.664-7.537c0.497-2.829,0.746-5.733,0.746-8.711
		V860.94z"/>
	<path clip-path="url(#SVGID_2_)" fill="#333233" d="M600.715,823.944v108.245c0,13.21-2.555,23.406-7.67,30.576
		c-5.115,7.176-13.925,10.76-26.422,10.76c-12.219,0-20.957-3.335-26.206-10.014c-5.259-6.677-7.884-15.482-7.884-26.422V823.944
		h16.831v113.178c0,2.127,0.215,4.398,0.636,6.81c0.429,2.41,1.283,4.679,2.562,6.809c1.277,2.127,3.017,3.866,5.219,5.211
		c2.202,1.35,5.075,2.021,8.63,2.021c3.549,0,6.462-0.712,8.733-2.128c2.271-1.419,4.053-3.225,5.33-5.424
		c1.277-2.197,2.162-4.717,2.664-7.555c0.497-2.835,0.746-5.743,0.746-8.723V823.944H600.715z"/>
	<path clip-path="url(#SVGID_2_)" fill="#333233" d="M659.504,822.454c11.503,0,19.85,3.124,25.034,9.375
		c5.185,6.254,7.78,14.421,7.78,24.504l-16.838,2.982c0.145-6.53-1.028-11.718-3.514-15.554c-2.485-3.834-6.711-5.754-12.676-5.754
		c-3.41,0-6.18,0.783-8.312,2.344c-2.134,1.566-3.805,3.518-5.006,5.861c-1.208,2.344-2.023,4.936-2.451,7.776
		c-0.428,2.845-0.642,5.541-0.642,8.096v74.792c0,2.129,0.214,4.441,0.642,6.924c0.428,2.485,1.243,4.764,2.451,6.818
		c1.201,2.061,2.838,3.803,4.901,5.222c2.058,1.419,4.792,2.131,8.198,2.131c5.541,0,9.628-1.705,12.258-5.116
		c2.624-3.407,4.011-8.806,4.149-16.192l17.257,2.982c-0.28,10.655-3.159,18.965-8.627,24.933
		c-5.468,5.965-13.67,8.947-24.606,8.947c-11.225,0-19.605-3.121-25.143-9.375c-5.544-6.249-8.313-15.058-8.313-26.422v-73.3
		c0-5.251,0.457-10.403,1.388-15.447c0.919-5.041,2.59-9.514,5.003-13.424c2.419-3.904,5.824-7.063,10.229-9.482
		C647.072,823.662,652.685,822.454,659.504,822.454"/>
	<polygon clip-path="url(#SVGID_2_)" fill="#333233" points="767.339,972.033 767.339,903.636 732.819,903.636 732.819,972.033 
		715.988,972.033 715.988,823.731 732.819,823.731 732.819,888.934 767.339,888.934 767.339,823.731 784.167,823.731 
		784.167,972.033 	"/>
</g>
</svg>
