<?xml version="1.0" encoding="UTF-8" standalone="no"?>
<!-- Created with Inkscape (http://www.inkscape.org/) -->

<svg
   xmlns:dc="http://purl.org/dc/elements/1.1/"
   xmlns:cc="http://creativecommons.org/ns#"
   xmlns:rdf="http://www.w3.org/1999/02/22-rdf-syntax-ns#"
   xmlns:svg="http://www.w3.org/2000/svg"
   xmlns="http://www.w3.org/2000/svg"
   xmlns:sodipodi="http://sodipodi.sourceforge.net/DTD/sodipodi-0.dtd"
   xmlns:inkscape="http://www.inkscape.org/namespaces/inkscape"
   width="89.041428mm"
   height="38.805557mm"
   viewBox="0 0 315.50112 137.50001"
   id="svg4208"
   version="1.1"
   inkscape:version="0.91 r13725"
   sodipodi:docname="big-logo.svg">
  <defs
     id="defs4210">
    <clipPath
       clipPathUnits="userSpaceOnUse"
       id="clipPath702">
      <path
         d="m 0,1984.25 3401.57,0 L 3401.57,0 0,0 0,1984.25 Z"
         id="path704"
         inkscape:connector-curvature="0" />
    </clipPath>
  </defs>
  <sodipodi:namedview
     id="base"
     pagecolor="#ffffff"
     bordercolor="#666666"
     borderopacity="1.0"
     inkscape:pageopacity="0.0"
     inkscape:pageshadow="2"
     inkscape:zoom="0.35"
     inkscape:cx="141.32203"
     inkscape:cy="3.0357453"
     inkscape:document-units="px"
     inkscape:current-layer="layer1"
     showgrid="false"
     fit-margin-top="0"
     fit-margin-left="0"
     fit-margin-right="0"
     fit-margin-bottom="0"
     inkscape:window-width="1280"
     inkscape:window-height="1000"
     inkscape:window-x="0"
     inkscape:window-y="0"
     inkscape:window-maximized="1" />
  <metadata
     id="metadata4213">
    <rdf:RDF>
      <cc:Work
         rdf:about="">
        <dc:format>image/svg+xml</dc:format>
        <dc:type
           rdf:resource="http://purl.org/dc/dcmitype/StillImage" />
        <dc:title></dc:title>
      </cc:Work>
    </rdf:RDF>
  </metadata>
  <g
     inkscape:label="Layer 1"
     inkscape:groupmode="layer"
     id="layer1"
     transform="translate(-233.67798,-397.89795)">
    <g
       clip-path="url(#clipPath702)"
       id="g700"
       transform="matrix(1.25,0,0,-1.25,-2078.9649,2793.5017)">
      <g
         transform="translate(1850.2129,1861.6558)"
         id="g706">
        <path
           inkscape:connector-curvature="0"
           id="path708"
           style="fill:#004071;fill-opacity:1;fill-rule:nonzero;stroke:none"
           d="m 0,0 0,-41.12 13.707,-13.707 13.707,0 L 13.707,0 0,0 Z" />
      </g>
      <g
         transform="translate(1932.4531,1861.6558)"
         id="g710">
        <path
           inkscape:connector-curvature="0"
           id="path712"
           style="fill:#004071;fill-opacity:1;fill-rule:nonzero;stroke:none"
           d="m 0,0 0,-41.12 -13.707,-13.707 -13.707,0 L -13.707,0 0,0 Z" />
      </g>
      <g
         transform="translate(1850.1143,1875.3643)"
         id="g714">
        <path
           inkscape:connector-curvature="0"
           id="path716"
           style="fill:#ffffff;fill-opacity:1;fill-rule:nonzero;stroke:none"
           d="M 0,0 9.691,9.689 19.384,-0.001 9.692,-9.692 0,0 Z" />
      </g>
      <g
         transform="translate(1881.542,1906.792)"
         id="g718">
        <path
           inkscape:connector-curvature="0"
           id="path720"
           style="fill:#ffffff;fill-opacity:1;fill-rule:nonzero;stroke:none"
           d="M 0,0 9.691,9.691 19.386,0 9.692,-9.692 0,0 Z" />
      </g>
      <g
         transform="translate(1912.9707,1875.3628)"
         id="g722">
        <path
           inkscape:connector-curvature="0"
           id="path724"
           style="fill:#ffffff;fill-opacity:1;fill-rule:nonzero;stroke:none"
           d="M 0,0 9.691,9.691 19.385,0 9.692,-9.691 0,0 Z" />
      </g>
      <g
         transform="translate(1898.1855,1806.8286)"
         id="g726">
        <path
           inkscape:connector-curvature="0"
           id="path728"
           style="fill:#004071;fill-opacity:1;fill-rule:nonzero;stroke:none"
           d="m 0,0 13.707,82.241 -41.12,0 L -13.707,0 0,0 Z" />
      </g>
      <g
         transform="translate(1850.2119,1861.6558)"
         id="g730">
        <path
           inkscape:connector-curvature="0"
           id="path732"
           style="fill:#ffffff;fill-opacity:1;fill-rule:nonzero;stroke:none"
           d="M 0,0 0,-34.267 13.707,-13.707 41.12,-20.56 13.707,0 0,0 Z" />
      </g>
      <g
         transform="translate(1932.4531,1827.3892)"
         id="g734">
        <path
           inkscape:connector-curvature="0"
           id="path736"
           style="fill:#ffffff;fill-opacity:1;fill-rule:nonzero;stroke:none"
           d="M 0,0 0,34.267 -13.707,13.707 -41.121,20.56 -13.707,0 0,0 Z" />
      </g>
      <g
         transform="translate(1870.7725,1889.0693)"
         id="g738">
        <path
           inkscape:connector-curvature="0"
           id="path740"
           style="fill:#ffffff;fill-opacity:1;fill-rule:nonzero;stroke:none"
           d="m 0,0 20.56,0 20.56,0 -20.56,-13.707 0,-20.56 L 0,0 Z" />
      </g>
      <g
         transform="translate(1975.624,1864.1777)"
         id="g742">
        <path
           inkscape:connector-curvature="0"
           id="path744"
           style="fill:#ffffff;fill-opacity:1;fill-rule:nonzero;stroke:none"
           d="m 0,0 c 0,-1.48 -0.141,-2.813 -0.421,-3.997 -0.281,-1.184 -0.742,-2.204 -1.387,-3.06 -0.642,-0.855 -1.476,-1.513 -2.498,-1.973 -1.023,-0.46 -2.295,-0.691 -3.811,-0.691 -1.387,0 -2.591,0.198 -3.612,0.592 -1.025,0.395 -1.866,0.945 -2.526,1.653 -0.659,0.707 -1.146,1.538 -1.46,2.492 -0.313,0.954 -0.471,1.99 -0.471,3.109 l 3.9,0.79 c 0,-0.659 0.064,-1.276 0.196,-1.851 0.131,-0.576 0.354,-1.094 0.667,-1.554 0.312,-0.462 0.74,-0.823 1.281,-1.086 0.544,-0.264 1.21,-0.395 1.999,-0.395 0.988,0 1.769,0.156 2.345,0.469 0.574,0.312 1.003,0.74 1.283,1.283 0.278,0.543 0.452,1.176 0.518,1.9 0.065,0.723 0.1,1.48 0.1,2.27 0,1.019 -0.05,1.85 -0.15,2.491 -0.099,0.642 -0.313,1.201 -0.64,1.678 -0.33,0.477 -0.798,0.896 -1.408,1.258 -0.609,0.362 -1.423,0.757 -2.441,1.184 -1.613,0.692 -2.904,1.39 -3.875,2.098 -0.97,0.707 -1.719,1.447 -2.245,2.22 -0.527,0.773 -0.871,1.596 -1.036,2.468 -0.164,0.871 -0.246,1.833 -0.246,2.886 0,1.315 0.165,2.525 0.494,3.627 0.33,1.102 0.834,2.056 1.51,2.862 0.676,0.806 1.525,1.431 2.549,1.875 1.023,0.444 2.21,0.666 3.564,0.666 1.486,0 2.73,-0.23 3.738,-0.69 1.006,-0.462 1.814,-1.061 2.424,-1.802 0.611,-0.74 1.04,-1.554 1.287,-2.442 C -0.124,19.441 0,18.569 0,17.714 l -3.897,-0.986 c 0,1.546 -0.314,2.738 -0.94,3.577 -0.625,0.839 -1.694,1.258 -3.207,1.258 -0.855,0 -1.537,-0.165 -2.048,-0.493 -0.51,-0.329 -0.913,-0.749 -1.208,-1.258 -0.297,-0.511 -0.494,-1.078 -0.592,-1.703 -0.099,-0.625 -0.148,-1.233 -0.148,-1.825 0,-0.724 0.041,-1.357 0.123,-1.9 0.082,-0.543 0.305,-1.053 0.669,-1.53 0.363,-0.477 0.9,-0.946 1.61,-1.406 0.71,-0.461 1.709,-0.938 2.998,-1.431 1.487,-0.592 2.666,-1.209 3.543,-1.85 C -2.222,7.525 -1.553,6.81 -1.091,6.02 -0.628,5.23 -0.331,4.342 -0.198,3.355 -0.067,2.369 0,1.25 0,0" />
      </g>
      <g
         transform="translate(1992.9932,1880.5215)"
         id="g746">
        <path
           inkscape:connector-curvature="0"
           id="path748"
           style="fill:#ffffff;fill-opacity:1;fill-rule:nonzero;stroke:none"
           d="M 0,0 C 0,0.591 -0.042,1.197 -0.124,1.822 -0.206,2.446 -0.379,3.013 -0.642,3.521 -0.905,4.03 -1.308,4.457 -1.851,4.801 -2.394,5.146 -3.108,5.318 -3.997,5.318 -4.984,5.318 -5.741,5.08 -6.268,4.605 -6.794,4.13 -7.188,3.564 -7.452,2.909 -7.715,2.253 -7.871,1.557 -7.921,0.82 -7.97,0.082 -7.994,-0.533 -7.994,-1.024 l 0,-16.62 c 0,-0.492 0.05,-1.017 0.147,-1.573 0.099,-0.558 0.297,-1.082 0.593,-1.574 0.296,-0.492 0.698,-0.893 1.209,-1.204 0.51,-0.312 1.176,-0.467 1.998,-0.467 0.856,0 1.546,0.148 2.072,0.443 l -2.911,2.418 1.925,2.32 2.665,-2.172 C -0.099,-18.731 0,-17.91 0,-16.99 L 0,0 Z m 3.897,-16.492 c 0,-2.27 -0.312,-4.129 -0.936,-5.576 l 2.763,-2.22 -1.925,-2.369 -2.664,2.122 c -1.284,-1.02 -2.994,-1.529 -5.132,-1.529 -2.83,0 -4.854,0.772 -6.07,2.318 -1.217,1.546 -1.826,3.586 -1.826,6.12 l 0,16.924 c 0,1.217 0.107,2.401 0.321,3.553 0.214,1.151 0.609,2.179 1.184,3.084 0.576,0.905 1.373,1.628 2.394,2.171 1.018,0.543 2.352,0.814 3.997,0.814 1.71,0 3.084,-0.238 4.12,-0.715 C 1.159,7.728 1.957,7.062 2.517,6.207 3.075,5.351 3.445,4.348 3.626,3.197 3.807,2.045 3.897,0.779 3.897,-0.603 l 0,-15.889 z" />
      </g>
      <g
         transform="translate(2018.6953,1889.0967)"
         id="g750">
        <path
           inkscape:connector-curvature="0"
           id="path752"
           style="fill:#ffffff;fill-opacity:1;fill-rule:nonzero;stroke:none"
           d="m 0,0 0,-25.067 c 0,-3.059 -0.592,-5.42 -1.775,-7.081 -1.186,-1.662 -3.225,-2.492 -6.12,-2.492 -2.83,0 -4.853,0.773 -6.069,2.319 -1.218,1.546 -1.825,3.586 -1.825,6.119 l 0,26.202 3.898,0 0,-26.209 c 0,-0.494 0.049,-1.019 0.147,-1.577 0.099,-0.559 0.297,-1.084 0.594,-1.577 0.295,-0.493 0.697,-0.895 1.208,-1.206 0.509,-0.313 1.174,-0.469 1.999,-0.469 0.821,0 1.496,0.164 2.021,0.493 0.527,0.329 0.94,0.747 1.235,1.256 0.296,0.509 0.5,1.092 0.617,1.749 0.115,0.657 0.173,1.331 0.173,2.02 L -3.897,0 0,0 Z" />
      </g>
      <g
         transform="translate(2032.6113,1882.0898)"
         id="g754">
        <path
           inkscape:connector-curvature="0"
           id="path756"
           style="fill:#ffffff;fill-opacity:1;fill-rule:nonzero;stroke:none"
           d="m 0,0 -1.432,-7.994 -1.628,-8.043 6.316,0 L 1.578,-7.896 0.197,0 0,0 Z m 5.525,-27.288 -1.578,7.649 -7.648,0 -1.529,-7.649 -3.751,0 7.302,34.344 3.652,0 7.402,-34.344 -3.85,0 z" />
      </g>
      <g
         transform="translate(2058.9746,1880.5693)"
         id="g758">
        <path
           inkscape:connector-curvature="0"
           id="path760"
           style="fill:#ffffff;fill-opacity:1;fill-rule:nonzero;stroke:none"
           d="m 0,0 c 0,1.543 -0.329,2.758 -0.986,3.645 -0.66,0.886 -1.827,1.33 -3.504,1.33 l -3.504,0 0,-27.14 3.504,0 c 1.612,0 2.763,0.443 3.454,1.33 0.691,0.887 1.036,2.15 1.036,3.793 L 0,0 Z m -3.922,8.577 c 2.031,0 3.639,-0.354 4.82,-1.061 1.18,-0.708 1.999,-1.9 2.459,-3.578 0.362,-1.381 0.541,-3.092 0.541,-5.131 l 0,-7.353 0,-7.18 c 0,-1.957 -0.213,-3.61 -0.639,-4.959 -0.624,-1.941 -1.615,-3.273 -2.977,-3.997 -1.36,-0.723 -2.91,-1.085 -4.647,-1.085 l -7.528,0 0,34.344 7.971,0 z" />
      </g>
      <path
         inkscape:connector-curvature="0"
         id="path762"
         style="fill:#ffffff;fill-opacity:1;fill-rule:nonzero;stroke:none"
         d="m 1959.889,1841.172 3.898,0 0,-34.343 -3.898,0 0,34.343 z" />
      <g
         transform="translate(1973.8867,1830.3164)"
         id="g764">
        <path
           inkscape:connector-curvature="0"
           id="path766"
           style="fill:#ffffff;fill-opacity:1;fill-rule:nonzero;stroke:none"
           d="m 0,0 0,-23.488 -3.898,0 0,34.343 3.701,0 7.105,-17.418 2.369,-6.267 0.198,0.05 0,23.635 3.897,0 0,-34.343 -3.651,0 L 2.615,-6.217 0.148,0 0,0 Z" />
      </g>
      <g
         transform="translate(2012.3262,1837.5703)"
         id="g768">
        <path
           inkscape:connector-curvature="0"
           id="path770"
           style="fill:#ffffff;fill-opacity:1;fill-rule:nonzero;stroke:none"
           d="m 0,0 0,-30.742 -3.898,0 0,30.742 -5.823,0 0,3.602 15.543,0 L 5.822,0 0,0 Z" />
      </g>
      <g
         transform="translate(2034.4414,1832.5557)"
         id="g772">
        <path
           inkscape:connector-curvature="0"
           id="path774"
           style="fill:#ffffff;fill-opacity:1;fill-rule:nonzero;stroke:none"
           d="M 0,0 C 0,0.589 -0.041,1.196 -0.123,1.819 -0.206,2.442 -0.379,3.008 -0.642,3.516 -0.905,4.023 -1.308,4.45 -1.85,4.794 -2.394,5.138 -3.108,5.311 -3.997,5.311 -4.983,5.311 -5.741,5.072 -6.268,4.598 -6.793,4.122 -7.188,3.556 -7.451,2.901 -7.715,2.246 -7.871,1.549 -7.92,0.812 -7.969,0.074 -7.994,-0.541 -7.994,-1.033 l 0,-16.619 c 0,-0.492 0.05,-1.016 0.148,-1.573 0.099,-0.558 0.296,-1.082 0.592,-1.574 0.296,-0.492 0.699,-0.893 1.209,-1.204 0.51,-0.311 1.177,-0.468 1.998,-0.468 0.822,0 1.497,0.164 2.025,0.492 0.525,0.328 0.936,0.746 1.232,1.253 0.297,0.508 0.502,1.091 0.617,1.746 0.115,0.655 0.173,1.328 0.173,2.017 L 0,0 Z m 3.897,-16.5 c 0,-3.059 -0.599,-5.42 -1.799,-7.081 -1.202,-1.661 -3.25,-2.491 -6.145,-2.491 -2.83,0 -4.844,0.772 -6.044,2.319 -1.201,1.545 -1.801,3.585 -1.801,6.118 l 0,16.926 c 0,1.216 0.106,2.4 0.321,3.552 0.214,1.152 0.608,2.179 1.184,3.084 0.575,0.905 1.373,1.629 2.393,2.172 1.019,0.542 2.351,0.814 3.997,0.814 1.711,0 3.084,-0.239 4.12,-0.716 C 1.16,7.72 1.957,7.054 2.517,6.199 3.076,5.343 3.445,4.34 3.627,3.188 3.807,2.037 3.897,0.771 3.897,-0.611 l 0,-15.889 z" />
      </g>
      <g
         transform="translate(2060.0303,1841.123)"
         id="g776">
        <path
           inkscape:connector-curvature="0"
           id="path778"
           style="fill:#ffffff;fill-opacity:1;fill-rule:nonzero;stroke:none"
           d="m 0,0 0,-25.067 c 0,-3.059 -0.592,-5.42 -1.776,-7.081 -1.185,-1.662 -3.225,-2.492 -6.119,-2.492 -2.83,0 -4.852,0.772 -6.069,2.319 -1.218,1.546 -1.826,3.586 -1.826,6.119 l 0,26.202 3.898,0 0,-26.209 c 0,-0.494 0.05,-1.02 0.149,-1.578 0.097,-0.558 0.296,-1.084 0.592,-1.576 0.296,-0.493 0.699,-0.895 1.209,-1.207 0.509,-0.312 1.175,-0.468 1.998,-0.468 0.822,0 1.496,0.164 2.023,0.493 0.525,0.328 0.938,0.747 1.234,1.256 0.295,0.509 0.5,1.092 0.617,1.749 0.115,0.657 0.173,1.331 0.173,2.02 L -3.897,0 0,0 Z" />
      </g>
      <g
         transform="translate(2073.6445,1841.4683)"
         id="g780">
        <path
           inkscape:connector-curvature="0"
           id="path782"
           style="fill:#ffffff;fill-opacity:1;fill-rule:nonzero;stroke:none"
           d="M 0,0 C 2.664,0 4.597,-0.724 5.798,-2.171 6.998,-3.619 7.6,-5.51 7.6,-7.846 L 3.701,-8.537 c 0.032,1.513 -0.239,2.714 -0.814,3.603 -0.576,0.888 -1.555,1.332 -2.936,1.332 -0.79,0 -1.431,-0.181 -1.926,-0.543 -0.492,-0.362 -0.879,-0.814 -1.158,-1.357 -0.28,-0.542 -0.469,-1.143 -0.568,-1.801 C -3.8,-7.961 -3.85,-8.586 -3.85,-9.178 l 0,-17.32 c 0,-0.493 0.05,-1.028 0.149,-1.604 0.099,-0.576 0.288,-1.102 0.568,-1.579 0.279,-0.477 0.656,-0.88 1.135,-1.209 0.477,-0.329 1.109,-0.493 1.899,-0.493 1.283,0 2.229,0.395 2.838,1.184 0.608,0.79 0.929,2.039 0.962,3.75 L 7.697,-27.14 C 7.631,-29.606 6.965,-31.531 5.699,-32.913 4.432,-34.294 2.533,-34.985 0,-34.985 c -2.6,0 -4.54,0.723 -5.822,2.171 -1.283,1.447 -1.925,3.487 -1.925,6.119 l 0,16.974 c 0,1.217 0.106,2.409 0.321,3.578 0.213,1.167 0.6,2.203 1.159,3.108 0.56,0.905 1.349,1.637 2.369,2.196 C -2.879,-0.28 -1.579,0 0,0" />
      </g>
      <g
         transform="translate(2098.6172,1806.8286)"
         id="g784">
        <path
           inkscape:connector-curvature="0"
           id="path786"
           style="fill:#ffffff;fill-opacity:1;fill-rule:nonzero;stroke:none"
           d="m 0,0 0,15.839 -7.994,0 0,-15.839 -3.899,0 0,34.343 3.899,0 0,-15.099 7.994,0 0,15.099 3.898,0 L 3.898,0 0,0 Z" />
      </g>
    </g>
  </g>
</svg>
