<?xml version="1.0" encoding="UTF-8" standalone="no"?>
<!-- Created with Inkscape (http://www.inkscape.org/) -->

<svg
   xmlns:dc="http://purl.org/dc/elements/1.1/"
   xmlns:cc="http://creativecommons.org/ns#"
   xmlns:rdf="http://www.w3.org/1999/02/22-rdf-syntax-ns#"
   xmlns:svg="http://www.w3.org/2000/svg"
   xmlns="http://www.w3.org/2000/svg"
   xmlns:sodipodi="http://sodipodi.sourceforge.net/DTD/sodipodi-0.dtd"
   xmlns:inkscape="http://www.inkscape.org/namespaces/inkscape"
   width="90.468597mm"
   height="39.42754mm"
   viewBox="0 0 320.55802 139.70388"
   id="svg4510"
   version="1.1"
   inkscape:version="0.91 r13725"
   sodipodi:docname="big-logo.svg">
  <defs
     id="defs4512" />
  <sodipodi:namedview
     id="base"
     pagecolor="#ffffff"
     bordercolor="#666666"
     borderopacity="1.0"
     inkscape:pageopacity="0.0"
     inkscape:pageshadow="2"
     inkscape:zoom="0.35"
     inkscape:cx="146.70758"
     inkscape:cy="46.994795"
     inkscape:document-units="px"
     inkscape:current-layer="layer1"
     showgrid="false"
     fit-margin-top="0"
     fit-margin-left="0"
     fit-margin-right="0"
     fit-margin-bottom="0"
     inkscape:window-width="1280"
     inkscape:window-height="1000"
     inkscape:window-x="0"
     inkscape:window-y="0"
     inkscape:window-maximized="1" />
  <metadata
     id="metadata4515">
    <rdf:RDF>
      <cc:Work
         rdf:about="">
        <dc:format>image/svg+xml</dc:format>
        <dc:type
           rdf:resource="http://purl.org/dc/dcmitype/StillImage" />
        <dc:title></dc:title>
      </cc:Work>
    </rdf:RDF>
  </metadata>
  <g
     inkscape:label="Layer 1"
     inkscape:groupmode="layer"
     id="layer1"
     transform="translate(-228.29242,-439.65312)">
    <g
       id="g526"
       transform="matrix(1.25,0,0,-1.25,228.41817,509.28537)">
      <path
         d="m 0,0 0,-41.779 13.927,-13.927 13.926,0 L 13.927,0 0,0 Z"
         style="fill:#004071;fill-opacity:1;fill-rule:nonzero;stroke:none"
         id="path528"
         inkscape:connector-curvature="0" />
    </g>
    <g
       id="g530"
       transform="matrix(1.25,0,0,-1.25,332.86517,509.28537)">
      <path
         d="m 0,0 0,-41.779 -13.928,-13.927 -13.926,0 L -13.928,0 0,0 Z"
         style="fill:#235413;fill-opacity:1;fill-rule:nonzero;stroke:none"
         id="path532"
         inkscape:connector-curvature="0" />
    </g>
    <g
       id="g534"
       transform="matrix(1.25,0,0,-1.25,228.29242,491.87513)">
      <path
         d="M 0,0 9.846,9.845 19.693,-0.002 9.846,-9.848 0,0 Z"
         style="fill:#007dbe;fill-opacity:1;fill-rule:nonzero;stroke:none"
         id="path536"
         inkscape:connector-curvature="0" />
    </g>
    <g
       id="g538"
       transform="matrix(1.25,0,0,-1.25,268.20692,451.96062)">
      <path
         d="M 0,0 9.846,9.846 19.695,0 9.848,-9.848 0,0 Z"
         style="fill:#f26522;fill-opacity:1;fill-rule:nonzero;stroke:none"
         id="path540"
         inkscape:connector-curvature="0" />
    </g>
    <g
       id="g542"
       transform="matrix(1.25,0,0,-1.25,308.12154,491.87763)">
      <path
         d="M 0,0 9.846,9.847 19.693,0 9.848,-9.846 0,0 Z"
         style="fill:#66952e;fill-opacity:1;fill-rule:nonzero;stroke:none"
         id="path544"
         inkscape:connector-curvature="0" />
    </g>
    <g
       id="g546"
       transform="matrix(1.25,0,0,-1.25,289.34467,578.918)">
      <path
         d="m 0,0 13.927,83.56 -41.78,0 L -13.926,0 0,0 Z"
         style="fill:#9e2718;fill-opacity:1;fill-rule:nonzero;stroke:none"
         id="path548"
         inkscape:connector-curvature="0" />
    </g>
    <g
       id="g550"
       transform="matrix(1.25,0,0,-1.25,228.41567,509.28537)">
      <path
         d="M 0,0 0,-34.816 13.928,-13.926 41.779,-20.89 13.928,0 0,0 Z"
         style="fill:#007dbe;fill-opacity:1;fill-rule:nonzero;stroke:none"
         id="path552"
         inkscape:connector-curvature="0" />
    </g>
    <g
       id="g554"
       transform="matrix(1.25,0,0,-1.25,332.86517,552.80537)">
      <path
         d="M 0,0 0,34.816 -13.928,13.926 -41.78,20.89 -13.928,0 0,0 Z"
         style="fill:#66952e;fill-opacity:1;fill-rule:nonzero;stroke:none"
         id="path556"
         inkscape:connector-curvature="0" />
    </g>
    <g
       id="g558"
       transform="matrix(1.25,0,0,-1.25,254.52905,474.46787)">
      <path
         d="m 0,0 20.889,0 20.89,0 -20.89,-13.928 0,-20.889 L 0,0 Z"
         style="fill:#f26522;fill-opacity:1;fill-rule:nonzero;stroke:none"
         id="path560"
         inkscape:connector-curvature="0" />
    </g>
    <g
       id="g562"
       transform="matrix(1.25,0,0,-1.25,387.69434,506.08288)">
      <path
         d="m 0,0 c 0,-1.504 -0.144,-2.857 -0.428,-4.061 -0.286,-1.203 -0.755,-2.239 -1.409,-3.108 -0.653,-0.869 -1.5,-1.538 -2.538,-2.006 -1.041,-0.468 -2.332,-0.701 -3.873,-0.701 -1.409,0 -2.633,0.2 -3.67,0.601 -1.041,0.401 -1.895,0.961 -2.565,1.679 -0.67,0.719 -1.165,1.563 -1.484,2.533 -0.32,0.969 -0.478,2.021 -0.478,3.158 l 3.961,0.802 c 0,-0.668 0.066,-1.295 0.2,-1.879 0.133,-0.586 0.359,-1.112 0.677,-1.58 0.318,-0.469 0.752,-0.836 1.302,-1.104 0.553,-0.268 1.229,-0.4 2.031,-0.4 1.004,0 1.795,0.158 2.382,0.476 0.584,0.317 1.02,0.752 1.304,1.304 0.283,0.552 0.458,1.194 0.525,1.93 0.068,0.734 0.102,1.504 0.102,2.306 0,1.036 -0.051,1.88 -0.151,2.532 -0.101,0.652 -0.319,1.22 -0.652,1.704 -0.335,0.484 -0.81,0.911 -1.429,1.279 -0.618,0.368 -1.447,0.768 -2.482,1.203 -1.637,0.702 -2.949,1.412 -3.935,2.131 -0.986,0.718 -1.747,1.471 -2.282,2.256 -0.534,0.785 -0.885,1.621 -1.052,2.506 -0.167,0.886 -0.25,1.863 -0.25,2.934 0,1.336 0.167,2.564 0.501,3.685 0.337,1.119 0.848,2.088 1.535,2.908 0.685,0.818 1.551,1.454 2.592,1.905 1.036,0.451 2.244,0.676 3.619,0.676 1.51,0 2.774,-0.233 3.797,-0.701 1.023,-0.469 1.843,-1.077 2.463,-1.83 0.622,-0.752 1.056,-1.579 1.308,-2.483 C -0.128,19.753 0,18.867 0,17.999 l -3.961,-1.003 c 0,1.571 -0.318,2.783 -0.954,3.635 -0.635,0.852 -1.722,1.278 -3.258,1.278 -0.869,0 -1.562,-0.167 -2.081,-0.501 -0.517,-0.335 -0.928,-0.761 -1.228,-1.279 -0.301,-0.518 -0.5,-1.095 -0.602,-1.729 -0.1,-0.635 -0.15,-1.254 -0.15,-1.855 0,-0.735 0.041,-1.379 0.125,-1.93 0.084,-0.552 0.31,-1.071 0.679,-1.554 0.37,-0.485 0.914,-0.961 1.637,-1.43 0.721,-0.468 1.736,-0.952 3.047,-1.453 1.51,-0.602 2.709,-1.229 3.599,-1.88 C -2.259,7.646 -1.578,6.919 -1.109,6.116 -0.64,5.314 -0.337,4.412 -0.202,3.409 -0.069,2.407 0,1.27 0,0"
         style="fill:#333132;fill-opacity:1;fill-rule:nonzero;stroke:none"
         id="path564"
         inkscape:connector-curvature="0" />
    </g>
    <g
       id="g566"
       transform="matrix(1.25,0,0,-1.25,409.75244,485.3255)">
      <path
         d="m 0,0 c 0,0.6 -0.042,1.216 -0.125,1.851 -0.084,0.634 -0.26,1.209 -0.526,1.727 -0.27,0.517 -0.677,0.95 -1.228,1.3 -0.553,0.35 -1.279,0.526 -2.183,0.526 -1.001,0 -1.771,-0.242 -2.305,-0.725 C -6.902,4.196 -7.303,3.622 -7.571,2.956 -7.838,2.29 -7.997,1.582 -8.047,0.833 -8.098,0.083 -8.121,-0.542 -8.121,-1.041 l 0,-16.885 c 0,-0.5 0.049,-1.033 0.149,-1.599 0.101,-0.567 0.301,-1.1 0.602,-1.6 0.301,-0.499 0.71,-0.906 1.227,-1.223 0.52,-0.316 1.196,-0.474 2.033,-0.474 0.867,0 1.569,0.15 2.104,0.45 l -2.959,2.457 1.956,2.357 2.708,-2.206 c 0.2,0.732 0.301,1.567 0.301,2.502 L 0,0 Z m 3.96,-16.756 c 0,-2.307 -0.317,-4.195 -0.951,-5.666 l 2.807,-2.255 -1.956,-2.407 -2.708,2.156 c -1.303,-1.036 -3.041,-1.554 -5.214,-1.554 -2.875,0 -4.928,0.785 -6.167,2.356 -1.236,1.571 -1.854,3.643 -1.854,6.216 l 0,17.198 c 0,1.236 0.108,2.439 0.326,3.609 0.217,1.17 0.618,2.214 1.203,3.134 0.585,0.919 1.396,1.654 2.433,2.206 1.034,0.551 2.389,0.826 4.059,0.826 1.74,0 3.134,-0.242 4.187,-0.727 C 1.178,7.852 1.988,7.175 2.557,6.306 3.125,5.437 3.501,4.417 3.685,3.248 3.868,2.078 3.96,0.792 3.96,-0.613 l 0,-16.143 z"
         style="fill:#333132;fill-opacity:1;fill-rule:nonzero;stroke:none"
         id="path568"
         inkscape:connector-curvature="0" />
    </g>
    <g
       id="g570"
       transform="matrix(1.25,0,0,-1.25,442.39644,474.435)">
      <path
         d="m 0,0 0,-25.469 c 0,-3.108 -0.604,-5.507 -1.807,-7.194 -1.202,-1.689 -3.275,-2.532 -6.214,-2.532 -2.875,0 -4.932,0.785 -6.167,2.356 -1.237,1.571 -1.856,3.643 -1.856,6.217 l 0,26.622 3.961,0 0,-26.629 c 0,-0.501 0.05,-1.036 0.15,-1.602 0.101,-0.568 0.302,-1.102 0.602,-1.602 0.301,-0.501 0.708,-0.91 1.229,-1.226 0.515,-0.317 1.194,-0.476 2.03,-0.476 0.835,0 1.52,0.167 2.054,0.501 0.535,0.333 0.955,0.759 1.255,1.276 0.301,0.516 0.507,1.11 0.627,1.778 0.116,0.667 0.174,1.351 0.174,2.052 L -3.962,0 0,0 Z"
         style="fill:#333132;fill-opacity:1;fill-rule:nonzero;stroke:none"
         id="path572"
         inkscape:connector-curvature="0" />
    </g>
    <g
       id="g574"
       transform="matrix(1.25,0,0,-1.25,460.06734,483.33387)">
      <path
         d="m 0,0 -1.453,-8.122 -1.655,-8.172 6.419,0 L 1.604,-8.021 0.202,0 0,0 Z m 5.615,-27.725 -1.603,7.772 -7.771,0 -1.553,-7.772 -3.811,0 7.419,34.894 3.71,0 7.521,-34.894 -3.912,0 z"
         style="fill:#333132;fill-opacity:1;fill-rule:nonzero;stroke:none"
         id="path576"
         inkscape:connector-curvature="0" />
    </g>
    <g
       id="g578"
       transform="matrix(1.25,0,0,-1.25,493.55004,485.26437)">
      <path
         d="m 0,0 c 0,1.568 -0.334,2.801 -1.002,3.703 -0.669,0.9 -1.854,1.351 -3.559,1.351 l -3.559,0 0,-27.575 3.559,0 c 1.637,0 2.808,0.451 3.509,1.352 0.701,0.901 1.052,2.185 1.052,3.853 L 0,0 Z m -3.984,8.714 c 2.065,0 3.696,-0.36 4.898,-1.078 C 2.112,6.917 2.945,5.706 3.411,4 3.778,2.597 3.962,0.859 3.962,-1.212 l 0,-7.471 0,-7.294 c 0,-1.99 -0.218,-3.669 -0.649,-5.039 -0.634,-1.973 -1.643,-3.326 -3.026,-4.062 -1.382,-0.735 -2.956,-1.103 -4.722,-1.103 l -7.646,0 0,34.895 8.097,0 z"
         style="fill:#333132;fill-opacity:1;fill-rule:nonzero;stroke:none"
         id="path580"
         inkscape:connector-curvature="0" />
    </g>
    <path
       d="m 367.70764,535.3 4.9525,0 0,43.6175 -4.9525,0 0,-43.6175 z"
       style="fill:#333132;fill-opacity:1;fill-rule:nonzero;stroke:none"
       id="path582"
       inkscape:connector-curvature="0" />
    <g
       id="g584"
       transform="matrix(1.25,0,0,-1.25,385.48734,549.087)">
      <path
         d="m 0,0 0,-23.865 -3.961,0 0,34.894 3.76,0 7.22,-17.697 2.407,-6.367 0.2,0.05 0,24.014 3.96,0 0,-34.894 -3.71,0 L 2.657,-6.317 0.15,0 0,0 Z"
         style="fill:#333132;fill-opacity:1;fill-rule:nonzero;stroke:none"
         id="path586"
         inkscape:connector-curvature="0" />
    </g>
    <g
       id="g588"
       transform="matrix(1.25,0,0,-1.25,434.30554,539.87563)">
      <path
         d="m 0,0 0,-31.234 -3.961,0 0,31.234 -5.915,0 0,3.66 15.791,0 L 5.915,0 0,0 Z"
         style="fill:#333132;fill-opacity:1;fill-rule:nonzero;stroke:none"
         id="path590"
         inkscape:connector-curvature="0" />
    </g>
    <g
       id="g592"
       transform="matrix(1.25,0,0,-1.25,462.39394,546.244)">
      <path
         d="M 0,0 C 0,0.599 -0.042,1.216 -0.126,1.849 -0.211,2.481 -0.386,3.057 -0.651,3.573 -0.919,4.088 -1.33,4.521 -1.88,4.871 -2.433,5.221 -3.158,5.396 -4.062,5.396 -5.063,5.396 -5.834,5.154 -6.368,4.671 -6.903,4.188 -7.304,3.613 -7.572,2.948 -7.839,2.282 -7.997,1.574 -8.047,0.825 -8.098,0.075 -8.123,-0.549 -8.123,-1.049 l 0,-16.885 c 0,-0.501 0.051,-1.033 0.151,-1.599 0.099,-0.567 0.301,-1.099 0.602,-1.599 0.301,-0.5 0.71,-0.907 1.227,-1.223 0.518,-0.317 1.196,-0.475 2.031,-0.475 0.836,0 1.52,0.166 2.056,0.499 0.534,0.333 0.952,0.757 1.253,1.273 0.301,0.517 0.51,1.109 0.626,1.774 C -0.06,-18.618 0,-17.936 0,-17.235 L 0,0 Z m 3.959,-16.764 c 0,-3.109 -0.608,-5.507 -1.828,-7.194 -1.221,-1.688 -3.303,-2.532 -6.243,-2.532 -2.875,0 -4.921,0.785 -6.14,2.356 -1.222,1.571 -1.831,3.643 -1.831,6.217 l 0,17.196 c 0,1.237 0.108,2.44 0.325,3.61 0.218,1.17 0.619,2.214 1.203,3.133 0.585,0.92 1.395,1.655 2.432,2.207 1.037,0.551 2.391,0.827 4.061,0.827 1.738,0 3.134,-0.243 4.186,-0.727 C 1.178,7.845 1.986,7.167 2.557,6.299 3.124,5.429 3.5,4.41 3.684,3.24 3.867,2.069 3.959,0.783 3.959,-0.621 l 0,-16.143 z"
         style="fill:#333132;fill-opacity:1;fill-rule:nonzero;stroke:none"
         id="path594"
         inkscape:connector-curvature="0" />
    </g>
    <g
       id="g596"
       transform="matrix(1.25,0,0,-1.25,494.89154,535.36275)">
      <path
         d="m 0,0 0,-25.469 c 0,-3.109 -0.6,-5.508 -1.804,-7.195 -1.204,-1.688 -3.277,-2.531 -6.217,-2.531 -2.875,0 -4.93,0.785 -6.167,2.356 -1.236,1.57 -1.855,3.643 -1.855,6.217 l 0,26.622 3.961,0 0,-26.63 c 0,-0.5 0.05,-1.035 0.15,-1.602 0.1,-0.567 0.301,-1.101 0.602,-1.602 0.301,-0.501 0.711,-0.909 1.228,-1.226 0.518,-0.317 1.195,-0.475 2.03,-0.475 0.836,0 1.522,0.167 2.056,0.5 0.534,0.334 0.954,0.76 1.253,1.276 0.301,0.518 0.51,1.11 0.628,1.778 0.117,0.667 0.176,1.351 0.176,2.052 L -3.959,0 0,0 Z"
         style="fill:#333132;fill-opacity:1;fill-rule:nonzero;stroke:none"
         id="path598"
         inkscape:connector-curvature="0" />
    </g>
    <g
       id="g600"
       transform="matrix(1.25,0,0,-1.25,512.18404,534.9245)">
      <path
         d="M 0,0 C 2.706,0 4.67,-0.735 5.89,-2.206 7.109,-3.678 7.719,-5.599 7.719,-7.971 L 3.76,-8.673 c 0.032,1.536 -0.244,2.757 -0.829,3.659 -0.584,0.903 -1.579,1.354 -2.982,1.354 -0.803,0 -1.455,-0.184 -1.956,-0.551 -0.501,-0.369 -0.895,-0.828 -1.177,-1.379 -0.285,-0.552 -0.478,-1.162 -0.578,-1.83 -0.099,-0.669 -0.15,-1.304 -0.15,-1.905 l 0,-17.598 c 0,-0.501 0.051,-1.045 0.15,-1.629 0.1,-0.585 0.293,-1.12 0.578,-1.604 0.282,-0.486 0.666,-0.896 1.153,-1.228 0.483,-0.335 1.127,-0.502 1.929,-0.502 1.304,0 2.265,0.402 2.883,1.203 0.618,0.802 0.944,2.072 0.979,3.811 l 4.06,-0.702 C 7.752,-30.082 7.075,-32.036 5.789,-33.44 4.502,-34.844 2.572,-35.546 0,-35.546 c -2.643,0 -4.614,0.734 -5.917,2.206 -1.304,1.47 -1.956,3.542 -1.956,6.216 l 0,17.248 c 0,1.236 0.109,2.447 0.326,3.635 0.216,1.185 0.61,2.238 1.179,3.158 0.568,0.919 1.369,1.662 2.405,2.23 C -2.927,-0.284 -1.605,0 0,0"
         style="fill:#333132;fill-opacity:1;fill-rule:nonzero;stroke:none"
         id="path602"
         inkscape:connector-curvature="0" />
    </g>
    <g
       id="g604"
       transform="matrix(1.25,0,0,-1.25,543.89794,578.918)">
      <path
         d="m 0,0 0,16.093 -8.121,0 0,-16.093 -3.961,0 0,34.894 3.961,0 0,-15.342 8.121,0 0,15.342 3.962,0 L 3.962,0 0,0 Z"
         style="fill:#333132;fill-opacity:1;fill-rule:nonzero;stroke:none"
         id="path606"
         inkscape:connector-curvature="0" />
    </g>
  </g>
</svg>
