<?xml version="1.0" encoding="UTF-8" standalone="no"?>
<!-- Created with Inkscape (http://www.inkscape.org/) -->

<svg
   xmlns:dc="http://purl.org/dc/elements/1.1/"
   xmlns:cc="http://creativecommons.org/ns#"
   xmlns:rdf="http://www.w3.org/1999/02/22-rdf-syntax-ns#"
   xmlns:svg="http://www.w3.org/2000/svg"
   xmlns="http://www.w3.org/2000/svg"
   xmlns:sodipodi="http://sodipodi.sourceforge.net/DTD/sodipodi-0.dtd"
   xmlns:inkscape="http://www.inkscape.org/namespaces/inkscape"
   width="110"
   height="110"
   viewBox="0 0 110 110"
   id="svg3402"
   version="1.1"
   inkscape:version="0.91 r13725"
   sodipodi:docname="default_blazon.svg">
  <defs
     id="defs3404" />
  <sodipodi:namedview
     id="base"
     pagecolor="#ffffff"
     bordercolor="#666666"
     borderopacity="1.0"
     inkscape:pageopacity="0.0"
     inkscape:pageshadow="2"
     inkscape:zoom="0.98994949"
     inkscape:cx="397.02326"
     inkscape:cy="96.406669"
     inkscape:document-units="px"
     inkscape:current-layer="layer1"
     showgrid="false"
     units="px"
     inkscape:window-width="1280"
     inkscape:window-height="995"
     inkscape:window-x="0"
     inkscape:window-y="0"
     inkscape:window-maximized="1" />
  <metadata
     id="metadata3407">
    <rdf:RDF>
      <cc:Work
         rdf:about="">
        <dc:format>image/svg+xml</dc:format>
        <dc:type
           rdf:resource="http://purl.org/dc/dcmitype/StillImage" />
        <dc:title></dc:title>
      </cc:Work>
    </rdf:RDF>
  </metadata>
  <g
     inkscape:label="Layer 1"
     inkscape:groupmode="layer"
     id="layer1"
     transform="translate(0,-942.36216)">
    <polygon
       transform="matrix(0.20426162,0,0,0.20426162,-42.369848,942.04676)"
       style="fill:#00416f"
       points="357.853,261.774 298.664,261.774 298.664,439.339 357.853,498.527 417.041,498.527 "
       id="polygon3" />
    <polygon
       transform="matrix(0.20426162,0,0,0.20426162,-42.369848,942.04676)"
       style="fill:#38541d"
       points="594.605,261.774 653.794,261.774 653.794,439.339 594.605,498.527 535.417,498.527 "
       id="polygon5" />
    <polygon
       transform="matrix(0.20426162,0,0,0.20426162,-42.369848,942.04676)"
       style="fill:#007dba"
       points="340.097,244.435 298.242,202.58 340.09,160.738 381.943,202.586 "
       id="polygon7" />
    <polygon
       transform="matrix(0.20426162,0,0,0.20426162,-42.369848,942.04676)"
       style="fill:#d4642b"
       points="517.661,66.87 475.802,25.021 433.953,66.87 475.807,108.72 "
       id="polygon9" />
    <polygon
       transform="matrix(0.20426162,0,0,0.20426162,-42.369848,942.04676)"
       style="fill:#759339"
       points="611.518,244.435 569.665,202.586 611.512,160.738 653.371,202.586 "
       id="polygon11" />
    <polygon
       transform="matrix(0.20426162,0,0,0.20426162,-42.369848,942.04676)"
       style="fill:#872a1e"
       points="446.635,498.527 505.823,498.527 565.012,143.398 387.447,143.398 "
       id="polygon13" />
    <polygon
       transform="matrix(0.20426162,0,0,0.20426162,-42.369848,942.04676)"
       style="fill:#007dba"
       points="357.853,261.774 298.664,261.774 298.664,409.745 357.853,320.963 476.229,350.557 "
       id="polygon15" />
    <polygon
       transform="matrix(0.20426162,0,0,0.20426162,-42.369848,942.04676)"
       style="fill:#759339"
       points="594.605,409.745 653.794,409.745 653.794,261.774 594.605,350.557 476.229,320.963 "
       id="polygon17" />
    <polygon
       transform="matrix(0.20426162,0,0,0.20426162,-42.369848,942.04676)"
       style="fill:#d4642b"
       points="476.229,291.369 387.447,143.398 476.229,143.398 565.012,143.398 476.229,202.586 "
       id="polygon19" />
  </g>
</svg>
