<?xml version="1.0" encoding="UTF-8" standalone="no"?>
<!-- Created with Inkscape (http://www.inkscape.org/) -->

<svg
   xmlns:dc="http://purl.org/dc/elements/1.1/"
   xmlns:cc="http://creativecommons.org/ns#"
   xmlns:rdf="http://www.w3.org/1999/02/22-rdf-syntax-ns#"
   xmlns:svg="http://www.w3.org/2000/svg"
   xmlns="http://www.w3.org/2000/svg"
   xmlns:sodipodi="http://sodipodi.sourceforge.net/DTD/sodipodi-0.dtd"
   xmlns:inkscape="http://www.inkscape.org/namespaces/inkscape"
   width="120"
   height="50"
   viewBox="0 0 120.00001 50"
   id="svg3934"
   version="1.1"
   inkscape:version="0.91 r13725"
   sodipodi:docname="logo.svg">
  <defs
     id="defs3936" />
  <sodipodi:namedview
     id="base"
     pagecolor="#ffffff"
     bordercolor="#666666"
     borderopacity="1.0"
     inkscape:pageopacity="0.0"
     inkscape:pageshadow="2"
     inkscape:zoom="1.4"
     inkscape:cx="319.3313"
     inkscape:cy="-65.241396"
     inkscape:document-units="px"
     inkscape:current-layer="layer1"
     showgrid="false"
     fit-margin-top="0"
     fit-margin-left="0"
     fit-margin-right="0"
     fit-margin-bottom="0"
     inkscape:window-width="1280"
     inkscape:window-height="995"
     inkscape:window-x="0"
     inkscape:window-y="0"
     inkscape:window-maximized="1"
     units="px" />
  <metadata
     id="metadata3939">
    <rdf:RDF>
      <cc:Work
         rdf:about="">
        <dc:format>image/svg+xml</dc:format>
        <dc:type
           rdf:resource="http://purl.org/dc/dcmitype/StillImage" />
        <dc:title></dc:title>
      </cc:Work>
    </rdf:RDF>
  </metadata>
  <g
     inkscape:label="Layer 1"
     inkscape:groupmode="layer"
     id="layer1"
     transform="translate(-357.31552,-491.68483)">
    <g
       transform="matrix(3.081659,0,0,3.081659,2104.9167,470.56158)"
       id="g3878">
      <rect
         ry="6.2686567"
         y="-29.82836"
         x="-578.80597"
         height="58.507462"
         width="130.59702"
         id="rect3876"
         style="fill:#000000;fill-opacity:0" />
    </g>
    <g
       transform="matrix(0.98689753,0,0,0.98689753,357.35924,516.93489)"
       id="g288">
      <path
         inkscape:connector-curvature="0"
         id="path290"
         style="fill:#164170;fill-opacity:1;fill-rule:nonzero;stroke:none"
         d="m 0,0 0,18.691 6.23,6.23 6.231,0 L 6.23,0 0,0 Z" />
    </g>
    <g
       transform="matrix(0.98689753,0,0,0.98689753,394.25165,516.93489)"
       id="g292">
      <path
         inkscape:connector-curvature="0"
         id="path294"
         style="fill:#235413;fill-opacity:1;fill-rule:nonzero;stroke:none"
         d="m 0,0 0,18.691 -6.23,6.23 -6.231,0 L -6.23,0 0,0 Z" />
    </g>
    <g
       transform="matrix(0.98689753,0,0,0.98689753,357.31552,510.78563)"
       id="g296">
      <path
         inkscape:connector-curvature="0"
         id="path298"
         style="fill:#007dbe;fill-opacity:1;fill-rule:nonzero;stroke:none"
         d="M 0,0 4.405,-4.404 8.811,0.001 4.406,4.406 0,0 Z" />
    </g>
    <g
       transform="matrix(0.98689753,0,0,0.98689753,371.41375,496.6874)"
       id="g300">
      <path
         inkscape:connector-curvature="0"
         id="path302"
         style="fill:#f26522;fill-opacity:1;fill-rule:nonzero;stroke:none"
         d="M 0,0 4.405,-4.405 8.811,0 4.406,4.405 0,0 Z" />
    </g>
    <g
       transform="matrix(0.98689753,0,0,0.98689753,385.51227,510.78622)"
       id="g304">
      <path
         inkscape:connector-curvature="0"
         id="path306"
         style="fill:#66952e;fill-opacity:1;fill-rule:nonzero;stroke:none"
         d="M 0,0 4.405,-4.405 8.811,0 4.406,4.405 0,0 Z" />
    </g>
    <g
       transform="matrix(0.98689753,0,0,0.98689753,378.87983,541.52986)"
       id="g308">
      <path
         inkscape:connector-curvature="0"
         id="path310"
         style="fill:#9e2718;fill-opacity:1;fill-rule:nonzero;stroke:none"
         d="m 0,0 6.23,-37.382 -18.691,0 L -6.23,0 0,0 Z" />
    </g>
    <g
       transform="matrix(0.98689753,0,0,0.98689753,357.35924,516.93489)"
       id="g312">
      <path
         inkscape:connector-curvature="0"
         id="path314"
         style="fill:#007dbe;fill-opacity:1;fill-rule:nonzero;stroke:none"
         d="M 0,0 0,15.576 6.23,6.23 18.691,9.346 6.23,0 0,0 Z" />
    </g>
    <path
       d="m 394.25166,532.30672 0,-15.37192 -6.14838,9.22355 -12.29773,-3.07517 12.29773,9.22354 6.14838,0 z"
       style="fill:#66952e;fill-opacity:1;fill-rule:nonzero;stroke:none"
       id="path318"
       inkscape:connector-curvature="0" />
    <g
       transform="matrix(0.98689753,0,0,0.98689753,366.5824,504.63745)"
       id="g320">
      <path
         inkscape:connector-curvature="0"
         id="path322"
         style="fill:#f26522;fill-opacity:1;fill-rule:nonzero;stroke:none"
         d="m 0,0 9.346,0 9.345,0 -9.345,6.23 0,9.346 L 0,0 Z" />
    </g>
    <g
       transform="matrix(0.98689753,0,0,0.98689753,413.61773,515.80361)"
       id="g324">
      <path
         inkscape:connector-curvature="0"
         id="path326"
         style="fill:#333132;fill-opacity:1;fill-rule:nonzero;stroke:none"
         d="M 0,0 C 0,0.673 -0.064,1.278 -0.191,1.817 -0.319,2.355 -0.529,2.819 -0.821,3.208 -1.114,3.596 -1.492,3.895 -1.957,4.105 -2.422,4.314 -3,4.419 -3.69,4.419 -4.32,4.419 -4.867,4.329 -5.332,4.15 -5.797,3.97 -6.179,3.72 -6.479,3.398 -6.779,3.077 -7.001,2.699 -7.143,2.265 -7.286,1.832 -7.357,1.361 -7.357,0.852 l 1.772,-0.359 c 0,0.3 0.03,0.58 0.09,0.842 0.059,0.261 0.16,0.497 0.303,0.706 0.141,0.21 0.336,0.374 0.583,0.494 0.247,0.119 0.549,0.179 0.908,0.179 0.449,0 0.804,-0.071 1.066,-0.213 0.261,-0.142 0.456,-0.336 0.583,-0.583 0.126,-0.247 0.205,-0.535 0.235,-0.864 0.03,-0.328 0.045,-0.673 0.045,-1.031 0,-0.464 -0.022,-0.842 -0.067,-1.133 C -1.884,-1.402 -1.982,-1.656 -2.131,-1.873 -2.28,-2.089 -2.493,-2.28 -2.77,-2.445 -3.047,-2.609 -3.417,-2.789 -3.88,-2.983 -4.613,-3.297 -5.2,-3.615 -5.641,-3.936 -6.082,-4.258 -6.423,-4.594 -6.662,-4.946 -6.901,-5.297 -7.058,-5.671 -7.133,-6.067 -7.208,-6.463 -7.245,-6.9 -7.245,-7.379 c 0,-0.598 0.075,-1.148 0.225,-1.649 0.15,-0.501 0.379,-0.934 0.687,-1.301 0.307,-0.366 0.693,-0.65 1.158,-0.852 0.465,-0.202 1.005,-0.303 1.62,-0.303 0.675,0 1.241,0.105 1.699,0.314 0.457,0.21 0.825,0.483 1.102,0.819 0.278,0.336 0.473,0.706 0.585,1.11 0.112,0.404 0.169,0.8 0.169,1.189 l -1.772,0.449 c 0,-0.703 -0.142,-1.245 -0.426,-1.627 -0.284,-0.381 -0.771,-0.572 -1.458,-0.572 -0.389,0 -0.699,0.075 -0.931,0.225 -0.232,0.149 -0.415,0.34 -0.549,0.572 -0.135,0.232 -0.225,0.49 -0.269,0.774 -0.045,0.284 -0.068,0.56 -0.068,0.829 0,0.329 0.019,0.617 0.056,0.864 0.038,0.247 0.139,0.479 0.304,0.695 0.166,0.217 0.41,0.43 0.732,0.64 0.323,0.209 0.777,0.426 1.363,0.65 0.676,0.269 1.212,0.549 1.611,0.841 0.397,0.292 0.701,0.617 0.911,0.976 0.211,0.359 0.346,0.762 0.406,1.211 C -0.03,-1.077 0,-0.568 0,0" />
    </g>
    <g
       transform="matrix(0.98689753,0,0,0.98689753,421.40939,508.47205)"
       id="g328">
      <path
         inkscape:connector-curvature="0"
         id="path330"
         style="fill:#333132;fill-opacity:1;fill-rule:nonzero;stroke:none"
         d="m 0,0 c 0,-0.268 -0.019,-0.544 -0.056,-0.828 -0.038,-0.284 -0.116,-0.541 -0.236,-0.772 -0.12,-0.232 -0.302,-0.426 -0.549,-0.582 -0.247,-0.157 -0.572,-0.235 -0.976,-0.235 -0.449,0 -0.793,0.108 -1.032,0.324 -0.239,0.216 -0.418,0.473 -0.538,0.771 -0.12,0.298 -0.191,0.614 -0.213,0.949 -0.023,0.336 -0.034,0.615 -0.034,0.839 l 0,7.554 c 0,0.224 0.023,0.462 0.068,0.715 0.044,0.254 0.134,0.492 0.269,0.715 0.134,0.224 0.317,0.406 0.549,0.548 0.232,0.141 0.535,0.212 0.909,0.212 0.388,0 0.702,-0.067 0.942,-0.202 L -2.221,8.909 -1.346,7.855 -0.134,8.842 C -0.045,8.514 0,8.141 0,7.723 L 0,0 Z m 1.772,7.496 c 0,1.032 -0.143,1.877 -0.426,2.535 L 2.602,11.04 1.727,12.117 0.516,11.152 c -0.584,0.464 -1.361,0.696 -2.333,0.696 -1.286,0 -2.206,-0.352 -2.759,-1.055 -0.553,-0.702 -0.83,-1.629 -0.83,-2.781 l 0,-7.693 c 0,-0.553 0.049,-1.091 0.146,-1.615 0.097,-0.523 0.277,-0.99 0.539,-1.402 0.261,-0.411 0.624,-0.74 1.087,-0.987 0.463,-0.246 1.069,-0.37 1.817,-0.37 0.777,0 1.402,0.109 1.873,0.325 0.471,0.217 0.834,0.52 1.088,0.909 0.254,0.389 0.422,0.845 0.504,1.368 0.082,0.524 0.124,1.099 0.124,1.727 l 0,7.222 z" />
    </g>
    <g
       transform="matrix(0.98689753,0,0,0.98689753,432.93941,504.62532)"
       id="g332">
      <path
         inkscape:connector-curvature="0"
         id="path334"
         style="fill:#333132;fill-opacity:1;fill-rule:nonzero;stroke:none"
         d="m 0,0 0,11.394 c 0,1.391 -0.269,2.464 -0.807,3.219 -0.539,0.755 -1.466,1.132 -2.782,1.132 -1.286,0 -2.206,-0.351 -2.759,-1.054 -0.553,-0.703 -0.829,-1.629 -0.829,-2.781 l 0,-11.91 1.772,0 0,11.913 c 0,0.225 0.022,0.463 0.067,0.717 0.045,0.254 0.134,0.493 0.269,0.717 0.135,0.224 0.317,0.407 0.55,0.548 0.231,0.142 0.534,0.213 0.908,0.213 0.374,0 0.68,-0.075 0.919,-0.224 0.239,-0.149 0.427,-0.339 0.561,-0.571 0.135,-0.231 0.228,-0.496 0.281,-0.795 0.052,-0.299 0.078,-0.605 0.078,-0.918 L -1.772,0 0,0 Z" />
    </g>
    <g
       transform="matrix(0.98689753,0,0,0.98689753,439.18154,507.76859)"
       id="g336">
      <path
         inkscape:connector-curvature="0"
         id="path338"
         style="fill:#333132;fill-opacity:1;fill-rule:nonzero;stroke:none"
         d="m 0,0 -0.65,3.634 -0.741,3.655 2.871,0 L 0.718,3.589 0.09,0 0,0 Z m 2.512,12.403 -0.718,-3.476 -3.476,0 -0.695,3.476 -1.705,0 3.319,-15.61 1.66,0 3.365,15.61 -1.75,0 z" />
    </g>
    <g
       transform="matrix(0.98689753,0,0,0.98689753,451.00822,508.45054)"
       id="g340">
      <path
         inkscape:connector-curvature="0"
         id="path342"
         style="fill:#333132;fill-opacity:1;fill-rule:nonzero;stroke:none"
         d="m 0,0 c 0,-0.701 -0.15,-1.254 -0.449,-1.657 -0.299,-0.403 -0.83,-0.604 -1.592,-0.604 l -1.593,0 0,12.336 1.593,0 c 0.733,0 1.256,-0.201 1.57,-0.605 C -0.157,9.068 0,8.493 0,7.747 L 0,0 Z m -1.783,-3.898 c 0.924,0 1.654,0.16 2.191,0.482 0.537,0.322 0.909,0.863 1.118,1.626 0.164,0.628 0.246,1.406 0.246,2.333 l 0,3.342 0,3.263 c 0,0.89 -0.097,1.641 -0.291,2.254 -0.283,0.883 -0.734,1.488 -1.353,1.817 -0.618,0.329 -1.323,0.493 -2.112,0.493 l -3.422,0 0,-15.61 3.623,0 z" />
    </g>
    <path
       inkscape:connector-curvature="0"
       id="path344"
       style="fill:#333132;fill-opacity:1;fill-rule:nonzero;stroke:none"
       d="m 406.55866,526.12351 1.74879,0 0,15.40646 -1.74879,0 0,-15.40646 z" />
    <g
       transform="matrix(0.98689753,0,0,0.98689753,412.83838,530.99354)"
       id="g346">
      <path
         inkscape:connector-curvature="0"
         id="path348"
         style="fill:#333132;fill-opacity:1;fill-rule:nonzero;stroke:none"
         d="m 0,0 0,10.676 -1.772,0 0,-15.61 1.683,0 3.229,7.917 1.077,2.849 0.089,-0.023 0,-10.743 1.772,0 0,15.61 -1.659,0 L 1.189,2.826 0.068,0 0,0 Z" />
    </g>
    <g
       transform="matrix(0.98689753,0,0,0.98689753,430.08185,527.73965)"
       id="g350">
      <path
         inkscape:connector-curvature="0"
         id="path352"
         style="fill:#333132;fill-opacity:1;fill-rule:nonzero;stroke:none"
         d="m 0,0 0,13.973 -1.772,0 0,-13.973 -2.646,0 0,-1.637 7.065,0 L 2.647,0 0,0 Z" />
    </g>
    <g
       transform="matrix(0.98689753,0,0,0.98689753,440.00264,529.98908)"
       id="g354">
      <path
         inkscape:connector-curvature="0"
         id="path356"
         style="fill:#333132;fill-opacity:1;fill-rule:nonzero;stroke:none"
         d="m 0,0 c 0,-0.268 -0.019,-0.544 -0.056,-0.827 -0.038,-0.283 -0.116,-0.54 -0.235,-0.771 -0.12,-0.231 -0.303,-0.425 -0.55,-0.581 -0.247,-0.156 -0.572,-0.235 -0.976,-0.235 -0.448,0 -0.793,0.108 -1.032,0.324 -0.239,0.216 -0.418,0.473 -0.538,0.771 -0.119,0.298 -0.191,0.615 -0.213,0.95 -0.022,0.335 -0.034,0.615 -0.034,0.838 l 0,7.554 c 0,0.224 0.023,0.463 0.068,0.716 0.045,0.253 0.134,0.491 0.269,0.715 0.134,0.224 0.317,0.406 0.549,0.547 0.232,0.142 0.535,0.213 0.909,0.213 0.373,0 0.68,-0.075 0.92,-0.224 0.238,-0.148 0.426,-0.338 0.56,-0.569 C -0.224,9.19 -0.131,8.925 -0.079,8.627 -0.026,8.329 0,8.024 0,7.71 L 0,0 Z m 1.772,7.5 c 0,1.39 -0.273,2.464 -0.819,3.218 -0.546,0.756 -1.477,1.133 -2.792,1.133 -1.287,0 -2.202,-0.351 -2.748,-1.054 -0.546,-0.703 -0.818,-1.63 -0.818,-2.781 l 0,-7.694 c 0,-0.553 0.048,-1.091 0.145,-1.614 0.097,-0.524 0.277,-0.991 0.539,-1.402 0.261,-0.411 0.624,-0.74 1.087,-0.987 0.464,-0.247 1.069,-0.37 1.817,-0.37 0.778,0 1.402,0.108 1.873,0.325 0.471,0.217 0.834,0.52 1.088,0.908 0.254,0.389 0.422,0.845 0.505,1.369 0.081,0.523 0.123,1.099 0.123,1.727 l 0,7.222 z" />
    </g>
    <g
       transform="matrix(0.98689753,0,0,0.98689753,451.48164,526.14581)"
       id="g358">
      <path
         inkscape:connector-curvature="0"
         id="path360"
         style="fill:#333132;fill-opacity:1;fill-rule:nonzero;stroke:none"
         d="m 0,0 0,11.394 c 0,1.391 -0.269,2.464 -0.807,3.219 -0.539,0.755 -1.466,1.132 -2.782,1.132 -1.286,0 -2.205,-0.351 -2.758,-1.054 -0.554,-0.703 -0.83,-1.629 -0.83,-2.781 l 0,-11.91 1.772,0 0,11.913 c 0,0.225 0.022,0.463 0.067,0.717 0.045,0.254 0.135,0.493 0.269,0.717 0.135,0.224 0.318,0.407 0.55,0.548 0.231,0.142 0.534,0.213 0.908,0.213 0.374,0 0.68,-0.075 0.92,-0.224 0.238,-0.149 0.426,-0.339 0.56,-0.571 0.135,-0.231 0.228,-0.496 0.281,-0.795 0.052,-0.299 0.078,-0.605 0.078,-0.918 L -1.772,0 0,0 Z" />
    </g>
    <g
       transform="matrix(0.98689753,0,0,0.98689753,457.58895,525.99096)"
       id="g362">
      <path
         inkscape:connector-curvature="0"
         id="path364"
         style="fill:#333132;fill-opacity:1;fill-rule:nonzero;stroke:none"
         d="M 0,0 C 1.211,0 2.089,0.329 2.635,0.987 3.181,1.645 3.454,2.505 3.454,3.566 L 1.682,3.88 C 1.697,3.193 1.573,2.647 1.312,2.243 1.05,1.839 0.605,1.637 -0.022,1.637 c -0.36,0 -0.651,0.083 -0.875,0.247 -0.225,0.165 -0.4,0.37 -0.527,0.617 -0.127,0.247 -0.213,0.52 -0.258,0.818 -0.045,0.3 -0.068,0.584 -0.068,0.853 l 0,7.873 c 0,0.224 0.023,0.467 0.068,0.728 0.045,0.262 0.131,0.502 0.258,0.718 0.127,0.217 0.298,0.4 0.516,0.55 0.216,0.149 0.504,0.224 0.863,0.224 0.583,0 1.013,-0.179 1.29,-0.538 0.276,-0.359 0.422,-0.927 0.437,-1.705 l 1.817,0.314 C 3.469,13.458 3.166,14.332 2.59,14.96 2.014,15.588 1.151,15.902 0,15.902 c -1.182,0 -2.064,-0.328 -2.647,-0.987 -0.583,-0.657 -0.875,-1.584 -0.875,-2.781 l 0,-7.715 c 0,-0.553 0.049,-1.096 0.146,-1.627 0.097,-0.53 0.273,-1.001 0.527,-1.413 C -2.594,0.968 -2.236,0.636 -1.772,0.381 -1.309,0.127 -0.718,0 0,0" />
    </g>
    <g
       transform="matrix(0.98689753,0,0,0.98689753,468.79112,541.52996)"
       id="g366">
      <path
         inkscape:connector-curvature="0"
         id="path368"
         style="fill:#333132;fill-opacity:1;fill-rule:nonzero;stroke:none"
         d="m 0,0 0,-7.2 -3.634,0 0,7.2 -1.771,0 0,-15.611 1.771,0 0,6.864 3.634,0 0,-6.864 1.772,0 L 1.772,0 0,0 Z" />
    </g>
  </g>
</svg>
